# Blender v3.5.0 OBJ File: 'WhitmanWilson_LevelAssignment.blend'
# www.blender.org
mtllib Collectible_Gear_Gear.mtl
o Collectible_Gear_Gear
v 5.320754 2.712641 -5.278461
v 5.313276 2.727136 -5.277682
v 5.304280 2.740528 -5.275158
v 5.293986 2.752486 -5.270954
v 5.360136 2.729911 -5.319241
v 5.348400 2.752661 -5.318017
v 5.334280 2.773680 -5.314058
v 5.318124 2.792448 -5.307458
v 5.367139 2.774613 -5.342803
v 5.353286 2.794683 -5.338702
v 5.337891 2.813050 -5.332603
v 5.360753 2.730787 -5.232149
v 5.353275 2.745282 -5.231369
v 5.344279 2.758673 -5.228847
v 5.333985 2.770632 -5.224642
v 5.400135 2.748057 -5.272928
v 5.388399 2.770807 -5.271706
v 5.374278 2.791826 -5.267745
v 5.358123 2.810594 -5.261146
v 5.407138 2.792759 -5.296491
v 5.393284 2.812829 -5.292389
v 5.377890 2.831195 -5.286290
v 5.282649 2.762716 -5.265171
v 5.270548 2.770967 -5.257952
v 5.257979 2.777035 -5.249475
v 5.245255 2.780771 -5.239948
v 5.300330 2.808505 -5.298382
v 5.281337 2.821455 -5.287052
v 5.261611 2.830978 -5.273746
v 5.241639 2.836841 -5.258795
v 5.282993 2.856336 -5.302149
v 5.263911 2.865154 -5.289124
v 5.244643 2.871200 -5.274851
v 5.322648 2.780862 -5.218859
v 5.310545 2.789113 -5.211639
v 5.297977 2.795181 -5.203162
v 5.285253 2.798916 -5.193635
v 5.340329 2.826651 -5.252069
v 5.321335 2.839601 -5.240738
v 5.301610 2.849124 -5.227434
v 5.281638 2.854987 -5.212481
v 5.322992 2.874482 -5.255836
v 5.303910 2.883299 -5.242811
v 5.284642 2.889346 -5.228539
v 5.232686 2.782082 -5.229607
v 5.220582 2.780937 -5.218705
v 5.209244 2.777363 -5.207511
v 5.198947 2.771449 -5.196301
v 5.221911 2.838899 -5.242564
v 5.202916 2.837102 -5.225452
v 5.185120 2.831493 -5.207885
v 5.168960 2.822211 -5.190291
v 5.186857 2.871589 -5.225096
v 5.169836 2.865787 -5.208122
v 5.154054 2.857204 -5.191128
v 5.272685 2.800228 -5.183294
v 5.260581 2.799082 -5.172393
v 5.249243 2.795509 -5.161199
v 5.238946 2.789595 -5.149990
v 5.261910 2.857045 -5.196250
v 5.242915 2.855248 -5.179141
v 5.225118 2.849639 -5.161572
v 5.208959 2.840357 -5.143979
v 5.226856 2.889735 -5.178783
v 5.209835 2.883932 -5.161808
v 5.194052 2.875349 -5.144815
v 5.189948 2.763340 -5.185353
v 5.182467 2.753236 -5.174932
v 5.176688 2.741386 -5.165298
v 5.172754 2.728082 -5.156688
v 5.154835 2.809484 -5.173106
v 5.143093 2.793626 -5.156751
v 5.134023 2.775027 -5.141631
v 5.127848 2.754145 -5.128116
v 5.115453 2.814546 -5.141076
v 5.106993 2.796340 -5.126636
v 5.100725 2.776406 -5.113411
v 5.229947 2.781486 -5.139040
v 5.222466 2.771382 -5.128620
v 5.216687 2.759532 -5.118986
v 5.212753 2.746227 -5.110374
v 5.194834 2.827630 -5.126793
v 5.183092 2.811772 -5.110439
v 5.174022 2.793173 -5.095318
v 5.167847 2.772291 -5.081803
v 5.155451 2.832692 -5.094763
v 5.146992 2.814486 -5.080324
v 5.140724 2.794552 -5.067100
v 5.170761 2.713650 -5.149312
v 5.170759 2.698447 -5.143353
v 5.172748 2.682847 -5.138958
v 5.176678 2.667233 -5.136236
v 5.124720 2.731495 -5.116539
v 5.124717 2.707634 -5.107188
v 5.127838 2.683149 -5.100290
v 5.134007 2.658644 -5.096015
v 5.096053 2.706996 -5.082181
v 5.099386 2.683340 -5.075792
v 5.105027 2.659669 -5.071389
v 5.210760 2.731796 -5.103000
v 5.210758 2.716593 -5.097041
v 5.212746 2.700992 -5.092646
v 5.216677 2.685379 -5.089922
v 5.164719 2.749641 -5.070227
v 5.164716 2.725779 -5.060874
v 5.167837 2.701295 -5.053977
v 5.174005 2.676789 -5.049704
v 5.136051 2.725142 -5.035869
v 5.139385 2.701486 -5.029480
v 5.145026 2.677815 -5.025076
v 5.182453 2.651991 -5.135251
v 5.189930 2.637496 -5.136030
v 5.198926 2.624105 -5.138553
v 5.209220 2.612146 -5.142757
v 5.143071 2.634721 -5.094471
v 5.154807 2.611971 -5.095694
v 5.168928 2.590952 -5.099654
v 5.185082 2.572184 -5.106254
v 5.136067 2.590019 -5.070909
v 5.149921 2.569949 -5.075010
v 5.165316 2.551583 -5.081110
v 5.222452 2.670137 -5.088939
v 5.229929 2.655642 -5.089717
v 5.238925 2.642250 -5.092241
v 5.249219 2.630292 -5.096446
v 5.183070 2.652867 -5.048159
v 5.194806 2.630117 -5.049382
v 5.208926 2.609098 -5.053341
v 5.225081 2.590330 -5.059941
v 5.176066 2.608165 -5.024596
v 5.189919 2.588095 -5.028697
v 5.205315 2.569728 -5.034797
v 5.220558 2.601916 -5.148540
v 5.232660 2.593665 -5.155760
v 5.245228 2.587597 -5.164237
v 5.257953 2.583862 -5.173764
v 5.202877 2.556127 -5.115330
v 5.221870 2.543177 -5.126661
v 5.241596 2.533654 -5.139966
v 5.261568 2.527791 -5.154918
v 5.220213 2.508296 -5.111563
v 5.239295 2.499479 -5.124588
v 5.258564 2.493432 -5.138861
v 5.260557 2.620062 -5.102229
v 5.272657 2.611811 -5.109447
v 5.285226 2.605743 -5.117925
v 5.297951 2.602007 -5.127451
v 5.242876 2.574273 -5.069017
v 5.261868 2.561323 -5.080348
v 5.281595 2.551800 -5.093653
v 5.301567 2.545937 -5.108604
v 5.260212 2.526442 -5.065250
v 5.279294 2.517624 -5.078276
v 5.298563 2.511578 -5.092548
v 5.270521 2.582550 -5.184105
v 5.282624 2.583696 -5.195006
v 5.293962 2.587269 -5.206201
v 5.304259 2.593183 -5.217410
v 5.281295 2.525733 -5.171149
v 5.300291 2.527530 -5.188259
v 5.318088 2.533139 -5.205827
v 5.334247 2.542421 -5.223421
v 5.316350 2.493043 -5.188616
v 5.333371 2.498846 -5.205591
v 5.349154 2.507429 -5.222584
v 5.310520 2.600696 -5.137793
v 5.322623 2.601841 -5.148695
v 5.333961 2.605415 -5.159888
v 5.344258 2.611329 -5.171098
v 5.321294 2.543879 -5.124835
v 5.340290 2.545676 -5.141947
v 5.358086 2.551285 -5.159514
v 5.374246 2.560567 -5.177108
v 5.356349 2.511189 -5.142303
v 5.373370 2.516991 -5.159277
v 5.389152 2.525574 -5.176271
v 5.313259 2.601292 -5.228360
v 5.320740 2.611396 -5.238780
v 5.326519 2.623246 -5.248414
v 5.330452 2.636551 -5.257025
v 5.348372 2.555148 -5.240606
v 5.360114 2.571006 -5.256960
v 5.369184 2.589605 -5.272081
v 5.375359 2.610487 -5.285596
v 5.387754 2.550086 -5.272636
v 5.396214 2.568292 -5.287076
v 5.402482 2.588226 -5.300300
v 5.353258 2.619438 -5.182046
v 5.360739 2.629542 -5.192468
v 5.366518 2.641392 -5.202102
v 5.370451 2.654696 -5.210711
v 5.388371 2.573294 -5.194293
v 5.400113 2.589152 -5.210649
v 5.409183 2.607751 -5.225769
v 5.415358 2.628633 -5.239284
v 5.427752 2.568232 -5.226324
v 5.436213 2.586438 -5.240764
v 5.442481 2.606372 -5.253988
v 5.332446 2.650982 -5.264400
v 5.332448 2.666185 -5.270359
v 5.330460 2.681786 -5.274754
v 5.326529 2.697399 -5.277477
v 5.378487 2.633137 -5.297173
v 5.378489 2.656999 -5.306525
v 5.375369 2.681483 -5.313422
v 5.369201 2.705989 -5.317696
v 5.407155 2.657636 -5.331531
v 5.403821 2.681292 -5.337920
v 5.398180 2.704963 -5.342323
v 5.372445 2.669128 -5.218088
v 5.372447 2.684331 -5.224046
v 5.370458 2.699931 -5.228441
v 5.366528 2.715545 -5.231164
v 5.418486 2.651283 -5.250860
v 5.418489 2.675144 -5.260211
v 5.415368 2.699629 -5.267109
v 5.409199 2.724134 -5.271384
v 5.447153 2.675782 -5.285218
v 5.443820 2.699438 -5.291607
v 5.438179 2.723109 -5.296010
vn -0.6267 -0.2843 -0.7256
vn 0.6267 0.2843 0.7256
vn -0.6551 -0.3122 0.6881
vn 0.2983 0.7726 -0.5604
vn 0.1820 0.8519 -0.4910
vn -0.6736 -0.2705 0.6878
vn 0.3147 0.7595 -0.5694
vn 0.6645 0.2914 -0.6881
vn 0.6305 0.3622 -0.6865
vn 0.7199 -0.5676 -0.3994
vn 0.7577 -0.4398 -0.4821
vn 0.5417 0.5104 -0.6679
vn 0.5062 0.5594 -0.6564
vn 0.4688 0.6063 -0.6424
vn -0.7199 0.5676 0.3994
vn -0.7577 0.4398 0.4821
vn -0.6645 -0.2914 0.6881
vn -0.5927 -0.4307 0.6806
vn 0.7578 -0.0051 -0.6525
vn 0.7200 0.1449 -0.6787
vn 0.4071 -0.9134 0.0063
vn 0.5060 -0.8565 -0.1014
vn 0.2409 0.8148 -0.5273
vn 0.1090 0.8900 -0.4428
vn 0.0613 0.9102 -0.4095
vn 0.0133 0.9270 -0.3747
vn -0.5062 -0.5594 0.6564
vn -0.4073 -0.6743 0.6160
vn 0.3539 0.7257 -0.5900
vn -0.6266 -0.2843 -0.7256
vn 0.5808 -0.7912 -0.1916
vn 0.5927 0.4307 -0.6806
vn -0.5060 0.8565 0.1014
vn -0.5925 0.7786 0.2066
vn 0.6039 -0.7657 -0.2216
vn 0.7769 -0.3011 -0.5530
vn -0.1818 0.9587 -0.2186
vn -0.2407 0.9562 -0.1668
vn 0.7781 -0.2803 -0.5622
vn -0.3654 0.9296 -0.0486
vn -0.4071 0.9134 -0.0063
vn -0.4472 0.8937 0.0361
vn -0.1218 0.9554 -0.2691
vn -0.6304 0.7323 0.2575
vn 0.1645 -0.9584 0.2334
vn -0.2981 0.9477 -0.1139
vn -0.7002 0.6141 0.3641
vn -0.7199 0.5677 0.3994
vn -0.7369 0.5190 0.4331
vn 0.5925 -0.7786 -0.2066
vn 0.6644 -0.6815 -0.3068
vn -0.5510 0.8201 0.1545
vn 0.2818 0.7854 -0.5511
vn -0.1821 -0.8519 0.4910
vn -0.0613 -0.9102 0.4096
vn -0.1990 0.9586 -0.2037
vn -0.7769 0.3011 0.5530
vn -0.7793 0.2287 0.5834
vn 0.7753 -0.3218 -0.5435
vn -0.7675 0.0641 0.6378
vn -0.7578 0.0051 0.6525
vn -0.7452 -0.0539 0.6647
vn -0.7781 0.2803 0.5622
vn -0.7697 0.3716 0.5191
vn -0.6644 0.6815 0.3068
vn 0.0610 -0.9461 0.3180
vn -0.1645 0.9584 -0.2334
vn 0.4073 0.6743 -0.6160
vn -0.6305 -0.3622 0.6865
vn -0.7753 0.3218 0.5435
vn -0.2983 -0.7726 0.5604
vn -0.5417 -0.5104 0.6679
vn -0.4688 -0.6063 0.6424
vn -0.6944 -0.2189 0.6855
vn -0.3147 -0.7595 0.5694
vn -0.2819 -0.7854 0.5511
vn 0.6551 0.3121 -0.6881
vn -0.7200 -0.1449 0.6786
vn -0.2409 -0.8148 0.5273
vn -0.0610 0.9461 -0.3180
vn -0.1090 -0.8900 0.4428
vn -0.0133 -0.9270 0.3747
vn -0.3539 -0.7257 0.5900
vn -0.6039 0.7657 0.2216
vn 0.1818 -0.9587 0.2186
vn 0.2407 -0.9562 0.1668
vn 0.3654 -0.9296 0.0486
vn 0.4472 -0.8937 -0.0361
vn 0.1990 -0.9586 0.2037
vn 0.2981 -0.9477 0.1139
vn 0.1218 -0.9554 0.2692
vn 0.6736 0.2705 -0.6878
vn 0.0613 0.9102 -0.4096
vn 0.7769 -0.1550 -0.6102
vn 0.6304 -0.7323 -0.2575
vn -0.7769 0.1550 0.6102
vn 0.7002 -0.6141 -0.3641
vn 0.7369 -0.5190 -0.4331
vn 0.5510 -0.8201 -0.1545
vn -0.5808 0.7912 0.1916
vn 0.7793 -0.2288 -0.5834
vn 0.7675 -0.0641 -0.6378
vn 0.7452 0.0539 -0.6647
vn 0.7697 -0.3716 -0.5191
vn 0.6944 0.2189 -0.6855
usemtl Orange.003
s 1
f 5//1 1//1 2//1 6//1
f 6//1 2//1 3//1 7//1
f 7//1 3//1 4//1 8//1
f 87//2 88//2 85//2 84//2
f 160//3 163//3 174//3 171//3
f 133//4 144//4 145//5 134//5
f 12//2 16//2 17//2 13//2
f 13//2 17//2 18//2 14//2
f 14//2 18//2 19//2 15//2
f 55//6 52//6 63//6 66//6
f 187//7 184//7 195//7 198//7
f 16//8 5//8 6//9 17//9
f 141//1 138//1 139//1 142//1
f 69//10 80//10 81//11 70//11
f 20//12 9//12 10//13 21//13
f 21//13 10//13 11//14 22//14
f 127//2 130//2 131//2 128//2
f 179//15 190//15 191//16 180//16
f 27//1 23//1 24//1 28//1
f 28//1 24//1 25//1 29//1
f 29//1 25//1 26//1 30//1
f 186//1 183//1 184//1 187//1
f 163//1 160//1 161//1 164//1
f 1//17 12//17 13//18 2//18
f 34//2 38//2 39//2 35//2
f 35//2 39//2 40//2 36//2
f 36//2 40//2 41//2 37//2
f 197//2 198//2 195//2 194//2
f 185//1 182//1 183//1 186//1
f 91//19 102//19 103//20 92//20
f 47//21 58//21 59//22 48//22
f 38//4 27//4 28//23 39//23
f 9//1 6//1 7//1 10//1
f 42//24 31//24 32//25 43//25
f 43//25 32//25 33//26 44//26
f 76//1 73//1 74//1 77//1
f 3//27 14//27 15//28 4//28
f 4//1 23//1 27//1 8//1
f 8//29 27//4 38//4 19//29
f 19//2 38//2 34//2 15//2
f 49//1 45//1 46//1 50//1
f 50//1 46//1 47//1 51//1
f 51//1 47//1 48//30 52//30
f 118//31 129//31 132//31 121//31
f 98//1 95//1 96//1 99//1
f 111//8 122//8 123//32 112//32
f 158//33 169//33 188//34 177//34
f 56//2 60//2 61//2 57//2
f 57//2 61//2 62//2 58//2
f 58//2 62//2 63//2 59//2
f 142//1 139//1 140//1 143//1
f 9//35 20//35 17//35 6//35
f 70//11 81//11 100//36 89//36
f 60//37 49//37 50//38 61//38
f 28//39 31//39 42//39 39//39
f 64//40 53//40 54//41 65//41
f 65//41 54//41 55//42 66//42
f 219//2 220//2 217//2 216//2
f 26//1 45//1 49//1 30//1
f 30//43 49//37 60//37 41//43
f 41//2 60//2 56//2 37//2
f 71//1 67//1 68//1 72//1
f 72//1 68//1 69//1 73//1
f 73//1 69//1 70//1 74//1
f 86//2 87//2 84//2 83//2
f 32//1 29//1 30//1 33//1
f 2//18 13//18 14//27 3//27
f 78//2 82//2 83//2 79//2
f 79//2 83//2 84//2 80//2
f 80//2 84//2 85//2 81//2
f 106//2 109//2 110//2 107//2
f 105//2 108//2 109//2 106//2
f 82//34 71//34 72//44 83//44
f 99//45 96//45 107//45 110//45
f 156//46 167//46 168//41 157//41
f 86//47 75//47 76//48 87//48
f 87//48 76//48 77//49 88//49
f 174//2 175//2 172//2 171//2
f 67//50 78//50 79//51 68//51
f 48//30 67//1 71//1 52//30
f 52//52 71//34 82//34 63//52
f 63//2 82//2 78//2 59//2
f 93//1 89//1 90//1 94//1
f 94//1 90//1 91//1 95//1
f 95//1 91//1 92//1 96//1
f 164//1 161//1 162//1 165//1
f 72//53 75//53 86//53 83//53
f 24//54 35//54 36//55 25//55
f 157//41 168//41 169//33 158//33
f 100//2 104//2 105//2 101//2
f 101//2 105//2 106//2 102//2
f 102//2 106//2 107//2 103//2
f 94//56 97//56 108//56 105//56
f 172//2 175//2 176//2 173//2
f 104//57 93//57 94//58 105//58
f 143//59 140//59 151//59 154//59
f 108//60 97//60 98//61 109//61
f 109//61 98//61 99//62 110//62
f 138//63 141//63 152//63 149//63
f 155//37 166//37 167//46 156//46
f 70//1 89//1 93//1 74//1
f 74//64 93//57 104//57 85//64
f 85//2 104//2 100//2 81//2
f 115//1 111//1 112//1 116//1
f 116//1 112//1 113//1 117//1
f 117//1 113//1 114//1 118//1
f 54//1 51//1 52//30 55//1
f 97//1 94//1 95//1 98//1
f 177//34 188//34 189//65 178//65
f 25//55 36//55 37//66 26//66
f 122//2 126//2 127//2 123//2
f 123//2 127//2 128//2 124//2
f 124//2 128//2 129//2 125//2
f 119//30 116//1 117//1 120//1
f 206//67 217//67 220//67 209//67
f 178//65 189//65 190//15 179//15
f 113//13 124//13 125//68 114//68
f 126//17 115//17 116//69 127//69
f 33//70 30//70 41//70 44//70
f 4//28 15//28 34//71 23//71
f 130//72 119//72 120//27 131//27
f 131//27 120//27 121//73 132//73
f 42//2 43//2 40//2 39//2
f 92//20 103//20 122//8 111//8
f 92//1 111//1 115//1 96//1
f 96//74 115//17 126//17 107//74
f 107//2 126//2 122//2 103//2
f 137//1 133//1 134//1 138//1
f 138//1 134//1 135//1 139//1
f 139//1 135//1 136//1 140//1
f 77//75 74//75 85//75 88//75
f 31//1 28//1 29//1 32//1
f 68//51 79//51 80//10 69//10
f 144//2 148//2 149//2 145//2
f 145//2 149//2 150//2 146//2
f 146//2 150//2 151//2 147//2
f 182//76 185//76 196//76 193//76
f 53//77 64//77 61//77 50//77
f 201//61 212//61 213//78 202//78
f 148//71 137//71 138//79 149//79
f 215//2 218//2 219//2 216//2
f 136//80 147//80 166//37 155//37
f 152//81 141//81 142//55 153//55
f 153//55 142//55 143//82 154//82
f 18//2 21//2 22//2 19//2
f 114//1 133//1 137//1 118//1
f 118//83 137//71 148//71 129//83
f 129//2 148//2 144//2 125//2
f 159//30 155//30 156//30 160//1
f 160//1 156//30 157//1 161//1
f 161//1 157//1 158//1 162//1
f 152//2 153//2 150//2 149//2
f 116//84 119//84 130//84 127//84
f 202//78 213//78 12//17 1//17
f 23//71 34//71 35//54 24//54
f 166//2 170//2 171//2 167//2
f 167//2 171//2 172//2 168//2
f 168//2 172//2 173//2 169//2
f 40//2 43//2 44//2 41//2
f 150//2 153//2 154//2 151//2
f 48//22 59//22 78//50 67//50
f 170//85 159//85 160//86 171//86
f 131//2 132//2 129//2 128//2
f 114//68 125//68 144//4 133//4
f 174//87 163//87 164//21 175//21
f 175//21 164//21 165//88 176//88
f 207//89 218//89 215//89 204//89
f 45//85 56//85 57//90 46//90
f 136//1 155//30 159//30 140//1
f 140//91 159//85 170//85 151//91
f 151//2 170//2 166//2 147//2
f 181//1 177//1 178//1 182//1
f 182//1 178//1 179//1 183//1
f 183//1 179//1 180//1 184//1
f 162//92 173//92 176//92 165//92
f 17//2 20//2 21//2 18//2
f 46//90 57//90 58//21 47//21
f 188//2 192//2 193//2 189//2
f 189//2 193//2 194//2 190//2
f 190//2 194//2 195//2 191//2
f 10//1 7//1 8//1 11//1
f 208//1 205//1 206//1 209//1
f 134//5 145//5 146//93 135//93
f 90//94 101//94 102//19 91//19
f 192//50 181//50 182//95 193//95
f 199//57 210//57 211//96 200//96
f 200//96 211//96 212//61 201//61
f 196//97 185//97 186//10 197//10
f 197//10 186//10 187//98 198//98
f 207//1 204//1 205//1 208//1
f 158//1 177//1 181//1 162//1
f 162//99 181//50 192//50 173//99
f 173//2 192//2 188//2 169//2
f 203//1 199//1 200//1 204//1
f 204//1 200//1 201//1 205//1
f 205//1 201//1 202//1 206//1
f 61//2 64//2 65//2 62//2
f 62//2 65//2 66//2 63//2
f 89//36 100//36 101//94 90//94
f 210//2 214//2 215//2 211//2
f 211//2 215//2 216//2 212//2
f 212//2 216//2 217//2 213//2
f 196//2 197//2 194//2 193//2
f 11//100 8//100 19//100 22//100
f 135//93 146//93 147//80 136//80
f 180//16 191//16 210//57 199//57
f 214//36 203//36 204//101 215//101
f 120//1 117//1 118//1 121//1
f 26//66 37//66 56//85 45//85
f 218//102 207//102 208//19 219//19
f 219//19 208//19 209//103 220//103
f 53//1 50//1 51//1 54//1
f 112//32 123//32 124//13 113//13
f 180//1 199//1 203//1 184//1
f 184//104 203//36 214//36 195//104
f 195//2 214//2 210//2 191//2
f 202//1 1//1 5//1 206//1
f 206//105 5//8 16//8 217//105
f 217//2 16//2 12//2 213//2
f 75//1 72//1 73//1 76//1
