# Blender v3.5.0 OBJ File: 'WhitmanWilson_LevelAssignment.blend'
# www.blender.org
mtllib Collectible_Board_Cube_002.mtl
o Collectible_Board_Cube.002
v 0.387605 0.487502 -6.461881
v 0.484872 0.592612 -6.461881
v 0.387605 0.487502 -6.496439
v 0.484872 0.592612 -6.496439
v 0.621001 0.321147 -6.463933
v 0.691144 0.396946 -6.463933
v 0.621001 0.321147 -6.494387
v 0.691144 0.396946 -6.494387
v 0.479581 0.402389 -6.496439
v 0.586167 0.498875 -6.496439
v 0.479581 0.402389 -6.461881
v 0.586167 0.498875 -6.461881
v 0.621302 0.466361 -6.496439
v 0.537069 0.394031 -6.461881
v 0.537069 0.394031 -6.496439
v 0.621302 0.466361 -6.461881
v 0.343567 0.446866 -6.455770
v 0.503983 0.620217 -6.455770
v 0.343567 0.446866 -6.502550
v 0.503983 0.620217 -6.502550
v 0.337173 0.452783 -6.502550
v 0.337173 0.452783 -6.455770
v 0.497589 0.626133 -6.455770
v 0.497589 0.626133 -6.502550
v 0.399711 0.488049 -6.466877
v 0.399711 0.488049 -6.491443
v 0.615359 0.330626 -6.466877
v 0.615359 0.330626 -6.491443
v 0.486138 0.408071 -6.491443
v 0.486138 0.408071 -6.466877
v 0.540157 0.400217 -6.466877
v 0.540157 0.400217 -6.491443
v 0.374696 0.461018 -6.491443
v 0.374696 0.461018 -6.466877
v 0.461123 0.381039 -6.491443
v 0.590344 0.303595 -6.466877
v 0.590344 0.303595 -6.491443
v 0.515143 0.373185 -6.466877
v 0.515143 0.373185 -6.491443
v 0.461123 0.381039 -6.466877
v 0.441827 0.546096 -6.461881
v 0.441827 0.546096 -6.496439
v 0.650840 0.353392 -6.494387
v 0.650840 0.353392 -6.463933
v 0.533803 0.460983 -6.461881
v 0.533803 0.460983 -6.496439
v 0.568938 0.428469 -6.461881
v 0.568938 0.428469 -6.496439
v 0.453432 0.558637 -6.461881
v 0.453432 0.558637 -6.496439
v 0.661706 0.365135 -6.494387
v 0.661706 0.365135 -6.463933
v 0.554727 0.464900 -6.461881
v 0.554727 0.464900 -6.496439
v 0.589862 0.432386 -6.461881
v 0.589862 0.432386 -6.496439
v 0.489752 0.400910 -6.496439
v 0.592383 0.493123 -6.461881
v 0.592383 0.493123 -6.496439
v 0.489752 0.400910 -6.461881
v 0.540019 0.455230 -6.496439
v 0.540019 0.455230 -6.461881
v 0.560943 0.459148 -6.496439
v 0.560943 0.459148 -6.461881
v 0.626430 0.461616 -6.496439
v 0.542873 0.388660 -6.461881
v 0.542873 0.388660 -6.496439
v 0.626430 0.461616 -6.461881
v 0.574742 0.423099 -6.461881
v 0.574742 0.423099 -6.496439
v 0.594990 0.427641 -6.461881
v 0.594990 0.427641 -6.496439
v 0.657061 0.433271 -6.496439
v 0.582147 0.352317 -6.461881
v 0.614016 0.386755 -6.496439
v 0.625621 0.399296 -6.496439
v 0.582147 0.352317 -6.496439
v 0.657061 0.433271 -6.461881
v 0.614016 0.386755 -6.461881
v 0.625621 0.399296 -6.461881
v 0.655548 0.429887 -6.494387
v 0.585404 0.354087 -6.463933
v 0.615243 0.386333 -6.494387
v 0.626110 0.398075 -6.494387
v 0.585404 0.354087 -6.494387
v 0.655548 0.429887 -6.463933
v 0.615243 0.386333 -6.463933
v 0.626110 0.398075 -6.463933
v 0.346180 0.453151 -6.459663
v 0.497920 0.617126 -6.459663
v 0.346180 0.453151 -6.498657
v 0.497920 0.617126 -6.498657
v 0.365597 0.435182 -6.498657
v 0.365597 0.435182 -6.459663
v 0.517337 0.599157 -6.459663
v 0.517337 0.599157 -6.498657
v 0.473791 0.419496 -6.491443
v 0.461444 0.430922 -6.491443
v 0.449097 0.442347 -6.491443
v 0.436751 0.453773 -6.491443
v 0.424404 0.465198 -6.491443
v 0.412057 0.476624 -6.491443
v 0.412057 0.476624 -6.466877
v 0.424404 0.465198 -6.466877
v 0.436751 0.453773 -6.466877
v 0.449097 0.442347 -6.466877
v 0.461444 0.430922 -6.466877
v 0.473791 0.419496 -6.466877
v 0.448776 0.392465 -6.491443
v 0.436430 0.403890 -6.491443
v 0.424083 0.415316 -6.491443
v 0.411736 0.426741 -6.491443
v 0.399390 0.438167 -6.491443
v 0.387043 0.449592 -6.491443
v 0.387043 0.449592 -6.466877
v 0.399389 0.438167 -6.466877
v 0.411736 0.426741 -6.466877
v 0.424083 0.415316 -6.466877
v 0.436430 0.403890 -6.466877
v 0.448776 0.392465 -6.466877
v 0.522151 0.402835 -6.491443
v 0.504144 0.405453 -6.491443
v 0.504144 0.405453 -6.466877
v 0.522151 0.402835 -6.466877
v 0.497136 0.375803 -6.491443
v 0.479130 0.378421 -6.491443
v 0.479130 0.378421 -6.466877
v 0.497136 0.375803 -6.466877
v 0.552691 0.388618 -6.466877
v 0.565224 0.377020 -6.466877
v 0.577758 0.365422 -6.466877
v 0.590292 0.353823 -6.466877
v 0.602825 0.342225 -6.466877
v 0.602825 0.342225 -6.491443
v 0.590292 0.353823 -6.491443
v 0.577758 0.365422 -6.491443
v 0.565224 0.377020 -6.491443
v 0.552691 0.388618 -6.491443
v 0.527676 0.361587 -6.466877
v 0.540210 0.349989 -6.466877
v 0.552744 0.338390 -6.466877
v 0.565277 0.326792 -6.466877
v 0.577811 0.315193 -6.466877
v 0.577811 0.315193 -6.491443
v 0.565277 0.326792 -6.491443
v 0.552744 0.338390 -6.491443
v 0.540210 0.349989 -6.491443
v 0.527676 0.361587 -6.491443
vn -0.0000 0.0000 -1.0000
vn 0.7340 -0.6792 0.0000
vn -0.6792 -0.7340 0.0000
vn -0.0000 0.0000 1.0000
vn 0.6792 0.7339 0.0000
vn -0.7340 0.6792 0.0000
vn -0.6792 -0.7339 0.0000
vn 0.6792 0.7340 0.0000
vn -0.1439 -0.9896 0.0000
vn 0.1439 0.9896 0.0000
vn 0.6352 -0.5878 0.5010
vn 0.9129 -0.4082 0.0000
vn 0.6352 -0.5878 0.5009
vn 0.6353 -0.5878 0.5009
vn 0.6353 -0.5878 -0.5009
vn 0.6352 -0.5878 -0.5009
vn 0.4775 -0.8786 0.0000
vn 0.6353 -0.5878 -0.5010
vn 0.0001 0.0000 1.0000
vn 0.6791 0.7340 0.0000
vn -0.7339 0.6792 0.0000
vn 0.7339 -0.6792 0.0000
usemtl DarkGrey.003
s off
f 84//1 81//1 8//1 51//1
f 51//2 8//2 6//2 52//2
f 85//3 7//3 5//3 82//3
f 129//4 31//4 38//4 139//4
f 7//2 43//2 44//2 5//2
f 85//1 83//1 43//1 7//1
f 43//2 51//2 52//2 44//2
f 83//1 84//1 51//1 43//1
f 44//4 52//4 88//4 87//4
f 5//4 44//4 87//4 82//4
f 8//5 81//5 86//5 6//5
f 52//4 6//4 86//4 88//4
f 89//6 90//6 92//6 91//6
f 94//2 93//2 96//2 95//2
f 92//5 90//5 95//5 96//5
f 89//7 91//7 93//7 94//7
f 91//1 92//1 96//1 93//1
f 90//4 89//4 94//4 95//4
f 102//1 101//1 113//1 114//1
f 100//1 99//1 111//1 112//1
f 98//1 97//1 109//1 110//1
f 108//4 107//4 119//4 120//4
f 106//4 105//4 117//4 118//4
f 104//4 103//4 115//4 116//4
f 114//3 113//3 116//3 115//3
f 112//3 111//3 118//3 117//3
f 110//3 109//3 120//3 119//3
f 102//8 103//8 104//8 101//8
f 100//5 105//5 106//5 99//5
f 98//8 107//8 108//8 97//8
f 122//1 121//1 125//1 126//1
f 124//4 123//4 127//4 128//4
f 126//9 125//9 128//9 127//9
f 122//10 123//10 124//10 121//10
f 32//1 138//1 148//1 39//1
f 137//1 136//1 146//1 147//1
f 135//1 134//1 144//1 145//1
f 133//4 132//4 142//4 143//4
f 131//4 130//4 140//4 141//4
f 39//3 148//3 139//3 38//3
f 147//7 146//7 141//7 140//7
f 145//7 144//7 143//7 142//7
f 32//5 31//5 129//5 138//5
f 137//8 130//8 131//8 136//8
f 135//5 132//5 133//5 134//5
usemtl Green
f 49//6 2//6 4//6 50//6
f 53//4 12//4 2//4 49//4
f 10//8 4//8 2//8 12//8
f 3//3 9//3 11//3 1//3
f 50//1 4//1 10//1 54//1
f 57//9 15//9 14//9 60//9
f 63//1 59//1 13//1 56//1
f 57//1 61//1 48//1 15//1
f 3//1 42//1 46//1 9//1
f 11//4 45//4 41//4 1//4
f 1//6 41//6 42//6 3//6
f 61//1 63//1 56//1 48//1
f 42//1 50//1 54//1 46//1
f 45//4 53//4 49//4 41//4
f 41//6 49//6 50//6 42//6
f 47//4 55//4 64//4 62//4
f 14//4 47//4 62//4 60//4
f 55//4 16//4 58//4 64//4
f 13//8 59//8 58//8 16//8
f 79//4 80//4 71//4 69//4
f 74//4 79//4 69//4 66//4
f 73//8 65//8 68//8 78//8
f 80//4 78//4 68//4 71//4
f 88//11 86//11 78//11 80//11
f 81//12 73//12 78//12 86//12
f 82//13 87//13 79//13 74//13
f 87//14 88//14 80//14 79//14
f 70//1 72//1 76//1 75//1
f 67//1 70//1 75//1 77//1
f 67//3 77//3 74//3 66//3
f 72//1 65//1 73//1 76//1
f 75//15 76//15 84//15 83//15
f 77//16 75//16 83//16 85//16
f 77//17 85//17 82//17 74//17
f 76//18 73//18 81//18 84//18
usemtl Grey.003
f 17//2 19//2 20//2 18//2
f 22//6 23//6 24//6 21//6
f 17//19 18//19 23//19 22//19
f 18//20 20//20 24//20 23//20
f 19//3 17//3 22//3 21//3
f 20//1 19//1 21//1 24//1
usemtl Gold
f 59//8 10//8 12//8 58//8
f 64//4 58//4 12//4 53//4
f 71//4 68//4 16//4 55//4
f 65//8 13//8 16//8 68//8
f 134//5 133//5 27//5 28//5
f 97//8 108//8 30//8 29//8
f 121//10 124//10 31//10 32//10
f 144//3 37//3 36//3 143//3
f 109//3 35//3 40//3 120//3
f 125//9 39//9 38//9 128//9
f 25//21 26//21 33//21 34//21
f 123//4 30//4 40//4 127//4
f 103//4 25//4 34//4 115//4
f 97//1 29//1 35//1 109//1
f 134//1 28//1 37//1 144//1
f 121//1 32//1 39//1 125//1
f 28//22 27//22 36//22 37//22
f 66//4 69//4 47//4 14//4
f 60//4 62//4 45//4 11//4
f 69//4 71//4 55//4 47//4
f 62//4 64//4 53//4 45//4
f 46//1 54//1 63//1 61//1
f 9//1 46//1 61//1 57//1
f 54//1 10//1 59//1 63//1
f 9//9 57//9 60//9 11//9
f 48//1 56//1 72//1 70//1
f 15//1 48//1 70//1 67//1
f 15//7 67//7 66//7 14//7
f 56//1 13//1 65//1 72//1
f 26//1 102//1 114//1 33//1
f 101//1 100//1 112//1 113//1
f 99//1 98//1 110//1 111//1
f 30//4 108//4 120//4 40//4
f 107//4 106//4 118//4 119//4
f 105//4 104//4 116//4 117//4
f 33//3 114//3 115//3 34//3
f 113//7 112//7 117//7 116//7
f 111//3 110//3 119//3 118//3
f 26//8 25//8 103//8 102//8
f 101//8 104//8 105//8 100//8
f 99//8 106//8 107//8 98//8
f 29//1 122//1 126//1 35//1
f 31//4 124//4 128//4 38//4
f 35//9 126//9 127//9 40//9
f 29//10 30//10 123//10 122//10
f 138//1 137//1 147//1 148//1
f 136//1 135//1 145//1 146//1
f 27//4 133//4 143//4 36//4
f 132//4 131//4 141//4 142//4
f 130//4 129//4 139//4 140//4
f 148//3 147//3 140//3 139//3
f 146//3 145//3 142//3 141//3
f 138//8 129//8 130//8 137//8
f 136//5 131//5 132//5 135//5
