# Blender v3.5.0 OBJ File: 'WhitmanWilson_LevelAssignment.blend'
# www.blender.org
mtllib Lever_Base_Cube_003.mtl
o Lever_Base_Cube.003
v -1.050459 0.234197 -1.298118
v -1.050459 0.042736 -1.298118
v -1.405242 0.042736 -1.655410
v -1.405242 0.134363 -1.655410
v -1.050459 0.042736 -1.655410
v -1.050459 0.234197 -1.655410
v -1.405242 0.042736 -1.298118
v -1.405242 0.134363 -1.298118
v -1.641320 0.042736 -1.491332
v -1.477241 0.042736 -1.655410
v -1.628830 0.042736 -1.554122
v -1.593262 0.042736 -1.607353
v -1.540031 0.042736 -1.642920
v -1.477241 0.134363 -1.655410
v -1.641320 0.134363 -1.491332
v -1.540031 0.134363 -1.642920
v -1.593262 0.134363 -1.607353
v -1.628830 0.134363 -1.554122
v -1.477241 0.042736 -1.298118
v -1.641320 0.042736 -1.462196
v -1.540031 0.042736 -1.310608
v -1.593262 0.042736 -1.346175
v -1.628830 0.042736 -1.399406
v -1.641320 0.134363 -1.462196
v -1.477241 0.134363 -1.298118
v -1.628830 0.134363 -1.399406
v -1.593262 0.134363 -1.346175
v -1.540031 0.134363 -1.310608
v -1.249504 0.234197 -1.655410
v -1.249504 0.042736 -1.655410
v -1.249504 0.042736 -1.298118
v -1.249504 0.234197 -1.298118
v -1.077171 0.110451 -1.598032
v -1.077171 0.110451 -1.355496
v -1.077171 0.258563 -1.598032
v -1.077171 0.258563 -1.355496
v -1.402504 0.110451 -1.598032
v -1.402504 0.110451 -1.355496
v -1.402504 0.258563 -1.598032
v -1.402504 0.258563 -1.355496
v -1.251281 0.110451 -1.598032
v -1.251281 0.110451 -1.355496
v -1.251281 0.258563 -1.598032
v -1.251281 0.258563 -1.355496
v -1.537295 0.110451 -1.517187
v -1.537295 0.110451 -1.436341
v -1.077171 0.110451 -1.436341
v -1.077171 0.110451 -1.517187
v -1.537295 0.177755 -1.517187
v -1.537295 0.177755 -1.436341
v -1.077171 0.258563 -1.436341
v -1.077171 0.258563 -1.517187
v -1.402504 0.258563 -1.436341
v -1.402504 0.258563 -1.517187
v -1.402504 0.110451 -1.517187
v -1.402504 0.110451 -1.436341
v -1.251281 0.258563 -1.436341
v -1.251281 0.258563 -1.517187
v -1.251281 0.110451 -1.517187
v -1.251281 0.110451 -1.436341
v -1.503797 0.110451 -1.598032
v -1.503797 0.110451 -1.355496
v -1.503797 0.197837 -1.598032
v -1.503797 0.197837 -1.355496
v -1.503797 0.110451 -1.517187
v -1.503797 0.110451 -1.436341
v -1.503797 0.197837 -1.517187
v -1.503797 0.197837 -1.436341
v -1.121065 0.110451 -1.598032
v -1.121065 0.110451 -1.355496
v -1.121065 0.258563 -1.598032
v -1.121065 0.258563 -1.355496
v -1.121065 0.258563 -1.517187
v -1.121065 0.258563 -1.436341
v -1.121065 0.110451 -1.517187
v -1.121065 0.110451 -1.436341
v -1.402504 0.240770 -1.436341
v -1.402504 0.240770 -1.517187
v -1.251281 0.240770 -1.436341
v -1.251281 0.240770 -1.517187
v -1.503797 0.180044 -1.517187
v -1.503797 0.180044 -1.436341
v -1.121065 0.240770 -1.517187
v -1.121065 0.240770 -1.436341
v -1.631260 0.042736 -1.541903
v -1.631260 0.134363 -1.541903
v -1.631401 0.134363 -1.412335
v -1.631401 0.042736 -1.412335
v -1.655783 0.042736 -1.528507
v -1.665842 0.042736 -1.488364
v -1.665842 0.134363 -1.488364
v -1.655924 0.134363 -1.425657
v -1.665842 0.134363 -1.465237
v -1.665842 0.042736 -1.465237
v -1.655783 0.134363 -1.528507
v -1.655924 0.042736 -1.425657
v -1.043999 0.057413 -1.286479
v -1.398841 0.057413 -1.667040
v -1.043999 0.057413 -1.667040
v -1.398841 0.057413 -1.286479
v -1.650293 0.057413 -1.492276
v -1.475529 0.057413 -1.667040
v -1.636990 0.057413 -1.559156
v -1.599106 0.057413 -1.615853
v -1.542408 0.057413 -1.653737
v -1.475529 0.057413 -1.286479
v -1.650293 0.057413 -1.461243
v -1.542408 0.057413 -1.299782
v -1.599106 0.057413 -1.337666
v -1.636990 0.057413 -1.394364
v -1.232959 0.057413 -1.667040
v -1.232959 0.057413 -1.286479
v -1.639578 0.057413 -1.546141
v -1.639729 0.057413 -1.408135
v -1.665698 0.057413 -1.531873
v -1.676412 0.057413 -1.489116
v -1.676412 0.057413 -1.464482
v -1.665848 0.057413 -1.422325
v -1.220568 0.027671 -1.675752
v -1.021898 0.027671 -1.675752
v -1.220568 0.027671 -1.277762
v -1.021898 0.027671 -1.277762
v -1.394046 0.027671 -1.277762
v -1.394046 0.027671 -1.675752
v -1.645809 0.027671 -1.549315
v -1.657014 0.027671 -1.492984
v -1.673281 0.027671 -1.419829
v -1.645966 0.027671 -1.404989
v -1.603482 0.027671 -1.622220
v -1.643101 0.027671 -1.562926
v -1.544188 0.027671 -1.661839
v -1.474246 0.027671 -1.675752
v -1.643101 0.027671 -1.390587
v -1.603482 0.027671 -1.331293
v -1.544188 0.027671 -1.291674
v -1.474246 0.027671 -1.277762
v -1.657014 0.027671 -1.460530
v -1.673124 0.027671 -1.534394
v -1.684329 0.027671 -1.489678
v -1.684329 0.027671 -1.463916
v -1.537295 0.110451 -1.574550
v -1.513813 0.110451 -1.598032
v -1.513813 0.110451 -1.355496
v -1.537295 0.110451 -1.378978
v -1.513813 0.191832 -1.598032
v -1.537295 0.177755 -1.574550
v -1.537295 0.177755 -1.378978
v -1.513813 0.191832 -1.355496
vn 0.0000 1.0000 0.0000
vn 0.0000 0.0000 1.0000
vn 1.0000 0.0000 0.0000
vn -0.0980 0.0000 -0.9952
vn -0.0000 0.0000 -1.0000
vn -0.0980 0.0000 0.9952
vn -0.9808 0.0000 -0.1950
vn -0.9239 0.0000 -0.3827
vn -0.7071 0.0000 -0.7071
vn -0.3827 0.0000 -0.9239
vn -0.9808 0.0000 0.1950
vn -0.9239 0.0000 0.3827
vn -0.7071 0.0000 0.7071
vn -0.3827 0.0000 0.9239
vn -0.0000 -1.0000 0.0000
vn -0.5397 0.8419 0.0000
vn -0.4774 0.0000 0.8787
vn -0.9925 0.0000 0.1225
vn -0.9925 0.0000 -0.1225
vn -0.9700 0.0000 -0.2431
vn -0.9700 0.0000 0.2431
vn -0.4794 0.0000 -0.8776
vn -0.5142 0.8577 0.0000
vn -0.0984 0.2758 -0.9562
vn 0.0000 0.2811 -0.9597
vn -0.0902 0.2764 -0.9568
vn -0.9005 0.2317 -0.3679
vn -0.6892 0.2472 -0.6811
vn -0.6813 0.2477 -0.6888
vn -0.8970 0.2320 -0.3762
vn -0.9589 0.2575 -0.1194
vn -0.9382 0.2542 -0.2351
vn -0.9591 0.2575 -0.1174
vn 0.0000 0.2813 0.9596
vn -0.0984 0.2760 0.9561
vn -0.0902 0.2765 0.9568
vn -0.3745 0.2645 -0.8887
vn -0.3640 0.2650 -0.8929
vn -0.9589 0.2575 0.1194
vn -0.9591 0.2575 0.1174
vn -0.9381 0.2542 0.2351
vn -0.9005 0.2318 0.3679
vn -0.9566 0.2207 0.1903
vn -0.8970 0.2321 0.3763
vn -0.6892 0.2473 0.6810
vn -0.6813 0.2478 0.6888
vn 0.8027 0.5964 0.0000
vn -0.3745 0.2647 0.8886
vn -0.3640 0.2652 0.8929
vn -0.4706 0.1905 -0.8615
vn -0.9566 0.2207 -0.1903
vn -0.4687 0.1896 0.8628
vn -1.0000 0.0000 0.0000
usemtl LightGrey.003
s 1
f 15//1 86//1 95//1 91//1
f 32//2 31//2 2//2 1//2
f 5//3 6//3 1//3 2//3
f 8//1 4//1 14//1 16//1 17//1 18//1 86//1 15//1 24//1 87//1 26//1 27//1 28//1 25//1
f 10//4 14//4 4//5 3//5
f 7//2 8//2 25//6 19//6
f 85//7 86//7 18//8 11//8
f 11//8 18//8 17//9 12//9
f 12//9 17//9 16//10 13//10
f 13//10 16//10 14//4 10//4
f 87//11 88//11 23//12 26//12
f 26//12 23//12 22//13 27//13
f 27//13 22//13 21//14 28//14
f 28//14 21//14 19//6 25//6
f 3//15 7//15 19//15 21//15 22//15 23//15 88//15 20//15 9//15 85//15 11//15 12//15 13//15 10//15
f 31//15 30//15 5//15 2//15
f 29//1 32//1 1//1 6//1
f 30//5 29//5 6//5 5//5
f 3//5 4//5 29//5 30//5
f 4//16 8//16 32//16 29//16
f 7//15 3//15 30//15 31//15
f 8//2 7//2 31//2 32//2
f 24//1 15//1 91//1 93//1
f 88//17 87//17 92//17 96//17
f 94//18 93//18 91//19 90//19
f 90//19 91//19 95//20 89//20
f 93//18 94//18 96//21 92//21
f 9//15 20//15 94//15 90//15
f 87//1 24//1 93//1 92//1
f 85//15 9//15 90//15 89//15
f 20//15 88//15 96//15 94//15
f 86//22 85//22 89//22 95//22
usemtl Black.003
f 78//1 77//1 79//1 80//1
f 81//23 82//23 77//23 78//23
f 80//1 79//1 84//1 83//1
f 98//1 102//1 105//1 104//1 103//1 113//1 101//1 107//1 114//1 110//1 109//1 108//1 106//1 100//1
f 112//1 97//1 99//1 111//1
f 100//1 112//1 111//1 98//1
f 101//1 116//1 117//1 107//1
f 113//1 115//1 116//1 101//1
f 107//1 117//1 118//1 114//1
f 124//15 123//15 136//15 135//15 134//15 133//15 128//15 137//15 126//15 125//15 130//15 129//15 131//15 132//15
f 121//15 119//15 120//15 122//15
f 123//15 124//15 119//15 121//15
f 126//15 137//15 140//15 139//15
f 125//15 126//15 139//15 138//15
f 137//15 128//15 127//15 140//15
f 102//24 98//25 124//25 132//26
f 103//27 104//28 129//29 130//30
f 116//31 115//32 138//32 139//33
f 100//34 106//35 136//36 123//34
f 104//28 105//37 131//38 129//29
f 117//39 116//31 139//33 140//40
f 111//25 99//25 120//25 119//25
f 105//37 102//24 132//26 131//38
f 118//41 117//39 140//40 127//41
f 97//34 112//34 121//34 122//34
f 98//25 111//25 119//25 124//25
f 110//42 114//43 128//43 133//44
f 112//34 100//34 123//34 121//34
f 109//45 110//42 133//44 134//46
f 99//47 97//47 122//47 120//47
f 108//48 109//45 134//46 135//49
f 115//50 113//50 125//50 138//50
f 113//51 103//27 130//30 125//51
f 106//35 108//48 135//49 136//36
f 114//52 118//52 127//52 128//52
usemtl Grey.004
f 76//15 47//15 34//15 70//15
f 74//1 72//1 36//1 51//1
f 70//2 34//2 36//2 72//2
f 141//53 45//53 49//53 146//53
f 48//3 33//3 35//3 52//3
f 145//23 146//23 49//23 67//23 63//23
f 41//5 37//5 39//5 43//5
f 62//2 38//2 40//2 64//2
f 68//23 64//23 40//23 53//23
f 66//15 56//15 38//15 62//15
f 69//5 41//5 43//5 71//5
f 38//2 42//2 44//2 40//2
f 53//1 40//1 44//1 57//1
f 56//15 60//15 42//15 38//15
f 37//15 41//15 59//15 55//15
f 55//15 59//15 60//15 56//15
f 39//1 54//1 58//1 43//1
f 74//53 73//53 83//53 84//53
f 61//15 37//15 55//15 65//15
f 65//15 55//15 56//15 66//15
f 63//23 67//23 54//23 39//23
f 58//2 54//2 78//2 80//2
f 46//15 66//15 62//15 143//15 144//15
f 45//53 46//53 50//53 49//53
f 34//3 47//3 51//3 36//3
f 47//3 48//3 52//3 51//3
f 71//1 73//1 52//1 35//1
f 73//1 74//1 51//1 52//1
f 69//15 33//15 48//15 75//15
f 75//15 48//15 47//15 76//15
f 49//23 50//23 68//23 67//23
f 50//23 147//23 148//23 64//23 68//23
f 45//15 65//15 66//15 46//15
f 61//5 142//5 145//5 63//5
f 143//2 62//2 64//2 148//2
f 46//53 144//53 147//53 50//53
f 37//5 61//5 63//5 39//5
f 59//15 75//15 76//15 60//15
f 41//15 69//15 75//15 59//15
f 67//3 68//3 82//3 81//3
f 43//1 58//1 73//1 71//1
f 33//5 69//5 71//5 35//5
f 42//2 70//2 72//2 44//2
f 57//1 44//1 72//1 74//1
f 60//15 76//15 70//15 42//15
f 68//5 53//5 77//5 82//5
f 73//2 58//2 80//2 83//2
f 53//5 57//5 79//5 77//5
f 54//2 67//2 81//2 78//2
f 57//5 74//5 84//5 79//5
f 147//13 144//13 143//13 148//13
f 141//9 146//9 145//9 142//9
f 141//15 142//15 61//15 65//15 45//15
