# Blender v3.5.0 OBJ File: 'WhitmanWilson_LevelAssignment.blend'
# www.blender.org
mtllib Lootbox_Top_Cube_001.mtl
o Lootbox_Top_Cube.001
v 1.287992 0.394614 0.875414
v 1.619716 0.394614 0.875414
v 1.631435 0.394614 0.855882
v 1.276273 0.394614 0.855882
v 1.631435 0.394614 1.447818
v 1.276273 0.394614 1.447818
v 1.287992 0.394614 1.428286
v 1.619716 0.394614 1.428286
v 1.157886 0.394614 0.974269
v 1.157886 0.394614 1.329431
v 1.749822 0.394614 1.329431
v 1.749822 0.394614 0.974269
v 1.276273 0.394614 1.329431
v 1.276273 0.394614 0.974269
v 1.631435 0.394614 0.974269
v 1.631435 0.394614 1.329431
v 1.730290 0.394614 1.317711
v 1.730290 0.394614 0.985988
v 1.177418 0.394614 0.985988
v 1.177418 0.394614 1.317711
v 1.287992 0.394614 1.317711
v 1.287992 0.394614 0.985988
v 1.619716 0.394614 0.985988
v 1.619716 0.394614 1.317711
v 1.202658 0.394614 1.447818
v 1.157886 0.394614 1.403046
v 1.170999 0.394614 1.434704
v 1.157886 0.394614 0.900654
v 1.202658 0.394614 0.855882
v 1.170999 0.394614 0.868995
v 1.749822 0.394614 1.403046
v 1.705050 0.394614 1.447818
v 1.736709 0.394614 1.434704
v 1.705050 0.394614 0.855882
v 1.749822 0.394614 0.900654
v 1.736709 0.394614 0.868995
v 1.667804 0.337809 1.295375
v 1.239904 0.337809 1.008325
v 1.310329 0.337809 1.295375
v 1.177418 0.304098 0.985988
v 1.177418 0.304098 1.317711
v 1.677276 0.337809 1.017797
v 1.619716 0.304098 0.875414
v 1.287992 0.304098 0.875414
v 1.619716 0.304098 1.428286
v 1.287992 0.304098 1.428286
v 1.157886 0.304098 0.974269
v 1.677276 0.337809 1.084823
v 1.730290 0.304098 1.317711
v 1.730290 0.304098 0.985988
v 1.319801 0.337809 1.084823
v 1.157886 0.304098 1.329431
v 1.631435 0.304098 1.447818
v 1.749822 0.304098 1.329431
v 1.319801 0.337809 1.017797
v 1.310329 0.337809 1.008325
v 1.749822 0.304098 0.974269
v 1.276273 0.304098 0.855882
v 1.276273 0.304098 1.447818
v 1.631435 0.304098 0.855882
v 1.170999 0.304098 1.434704
v 1.202658 0.304098 1.447818
v 1.157886 0.304098 1.403046
v 1.202658 0.304098 0.855882
v 1.170999 0.304098 0.868995
v 1.157886 0.304098 0.900654
v 1.749822 0.304098 0.900654
v 1.736709 0.304098 0.868995
v 1.705050 0.304098 0.855882
v 1.705050 0.304098 1.447818
v 1.736709 0.304098 1.434704
v 1.749822 0.304098 1.403046
v 1.264675 0.408699 1.341028
v 1.166108 0.408699 1.341028
v 1.166108 0.408699 0.962671
v 1.264675 0.408699 0.962671
v 1.741600 0.408699 1.341028
v 1.643033 0.408699 1.341028
v 1.643033 0.408699 0.962671
v 1.741600 0.408699 0.962671
v 1.264675 0.408699 0.864103
v 1.264675 0.408699 1.439596
v 1.643033 0.408699 1.439596
v 1.643033 0.408699 0.864103
v 1.177026 0.408699 1.428678
v 1.203384 0.408699 1.439596
v 1.166108 0.408699 1.402320
v 1.203384 0.408699 0.864103
v 1.177026 0.408699 0.875021
v 1.166108 0.408699 0.901380
v 1.741600 0.408699 0.901380
v 1.730682 0.408699 0.875021
v 1.704324 0.408699 0.864103
v 1.704324 0.408699 1.439596
v 1.730682 0.408699 1.428678
v 1.741600 0.408699 1.402320
v 1.249526 0.415742 1.356178
v 1.176847 0.415742 1.356178
v 1.176847 0.415742 0.947522
v 1.249526 0.415742 0.947522
v 1.730861 0.415742 1.356178
v 1.658182 0.415742 1.356178
v 1.658182 0.415742 0.947522
v 1.730861 0.415742 0.947522
v 1.249526 0.415742 0.874843
v 1.249526 0.415742 1.428857
v 1.658182 0.415742 1.428857
v 1.658182 0.415742 0.874843
v 1.184897 0.415742 1.420807
v 1.204333 0.415742 1.428857
v 1.176847 0.415742 1.401371
v 1.204333 0.415742 0.874843
v 1.184897 0.415742 0.882893
v 1.176847 0.415742 0.902329
v 1.730861 0.415742 0.902329
v 1.722811 0.415742 0.882893
v 1.703375 0.415742 0.874843
v 1.703375 0.415742 1.428857
v 1.722811 0.415742 1.420807
v 1.730861 0.415742 1.401371
v 1.536785 0.394614 1.349007
v 1.370923 0.394614 1.349007
v 1.370923 0.394614 0.966109
v 1.536785 0.394614 0.966109
v 1.536785 0.394614 0.875414
v 1.370923 0.394614 0.875414
v 1.536785 0.394614 1.428286
v 1.370923 0.394614 1.428286
v 1.319801 0.337809 1.375272
v 1.386827 0.337809 1.375272
v 1.319801 0.337809 0.928428
v 1.386827 0.337809 0.928428
v 1.536785 0.304098 0.875414
v 1.370923 0.304098 0.875414
v 1.536785 0.304098 1.428286
v 1.370923 0.304098 1.428286
v 1.651096 0.394614 1.068919
v 1.651096 0.394614 1.234781
v 1.177418 0.394614 1.068919
v 1.177418 0.394614 1.234781
v 1.256612 0.394614 1.234781
v 1.256612 0.394614 1.068919
v 1.730290 0.394614 1.234781
v 1.730290 0.394614 1.068919
v 1.587907 0.337809 1.017797
v 1.520881 0.337809 1.017797
v 1.177418 0.304098 1.068919
v 1.177418 0.304098 1.234781
v 1.230432 0.337809 1.285903
v 1.230432 0.337809 1.218876
v 1.730290 0.304098 1.234781
v 1.730290 0.304098 1.068919
v 1.587907 0.337809 1.285903
v 1.587907 0.337809 1.218876
v 1.319801 0.337809 1.285903
v 1.386827 0.337809 1.285903
v 1.370923 0.394614 1.234781
v 1.370923 0.394614 1.068919
v 1.536785 0.394614 1.234781
v 1.536785 0.394614 1.068919
v 1.529019 0.347008 1.373146
v 1.378689 0.347008 1.373146
v 1.529019 0.347008 1.402401
v 1.378689 0.347008 1.402401
v 1.529019 0.311141 1.402401
v 1.378689 0.311141 1.402401
v 1.668829 0.347008 1.076684
v 1.668829 0.347008 1.227015
v 1.191350 0.347008 1.076684
v 1.191350 0.347008 1.227015
v 1.238879 0.347008 1.227015
v 1.238879 0.347008 1.076684
v 1.716358 0.347008 1.227015
v 1.716358 0.347008 1.076684
v 1.191350 0.311141 1.076684
v 1.191350 0.311141 1.227015
v 1.716358 0.311141 1.227015
v 1.716358 0.311141 1.076684
v 1.212408 0.358778 1.044171
v 1.212408 0.358778 1.261379
v 1.201354 0.363357 1.044171
v 1.201354 0.363357 1.261379
v 1.196775 0.374411 1.044171
v 1.196775 0.374411 1.261379
v 1.201354 0.385464 1.044171
v 1.201354 0.385464 1.261379
v 1.212408 0.390043 1.044171
v 1.212408 0.390043 1.261379
v 1.223462 0.385464 1.044171
v 1.223461 0.385464 1.261379
v 1.228040 0.374411 1.044171
v 1.228040 0.374411 1.261379
v 1.223462 0.363357 1.044171
v 1.223461 0.363357 1.261379
v 1.346175 0.358778 1.393296
v 1.563383 0.358778 1.393296
v 1.346175 0.363357 1.404350
v 1.563383 0.363357 1.404350
v 1.346175 0.374411 1.408928
v 1.563383 0.374411 1.408929
v 1.346175 0.385464 1.404350
v 1.563383 0.385464 1.404350
v 1.346175 0.390043 1.393296
v 1.563383 0.390043 1.393296
v 1.346175 0.385464 1.382242
v 1.563383 0.385464 1.382242
v 1.346175 0.374411 1.377664
v 1.563383 0.374411 1.377664
v 1.346175 0.363357 1.382242
v 1.563383 0.363357 1.382242
v 1.695300 0.358778 1.259528
v 1.695300 0.358778 1.042320
v 1.706354 0.363357 1.259528
v 1.706354 0.363357 1.042320
v 1.710933 0.374411 1.259528
v 1.710933 0.374411 1.042320
v 1.706354 0.385464 1.259528
v 1.706354 0.385464 1.042320
v 1.695300 0.390043 1.259528
v 1.695300 0.390043 1.042320
v 1.684246 0.385464 1.259528
v 1.684247 0.385464 1.042320
v 1.679668 0.374411 1.259528
v 1.679668 0.374411 1.042320
v 1.684246 0.363357 1.259528
v 1.684247 0.363357 1.042320
v 1.189137 0.304098 0.974269
v 1.276273 0.304098 0.887133
v 1.631435 0.304098 0.887133
v 1.718571 0.304098 0.974269
v 1.718571 0.304098 1.329431
v 1.631435 0.304098 1.416566
v 1.276273 0.304098 1.416566
v 1.189137 0.304098 1.329431
v 1.199779 0.304098 1.228072
v 1.199779 0.304098 1.304295
v 1.377631 0.304098 0.897775
v 1.301409 0.304098 0.897775
v 1.377631 0.304098 1.405925
v 1.301409 0.304098 1.405925
v 1.707929 0.304098 1.075627
v 1.707929 0.304098 0.999405
v 1.210550 0.304098 0.988633
v 1.697158 0.304098 1.315066
v 1.290638 0.304098 0.908546
v 1.617070 0.304098 1.395154
v 1.199779 0.304098 0.999405
v 1.707929 0.304098 1.304295
v 1.606299 0.304098 1.405925
v 1.606299 0.304098 0.897775
v 1.530077 0.304098 0.897775
v 1.530077 0.304098 1.405925
v 1.199779 0.304098 1.075627
v 1.707929 0.304098 1.228072
v 1.617070 0.304098 0.908546
v 1.697158 0.304098 0.988633
v 1.290638 0.304098 1.395154
v 1.210550 0.304098 1.315066
v 1.597379 0.337809 1.295375
v 1.310329 0.337809 0.937899
v 1.597379 0.337809 1.365800
v 1.230432 0.337809 1.017797
v 1.677276 0.337809 1.285903
v 1.587907 0.337809 1.375272
v 1.587907 0.337809 0.928428
v 1.597379 0.337809 1.008325
v 1.520881 0.337809 1.285903
v 1.386827 0.337809 1.017797
v 1.520881 0.337809 0.928428
v 1.520881 0.337809 1.375272
v 1.386827 0.337809 1.218876
v 1.520881 0.337809 1.218876
v 1.587907 0.337809 1.084823
v 1.230432 0.337809 1.084823
v 1.319801 0.337809 1.218876
v 1.677276 0.337809 1.218876
v 1.386827 0.337809 1.084823
v 1.520881 0.337809 1.084823
v 1.597379 0.337809 0.937899
v 1.667804 0.337809 1.008325
v 1.310329 0.337809 1.365800
v 1.239904 0.337809 1.295375
v 1.370923 0.272465 0.921577
v 1.370923 0.339935 0.921577
v 1.370923 0.339935 0.839683
v 1.536785 0.339935 0.839683
v 1.370923 0.272465 0.861952
v 1.536785 0.272465 0.861952
v 1.536785 0.339935 0.921577
v 1.536785 0.272465 0.921577
v 1.370923 0.306200 0.839683
v 1.536785 0.306200 0.921577
v 1.370923 0.306200 0.921577
v 1.536785 0.306200 0.839683
v 1.453854 0.339935 0.921577
v 1.453854 0.272465 0.921577
v 1.453854 0.272465 0.861952
v 1.453854 0.339935 0.839683
v 1.453854 0.306200 0.921577
v 1.453854 0.306200 0.839683
vn -0.3827 -0.9239 0.0000
vn -0.9239 -0.3827 0.0000
vn -0.9239 0.3827 0.0000
vn -0.3827 0.9239 0.0000
vn 0.3827 0.9239 0.0000
vn 0.9239 0.3827 0.0000
vn 0.9239 -0.3827 0.0000
vn 0.3827 -0.9239 0.0000
vn 0.0000 -0.9239 0.3827
vn -0.0000 -0.3827 0.9239
vn -0.0000 0.3827 0.9239
vn 0.0000 0.9239 0.3827
vn 0.0000 0.9239 -0.3827
vn 0.0000 0.3827 -0.9239
vn 0.0000 -0.3826 -0.9239
vn 0.0000 -0.9239 -0.3827
vn -1.0000 0.0000 0.0000
vn 0.0000 1.0000 0.0000
vn 0.0000 0.0000 -1.0000
vn 0.0000 0.0000 1.0000
vn 0.0000 -1.0000 0.0000
vn 1.0000 0.0000 0.0000
vn 0.0000 -0.5509 -0.8346
vn -0.8636 0.5041 0.0000
vn 0.0000 0.6356 -0.7720
vn -0.3340 0.4879 -0.8064
vn 0.0000 0.5041 0.8636
vn -0.8575 0.0000 0.5145
vn -0.9239 0.0000 -0.3827
vn 0.5145 0.0000 -0.8575
vn 0.9239 0.0000 -0.3827
vn 0.3827 0.0000 -0.9239
vn 0.3827 0.0000 0.9239
vn 0.9239 0.0000 0.3827
vn 0.5145 0.0000 0.8575
vn -0.8575 0.0000 -0.5145
vn -0.5145 0.0000 0.8575
vn 0.8575 0.0000 -0.5145
vn 0.8575 0.0000 0.5145
vn -0.3827 0.0000 0.9239
vn -0.9239 0.0000 0.3827
vn -0.5145 0.0000 -0.8575
vn -0.3827 0.0000 -0.9239
vn -0.2162 0.8251 -0.5220
vn 0.0000 0.8362 0.5484
vn 0.0000 0.9068 -0.4216
vn -0.5220 0.8251 0.2162
vn -0.8064 0.4880 -0.3340
vn 0.0000 0.6357 0.7720
vn 0.0000 0.5041 -0.8637
vn 0.8064 0.4880 -0.3340
vn 0.7720 0.6357 0.0000
vn 0.3340 0.4879 -0.8064
vn 0.8636 0.5041 -0.0000
vn 0.3340 0.4880 0.8064
vn -0.7720 0.6357 -0.0000
vn 0.8064 0.4880 0.3340
vn -0.3340 0.4880 0.8064
vn -0.8064 0.4880 0.3340
vn 0.0000 0.9068 0.4216
vn -0.5484 0.8362 0.0000
vn -0.5220 0.8251 -0.2162
vn 0.4216 0.9068 0.0000
vn 0.0000 0.8362 -0.5484
vn 0.5220 0.8251 -0.2162
vn 0.2162 0.8251 -0.5220
vn -0.4216 0.9068 0.0000
vn 0.5484 0.8362 0.0000
vn 0.2162 0.8251 0.5220
vn 0.5220 0.8251 0.2162
vn -0.2162 0.8251 0.5220
vn 0.0000 0.9649 0.2625
vn -0.9371 0.3491 0.0000
vn 0.0000 0.1610 -0.9870
vn 0.9870 0.1610 -0.0000
vn -0.4869 0.0000 -0.8735
vn -0.4512 0.8924 0.0000
vn -0.9870 0.1610 -0.0000
vn 0.4869 0.0000 -0.8735
vn -0.4868 0.0000 0.8735
vn 0.0000 0.1610 0.9870
vn 0.0000 0.4522 0.8919
vn -0.9578 0.0000 0.2874
vn 0.9578 0.0000 0.2874
vn 0.4512 0.8924 0.0000
vn 0.9371 0.3491 0.0000
vn 0.4868 0.0000 0.8735
vn 0.0000 -0.6728 0.7399
vn -0.4929 -0.7171 0.4929
vn 0.0000 -0.6728 -0.7399
vn 0.7399 -0.6728 0.0000
vn -0.4929 -0.7170 -0.4929
vn 0.4929 -0.7171 0.4929
vn -0.4929 -0.7171 -0.4929
vn 0.4929 -0.7171 -0.4929
vn -0.7399 -0.6728 0.0000
vn -0.4929 -0.7171 0.4928
usemtl Grey.005
s off
f 179//1 180//1 182//1 181//1
f 181//2 182//2 184//2 183//2
f 183//3 184//3 186//3 185//3
f 185//4 186//4 188//4 187//4
f 187//5 188//5 190//5 189//5
f 189//6 190//6 192//6 191//6
f 191//7 192//7 194//7 193//7
f 193//8 194//8 180//8 179//8
f 195//9 196//9 198//9 197//9
f 197//10 198//10 200//10 199//10
f 199//11 200//11 202//11 201//11
f 201//12 202//12 204//12 203//12
f 203//13 204//13 206//13 205//13
f 205//14 206//14 208//14 207//14
f 207//15 208//15 210//15 209//15
f 209//16 210//16 196//16 195//16
f 211//8 212//8 214//8 213//8
f 213//7 214//7 216//7 215//7
f 215//6 216//6 218//6 217//6
f 217//5 218//5 220//5 219//5
f 219//4 220//4 222//4 221//4
f 221//3 222//3 224//3 223//3
f 223//2 224//2 226//2 225//2
f 225//1 226//1 212//1 211//1
f 291//17 293//17 284//17 285//17
f 298//18 295//18 289//18 286//18
f 300//19 291//19 285//19 298//19
f 299//20 295//20 284//20 293//20
f 297//21 296//21 283//21 287//21
f 294//22 292//22 290//22 288//22
f 286//22 289//22 292//22 294//22
f 296//20 299//20 293//20 283//20
f 297//23 287//23 291//23 300//23
f 287//17 283//17 293//17 291//17
f 288//23 297//23 300//23 294//23
f 290//20 292//20 299//20 296//20
f 288//21 290//21 296//21 297//21
f 292//20 289//20 295//20 299//20
f 294//19 300//19 298//19 286//19
f 285//18 284//18 295//18 298//18
usemtl Orange.004
f 14//18 22//18 1//18 4//18
f 28//24 9//24 75//24 90//24
f 11//25 16//25 78//25 77//25
f 29//26 30//26 89//26 88//26
f 25//27 6//27 82//27 86//27
f 16//18 24//18 8//18 5//18
f 15//18 23//18 18//18 12//18
f 11//18 17//18 24//18 16//18
f 9//18 19//18 22//18 14//18
f 13//18 21//18 20//18 10//18
f 126//18 1//18 22//18 123//18
f 122//18 21//18 7//18 128//18
f 159//18 121//18 24//18 138//18
f 142//18 22//18 19//18 139//18
f 144//18 18//18 23//18 137//18
f 6//18 7//18 21//18 13//18
f 3//18 2//18 23//18 15//18
f 51//21 274//21 262//21 55//21
f 52//21 234//21 233//21 59//21 62//21 61//21 63//21
f 66//21 65//21 64//21 58//21 228//21 227//21 47//21
f 272//21 154//21 153//21 267//21
f 60//21 69//21 68//21 67//21 57//21 230//21 229//21
f 156//21 130//21 129//21 155//21
f 132//21 268//21 55//21 131//21
f 54//21 231//21 49//21
f 47//21 227//21 40//21
f 39//21 282//21 149//21 155//21
f 266//21 280//21 42//21 145//21
f 259//21 261//21 264//21 153//21
f 259//21 37//21 261//21
f 56//21 260//21 131//21 55//21
f 45//21 135//21 252//21 249//21
f 59//21 233//21 46//21
f 60//21 229//21 43//21
f 5//28 8//28 45//28 53//28
f 28//29 30//29 65//29 66//29
f 17//30 11//30 54//30 49//30
f 36//31 35//31 67//31 68//31
f 34//32 36//32 68//32 69//32
f 33//33 32//33 70//33 71//33
f 139//17 19//17 40//17 147//17
f 31//34 33//34 71//34 72//34
f 12//35 18//35 50//35 57//35
f 26//17 10//17 52//17 63//17
f 125//19 2//19 43//19 133//19
f 2//36 3//36 60//36 43//36
f 6//20 25//20 62//20 59//20
f 128//20 7//20 46//20 136//20
f 9//17 28//17 66//17 47//17
f 19//37 9//37 47//37 40//37
f 29//19 4//19 58//19 64//19
f 4//38 1//38 44//38 58//38
f 32//20 5//20 53//20 70//20
f 7//39 6//39 59//39 46//39
f 11//22 31//22 72//22 54//22
f 143//22 17//22 49//22 151//22
f 25//40 27//40 61//40 62//40
f 3//19 34//19 69//19 60//19
f 27//41 26//41 63//41 61//41
f 35//22 12//22 57//22 67//22
f 10//42 20//42 41//42 52//42
f 30//43 29//43 64//43 65//43
f 88//44 89//44 113//44 112//44
f 86//45 82//45 106//45 110//45
f 77//46 78//46 102//46 101//46
f 87//47 85//47 109//47 111//47
f 30//48 28//48 90//48 89//48
f 15//49 12//49 80//49 79//49
f 4//50 29//50 88//50 81//50
f 35//51 36//51 92//51 91//51
f 14//52 4//52 81//52 76//52
f 5//27 32//27 94//27 83//27
f 36//53 34//53 93//53 92//53
f 6//52 13//52 73//52 82//52
f 31//54 11//54 77//54 96//54
f 32//55 33//55 95//55 94//55
f 16//56 5//56 83//56 78//56
f 34//50 3//50 84//50 93//50
f 33//57 31//57 96//57 95//57
f 3//56 15//56 79//56 84//56
f 27//58 25//58 86//58 85//58
f 12//54 35//54 91//54 80//54
f 13//25 10//25 74//25 73//25
f 10//24 26//24 87//24 74//24
f 26//59 27//59 85//59 87//59
f 9//49 14//49 76//49 75//49
f 98//18 111//18 109//18 110//18 106//18 97//18
f 114//18 99//18 100//18 105//18 112//18 113//18
f 102//18 107//18 118//18 119//18 120//18 101//18
f 108//18 103//18 104//18 115//18 116//18 117//18
f 79//60 80//60 104//60 103//60
f 90//61 75//61 99//61 114//61
f 89//62 90//62 114//62 113//62
f 76//63 81//63 105//63 100//63
f 81//64 88//64 112//64 105//64
f 91//65 92//65 116//65 115//65
f 82//63 73//63 97//63 106//63
f 83//45 94//45 118//45 107//45
f 92//66 93//66 117//66 116//66
f 78//67 83//67 107//67 102//67
f 96//68 77//68 101//68 120//68
f 94//69 95//69 119//69 118//69
f 84//67 79//67 103//67 108//67
f 93//64 84//64 108//64 117//64
f 73//46 74//46 98//46 97//46
f 95//70 96//70 120//70 119//70
f 85//71 86//71 110//71 109//71
f 80//68 91//68 115//68 104//68
f 75//60 76//60 100//60 99//60
f 74//61 87//61 111//61 98//61
f 8//20 127//20 135//20 45//20
f 136//72 135//72 165//72 166//72
f 1//19 126//19 134//19 44//19
f 141//73 142//73 172//73 171//73
f 136//21 46//21 240//21 239//21
f 46//21 233//21 257//21 240//21
f 148//21 147//21 253//21 235//21
f 227//21 228//21 245//21 243//21
f 134//21 133//21 251//21 237//21
f 44//21 134//21 237//21 238//21
f 141//18 21//18 122//18 157//18
f 157//18 122//18 121//18 159//18
f 24//18 121//18 127//18 8//18
f 138//74 143//74 173//74 168//74
f 2//18 125//18 124//18 23//18
f 122//75 128//75 164//75 162//75
f 123//18 158//18 160//18 124//18
f 158//18 157//18 159//18 160//18
f 22//18 142//18 158//18 123//18
f 142//18 141//18 157//18 158//18
f 233//21 234//21 258//21 257//21
f 40//21 227//21 243//21 247//21
f 147//21 40//21 247//21 253//21
f 133//21 43//21 250//21 251//21
f 18//22 144//22 152//22 50//22
f 148//76 140//76 170//76 176//76
f 20//17 140//17 148//17 41//17
f 147//77 148//77 176//77 175//77
f 230//21 50//21 242//21 256//21
f 41//21 148//21 235//21 236//21
f 43//21 229//21 255//21 250//21
f 50//21 152//21 241//21 242//21
f 152//21 151//21 254//21 241//21
f 229//21 230//21 256//21 255//21
f 17//18 143//18 138//18 24//18
f 127//78 121//78 161//78 163//78
f 21//18 141//18 140//18 20//18
f 143//79 151//79 177//79 173//79
f 124//18 160//18 137//18 23//18
f 160//18 159//18 138//18 137//18
f 163//20 164//20 166//20 165//20
f 161//18 162//18 164//18 163//18
f 174//22 173//22 177//22 178//22
f 170//17 169//17 175//17 176//17
f 173//18 174//18 167//18 168//18
f 171//18 172//18 169//18 170//18
f 139//80 147//80 175//80 169//80
f 123//18 124//18 125//18 126//18
f 144//81 137//81 167//81 174//81
f 121//82 122//82 162//82 161//82
f 135//83 127//83 163//83 165//83
f 140//74 141//74 171//74 170//74
f 128//84 136//84 166//84 164//84
f 151//85 152//85 178//85 177//85
f 142//81 139//81 169//81 172//81
f 133//19 134//19 126//19 125//19
f 137//86 138//86 168//86 167//86
f 152//87 144//87 174//87 178//87
f 49//21 231//21 244//21 248//21
f 151//21 49//21 248//21 254//21
f 44//21 228//21 58//21
f 231//21 232//21 246//21 244//21
f 135//21 136//21 239//21 252//21
f 50//21 230//21 57//21
f 45//21 232//21 53//21
f 232//21 231//21 54//21 72//21 71//21 70//21 53//21
f 232//21 45//21 249//21 246//21
f 234//21 41//21 236//21 258//21
f 228//21 44//21 238//21 245//21
f 41//21 234//21 52//21
f 251//88 250//88 265//88 269//88
f 255//89 256//89 280//89 279//89
f 239//90 240//90 129//90 130//90
f 235//91 253//91 274//91 150//91
f 238//88 237//88 132//88 131//88
f 248//92 244//92 37//92 263//92
f 253//91 247//91 262//91 274//91
f 245//93 238//93 131//93 260//93
f 244//94 246//94 261//94 37//94
f 236//91 235//91 150//91 149//91
f 243//93 245//93 260//93 38//93
f 252//90 239//90 130//90 270//90
f 246//94 249//94 264//94 261//94
f 258//95 236//95 149//95 282//95
f 247//93 243//93 38//93 262//93
f 241//96 254//96 276//96 48//96
f 242//96 241//96 48//96 42//96
f 249//90 252//90 270//90 264//90
f 256//97 242//97 42//97 280//97
f 240//95 257//95 281//95 129//95
f 254//96 248//96 263//96 276//96
f 237//88 251//88 269//88 132//88
f 250//89 255//89 279//89 265//89
f 257//95 258//95 282//95 281//95
f 48//21 273//21 145//21 42//21
f 275//21 271//21 156//21 155//21
f 271//21 272//21 267//21 156//21
f 153//21 264//21 270//21 267//21
f 267//21 270//21 130//21 156//21
f 265//21 145//21 146//21 269//21
f 269//21 146//21 268//21 132//21
f 268//21 146//21 278//21 277//21
f 277//21 278//21 272//21 271//21
f 55//21 268//21 277//21 51//21
f 51//21 277//21 271//21 275//21
f 263//21 153//21 154//21 276//21
f 276//21 154//21 273//21 48//21
f 155//21 149//21 150//21 275//21
f 275//21 150//21 274//21 51//21
f 146//21 145//21 273//21 278//21
f 278//21 273//21 154//21 272//21
f 262//21 38//21 56//21 55//21
f 38//21 260//21 56//21
f 279//21 280//21 266//21
f 265//21 279//21 266//21 145//21
f 263//21 37//21 259//21 153//21
f 281//21 282//21 39//21
f 129//21 281//21 39//21 155//21
