# Blender v3.5.0 OBJ File: 'WhitmanWilson_LevelAssignment.blend'
# www.blender.org
mtllib Platform_4x4_Empty_Cube_001.mtl
o Platform_4x4_Empty_Cube.001
v -7.880035 2.286304 -12.116587
v -7.908883 2.510557 -12.087739
v -7.880035 2.286303 -15.953171
v -7.908883 2.510557 -15.982018
v -4.074543 2.286304 -12.116587
v -4.045695 2.510557 -12.087739
v -4.074543 2.286303 -15.953170
v -4.045695 2.510557 -15.982018
v -7.908883 2.439784 -12.087739
v -7.908883 2.439783 -15.982018
v -4.045695 2.439783 -15.982018
v -4.045695 2.439784 -12.087739
v -7.814352 2.510557 -12.182269
v -7.814352 2.510557 -15.887487
v -4.140226 2.510557 -15.887487
v -4.140226 2.510557 -12.182269
v -7.794938 2.488304 -12.201683
v -7.794938 2.488303 -15.868073
v -4.159640 2.488303 -15.868073
v -4.159640 2.488304 -12.201683
v -7.880035 2.419194 -15.953171
v -4.074543 2.419194 -15.953170
v -4.074543 2.419195 -12.116587
v -7.880035 2.419195 -12.116587
v -7.880034 2.361641 -15.953171
v -7.880034 2.343856 -15.953171
v -4.074543 2.361641 -15.953170
v -4.074543 2.343856 -15.953170
v -4.074543 2.361642 -12.116587
v -4.074543 2.343857 -12.116587
v -7.880034 2.343857 -12.116587
v -7.880034 2.361642 -12.116587
v -7.865756 2.361519 -15.938890
v -7.865756 2.343978 -15.938890
v -4.088822 2.361519 -15.938890
v -4.088822 2.343978 -15.938890
v -4.088822 2.361520 -12.130866
v -4.088822 2.343979 -12.130866
v -7.865755 2.343979 -12.130866
v -7.865755 2.361520 -12.130866
vt 0.000000 0.000000
vt 0.000000 0.000000
vt 0.000000 0.000000
vt 0.000000 0.000000
vt 0.000000 0.000000
vt 0.000000 0.000000
vt 0.000000 0.000000
vt 0.000000 0.000000
vt 0.000000 0.000000
vt 0.000000 0.000000
vt 0.000000 0.000000
vt 0.000000 0.000000
vt 0.000000 0.000000
vt 0.000000 0.000000
vt 0.000000 0.000000
vt 0.000000 0.000000
vt 0.000000 0.000000
vt 0.000000 0.000000
vt 0.000000 0.000000
vt 0.000000 0.000000
vt 0.000000 0.000000
vt 0.000000 0.000000
vt 0.000000 0.000000
vt 0.000000 0.000000
vt 0.000000 0.000000
vt 0.000000 0.000000
vt 0.000000 0.000000
vt 0.000000 0.000000
vt 0.000000 0.000000
vt 0.000000 0.000000
vt 0.000000 0.000000
vt 0.000000 0.000000
vt 0.000000 0.000000
vt 0.000000 0.000000
vt 0.000000 0.000000
vt 0.000000 0.000000
vt 0.000000 0.000000
vt 0.000000 0.000000
vt 0.000000 0.000000
vt 0.000000 0.000000
vt 0.482286 0.281473
vt 0.496405 0.307686
vt 0.179722 0.307686
vt 0.165603 0.281473
vt 0.518481 0.281473
vt 0.532599 0.307686
vt 0.849282 0.307686
vt 0.835163 0.281473
vt 0.521299 0.281473
vt 0.535418 0.307686
vt 0.849534 0.307686
vt 0.835415 0.281473
vt 0.482538 0.281473
vt 0.496657 0.307686
vt 0.182541 0.307686
vt 0.168422 0.281473
vn -0.0000 -1.0000 0.0000
vn 0.5809 -0.8140 0.0000
vn 0.0000 -0.8140 0.5809
vn -0.5809 -0.8140 0.0000
vn 0.0000 -0.8140 -0.5809
vn 0.0000 1.0000 -0.0000
vn 0.0085 -1.0000 0.0000
vn 1.0000 0.0000 0.0000
vn 0.0000 0.0000 1.0000
vn 0.0000 -1.0000 -0.0085
vn -0.0085 -1.0000 0.0000
vn -1.0000 0.0000 -0.0000
vn 0.0000 -0.0000 -1.0000
vn 0.0000 1.0000 0.0085
vn -0.0085 1.0000 0.0000
vn 0.0000 -1.0000 0.0086
vn 0.0085 1.0000 0.0000
vn 0.0000 1.0000 -0.0085
vn 0.0000 0.6574 -0.7535
vn -0.7536 0.6574 0.0000
vn 0.7536 0.6574 0.0000
vn 0.0000 0.6574 0.7536
usemtl Grey.009
s off
f 3/1/1 7/2/1 5/3/1 1/4/1
f 22/5/2 11/6/2 12/7/2 23/8/2
f 23/8/3 12/7/3 9/9/3 24/10/3
f 24/10/4 9/9/4 10/11/4 21/12/4
f 21/12/5 10/11/5 11/6/5 22/5/5
f 19/13/6 18/14/6 17/15/6 20/16/6
f 27/17/7 29/18/7 37/19/7 35/20/7
f 7/2/8 28/21/8 30/22/8 5/3/8
f 5/3/9 30/22/9 31/23/9 1/4/9
f 25/24/10 27/17/10 35/20/10 33/25/10
f 32/26/11 25/24/11 33/25/11 40/27/11
f 1/4/12 31/23/12 26/28/12 3/1/12
f 3/1/13 26/28/13 28/21/13 7/2/13
f 31/23/14 30/22/14 38/29/14 39/30/14
f 36/31/8 35/20/8 37/19/8 38/29/8
f 38/29/9 37/19/9 40/27/9 39/30/9
f 39/30/12 40/27/12 33/25/12 34/32/12
f 34/32/13 33/25/13 35/20/13 36/31/13
f 26/28/15 31/23/15 39/30/15 34/32/15
f 29/18/16 32/26/16 40/27/16 37/19/16
f 30/22/17 28/21/17 36/31/17 38/29/17
f 28/21/18 26/28/18 34/32/18 36/31/18
usemtl LightGrey.009
f 9/9/12 2/33/12 4/34/12 10/11/12
f 11/6/8 8/35/8 6/36/8 12/7/8
f 10/11/13 4/34/13 8/35/13 11/6/13
f 12/7/9 6/36/9 2/33/9 9/9/9
f 6/36/6 8/35/6 15/37/6 16/38/6
f 4/34/6 2/33/6 13/39/6 14/40/6
f 13/39/19 16/38/19 20/16/19 17/15/19
f 2/33/6 6/36/6 16/38/6 13/39/6
f 8/35/6 4/34/6 14/40/6 15/37/6
f 16/38/20 15/37/20 19/13/20 20/16/20
f 14/40/21 13/39/21 17/15/21 18/14/21
f 15/37/22 14/40/22 18/14/22 19/13/22
usemtl Texture_Signs.005
f 32/41/12 24/42/12 21/43/12 25/44/12
f 27/45/8 22/46/8 23/47/8 29/48/8
f 25/49/13 21/50/13 22/51/13 27/52/13
f 29/53/9 23/54/9 24/55/9 32/56/9
