# Blender v3.5.0 OBJ File: 'WhitmanWilson_LevelAssignment.blend'
# www.blender.org
mtllib Rail_Corner_Cube_001.mtl
o Rail_Corner_Cube.001
v 1.499633 0.152617 0.921805
v 1.527954 0.152617 0.933716
v 1.515978 0.122491 0.927483
v 1.515978 0.182743 0.927483
v 1.518466 0.182525 0.896125
v 1.518466 0.122710 0.896125
v 1.533368 0.152617 0.896689
v 1.503563 0.152617 0.895561
v 1.504328 0.182651 0.934981
v 1.509024 0.152617 0.948157
v 1.504328 0.122584 0.934981
v 1.504002 0.152617 0.921250
v 1.507850 0.130593 0.944863
v 1.507850 0.174641 0.944863
v 1.500807 0.175643 0.925099
v 1.500807 0.129591 0.925099
v 1.520465 0.152617 0.943236
v 1.506996 0.129381 0.922808
v 1.511733 0.182823 0.932715
v 1.524960 0.130665 0.932157
v 1.511733 0.122412 0.932715
v 1.524960 0.174570 0.932157
v 1.503002 0.152617 0.922195
v 1.506996 0.175854 0.922808
v 1.517931 0.122648 0.916286
v 1.503799 0.152617 0.914022
v 1.517931 0.182586 0.916286
v 1.532063 0.152617 0.918549
v 1.529643 0.174867 0.896548
v 1.507289 0.130006 0.895702
v 1.507289 0.175228 0.895702
v 1.529643 0.130367 0.896548
v 1.266479 0.073249 0.935640
v 1.236674 0.075506 0.935640
v 1.251576 0.074377 0.920687
v 1.251576 0.074377 0.950594
v 1.518282 0.174524 0.940606
v 1.505185 0.176019 0.924825
v 1.518282 0.130710 0.940606
v 1.505185 0.129216 0.924825
v 1.507332 0.129754 0.914588
v 1.528530 0.130527 0.917983
v 1.507332 0.175480 0.914588
v 1.528530 0.174708 0.917983
v 1.254064 0.137093 0.950703
v 1.254064 0.137093 0.920577
v 1.242088 0.149558 0.935640
v 1.270409 0.125738 0.935640
v 1.518720 0.123407 0.643690
v 1.518720 0.147227 0.615370
v 1.533783 0.134762 0.627346
v 1.503657 0.134762 0.627346
v 1.503766 0.072047 0.624858
v 1.533674 0.072047 0.624858
v 1.518720 0.073175 0.609956
v 1.518720 0.070918 0.639761
v 1.503703 0.149759 0.638995
v 1.518720 0.176111 0.634300
v 1.533737 0.149759 0.638995
v 1.518720 0.122297 0.639322
v 1.529732 0.169523 0.635474
v 1.507708 0.169523 0.635474
v 1.507207 0.129995 0.642517
v 1.530233 0.129995 0.642517
v 1.518720 0.180012 0.685623
v 1.518720 0.121822 0.688299
v 1.503805 0.150917 0.686961
v 1.533635 0.150917 0.686961
v 1.518720 0.166268 0.622859
v 1.530338 0.125413 0.636328
v 1.503617 0.145227 0.631590
v 1.529696 0.144111 0.618364
v 1.533823 0.145227 0.631590
v 1.507744 0.144111 0.618364
v 1.518720 0.124186 0.640322
v 1.507102 0.125413 0.636328
v 1.533705 0.112368 0.625392
v 1.518720 0.107840 0.639524
v 1.503736 0.112367 0.625392
v 1.518720 0.116895 0.611260
v 1.507595 0.072893 0.613681
v 1.530026 0.071200 0.636035
v 1.507415 0.071200 0.636035
v 1.529845 0.072893 0.613681
v 1.518720 -0.053989 0.640014
v 1.518720 -0.053989 0.610053
v 1.533667 -0.053989 0.625034
v 1.503774 -0.053989 0.625034
v 1.529994 0.129095 0.687964
v 1.529819 0.172738 0.685957
v 1.507447 0.129095 0.687964
v 1.507621 0.172738 0.685957
v 1.507767 0.161008 0.625042
v 1.507019 0.129447 0.638139
v 1.529674 0.161008 0.625042
v 1.530421 0.129447 0.638139
v 1.530152 0.108972 0.635991
v 1.529765 0.115763 0.614793
v 1.507289 0.108972 0.635991
v 1.507675 0.115763 0.614793
v 1.507510 -0.053989 0.613798
v 1.507510 -0.053989 0.636269
v 1.529930 -0.053989 0.636269
v 1.529930 -0.053989 0.613798
v 1.265714 0.152090 0.950657
v 1.261018 0.178442 0.935640
v 1.265714 0.152090 0.920624
v 1.266041 0.124628 0.935640
v 1.262192 0.171854 0.924628
v 1.262192 0.171854 0.946652
v 1.269235 0.132326 0.947153
v 1.269235 0.132326 0.924127
v 1.249577 0.168599 0.935640
v 1.263047 0.127744 0.924022
v 1.258309 0.147558 0.950743
v 1.245083 0.146442 0.924664
v 1.258309 0.147558 0.920538
v 1.245083 0.146442 0.946617
v 1.267040 0.126517 0.935640
v 1.263047 0.127744 0.947259
v 1.252111 0.114699 0.920656
v 1.266243 0.110171 0.935640
v 1.252111 0.114698 0.950625
v 1.237979 0.119226 0.935640
v 1.240399 0.075224 0.946765
v 1.262753 0.073531 0.924335
v 1.262753 0.073531 0.946946
v 1.240399 0.075224 0.924515
v 1.266733 -0.051658 0.935640
v 1.236771 -0.051658 0.935640
v 1.251752 -0.051658 0.920694
v 1.251752 -0.051658 0.950587
v 1.251760 0.163339 0.946594
v 1.264857 0.131777 0.947341
v 1.251760 0.163339 0.924687
v 1.264857 0.131777 0.923940
v 1.262710 0.111303 0.924209
v 1.241512 0.118094 0.924595
v 1.262710 0.111303 0.947072
v 1.241512 0.118094 0.946686
v 1.240516 -0.051658 0.946850
v 1.262987 -0.051658 0.946850
v 1.262987 -0.051658 0.924430
v 1.240516 -0.051658 0.924430
v 1.499520 0.073108 0.930048
v 1.515825 0.073206 0.931076
v 1.514738 0.059488 0.927419
v 1.514738 0.086924 0.927419
v 1.518307 0.086628 0.896136
v 1.518309 0.059784 0.896102
v 1.520567 0.073181 0.896536
v 1.516366 0.073182 0.895548
v 1.504052 0.086788 0.934481
v 1.505312 0.073100 0.940268
v 1.504029 0.059625 0.934488
v 1.516352 0.073206 0.923424
v 1.505051 0.061965 0.938894
v 1.505082 0.084381 0.938918
v 1.501249 0.084724 0.930995
v 1.501227 0.061652 0.931014
v 1.511053 0.073206 0.937647
v 1.516347 0.060667 0.924569
v 1.510257 0.087065 0.932222
v 1.514994 0.060692 0.930034
v 1.510257 0.059347 0.932222
v 1.514994 0.085721 0.930034
v 1.509115 0.073206 0.929438
v 1.516347 0.085746 0.924569
v 1.517502 0.059714 0.916230
v 1.516603 0.073206 0.914036
v 1.517502 0.086699 0.916230
v 1.519328 0.073206 0.917701
v 1.519404 0.085559 0.896448
v 1.517462 0.060604 0.895704
v 1.517453 0.085792 0.895726
v 1.519395 0.060837 0.896427
v 1.510756 0.085126 0.936185
v 1.509972 0.084172 0.929274
v 1.510756 0.061286 0.936185
v 1.509972 0.062241 0.929273
v 1.517584 0.060216 0.914710
v 1.518137 0.060655 0.917333
v 1.517584 0.086197 0.914710
v 1.518137 0.085757 0.917333
v 1.250749 0.062812 0.935540
v 1.518687 0.084118 0.631064
v 1.518687 0.058897 0.631064
v 1.516608 0.071404 0.631064
v 1.520832 0.071402 0.631064
v 1.519920 0.059860 0.631064
v 1.519764 0.083123 0.631064
v 1.517504 0.059886 0.631064
v 1.517658 0.083094 0.631064
v 1.250749 0.071737 0.942428
v 1.250749 0.082546 0.935536
v 1.250749 0.071772 0.928854
v 1.250749 0.080214 0.930157
v 1.250749 0.080326 0.941063
v 1.250749 0.063930 0.941020
v 1.250749 0.064020 0.930220
vt 0.000000 0.000000
vt 0.000000 0.000000
vt 0.000000 0.000000
vt 0.000000 0.000000
vt 0.000000 0.000000
vt 0.000000 0.000000
vt 0.000000 0.000000
vt 0.000000 0.000000
vt 0.000000 0.000000
vt 0.000000 0.000000
vt 0.000000 0.000000
vt 0.000000 0.000000
vt 0.000000 0.000000
vt 0.000000 0.000000
vt 0.000000 0.000000
vt 0.000000 0.000000
vt 0.000000 0.000000
vt 0.000000 0.000000
vt 0.000000 0.000000
vt 0.000000 0.000000
vt 0.000000 0.000000
vt 0.000000 0.000000
vt 0.000000 0.000000
vt 0.000000 0.000000
vt 0.000000 0.000000
vt 0.000000 0.000000
vt 0.000000 0.000000
vt 0.000000 0.000000
vt 0.000000 0.000000
vt 0.000000 0.000000
vt 0.000000 0.000000
vt 0.000000 0.000000
vt 0.000000 0.000000
vt 0.000000 0.000000
vt 0.000000 0.000000
vt 0.000000 0.000000
vt 0.000000 0.000000
vt 0.000000 0.000000
vt 0.000000 0.000000
vt 0.000000 0.000000
vt 0.000000 0.000000
vt 0.000000 0.000000
vt 0.000000 0.000000
vt 0.000000 0.000000
vt 0.000000 0.000000
vt 0.000000 0.000000
vt 0.000000 0.000000
vt 0.000000 0.000000
vt 0.000000 0.000000
vt 0.000000 0.000000
vt 0.000000 0.000000
vt 0.000000 0.000000
vt 0.000000 0.000000
vt 0.000000 0.000000
vt 0.000000 0.000000
vt 0.000000 0.000000
vt 0.000000 0.000000
vt 0.000000 0.000000
vt 0.000000 0.000000
vt 0.000000 0.000000
vt 0.000000 0.000000
vt 0.000000 0.000000
vt 0.000000 0.000000
vt 0.000000 0.000000
vt 0.000000 0.000000
vt 0.000000 0.000000
vt 0.000000 0.000000
vt 0.000000 0.000000
vt 0.000000 0.000000
vt 0.000000 0.000000
vt 0.000000 0.000000
vt 0.000000 0.000000
vt 0.000000 0.000000
vt 0.000000 0.000000
vt 0.000000 0.000000
vt 0.000000 0.000000
vt 0.000000 0.000000
vt 0.000000 0.000000
vt 0.000000 0.000000
vt 0.000000 0.000000
vt 0.000000 0.000000
vt 0.000000 0.000000
vt 0.000000 0.000000
vt 0.000000 0.000000
vt 0.000000 0.000000
vt 0.000000 0.000000
vt 0.000000 0.000000
vt 0.000000 0.000000
vt 0.000000 0.000000
vt 0.000000 0.000000
vt 0.000000 0.000000
vt 0.000000 0.000000
vt 0.000000 0.000000
vt 0.000000 0.000000
vt 0.000000 0.000000
vt 0.000000 0.000000
vt 0.000000 0.000000
vt 0.000000 0.000000
vt 0.000000 0.000000
vt 0.000000 0.000000
vt 0.000000 0.000000
vt 0.000000 0.000000
vt 0.000000 0.000000
vt 0.000000 0.000000
vt 0.000000 0.000000
vt 0.000000 0.000000
vt 0.000000 0.000000
vt 0.000000 0.000000
vt 0.000000 0.000000
vt 0.000000 0.000000
vt 0.000000 0.000000
vt 0.000000 0.000000
vt 0.000000 0.000000
vt 0.000000 0.000000
vt 0.000000 0.000000
vt 0.000000 0.000000
vt 0.000000 0.000000
vt 0.000000 0.000000
vt 0.000000 0.000000
vt 0.000000 0.000000
vt 0.000000 0.000000
vt 0.000000 0.000000
vt 0.000000 0.000000
vt 0.000000 0.000000
vt 0.000000 0.000000
vt 0.000000 0.000000
vt 0.000000 0.000000
vt 0.000000 0.000000
vt 0.000000 0.000000
vt 0.000000 0.000000
vt 0.000000 0.000000
vt 0.000000 0.000000
vt 0.000000 0.000000
vt 0.000000 0.000000
vt 0.000000 0.000000
vt 0.000000 0.000000
vt 0.000000 0.000000
vt 0.000000 0.000000
vt 0.000000 0.000000
vt 0.000000 0.000000
vt 0.000000 0.000000
vt 0.000000 0.000000
vt 0.000000 0.000000
vt 0.000000 0.000000
vt 0.000000 0.000000
vt 0.000000 0.000000
vt 0.000000 0.000000
vt 0.000000 0.000000
vt 0.000000 0.000000
vt 0.000000 0.000000
vt 0.000000 0.000000
vt 0.000000 0.000000
vt 0.000000 0.000000
vt 0.000000 0.000000
vt 0.000000 0.000000
vt 0.000000 0.000000
vt 0.000000 0.000000
vt 0.000000 0.000000
vt 0.000000 0.000000
vt 0.000000 0.000000
vt 0.000000 0.000000
vt 0.000000 0.000000
vt 0.000000 0.000000
vt 0.000000 0.000000
vt 0.000000 0.000000
vt 0.000000 0.000000
vt 0.000000 0.000000
vt 0.000000 0.000000
vt 0.000000 0.000000
vt 0.000000 0.000000
vt 0.000000 0.000000
vt 0.000000 0.000000
vt 0.000000 0.000000
vt 0.000000 0.000000
vt 0.000000 0.000000
vt 0.000000 0.000000
vt 0.000000 0.000000
vt 0.000000 0.000000
vt 0.000000 0.000000
vt 0.000000 0.000000
vt 0.000000 0.000000
vt 0.000000 0.000000
vt 0.000000 0.000000
vt 0.000000 0.000000
vt 0.000000 0.000000
vt 0.000000 0.000000
vt 0.000000 0.000000
vt 0.000000 0.000000
vt 0.000000 0.000000
vt 0.000000 0.000000
vt 0.000000 0.000000
vt 0.000000 0.000000
vt 0.000000 0.000000
vt 0.000000 0.000000
vt 0.000000 0.000000
vt 0.000000 0.000000
vt 0.000000 0.000000
vt 0.000000 0.000000
vt 0.000000 0.000000
vt 0.000000 0.000000
vn 0.0057 0.0032 -1.0000
vn -0.3759 -0.0000 -0.9266
vn -0.3563 -0.6013 -0.7152
vn -0.0348 -0.5341 -0.8447
vn -0.0364 0.5339 -0.8448
vn -0.3563 0.6013 -0.7152
vn 0.8949 -0.0000 0.4463
vn 0.9878 -0.0000 0.1559
vn 0.8516 0.5087 0.1262
vn 0.7845 0.4856 0.3857
vn 0.5262 0.4801 0.7019
vn 0.6063 -0.0000 0.7952
vn 0.5261 -0.4801 0.7019
vn 0.7845 -0.4855 0.3857
vn 0.8516 -0.5087 0.1262
vn 0.1233 -0.9909 0.0537
vn 0.0483 -0.9987 0.0177
vn 0.0944 -0.9889 0.1149
vn -0.7424 -0.5848 -0.3269
vn -0.8445 -0.5348 -0.0279
vn 0.1233 0.9909 0.0537
vn 0.0483 0.9987 0.0177
vn -0.8445 0.5348 -0.0279
vn -0.7424 0.5848 -0.3269
vn 0.0944 0.9889 0.1149
vn -0.8396 -0.5432 -0.0010
vn -0.8299 -0.5578 -0.0043
vn 0.0030 -0.9999 -0.0104
vn 0.0157 -0.9999 0.0058
vn 0.0159 0.9999 -0.0025
vn -0.8387 0.5446 -0.0057
vn 0.8445 0.5352 0.0195
vn -0.0224 0.0381 -0.9990
vn -0.2276 0.5768 -0.7845
vn -0.0130 -0.9999 0.0098
vn 0.0218 -0.5557 0.8311
vn 0.3026 -0.3963 0.8668
vn 0.5439 -0.8392 -0.0000
vn 0.8453 -0.5338 0.0240
vn -0.9644 0.2646 -0.0000
vn -0.9967 0.0817 -0.0000
vn -0.7262 0.0552 0.6853
vn -0.7062 0.1799 0.6848
vn -0.5633 0.3922 0.7272
vn -0.7911 0.6117 -0.0000
vn 0.9996 0.0014 0.0288
vn 0.1702 -0.5035 0.8471
vn 0.0107 -0.9973 0.0724
vn 0.3026 -0.3963 -0.8668
vn 0.0188 -0.5617 -0.8271
vn -1.0000 0.0014 0.0024
vn -1.0000 -0.0000 -0.0027
vn 0.0085 0.9972 0.0740
vn -0.3388 0.9408 0.0104
vn -0.2239 0.5699 0.7906
vn 0.1684 0.5047 0.8467
vn 0.2047 0.0034 0.9788
vn -0.9265 -0.0000 -0.3763
vn 0.0000 -0.9998 -0.0221
vn 0.0000 -0.8392 0.5438
vn 0.8669 -0.3963 0.3026
vn 0.8232 -0.5675 0.0158
vn 0.8313 -0.5558 -0.0031
vn -0.8232 -0.5675 0.0158
vn -0.8668 -0.3963 0.3026
vn 0.0000 0.2646 -0.9644
vn 0.0000 0.0817 -0.9967
vn -0.6853 0.0552 -0.7262
vn -0.6848 0.1799 -0.7062
vn -0.7272 0.3922 -0.5633
vn 0.0000 0.6117 -0.7911
vn 0.7272 0.3922 -0.5633
vn 0.6848 0.1799 -0.7062
vn 0.6853 0.0552 -0.7262
vn 0.9978 -0.0020 -0.0658
vn 0.9998 0.0026 -0.0216
vn 0.9956 0.0287 -0.0898
vn 0.7424 -0.1558 0.6516
vn 0.6972 -0.0081 0.7168
vn -0.9978 -0.0020 -0.0658
vn -0.9998 0.0026 -0.0216
vn -0.6972 -0.0081 0.7168
vn -0.7424 -0.1558 0.6516
vn -0.9956 0.0287 -0.0897
vn -1.0000 0.0008 -0.0088
vn -1.0000 0.0000 -0.0033
vn -0.7074 0.0010 0.7068
vn -0.7056 0.0004 0.7086
vn -0.7006 0.0093 -0.7135
vn -0.7064 -0.0004 -0.7079
vn 1.0000 0.0008 -0.0088
vn 1.0000 0.0000 -0.0033
vn 0.7064 -0.0004 -0.7079
vn 0.7006 0.0093 -0.7135
vn 0.7056 0.0004 0.7086
vn 0.7075 0.0010 0.7068
vn -0.0000 0.0139 -0.9999
vn -0.0000 -0.0007 -1.0000
vn -0.0000 0.0025 1.0000
vn -0.0000 0.0018 1.0000
vn -0.0000 -0.0012 1.0000
vn -0.9989 0.0385 -0.0251
vn -1.0000 0.0055 -0.0017
vn -0.8289 0.5590 -0.0223
vn -0.7805 0.5763 -0.2422
vn 0.0000 0.9330 -0.3600
vn 0.0031 0.9991 -0.0412
vn 0.8303 0.5569 -0.0210
vn 0.7805 0.5763 -0.2422
vn 0.9989 0.0385 -0.0251
vn 1.0000 0.0056 -0.0004
vn 0.0000 -0.1981 0.9802
vn -0.0196 0.0386 0.9991
vn -0.0659 -0.0020 0.9978
vn -0.0216 0.0026 0.9998
vn 0.7168 -0.0081 0.6972
vn 0.6515 -0.1558 0.7424
vn -0.0659 -0.0020 -0.9978
vn -0.7062 0.1799 -0.6848
vn -0.5633 0.3922 -0.7272
vn -0.0898 0.0287 -0.9956
vn -0.0216 0.0026 -0.9998
vn -0.7262 0.0552 -0.6853
vn 0.6516 -0.1558 -0.7424
vn 0.7168 -0.0081 -0.6972
vn -0.0897 0.0287 0.9956
vn -0.0088 0.0008 1.0000
vn -0.0033 0.0000 1.0000
vn 0.7067 0.0010 0.7075
vn 0.7086 0.0003 0.7056
vn -0.7135 0.0093 0.7006
vn -0.7079 -0.0004 0.7064
vn -0.0088 0.0008 -1.0000
vn -0.0033 0.0000 -1.0000
vn -0.7079 -0.0004 -0.7064
vn -0.7135 0.0093 -0.7006
vn 0.7086 0.0003 -0.7056
vn 0.7067 0.0010 -0.7075
vn -0.9999 0.0139 -0.0000
vn -1.0000 -0.0007 0.0000
vn 1.0000 0.0025 -0.0000
vn 1.0000 0.0018 -0.0000
vn 1.0000 -0.0012 -0.0000
vn 0.9802 -0.1982 -0.0000
vn -0.0554 -0.0027 -0.9985
vn -0.3761 -0.0001 -0.9266
vn -0.4279 -0.4121 -0.8044
vn -0.0655 -0.0826 -0.9944
vn -0.0661 0.0777 -0.9948
vn -0.4282 0.4120 -0.8043
vn 0.9046 -0.0000 0.4262
vn 0.9880 -0.0001 0.1546
vn 0.9123 0.3796 0.1537
vn 0.7694 0.4911 0.4085
vn 0.5012 0.5376 0.6780
vn 0.6298 0.0001 0.7768
vn 0.5024 -0.5375 0.6773
vn 0.7694 -0.4911 0.4085
vn 0.9122 -0.3798 0.1537
vn 0.1840 -0.9679 -0.1711
vn 0.7498 -0.6571 0.0773
vn 0.0384 -0.9985 -0.0377
vn -0.9217 0.1051 -0.3734
vn -0.8817 0.4391 -0.1723
vn -0.9670 -0.2518 -0.0383
vn -0.8817 -0.4393 -0.1723
vn -0.9671 0.2513 -0.0383
vn -0.9217 -0.1052 -0.3734
vn 0.1839 0.9679 -0.1711
vn 0.0374 0.9986 -0.0371
vn 0.7505 0.6564 0.0773
vn -0.9208 -0.3900 -0.0015
vn -0.8947 -0.4466 0.0009
vn -0.0063 -1.0000 0.0036
vn -0.0524 -0.9986 0.0038
vn -0.0504 0.9987 -0.0031
vn -0.9255 0.3788 -0.0048
vn -0.8528 0.5217 -0.0210
vn 0.9101 0.4138 0.0242
vn 0.0032 -0.0049 -1.0000
vn 0.0027 0.1112 -0.9938
vn 0.9069 -0.4205 0.0270
vn -0.8524 -0.5225 -0.0210
vn 0.9995 0.0013 0.0302
vn 0.0505 -0.9219 0.3840
vn -0.0075 -0.9437 0.3308
vn -0.0096 -0.9999 -0.0052
vn -0.0156 -0.9998 -0.0115
vn -1.0000 0.0014 0.0039
vn -0.9995 -0.0001 -0.0323
vn -0.0194 0.9998 0.0013
vn -0.0155 0.9998 -0.0089
vn -0.0029 0.5892 0.8080
vn 0.1632 0.5468 0.8212
vn -0.0575 0.8727 -0.4849
vn 0.2169 -0.0035 0.9762
vn 0.2235 -0.1357 0.9652
vn -0.0105 -0.9395 -0.3423
vn -0.0537 -0.9049 -0.4223
vn -0.8930 0.0000 -0.4500
vn 0.8907 -0.4545 0.0031
vn 0.0076 -0.0055 1.0000
vn -1.0000 0.0022 -0.0009
vn 1.0000 0.0023 0.0012
vn -0.0085 0.9999 -0.0094
vn -0.9055 0.4243 -0.0050
vn 0.9006 0.4346 -0.0028
vn -0.0158 0.8978 -0.4402
vn 0.0082 -0.1454 0.9893
vn 0.0037 -0.1202 -0.9927
usemtl Black.006
s 1
f 1/1/1 23/2/2 40/3/3 16/4/4
f 1/1/1 15/5/5 38/6/6 23/2/2
f 2/7/7 28/8/8 44/9/9 22/10/10
f 2/7/7 22/10/10 37/11/11 17/12/12
f 2/7/7 17/12/12 39/13/13 20/14/14
f 2/7/7 20/14/14 42/15/15 28/8/8
f 3/16/16 25/17/17 42/15/15 20/14/14
f 3/16/16 20/14/14 39/13/13 21/18/18
f 3/16/16 21/18/18 40/3/3 18/19/19
f 3/16/16 18/19/19 41/20/20 25/17/17
f 4/21/21 27/22/22 43/23/23 24/24/24
f 4/21/21 24/24/24 38/6/6 19/25/25
f 4/21/21 19/25/25 37/11/11 22/10/10
f 4/21/21 22/10/10 44/9/9 27/22/22
f 30/26/26 91/27/27 66/28/28 6/29/29
f 5/30/30 31/31/31 43/23/23 27/22/22
f 5/30/30 27/22/22 44/9/9 29/32/32
f 1/1/1 107/33/33 109/34/34 15/5/5
f 48/35/35 111/36/36 134/37/37 119/38/38
f 6/29/29 32/39/39 42/15/15 25/17/17
f 6/29/29 25/17/17 41/20/20 30/26/26
f 47/40/40 124/41/41 140/42/42 118/43/43
f 47/40/40 118/43/43 133/44/44 113/45/45
f 7/46/46 29/32/32 44/9/9 28/8/8
f 7/46/46 28/8/8 42/15/15 32/39/39
f 13/47/47 111/36/36 48/35/35 11/48/48
f 48/35/35 119/38/38 136/49/49 112/50/50
f 8/51/51 30/26/26 41/20/20 26/52/52
f 8/51/51 26/52/52 43/23/23 31/31/31
f 9/53/53 106/54/54 110/55/55 14/56/56
f 9/53/53 19/25/25 38/6/6 15/5/5
f 9/53/53 14/56/56 37/11/11 19/25/25
f 10/57/57 17/12/12 37/11/11 14/56/56
f 10/57/57 13/47/47 39/13/13 17/12/12
f 11/48/48 21/18/18 39/13/13 13/47/47
f 11/48/48 48/35/35 112/50/50 16/4/4
f 11/48/48 16/4/4 40/3/3 21/18/18
f 12/58/58 26/52/52 41/20/20 18/19/19
f 12/58/58 18/19/19 40/3/3 23/2/2
f 12/58/58 23/2/2 38/6/6 24/24/24
f 12/58/58 24/24/24 43/23/23 26/52/52
f 49/59/59 75/60/60 96/61/61 64/62/62
f 49/59/59 64/62/62 89/63/63 66/28/28
f 49/59/59 66/28/28 91/27/27 63/64/64
f 49/59/59 63/64/64 94/65/65 75/60/60
f 50/66/66 80/67/67 100/68/68 74/69/69
f 50/66/66 74/69/69 93/70/70 69/71/71
f 50/66/66 69/71/71 95/72/72 72/73/73
f 50/66/66 72/73/73 98/74/74 80/67/67
f 51/75/75 77/76/76 98/74/74 72/73/73
f 51/75/75 72/73/73 95/72/72 73/77/77
f 51/75/75 73/77/77 96/61/61 70/78/78
f 51/75/75 70/78/78 97/79/79 77/76/76
f 52/80/80 79/81/81 99/82/82 76/83/83
f 52/80/80 76/83/83 94/65/65 71/84/84
f 52/80/80 71/84/84 93/70/70 74/69/69
f 52/80/80 74/69/69 100/68/68 79/81/81
f 53/85/85 88/86/86 102/87/87 83/88/88
f 53/85/85 83/88/88 99/82/82 79/81/81
f 53/85/85 79/81/81 100/68/68 81/89/89
f 53/85/85 81/89/89 101/90/90 88/86/86
f 54/91/91 87/92/92 104/93/93 84/94/94
f 54/91/91 84/94/94 98/74/74 77/76/76
f 54/91/91 77/76/76 97/79/79 82/95/95
f 54/91/91 82/95/95 103/96/96 87/92/92
f 55/97/97 86/98/98 101/90/90 81/89/89
f 55/97/97 81/89/89 100/68/68 80/67/67
f 55/97/97 80/67/67 98/74/74 84/94/94
f 55/97/97 84/94/94 104/93/93 86/98/98
f 56/99/99 85/100/100 103/96/96 82/95/95
f 56/99/99 82/95/95 97/79/79 78/101/101
f 56/99/99 78/101/101 99/82/82 83/88/88
f 56/99/99 83/88/88 102/87/87 85/100/100
f 57/102/102 71/84/84 94/65/65 63/64/64
f 57/102/102 63/64/64 91/27/27 67/103/103
f 57/102/102 67/103/103 92/104/104 62/105/105
f 57/102/102 62/105/105 93/70/70 71/84/84
f 58/106/106 69/71/71 93/70/70 62/105/105
f 58/106/106 62/105/105 92/104/104 65/107/107
f 58/106/106 65/107/107 90/108/108 61/109/109
f 58/106/106 61/109/109 95/72/72 69/71/71
f 59/110/110 73/77/77 95/72/72 61/109/109
f 59/110/110 61/109/109 90/108/108 68/111/111
f 59/110/110 68/111/111 89/63/63 64/62/62
f 59/110/110 64/62/62 96/61/61 73/77/77
f 60/112/112 78/101/101 97/79/79 70/78/78
f 60/112/112 70/78/78 96/61/61 75/60/60
f 60/112/112 75/60/60 94/65/65 76/83/83
f 60/112/112 76/83/83 99/82/82 78/101/101
f 6/29/29 66/28/28 89/63/63 32/39/39
f 14/56/56 110/55/55 105/113/113 10/57/57
f 8/51/51 67/103/103 91/27/27 30/26/26
f 32/39/39 89/63/63 68/111/111 7/46/46
f 5/30/30 65/107/107 92/104/104 31/31/31
f 31/31/31 92/104/104 67/103/103 8/51/51
f 7/46/46 68/111/111 90/108/108 29/32/32
f 29/32/32 90/108/108 65/107/107 5/30/30
f 45/114/114 123/115/115 139/116/116 120/117/117
f 46/118/118 116/119/119 135/120/120 117/121/121
f 46/118/118 121/122/122 138/123/123 116/119/119
f 46/118/118 114/124/124 137/125/125 121/122/122
f 46/118/118 117/121/121 136/49/49 114/124/124
f 47/40/40 116/119/119 138/123/123 124/41/41
f 47/40/40 113/45/45 135/120/120 116/119/119
f 45/114/114 120/117/117 134/37/37 115/126/126
f 15/5/5 109/34/34 106/54/54 9/53/53
f 45/114/114 115/126/126 133/44/44 118/43/43
f 45/114/114 118/43/43 140/42/42 123/115/115
f 36/127/127 132/128/128 142/129/129 127/130/130
f 36/127/127 127/130/130 139/116/116 123/115/115
f 36/127/127 123/115/115 140/42/42 125/131/131
f 36/127/127 125/131/131 141/132/132 132/128/128
f 35/133/133 131/134/134 144/135/135 128/136/136
f 35/133/133 128/136/136 138/123/123 121/122/122
f 35/133/133 121/122/122 137/125/125 126/137/137
f 35/133/133 126/137/137 143/138/138 131/134/134
f 34/139/139 130/140/140 141/132/132 125/131/131
f 34/139/139 125/131/131 140/42/42 124/41/41
f 34/139/139 124/41/41 138/123/123 128/136/136
f 34/139/139 128/136/136 144/135/135 130/140/140
f 33/141/141 129/142/142 143/138/138 126/137/137
f 33/141/141 126/137/137 137/125/125 122/143/143
f 33/141/141 122/143/143 139/116/116 127/130/130
f 33/141/141 127/130/130 142/129/129 129/142/142
f 105/113/113 115/126/126 134/37/37 111/36/36
f 105/113/113 110/55/55 133/44/44 115/126/126
f 106/54/54 113/45/45 133/44/44 110/55/55
f 10/57/57 105/113/113 111/36/36 13/47/47
f 16/4/4 112/50/50 107/33/33 1/1/1
f 106/54/54 109/34/34 135/120/120 113/45/45
f 107/33/33 117/121/121 135/120/120 109/34/34
f 107/33/33 112/50/50 136/49/49 117/121/121
f 108/144/144 122/143/143 137/125/125 114/124/124
f 108/144/144 114/124/124 136/49/49 119/38/38
f 108/144/144 119/38/38 134/37/37 120/117/117
f 108/144/144 120/117/117 139/116/116 122/143/143
f 145/145/145 167/146/146 180/147/147 160/148/148
f 145/145/145 159/149/149 178/150/150 167/146/146
f 146/151/151 172/152/152 184/153/153 166/154/154
f 146/151/151 166/154/154 177/155/155 161/156/156
f 146/151/151 161/156/156 179/157/157 164/158/158
f 146/151/151 164/158/158 182/159/159 172/152/152
f 147/160/160 169/161/161 182/159/159 164/158/158
f 147/160/160 164/158/158 179/157/157 165/162/162
f 147/160/160 165/162/162 180/147/147 162/163/163
f 147/160/164 162/163/163 181/164/165 169/161/164
f 148/165/166 171/166/166 183/167/167 168/168/168
f 148/165/169 168/168/168 178/150/150 163/169/170
f 148/165/169 163/169/170 177/155/155 166/154/154
f 148/165/169 166/154/154 184/153/153 171/166/171
f 174/170/172 192/171/173 187/172/174 150/173/175
f 149/174/176 175/175/177 183/167/167 171/166/178
f 149/174/176 171/166/171 184/153/153 173/176/179
f 145/145/145 196/177/180 197/178/181 159/149/149
f 150/173/175 176/179/182 182/159/159 169/161/161
f 150/173/175 169/161/183 181/164/165 174/170/172
f 151/180/184 173/176/179 184/153/153 172/152/152
f 151/180/184 172/152/152 182/159/159 176/179/182
f 157/181/185 199/182/186 185/183/187 155/184/188
f 152/185/189 174/170/172 181/164/165 170/186/190
f 152/185/189 170/186/190 183/167/167 175/175/177
f 153/187/191 195/188/192 198/189/193 158/190/194
f 153/187/191 163/169/170 178/150/150 159/149/195
f 153/187/191 158/190/194 177/155/155 163/169/170
f 154/191/196 161/156/156 177/155/155 158/190/194
f 154/191/196 157/181/197 179/157/157 161/156/156
f 155/184/188 165/162/162 179/157/157 157/181/185
f 155/184/188 185/183/187 200/192/198 160/148/199
f 155/184/188 160/148/199 180/147/147 165/162/162
f 156/193/200 170/186/190 181/164/165 162/163/163
f 156/193/200 162/163/163 180/147/147 167/146/146
f 156/193/200 167/146/146 178/150/150 168/168/168
f 156/193/200 168/168/168 183/167/167 170/186/190
f 150/173/175 187/172/174 190/194/201 176/179/182
f 158/190/194 198/189/193 194/195/202 154/191/196
f 152/185/189 188/196/203 192/171/173 174/170/172
f 176/179/182 190/194/201 189/197/204 151/180/184
f 149/174/176 186/198/205 193/199/206 175/175/177
f 175/175/177 193/199/206 188/196/203 152/185/189
f 151/180/184 189/197/204 191/200/207 173/176/179
f 173/176/179 191/200/207 186/198/205 149/174/176
f 159/149/195 197/178/208 195/188/192 153/187/191
f 154/191/196 194/195/202 199/182/209 157/181/197
f 160/148/148 200/192/210 196/177/180 145/145/145
