# Blender v3.5.0 OBJ File: 'WhitmanWilson_LevelAssignment.blend'
# www.blender.org
mtllib Sign_Corner_3_Fenced_Plane_001.mtl
o Sign_Corner_3_Fenced_Plane.001
v -1.397848 -1.321543 -6.681862
v 0.242844 -0.681329 -5.634581
v -1.397848 -0.681329 -6.681862
v 0.242844 -1.321543 -5.634581
v -1.113849 -1.321543 -5.634581
v -1.397848 -1.321543 -5.918580
v -1.222531 -1.321543 -5.656199
v -1.314667 -1.321543 -5.717762
v -1.376230 -1.321543 -5.809897
v -1.397848 -0.681329 -5.918580
v -1.113849 -0.681329 -5.634581
v -1.376230 -0.681329 -5.809897
v -1.314667 -0.681329 -5.717762
v -1.222531 -0.681329 -5.656199
v -1.337408 -1.307153 -6.684103
v 0.243483 -0.695719 -5.718004
v -1.337408 -0.695719 -6.684103
v 0.243483 -1.307153 -5.718004
v -1.066176 -1.307153 -5.718004
v -1.337408 -1.307153 -5.989236
v -1.169972 -1.307153 -5.738650
v -1.257966 -1.307153 -5.797446
v -1.316762 -1.307153 -5.885440
v -1.337408 -0.695719 -5.989236
v -1.066176 -0.695719 -5.718004
v -1.316762 -0.695719 -5.885440
v -1.257966 -0.695719 -5.797446
v -1.169972 -0.695719 -5.738650
v -1.389169 -1.364888 -6.717810
v 0.280026 -0.637984 -5.641420
v -1.389169 -0.637984 -6.717810
v 0.280026 -1.364888 -5.641420
v -1.112757 -1.364888 -5.643490
v -1.386655 -1.364888 -5.920174
v -1.219236 -1.364888 -5.663763
v -1.308941 -1.364888 -5.723689
v -1.367915 -1.364888 -5.813873
v -1.386655 -0.637984 -5.920174
v -1.112757 -0.637984 -5.643490
v -1.367915 -0.637984 -5.813873
v -1.308941 -0.637984 -5.723689
v -1.219236 -0.637984 -5.663763
v -1.330557 -1.364888 -6.726911
v 0.285182 -0.637984 -5.724045
v -1.330557 -0.637984 -6.726911
v 0.285182 -1.364888 -5.724045
v -1.065537 -1.364888 -5.727166
v -1.325081 -1.364888 -5.989813
v -1.166993 -1.364888 -5.746414
v -1.251952 -1.364888 -5.803165
v -1.307347 -1.364888 -5.888525
v -1.325081 -0.637984 -5.989813
v -1.065537 -0.637984 -5.727166
v -1.307347 -0.637984 -5.888525
v -1.251952 -0.637984 -5.803165
v -1.166994 -0.637984 -5.746414
v -1.365114 -1.312976 -6.680139
v 0.231664 -0.689897 -5.660889
v -1.365115 -0.689897 -6.680139
v 0.231664 -1.312976 -5.660889
v -1.088717 -1.312976 -5.660889
v -1.365114 -1.312976 -5.937285
v -1.194490 -1.312976 -5.681928
v -1.284159 -1.312976 -5.741844
v -1.344075 -1.312976 -5.831512
v -1.365115 -0.689897 -5.937285
v -1.088717 -0.689897 -5.660889
v -1.344075 -0.689897 -5.831512
v -1.284160 -0.689897 -5.741844
v -1.194490 -0.689897 -5.681928
v 0.233101 -0.754835 -5.617529
v -1.407591 -0.754835 -6.664811
v -1.407591 -0.754835 -5.901529
v -1.123592 -0.754835 -5.617530
v -1.385973 -0.754835 -5.792848
v -1.324410 -0.754835 -5.700712
v -1.232274 -0.754835 -5.639149
v 0.233101 -0.790215 -5.617529
v -1.407591 -0.790215 -6.664811
v -1.407591 -0.790215 -5.901529
v -1.123592 -0.790215 -5.617530
v -1.385973 -0.790215 -5.792848
v -1.324410 -0.790215 -5.700712
v -1.232274 -0.790215 -5.639149
v 0.233101 -0.754835 -5.637529
v -1.387591 -0.754835 -6.664811
v -1.387688 -0.754835 -5.903489
v -1.121633 -0.754835 -5.637434
v -1.367496 -0.754835 -5.800501
v -1.310268 -0.754835 -5.714853
v -1.224621 -0.754835 -5.657626
v 0.233101 -0.790215 -5.637529
v -1.387591 -0.790215 -6.664811
v -1.387688 -0.790215 -5.903489
v -1.121633 -0.790215 -5.637434
v -1.367496 -0.790215 -5.800501
v -1.310268 -0.790215 -5.714853
v -1.224621 -0.790215 -5.657626
v 0.233101 -0.899892 -5.617529
v -1.407591 -0.899892 -6.664811
v -1.407591 -0.899892 -5.901529
v -1.123592 -0.899892 -5.617530
v -1.385973 -0.899892 -5.792848
v -1.324410 -0.899892 -5.700712
v -1.232274 -0.899892 -5.639149
v 0.233101 -0.935271 -5.617529
v -1.407591 -0.935271 -6.664811
v -1.407591 -0.935271 -5.901529
v -1.123592 -0.935271 -5.617530
v -1.385973 -0.935271 -5.792848
v -1.324410 -0.935271 -5.700712
v -1.232274 -0.935271 -5.639149
v 0.233101 -0.899892 -5.637529
v -1.387591 -0.899892 -6.664811
v -1.387688 -0.899892 -5.903489
v -1.121633 -0.899892 -5.637434
v -1.367496 -0.899892 -5.800501
v -1.310268 -0.899892 -5.714853
v -1.224621 -0.899892 -5.657626
v 0.233101 -0.935271 -5.637529
v -1.387591 -0.935271 -6.664811
v -1.387688 -0.935271 -5.903489
v -1.121633 -0.935271 -5.637434
v -1.367496 -0.935271 -5.800501
v -1.310268 -0.935271 -5.714853
v -1.224621 -0.935271 -5.657626
v 0.233101 -1.044948 -5.617529
v -1.407591 -1.044948 -6.664811
v -1.407591 -1.044948 -5.901529
v -1.123592 -1.044948 -5.617530
v -1.385973 -1.044948 -5.792848
v -1.324410 -1.044948 -5.700712
v -1.232274 -1.044948 -5.639149
v 0.233101 -1.080328 -5.617529
v -1.407591 -1.080328 -6.664811
v -1.407591 -1.080328 -5.901529
v -1.123592 -1.080328 -5.617530
v -1.385973 -1.080328 -5.792848
v -1.324410 -1.080328 -5.700712
v -1.232274 -1.080328 -5.639149
v 0.233101 -1.044948 -5.637529
v -1.387591 -1.044948 -6.664811
v -1.387688 -1.044948 -5.903489
v -1.121633 -1.044948 -5.637434
v -1.367496 -1.044948 -5.800501
v -1.310268 -1.044948 -5.714853
v -1.224621 -1.044948 -5.657626
v 0.233101 -1.080328 -5.637529
v -1.387591 -1.080328 -6.664811
v -1.387688 -1.080328 -5.903489
v -1.121633 -1.080328 -5.637434
v -1.367496 -1.080328 -5.800501
v -1.310268 -1.080328 -5.714853
v -1.224621 -1.080328 -5.657626
v 0.233101 -1.190005 -5.617529
v -1.407591 -1.190005 -6.664811
v -1.407591 -1.190005 -5.901529
v -1.123592 -1.190005 -5.617530
v -1.385973 -1.190005 -5.792848
v -1.324410 -1.190005 -5.700712
v -1.232274 -1.190005 -5.639149
v 0.233101 -1.225384 -5.617529
v -1.407591 -1.225384 -6.664811
v -1.407591 -1.225384 -5.901529
v -1.123592 -1.225384 -5.617530
v -1.385973 -1.225384 -5.792848
v -1.324410 -1.225384 -5.700712
v -1.232274 -1.225384 -5.639149
v 0.233101 -1.190005 -5.637529
v -1.387591 -1.190005 -6.664811
v -1.387688 -1.190005 -5.903489
v -1.121633 -1.190005 -5.637434
v -1.367496 -1.190005 -5.800501
v -1.310268 -1.190005 -5.714853
v -1.224621 -1.190005 -5.657626
v 0.233101 -1.225384 -5.637529
v -1.387591 -1.225384 -6.664811
v -1.387688 -1.225384 -5.903489
v -1.121633 -1.225384 -5.637434
v -1.367496 -1.225384 -5.800501
v -1.310268 -1.225384 -5.714853
v -1.224621 -1.225384 -5.657626
vt 0.280258 0.616585
vt 0.422972 0.616585
vt 0.422972 0.736288
vt 0.280257 0.736288
vt 0.505847 0.616585
vt 0.505847 0.736288
vt 0.485128 0.736288
vt 0.485128 0.616585
vt 0.464409 0.736288
vt 0.464409 0.616585
vt 0.443690 0.736288
vt 0.443690 0.616585
vt 0.759513 0.616585
vt 0.759513 0.736288
vt 0.000000 0.000000
vt 0.000000 0.000000
vt 0.000000 0.000000
vt 0.000000 0.000000
vt 0.000000 0.000000
vt 0.000000 0.000000
vt 0.000000 0.000000
vt 0.000000 0.000000
vt 0.000000 0.000000
vt 0.000000 0.000000
vt 0.000000 0.000000
vt 0.000000 0.000000
vt 0.000000 0.000000
vt 0.000000 0.000000
vt 0.000000 0.000000
vt 0.000000 0.000000
vt 0.000000 0.000000
vt 0.000000 0.000000
vt 0.000000 0.000000
vt 0.000000 0.000000
vt 0.000000 0.000000
vt 0.000000 0.000000
vt 0.000000 0.000000
vt 0.000000 0.000000
vt 0.000000 0.000000
vt 0.000000 0.000000
vt 0.000000 0.000000
vt 0.000000 0.000000
vt 0.000000 0.000000
vt 0.000000 0.000000
vt 0.000000 0.000000
vt 0.000000 0.000000
vt 0.000000 0.000000
vt 0.000000 0.000000
vt 0.000000 0.000000
vt 0.000000 0.000000
vt 0.000000 0.000000
vt 0.000000 0.000000
vt 0.000000 0.000000
vt 0.000000 0.000000
vt 0.000000 0.000000
vt 0.000000 0.000000
vt 0.000000 0.000000
vt 0.000000 0.000000
vt 0.000000 0.000000
vt 0.000000 0.000000
vt 0.000000 0.000000
vt 0.000000 0.000000
vt 0.000000 0.000000
vt 0.000000 0.000000
vt 0.000000 0.000000
vt 0.000000 0.000000
vt 0.000000 0.000000
vt 0.000000 0.000000
vt 0.000000 0.000000
vt 0.000000 0.000000
vt 0.000000 0.000000
vt 0.000000 0.000000
vt 0.000000 0.000000
vt 0.000000 0.000000
vt 0.000000 0.000000
vt 0.000000 0.000000
vt 0.000000 0.000000
vt 0.000000 0.000000
vt 0.000000 0.000000
vt 0.000000 0.000000
vt 0.000000 0.000000
vt 0.000000 0.000000
vt 0.000000 0.000000
vt 0.000000 0.000000
vt 0.000000 0.000000
vt 0.000000 0.000000
vt 0.000000 0.000000
vt 0.000000 0.000000
vt 0.000000 0.000000
vt 0.000000 0.000000
vt 0.000000 0.000000
vt 0.000000 0.000000
vt 0.000000 0.000000
vt 0.000000 0.000000
vt 0.000000 0.000000
vt 0.000000 0.000000
vt 0.000000 0.000000
vt 0.000000 0.000000
vt 0.000000 0.000000
vt 0.000000 0.000000
vt 0.000000 0.000000
vt 0.000000 0.000000
vt 0.000000 0.000000
vt 0.000000 0.000000
vt 0.000000 0.000000
vt 0.000000 0.000000
vt 0.000000 0.000000
vt 0.000000 0.000000
vt 0.000000 0.000000
vt 0.000000 0.000000
vt 0.000000 0.000000
vt 0.000000 0.000000
vt 0.000000 0.000000
vt 0.000000 0.000000
vt 0.000000 0.000000
vt 0.000000 0.000000
vt 0.000000 0.000000
vt 0.000000 0.000000
vt 0.000000 0.000000
vt 0.000000 0.000000
vt 0.000000 0.000000
vt 0.000000 0.000000
vt 0.000000 0.000000
vt 0.000000 0.000000
vt 0.000000 0.000000
vt 0.000000 0.000000
vt 0.000000 0.000000
vt 0.000000 0.000000
vt 0.000000 0.000000
vt 0.000000 0.000000
vt 0.000000 0.000000
vt 0.000000 0.000000
vt 0.000000 0.000000
vt 0.000000 0.000000
vt 0.000000 0.000000
vt 0.000000 0.000000
vt 0.000000 0.000000
vt 0.000000 0.000000
vt 0.000000 0.000000
vt 0.000000 0.000000
vt 0.000000 0.000000
vt 0.000000 0.000000
vt 0.000000 0.000000
vt 0.000000 0.000000
vt 0.000000 0.000000
vt 0.000000 0.000000
vt 0.000000 0.000000
vt 0.000000 0.000000
vt 0.000000 0.000000
vt 0.000000 0.000000
vt 0.000000 0.000000
vt 0.000000 0.000000
vt 0.000000 0.000000
vt 0.000000 0.000000
vt 0.000000 0.000000
vt 0.000000 0.000000
vt 0.000000 0.000000
vt 0.000000 0.000000
vt 0.000000 0.000000
vt 0.000000 0.000000
vt 0.000000 0.000000
vt 0.000000 0.000000
vt 0.000000 0.000000
vt 0.000000 0.000000
vt 0.000000 0.000000
vt 0.000000 0.000000
vt 0.000000 0.000000
vt 0.000000 0.000000
vt 0.000000 0.000000
vt 0.000000 0.000000
vt 0.000000 0.000000
vt 0.000000 0.000000
vt 0.000000 0.000000
vt 0.000000 0.000000
vt 0.000000 0.000000
vt 0.000000 0.000000
vt 0.000000 0.000000
vt 0.000000 0.000000
vt 0.000000 0.000000
vt 0.000000 0.000000
vt 0.000000 0.000000
vt 0.000000 0.000000
vn -1.0000 -0.0000 -0.0000
vn -0.9952 -0.0000 0.0980
vn -0.0980 0.0000 0.9952
vn -0.3827 -0.0000 0.9239
vn -0.7071 -0.0000 0.7071
vn -0.9239 -0.0000 0.3827
vn 0.0000 0.0000 1.0000
vn -0.1022 0.9891 0.1059
vn -0.1074 0.9890 0.1022
vn -0.1681 0.9842 0.0551
vn -0.1485 0.9864 0.0710
vn -0.1485 -0.9864 0.0710
vn -0.1681 -0.9842 0.0551
vn -0.1074 -0.9890 0.1022
vn -0.1022 -0.9891 0.1059
vn 0.0371 0.0000 0.9993
vn -0.2202 0.9754 0.0103
vn -0.1999 0.9794 0.0285
vn -1.0000 0.0000 -0.0077
vn -0.1999 -0.9794 0.0285
vn -0.2202 -0.9754 0.0103
vn -0.0195 0.9871 0.1591
vn -0.0114 0.9865 0.1636
vn -0.0532 0.9889 0.1387
vn -0.0589 0.9891 0.1351
vn -0.0195 -0.9871 0.1591
vn -0.0114 -0.9865 0.1636
vn -0.0000 -0.9854 0.1700
vn -0.0589 -0.9891 0.1351
vn -0.0532 -0.9889 0.1387
vn 0.0000 0.9854 0.1700
vn -0.2316 0.9728 0.0000
vn -0.2316 -0.9728 0.0000
vn 0.0000 -1.0000 0.0000
vn 0.0000 1.0000 0.0000
vn -0.1534 0.0000 -0.9882
vn 0.9981 0.0000 0.0623
vn -0.9864 -0.1092 -0.1228
vn -0.9864 0.1092 -0.1228
vn -0.9865 0.1265 -0.1044
vn -0.9865 -0.1265 -0.1044
vn 0.0938 0.0874 0.9918
vn 0.0938 -0.0874 0.9918
vn 0.0821 -0.0988 0.9917
vn 0.0821 0.0988 0.9917
vn -0.0948 -0.1866 0.9778
vn -0.3743 -0.1919 0.9073
vn -0.3734 -0.1919 0.9076
vn -0.0942 -0.1866 0.9779
vn -0.3743 0.1919 0.9073
vn -0.0948 0.1866 0.9778
vn -0.0942 0.1866 0.9779
vn -0.3734 0.1919 0.9076
vn -0.6951 -0.1928 0.6926
vn -0.6957 -0.1929 0.6919
vn -0.6951 0.1928 0.6926
vn -0.6957 0.1928 0.6919
vn -0.9045 -0.2146 0.3686
vn -0.9056 -0.2149 0.3657
vn -0.9045 0.2146 0.3686
vn -0.9056 0.2149 0.3657
vn -0.9697 -0.2264 0.0916
vn -0.9698 -0.2264 0.0903
vn -0.9697 0.2264 0.0916
vn -0.9698 0.2264 0.0903
vn 0.9935 -0.0780 0.0827
vn 0.9935 0.0780 0.0827
vn 0.9932 0.0986 0.0625
vn 0.9932 -0.0986 0.0625
vn -0.0763 0.0614 -0.9952
vn -0.0763 -0.0614 -0.9952
vn -0.0568 -0.0790 -0.9953
vn -0.0568 0.0790 -0.9953
vn 0.3762 0.1464 -0.9149
vn 0.0951 0.1402 -0.9855
vn 0.0956 0.1402 -0.9855
vn 0.3770 0.1464 -0.9146
vn 0.0951 -0.1402 -0.9855
vn 0.3762 -0.1464 -0.9149
vn 0.3770 -0.1464 -0.9146
vn 0.0956 -0.1402 -0.9855
vn 0.7017 0.1483 -0.6968
vn 0.7012 0.1483 -0.6974
vn 0.7018 -0.1483 -0.6968
vn 0.7012 -0.1482 -0.6974
vn 0.9136 0.1731 -0.3678
vn 0.9126 0.1729 -0.3704
vn 0.9136 -0.1731 -0.3678
vn 0.9126 -0.1729 -0.3704
vn 0.9799 0.1770 -0.0920
vn 0.9798 0.1772 -0.0931
vn 0.9799 -0.1770 -0.0920
vn 0.9798 -0.1772 -0.0931
vn 0.9953 0.0000 -0.0966
vn 0.9244 0.0000 -0.3814
vn 0.7071 0.0000 -0.7071
vn 0.3814 0.0000 -0.9244
vn 0.0966 0.0000 -0.9953
vn -0.0001 0.0000 -1.0000
vn 1.0000 0.0000 0.0001
vn 1.0000 0.0000 0.0000
vn 0.0000 0.0000 -1.0000
usemtl Texture_Signs.013
s 1
f 57/1/1 62/2/2 66/3/2 59/4/1
f 61/5/3 67/6/3 70/7/4 63/8/4
f 63/8/4 70/7/4 69/9/5 64/10/5
f 64/10/5 69/9/5 68/11/6 65/12/6
f 65/12/6 68/11/6 66/3/2 62/2/2
f 67/6/3 61/5/3 60/13/7 58/14/7
usemtl DarkGrey.010
f 8/15/8 22/16/9 23/17/10 9/18/11
f 12/19/12 26/20/13 27/21/14 13/22/15
f 1/23/16 15/24/16 17/25/16 3/26/16
f 9/18/11 23/17/10 20/27/17 6/28/18
f 2/29/19 16/30/19 18/31/19 4/32/19
f 10/33/20 24/34/21 26/20/13 12/19/12
f 5/35/22 19/36/23 21/37/24 7/38/25
f 11/39/26 25/40/27 16/30/28 2/29/28
f 14/41/29 28/42/30 25/40/27 11/39/26
f 4/32/31 18/31/31 19/36/23 5/35/22
f 7/38/25 21/37/24 22/16/9 8/15/8
f 6/28/18 20/27/17 15/24/32 1/23/32
f 13/22/15 27/21/14 28/42/30 14/41/29
f 3/26/33 17/25/33 24/34/21 10/33/20
f 36/43/34 37/44/34 51/45/34 50/46/34
f 40/47/35 41/48/35 55/49/35 54/50/35
f 29/51/36 31/52/36 45/53/36 43/54/36
f 37/44/34 34/55/34 48/56/34 51/45/34
f 30/57/37 32/58/37 46/59/37 44/60/37
f 38/61/35 40/47/35 54/50/35 52/62/35
f 33/63/34 35/64/34 49/65/34 47/66/34
f 39/67/35 30/57/35 44/60/35 53/68/35
f 42/69/35 39/67/35 53/68/35 56/70/35
f 32/58/34 33/63/34 47/66/34 46/59/34
f 35/64/34 36/43/34 50/46/34 49/65/34
f 34/55/34 29/51/34 43/54/34 48/56/34
f 41/48/35 42/69/35 56/70/35 55/49/35
f 31/52/35 38/61/35 52/62/35 45/53/35
f 1/23/38 3/26/39 31/52/40 29/51/41
f 2/29/42 4/32/43 32/58/44 30/57/45
f 5/35/46 7/38/47 35/64/48 33/63/49
f 14/41/50 11/39/51 39/67/52 42/69/53
f 7/38/47 8/15/54 36/43/55 35/64/48
f 13/22/56 14/41/50 42/69/53 41/48/57
f 8/15/54 9/18/58 37/44/59 36/43/55
f 12/19/60 13/22/56 41/48/57 40/47/61
f 9/18/58 6/28/62 34/55/63 37/44/59
f 10/33/64 12/19/60 40/47/61 38/61/65
f 11/39/51 2/29/42 30/57/45 39/67/52
f 4/32/43 5/35/46 33/63/49 32/58/44
f 6/28/62 1/23/38 29/51/41 34/55/63
f 3/26/39 10/33/64 38/61/65 31/52/40
f 17/25/66 15/24/67 43/54/68 45/53/69
f 18/31/70 16/30/71 44/60/72 46/59/73
f 21/37/74 19/36/75 47/66/76 49/65/77
f 25/40/78 28/42/79 56/70/80 53/68/81
f 22/16/82 21/37/74 49/65/77 50/46/83
f 28/42/79 27/21/84 55/49/85 56/70/80
f 23/17/86 22/16/82 50/46/83 51/45/87
f 27/21/84 26/20/88 54/50/89 55/49/85
f 20/27/90 23/17/86 51/45/87 48/56/91
f 26/20/88 24/34/92 52/62/93 54/50/89
f 16/30/71 25/40/78 53/68/81 44/60/72
f 19/36/75 18/31/70 46/59/73 47/66/76
f 15/24/67 20/27/90 48/56/91 43/54/68
f 24/34/92 17/25/66 45/53/69 52/62/93
f 73/71/2 80/72/2 82/73/6 75/74/6
f 76/75/5 83/76/5 84/77/4 77/78/4
f 74/79/3 81/80/3 78/81/7 71/82/7
f 75/74/6 82/73/6 83/76/5 76/75/5
f 77/78/4 84/77/4 81/80/3 74/79/3
f 72/83/1 79/84/1 80/72/2 73/71/2
f 87/85/94 89/86/95 96/87/95 94/88/94
f 90/89/96 91/90/97 98/91/97 97/92/96
f 88/93/98 85/94/99 92/95/99 95/96/98
f 89/86/95 90/89/96 97/92/96 96/87/95
f 91/90/97 88/93/98 95/96/98 98/91/97
f 86/97/100 87/85/94 94/88/94 93/98/100
f 77/78/35 74/79/35 88/93/35 91/90/35
f 76/75/35 77/78/35 91/90/35 90/89/35
f 75/74/35 76/75/35 90/89/35 89/86/35
f 73/71/35 75/74/35 89/86/35 87/85/35
f 74/79/35 71/82/35 85/94/35 88/93/35
f 72/83/35 73/71/35 87/85/35 86/97/35
f 81/80/34 84/77/34 98/91/34 95/96/34
f 84/77/34 83/76/34 97/92/34 98/91/34
f 83/76/34 82/73/34 96/87/34 97/92/34
f 82/73/34 80/72/34 94/88/34 96/87/34
f 78/81/34 81/80/34 95/96/34 92/95/34
f 80/72/34 79/84/34 93/98/34 94/88/34
f 71/82/101 78/81/101 92/95/101 85/94/101
f 79/84/102 72/83/102 86/97/102 93/98/102
f 101/99/2 108/100/2 110/101/6 103/102/6
f 104/103/5 111/104/5 112/105/4 105/106/4
f 102/107/3 109/108/3 106/109/7 99/110/7
f 103/102/6 110/101/6 111/104/5 104/103/5
f 105/106/4 112/105/4 109/108/3 102/107/3
f 100/111/1 107/112/1 108/100/2 101/99/2
f 115/113/94 117/114/95 124/115/95 122/116/94
f 118/117/96 119/118/97 126/119/97 125/120/96
f 116/121/98 113/122/99 120/123/99 123/124/98
f 117/114/95 118/117/96 125/120/96 124/115/95
f 119/118/97 116/121/98 123/124/98 126/119/97
f 114/125/100 115/113/94 122/116/94 121/126/100
f 105/106/35 102/107/35 116/121/35 119/118/35
f 104/103/35 105/106/35 119/118/35 118/117/35
f 103/102/35 104/103/35 118/117/35 117/114/35
f 101/99/35 103/102/35 117/114/35 115/113/35
f 102/107/35 99/110/35 113/122/35 116/121/35
f 100/111/35 101/99/35 115/113/35 114/125/35
f 109/108/34 112/105/34 126/119/34 123/124/34
f 112/105/34 111/104/34 125/120/34 126/119/34
f 111/104/34 110/101/34 124/115/34 125/120/34
f 110/101/34 108/100/34 122/116/34 124/115/34
f 106/109/34 109/108/34 123/124/34 120/123/34
f 108/100/34 107/112/34 121/126/34 122/116/34
f 99/110/101 106/109/101 120/123/101 113/122/101
f 107/112/102 100/111/102 114/125/102 121/126/102
f 129/127/2 136/128/2 138/129/6 131/130/6
f 132/131/5 139/132/5 140/133/4 133/134/4
f 130/135/3 137/136/3 134/137/7 127/138/7
f 131/130/6 138/129/6 139/132/5 132/131/5
f 133/134/4 140/133/4 137/136/3 130/135/3
f 128/139/1 135/140/1 136/128/2 129/127/2
f 143/141/94 145/142/95 152/143/95 150/144/94
f 146/145/96 147/146/97 154/147/97 153/148/96
f 144/149/98 141/150/99 148/151/99 151/152/98
f 145/142/95 146/145/96 153/148/96 152/143/95
f 147/146/97 144/149/98 151/152/98 154/147/97
f 142/153/100 143/141/94 150/144/94 149/154/100
f 133/134/35 130/135/35 144/149/35 147/146/35
f 132/131/35 133/134/35 147/146/35 146/145/35
f 131/130/35 132/131/35 146/145/35 145/142/35
f 129/127/35 131/130/35 145/142/35 143/141/35
f 130/135/35 127/138/35 141/150/35 144/149/35
f 128/139/35 129/127/35 143/141/35 142/153/35
f 137/136/34 140/133/34 154/147/34 151/152/34
f 140/133/34 139/132/34 153/148/34 154/147/34
f 139/132/34 138/129/34 152/143/34 153/148/34
f 138/129/34 136/128/34 150/144/34 152/143/34
f 134/137/34 137/136/34 151/152/34 148/151/34
f 136/128/34 135/140/34 149/154/34 150/144/34
f 127/138/101 134/137/101 148/151/101 141/150/101
f 135/140/102 128/139/102 142/153/102 149/154/102
f 157/155/2 164/156/2 166/157/6 159/158/6
f 160/159/5 167/160/5 168/161/4 161/162/4
f 158/163/3 165/164/3 162/165/7 155/166/7
f 159/158/6 166/157/6 167/160/5 160/159/5
f 161/162/4 168/161/4 165/164/3 158/163/3
f 156/167/1 163/168/1 164/156/2 157/155/2
f 171/169/94 173/170/95 180/171/95 178/172/94
f 174/173/96 175/174/97 182/175/97 181/176/96
f 172/177/98 169/178/99 176/179/99 179/180/98
f 173/170/95 174/173/96 181/176/96 180/171/95
f 175/174/97 172/177/98 179/180/98 182/175/97
f 170/181/100 171/169/94 178/172/94 177/182/100
f 161/162/35 158/163/35 172/177/35 175/174/35
f 160/159/35 161/162/35 175/174/35 174/173/35
f 159/158/35 160/159/35 174/173/35 173/170/35
f 157/155/35 159/158/35 173/170/35 171/169/35
f 158/163/35 155/166/35 169/178/35 172/177/35
f 156/167/35 157/155/35 171/169/35 170/181/35
f 165/164/34 168/161/34 182/175/34 179/180/34
f 168/161/34 167/160/34 181/176/34 182/175/34
f 167/160/34 166/157/34 180/171/34 181/176/34
f 166/157/34 164/156/34 178/172/34 180/171/34
f 162/165/34 165/164/34 179/180/34 176/179/34
f 164/156/34 163/168/34 177/182/34 178/172/34
f 155/166/101 162/165/101 176/179/101 169/178/101
f 163/168/102 156/167/102 170/181/102 177/182/102
