# Blender v3.5.0 OBJ File: 'WhitmanWilson_LevelAssignment.blend'
# www.blender.org
mtllib Sign_Corner_Small1_Plane_002.mtl
o Sign_Corner_Small1_Plane.002_Sign_Corner_Small1_Plane.003
v -6.228075 3.838295 -6.942893
v -5.761257 4.262830 -6.470140
v -6.228075 4.262830 -6.942893
v -5.761257 3.838295 -6.470140
v -5.993919 3.838295 -6.470140
v -6.228075 3.838295 -6.726331
v -6.083527 3.838295 -6.489641
v -6.159492 3.838295 -6.545176
v -6.210250 3.838295 -6.628291
v -6.228075 4.262830 -6.726331
v -5.993919 4.262830 -6.470140
v -6.210250 4.262830 -6.628291
v -6.159492 4.262830 -6.545176
v -6.083527 4.262830 -6.489641
v -6.178242 3.847837 -6.944915
v -5.760730 4.253288 -6.545394
v -6.178242 4.253288 -6.944915
v -5.760730 3.847837 -6.545394
v -5.954613 3.847837 -6.545394
v -6.178242 3.847837 -6.790069
v -6.040192 3.847837 -6.564019
v -6.112742 3.847837 -6.617058
v -6.161220 3.847837 -6.696436
v -6.178242 4.253288 -6.790069
v -5.954613 4.253288 -6.545394
v -6.161220 4.253288 -6.696436
v -6.112742 4.253288 -6.617058
v -6.040192 4.253288 -6.564019
v -6.220919 3.809552 -6.975321
v -5.730601 4.291573 -6.476310
v -6.220919 4.291573 -6.975321
v -5.730600 3.809552 -6.476310
v -5.993019 3.809552 -6.478176
v -6.218846 3.809552 -6.727769
v -6.080810 3.809552 -6.496464
v -6.154771 3.809552 -6.550523
v -6.203395 3.809552 -6.631876
v -6.218846 4.291573 -6.727769
v -5.993019 4.291573 -6.478176
v -6.203395 4.291573 -6.631876
v -6.154771 4.291573 -6.550523
v -6.080810 4.291573 -6.496464
v -6.172594 3.809552 -6.983531
v -5.726349 4.291573 -6.550844
v -6.172593 4.291573 -6.983531
v -5.726349 3.809552 -6.550844
v -5.954086 3.809552 -6.553659
v -6.168078 3.809552 -6.790589
v -6.037736 3.809552 -6.571023
v -6.107784 3.809552 -6.622218
v -6.153457 3.809552 -6.699220
v -6.168078 4.291573 -6.790589
v -5.954086 4.291573 -6.553659
v -6.153457 4.291573 -6.699220
v -6.107784 4.291573 -6.622218
v -6.037737 4.291573 -6.571023
v -6.201086 3.843976 -6.941338
v -5.770475 4.257148 -6.493872
v -6.201086 4.257148 -6.941338
v -5.770475 3.843976 -6.493872
v -5.973198 3.843976 -6.493872
v -6.201086 3.843976 -6.743206
v -6.060407 3.843976 -6.512851
v -6.134338 3.843976 -6.566900
v -6.183739 3.843976 -6.647789
v -6.201086 4.257148 -6.743206
v -5.973198 4.257148 -6.493872
v -6.183739 4.257148 -6.647789
v -6.134339 4.257148 -6.566900
v -6.060407 4.257148 -6.512851
vt 0.608048 0.157159
vt 0.645467 0.157159
vt 0.645467 0.253171
vt 0.608048 0.253171
vt 0.611493 0.246096
vt 0.611493 0.250499
vt 0.610939 0.250499
vt 0.610939 0.246096
vt 0.700586 0.157159
vt 0.700586 0.253171
vt 0.682213 0.253171
vt 0.682213 0.157159
vt 0.663840 0.253171
vt 0.663840 0.157159
vt 0.612757 0.246096
vt 0.612757 0.250499
vt 0.000000 0.000000
vt 0.000000 0.000000
vt 0.000000 0.000000
vt 0.000000 0.000000
vt 0.000000 0.000000
vt 0.000000 0.000000
vt 0.000000 0.000000
vt 0.000000 0.000000
vt 0.000000 0.000000
vt 0.000000 0.000000
vt 0.000000 0.000000
vt 0.000000 0.000000
vt 0.000000 0.000000
vt 0.000000 0.000000
vt 0.000000 0.000000
vt 0.000000 0.000000
vt 0.000000 0.000000
vt 0.000000 0.000000
vt 0.000000 0.000000
vt 0.000000 0.000000
vt 0.000000 0.000000
vt 0.000000 0.000000
vt 0.000000 0.000000
vt 0.000000 0.000000
vt 0.000000 0.000000
vt 0.000000 0.000000
vt 0.000000 0.000000
vt 0.000000 0.000000
vt 0.000000 0.000000
vt 0.000000 0.000000
vt 0.000000 0.000000
vt 0.000000 0.000000
vt 0.000000 0.000000
vt 0.000000 0.000000
vt 0.000000 0.000000
vt 0.000000 0.000000
vt 0.000000 0.000000
vt 0.000000 0.000000
vt 0.000000 0.000000
vt 0.000000 0.000000
vt 0.000000 0.000000
vt 0.000000 0.000000
vt 0.000000 0.000000
vt 0.000000 0.000000
vt 0.000000 0.000000
vt 0.000000 0.000000
vt 0.000000 0.000000
vt 0.000000 0.000000
vt 0.000000 0.000000
vt 0.000000 0.000000
vt 0.000000 0.000000
vt 0.000000 0.000000
vt 0.000000 0.000000
vt 0.000000 0.000000
vt 0.000000 0.000000
vt 0.000000 0.000000
vn -1.0000 -0.0000 0.0000
vn -0.9960 -0.0000 0.0898
vn -0.1069 0.0000 0.9943
vn -0.4103 0.0000 0.9120
vn -0.7358 -0.0000 0.6772
vn -0.9345 -0.0000 0.3561
vn 0.0000 0.0000 1.0000
vn -0.0814 0.9935 0.0789
vn -0.0877 0.9933 0.0748
vn -0.1371 0.9898 0.0399
vn -0.1188 0.9915 0.0534
vn -0.1188 -0.9915 0.0534
vn -0.1371 -0.9898 0.0399
vn -0.0877 -0.9933 0.0748
vn -0.0814 -0.9935 0.0789
vn 0.0405 0.0000 0.9992
vn -0.1792 0.9838 0.0071
vn -0.1613 0.9867 0.0216
vn -1.0000 0.0000 -0.0070
vn -0.1613 -0.9867 0.0216
vn -0.1792 -0.9838 0.0071
vn -0.0154 0.9929 0.1178
vn -0.0096 0.9926 0.1209
vn -0.0438 0.9938 0.1020
vn -0.0466 0.9939 0.1004
vn -0.0154 -0.9929 0.1178
vn -0.0096 -0.9926 0.1209
vn -0.0000 -0.9921 0.1258
vn -0.0466 -0.9939 0.1004
vn -0.0438 -0.9938 0.1020
vn 0.0000 0.9921 0.1258
vn -0.1881 0.9822 0.0000
vn -0.1881 -0.9822 0.0000
vn 0.0000 -1.0000 0.0000
vn 0.0000 1.0000 -0.0000
vn -0.1675 0.0000 -0.9859
vn 0.9984 0.0000 0.0569
vn -0.9841 -0.1439 -0.1045
vn -0.9841 0.1439 -0.1045
vn -0.9847 0.1303 -0.1153
vn -0.9847 -0.1303 -0.1153
vn 0.0967 0.1241 0.9876
vn 0.0967 -0.1241 0.9876
vn 0.1020 -0.1177 0.9878
vn 0.1020 0.1177 0.9878
vn -0.1031 -0.2507 0.9626
vn -0.3940 -0.2539 0.8834
vn -0.3964 -0.2537 0.8823
vn -0.1029 -0.2507 0.9626
vn -0.3940 0.2539 0.8834
vn -0.1031 0.2507 0.9626
vn -0.1029 0.2507 0.9626
vn -0.3964 0.2538 0.8823
vn -0.7124 -0.2470 0.6569
vn -0.7165 -0.2471 0.6523
vn -0.7124 0.2470 0.6569
vn -0.7165 0.2471 0.6523
vn -0.9017 -0.2660 0.3408
vn -0.9041 -0.2667 0.3338
vn -0.9017 0.2660 0.3408
vn -0.9041 0.2667 0.3338
vn -0.9567 -0.2786 0.0846
vn -0.9569 -0.2786 0.0825
vn -0.9567 0.2786 0.0846
vn -0.9569 0.2786 0.0825
vn 0.9922 -0.1053 0.0664
vn 0.9922 0.1053 0.0664
vn 0.9922 0.1048 0.0668
vn 0.9922 -0.1048 0.0668
vn -0.0774 0.0882 -0.9931
vn -0.0774 -0.0882 -0.9931
vn -0.0699 -0.0964 -0.9929
vn -0.0699 0.0964 -0.9929
vn 0.3986 0.1949 -0.8962
vn 0.1051 0.1900 -0.9761
vn 0.1063 0.1901 -0.9760
vn 0.4024 0.1948 -0.8945
vn 0.1052 -0.1900 -0.9761
vn 0.3986 -0.1949 -0.8962
vn 0.4024 -0.1948 -0.8945
vn 0.1063 -0.1901 -0.9760
vn 0.7233 0.1908 -0.6636
vn 0.7253 0.1909 -0.6615
vn 0.7233 -0.1908 -0.6636
vn 0.7253 -0.1909 -0.6615
vn 0.9153 0.2155 -0.3403
vn 0.9151 0.2155 -0.3409
vn 0.9153 -0.2155 -0.3403
vn 0.9151 -0.2155 -0.3408
vn 0.9714 0.2206 -0.0881
vn 0.9713 0.2207 -0.0891
vn 0.9714 -0.2206 -0.0881
vn 0.9713 -0.2207 -0.0891
usemtl Texture_Signs.015
s 1
f 57/1/1 62/2/2 66/3/2 59/4/1
f 61/5/3 67/6/3 70/7/4 63/8/4
f 63/9/4 70/10/4 69/11/5 64/12/5
f 64/12/5 69/11/5 68/13/6 65/14/6
f 65/14/6 68/13/6 66/3/2 62/2/2
f 67/6/3 61/5/3 60/15/7 58/16/7
usemtl DarkGrey.011
f 8/17/8 22/18/9 23/19/10 9/20/11
f 12/21/12 26/22/13 27/23/14 13/24/15
f 1/25/16 15/26/16 17/27/16 3/28/16
f 9/20/11 23/19/10 20/29/17 6/30/18
f 2/31/19 16/32/19 18/33/19 4/34/19
f 10/35/20 24/36/21 26/22/13 12/21/12
f 5/37/22 19/38/23 21/39/24 7/40/25
f 11/41/26 25/42/27 16/32/28 2/31/28
f 14/43/29 28/44/30 25/42/27 11/41/26
f 4/34/31 18/33/31 19/38/23 5/37/22
f 7/40/25 21/39/24 22/18/9 8/17/8
f 6/30/18 20/29/17 15/26/32 1/25/32
f 13/24/15 27/23/14 28/44/30 14/43/29
f 3/28/33 17/27/33 24/36/21 10/35/20
f 36/45/34 37/46/34 51/47/34 50/48/34
f 40/49/35 41/50/35 55/51/35 54/52/35
f 29/53/36 31/54/36 45/55/36 43/56/36
f 37/46/34 34/57/34 48/58/34 51/47/34
f 30/59/37 32/60/37 46/61/37 44/62/37
f 38/63/35 40/49/35 54/52/35 52/64/35
f 33/65/34 35/66/34 49/67/34 47/68/34
f 39/69/35 30/59/35 44/62/35 53/70/35
f 42/71/35 39/69/35 53/70/35 56/72/35
f 32/60/34 33/65/34 47/68/34 46/61/34
f 35/66/34 36/45/34 50/48/34 49/67/34
f 34/57/34 29/53/34 43/56/34 48/58/34
f 41/50/35 42/71/35 56/72/35 55/51/35
f 31/54/35 38/63/35 52/64/35 45/55/35
f 1/25/38 3/28/39 31/54/40 29/53/41
f 2/31/42 4/34/43 32/60/44 30/59/45
f 5/37/46 7/40/47 35/66/48 33/65/49
f 14/43/50 11/41/51 39/69/52 42/71/53
f 7/40/47 8/17/54 36/45/55 35/66/48
f 13/24/56 14/43/50 42/71/53 41/50/57
f 8/17/54 9/20/58 37/46/59 36/45/55
f 12/21/60 13/24/56 41/50/57 40/49/61
f 9/20/58 6/30/62 34/57/63 37/46/59
f 10/35/64 12/21/60 40/49/61 38/63/65
f 11/41/51 2/31/42 30/59/45 39/69/52
f 4/34/43 5/37/46 33/65/49 32/60/44
f 6/30/62 1/25/38 29/53/41 34/57/63
f 3/28/39 10/35/64 38/63/65 31/54/40
f 17/27/66 15/26/67 43/56/68 45/55/69
f 18/33/70 16/32/71 44/62/72 46/61/73
f 21/39/74 19/38/75 47/68/76 49/67/77
f 25/42/78 28/44/79 56/72/80 53/70/81
f 22/18/82 21/39/74 49/67/77 50/48/83
f 28/44/79 27/23/84 55/51/85 56/72/80
f 23/19/86 22/18/82 50/48/83 51/47/87
f 27/23/84 26/22/88 54/52/89 55/51/85
f 20/29/90 23/19/86 51/47/87 48/58/91
f 26/22/88 24/36/92 52/64/93 54/52/89
f 16/32/71 25/42/78 53/70/81 44/62/72
f 19/38/75 18/33/70 46/61/73 47/68/76
f 15/26/67 20/29/90 48/58/91 43/56/68
f 24/36/92 17/27/66 45/55/69 52/64/93
