# Blender v3.5.0 OBJ File: 'WhitmanWilson_LevelAssignment.blend'
# www.blender.org
mtllib Sign_Corner_Small1_Plane_001.mtl
o Sign_Corner_Small1_Plane.001_Sign_Corner_Small1_Plane.002
v -5.795032 3.378501 -6.737912
v -5.322278 3.803037 -7.204731
v -5.795032 3.803037 -6.737912
v -5.322278 3.378501 -7.204730
v -5.322278 3.378501 -6.972068
v -5.578470 3.378501 -6.737912
v -5.341780 3.378501 -6.882460
v -5.397315 3.378501 -6.806495
v -5.480430 3.378501 -6.755736
v -5.578470 3.803037 -6.737912
v -5.322278 3.803037 -6.972068
v -5.480430 3.803037 -6.755736
v -5.397315 3.803037 -6.806495
v -5.341780 3.803037 -6.882460
v -5.797054 3.388044 -6.787745
v -5.397533 3.793494 -7.205257
v -5.797054 3.793494 -6.787745
v -5.397533 3.388044 -7.205257
v -5.397533 3.388044 -7.011374
v -5.642208 3.388044 -6.787745
v -5.416158 3.388044 -6.925795
v -5.469197 3.388044 -6.853244
v -5.548575 3.388044 -6.804767
v -5.642208 3.793494 -6.787745
v -5.397533 3.793494 -7.011374
v -5.548575 3.793494 -6.804767
v -5.469197 3.793494 -6.853244
v -5.416158 3.793494 -6.925795
v -5.827460 3.349759 -6.745068
v -5.328449 3.831779 -7.235386
v -5.827460 3.831779 -6.745068
v -5.328449 3.349759 -7.235386
v -5.330315 3.349759 -6.972968
v -5.579908 3.349759 -6.747141
v -5.348603 3.349759 -6.885177
v -5.402662 3.349759 -6.811215
v -5.484015 3.349759 -6.762592
v -5.579908 3.831779 -6.747141
v -5.330315 3.831779 -6.972968
v -5.484015 3.831779 -6.762592
v -5.402662 3.831779 -6.811215
v -5.348603 3.831779 -6.885177
v -5.835670 3.349759 -6.793393
v -5.402983 3.831779 -7.239638
v -5.835670 3.831779 -6.793393
v -5.402983 3.349759 -7.239638
v -5.405798 3.349759 -7.011901
v -5.642728 3.349759 -6.797908
v -5.423162 3.349759 -6.928251
v -5.474357 3.349759 -6.858203
v -5.551359 3.349759 -6.812530
v -5.642728 3.831779 -6.797908
v -5.405798 3.831779 -7.011901
v -5.551359 3.831779 -6.812530
v -5.474357 3.831779 -6.858203
v -5.423162 3.831779 -6.928250
v -5.793477 3.384182 -6.764901
v -5.346011 3.797355 -7.195512
v -5.793477 3.797355 -6.764901
v -5.346011 3.384182 -7.195512
v -5.346011 3.384182 -6.992789
v -5.595345 3.384182 -6.764901
v -5.364990 3.384182 -6.905580
v -5.419039 3.384182 -6.831648
v -5.499928 3.384182 -6.782248
v -5.595345 3.797355 -6.764901
v -5.346011 3.797355 -6.992789
v -5.499928 3.797355 -6.782248
v -5.419039 3.797355 -6.831647
v -5.364990 3.797355 -6.905580
vt 0.608048 0.157159
vt 0.645467 0.157159
vt 0.645467 0.253171
vt 0.608048 0.253171
vt 0.611493 0.246096
vt 0.611493 0.250499
vt 0.610939 0.250499
vt 0.610939 0.246096
vt 0.700586 0.157159
vt 0.700586 0.253171
vt 0.682213 0.253171
vt 0.682213 0.157159
vt 0.663840 0.253171
vt 0.663840 0.157159
vt 0.612757 0.246096
vt 0.612757 0.250499
vt 0.000000 0.000000
vt 0.000000 0.000000
vt 0.000000 0.000000
vt 0.000000 0.000000
vt 0.000000 0.000000
vt 0.000000 0.000000
vt 0.000000 0.000000
vt 0.000000 0.000000
vt 0.000000 0.000000
vt 0.000000 0.000000
vt 0.000000 0.000000
vt 0.000000 0.000000
vt 0.000000 0.000000
vt 0.000000 0.000000
vt 0.000000 0.000000
vt 0.000000 0.000000
vt 0.000000 0.000000
vt 0.000000 0.000000
vt 0.000000 0.000000
vt 0.000000 0.000000
vt 0.000000 0.000000
vt 0.000000 0.000000
vt 0.000000 0.000000
vt 0.000000 0.000000
vt 0.000000 0.000000
vt 0.000000 0.000000
vt 0.000000 0.000000
vt 0.000000 0.000000
vt 0.000000 0.000000
vt 0.000000 0.000000
vt 0.000000 0.000000
vt 0.000000 0.000000
vt 0.000000 0.000000
vt 0.000000 0.000000
vt 0.000000 0.000000
vt 0.000000 0.000000
vt 0.000000 0.000000
vt 0.000000 0.000000
vt 0.000000 0.000000
vt 0.000000 0.000000
vt 0.000000 0.000000
vt 0.000000 0.000000
vt 0.000000 0.000000
vt 0.000000 0.000000
vt 0.000000 0.000000
vt 0.000000 0.000000
vt 0.000000 0.000000
vt 0.000000 0.000000
vt 0.000000 0.000000
vt 0.000000 0.000000
vt 0.000000 0.000000
vt 0.000000 0.000000
vt 0.000000 0.000000
vt 0.000000 0.000000
vt 0.000000 0.000000
vt 0.000000 0.000000
vn 0.0000 -0.0000 1.0000
vn 0.0898 -0.0000 0.9960
vn 0.9943 0.0000 0.1069
vn 0.9120 0.0000 0.4103
vn 0.6772 -0.0000 0.7358
vn 0.3561 -0.0000 0.9345
vn 1.0000 0.0000 0.0000
vn 0.0789 0.9935 0.0814
vn 0.0748 0.9933 0.0877
vn 0.0399 0.9898 0.1371
vn 0.0534 0.9915 0.1188
vn 0.0534 -0.9915 0.1188
vn 0.0399 -0.9898 0.1371
vn 0.0748 -0.9933 0.0877
vn 0.0789 -0.9935 0.0814
vn 0.9992 0.0000 -0.0405
vn 0.0071 0.9838 0.1792
vn 0.0216 0.9867 0.1613
vn -0.0070 0.0000 1.0000
vn 0.0216 -0.9867 0.1613
vn 0.0071 -0.9838 0.1792
vn 0.1178 0.9929 0.0154
vn 0.1209 0.9926 0.0096
vn 0.1020 0.9938 0.0438
vn 0.1004 0.9939 0.0466
vn 0.1178 -0.9929 0.0154
vn 0.1209 -0.9926 0.0096
vn 0.1258 -0.9921 0.0000
vn 0.1004 -0.9939 0.0466
vn 0.1020 -0.9938 0.0438
vn 0.1258 0.9921 0.0000
vn 0.0000 0.9822 0.1881
vn 0.0000 -0.9822 0.1881
vn 0.0000 -1.0000 0.0000
vn 0.0000 1.0000 0.0000
vn -0.9859 0.0000 0.1675
vn 0.0570 0.0000 -0.9984
vn -0.1045 -0.1439 0.9841
vn -0.1045 0.1439 0.9841
vn -0.1153 0.1303 0.9847
vn -0.1153 -0.1303 0.9847
vn 0.9876 0.1241 -0.0967
vn 0.9876 -0.1241 -0.0967
vn 0.9878 -0.1177 -0.1020
vn 0.9878 0.1177 -0.1020
vn 0.9626 -0.2507 0.1031
vn 0.8834 -0.2538 0.3940
vn 0.8823 -0.2537 0.3964
vn 0.9626 -0.2506 0.1029
vn 0.8834 0.2538 0.3940
vn 0.9626 0.2507 0.1031
vn 0.9626 0.2506 0.1029
vn 0.8823 0.2537 0.3964
vn 0.6569 -0.2470 0.7124
vn 0.6523 -0.2471 0.7165
vn 0.6569 0.2470 0.7124
vn 0.6523 0.2471 0.7165
vn 0.3408 -0.2660 0.9017
vn 0.3338 -0.2667 0.9041
vn 0.3408 0.2660 0.9017
vn 0.3338 0.2667 0.9041
vn 0.0846 -0.2786 0.9567
vn 0.0825 -0.2786 0.9569
vn 0.0846 0.2786 0.9567
vn 0.0825 0.2786 0.9569
vn 0.0664 -0.1053 -0.9922
vn 0.0664 0.1053 -0.9922
vn 0.0668 0.1048 -0.9922
vn 0.0668 -0.1048 -0.9922
vn -0.9931 0.0882 0.0774
vn -0.9931 -0.0882 0.0774
vn -0.9929 -0.0964 0.0699
vn -0.9929 0.0964 0.0699
vn -0.8962 0.1949 -0.3986
vn -0.9761 0.1900 -0.1051
vn -0.9760 0.1901 -0.1063
vn -0.8945 0.1948 -0.4024
vn -0.9761 -0.1900 -0.1051
vn -0.8962 -0.1949 -0.3986
vn -0.8945 -0.1948 -0.4024
vn -0.9760 -0.1902 -0.1063
vn -0.6636 0.1908 -0.7233
vn -0.6615 0.1909 -0.7253
vn -0.6636 -0.1908 -0.7233
vn -0.6615 -0.1909 -0.7253
vn -0.3403 0.2155 -0.9153
vn -0.3409 0.2155 -0.9151
vn -0.3403 -0.2155 -0.9153
vn -0.3409 -0.2155 -0.9151
vn -0.0881 0.2206 -0.9714
vn -0.0891 0.2207 -0.9713
vn -0.0881 -0.2206 -0.9714
vn -0.0891 -0.2207 -0.9713
usemtl Texture_Signs.015
s 1
f 57/1/1 62/2/2 66/3/2 59/4/1
f 61/5/3 67/6/3 70/7/4 63/8/4
f 63/9/4 70/10/4 69/11/5 64/12/5
f 64/12/5 69/11/5 68/13/6 65/14/6
f 65/14/6 68/13/6 66/3/2 62/2/2
f 67/6/3 61/5/3 60/15/7 58/16/7
usemtl DarkGrey.011
f 8/17/8 22/18/9 23/19/10 9/20/11
f 12/21/12 26/22/13 27/23/14 13/24/15
f 1/25/16 15/26/16 17/27/16 3/28/16
f 9/20/11 23/19/10 20/29/17 6/30/18
f 2/31/19 16/32/19 18/33/19 4/34/19
f 10/35/20 24/36/21 26/22/13 12/21/12
f 5/37/22 19/38/23 21/39/24 7/40/25
f 11/41/26 25/42/27 16/32/28 2/31/28
f 14/43/29 28/44/30 25/42/27 11/41/26
f 4/34/31 18/33/31 19/38/23 5/37/22
f 7/40/25 21/39/24 22/18/9 8/17/8
f 6/30/18 20/29/17 15/26/32 1/25/32
f 13/24/15 27/23/14 28/44/30 14/43/29
f 3/28/33 17/27/33 24/36/21 10/35/20
f 36/45/34 37/46/34 51/47/34 50/48/34
f 40/49/35 41/50/35 55/51/35 54/52/35
f 29/53/36 31/54/36 45/55/36 43/56/36
f 37/46/34 34/57/34 48/58/34 51/47/34
f 30/59/37 32/60/37 46/61/37 44/62/37
f 38/63/35 40/49/35 54/52/35 52/64/35
f 33/65/34 35/66/34 49/67/34 47/68/34
f 39/69/35 30/59/35 44/62/35 53/70/35
f 42/71/35 39/69/35 53/70/35 56/72/35
f 32/60/34 33/65/34 47/68/34 46/61/34
f 35/66/34 36/45/34 50/48/34 49/67/34
f 34/57/34 29/53/34 43/56/34 48/58/34
f 41/50/35 42/71/35 56/72/35 55/51/35
f 31/54/35 38/63/35 52/64/35 45/55/35
f 1/25/38 3/28/39 31/54/40 29/53/41
f 2/31/42 4/34/43 32/60/44 30/59/45
f 5/37/46 7/40/47 35/66/48 33/65/49
f 14/43/50 11/41/51 39/69/52 42/71/53
f 7/40/47 8/17/54 36/45/55 35/66/48
f 13/24/56 14/43/50 42/71/53 41/50/57
f 8/17/54 9/20/58 37/46/59 36/45/55
f 12/21/60 13/24/56 41/50/57 40/49/61
f 9/20/58 6/30/62 34/57/63 37/46/59
f 10/35/64 12/21/60 40/49/61 38/63/65
f 11/41/51 2/31/42 30/59/45 39/69/52
f 4/34/43 5/37/46 33/65/49 32/60/44
f 6/30/62 1/25/38 29/53/41 34/57/63
f 3/28/39 10/35/64 38/63/65 31/54/40
f 17/27/66 15/26/67 43/56/68 45/55/69
f 18/33/70 16/32/71 44/62/72 46/61/73
f 21/39/74 19/38/75 47/68/76 49/67/77
f 25/42/78 28/44/79 56/72/80 53/70/81
f 22/18/82 21/39/74 49/67/77 50/48/83
f 28/44/79 27/23/84 55/51/85 56/72/80
f 23/19/86 22/18/82 50/48/83 51/47/87
f 27/23/84 26/22/88 54/52/89 55/51/85
f 20/29/90 23/19/86 51/47/87 48/58/91
f 26/22/88 24/36/92 52/64/93 54/52/89
f 16/32/71 25/42/78 53/70/81 44/62/72
f 19/38/75 18/33/70 46/61/73 47/68/76
f 15/26/67 20/29/90 48/58/91 43/56/68
f 24/36/92 17/27/66 45/55/69 52/64/93
