# Blender v3.5.0 OBJ File: 'WhitmanWilson_LevelAssignment.blend'
# www.blender.org
mtllib Support_Long_Plane_003.mtl
o Support_Long_Plane.003
v -7.713163 2.498307 -12.959644
v -7.713163 2.498307 -12.221352
v -7.713163 1.892702 -12.590498
v -7.795903 2.498307 -12.959644
v -7.713163 1.892702 -13.330215
v -7.795903 2.498307 -12.221352
v -7.795903 1.892702 -13.330215
v -7.795903 1.892702 -12.590498
v -7.795903 1.964762 -13.145209
v -7.795903 2.022176 -13.183430
v -7.795903 1.981578 -13.186045
v -7.713163 2.363773 -12.377157
v -7.713163 2.421604 -12.416267
v -7.713163 2.404666 -12.375173
v -7.713163 2.421604 -12.764728
v -7.713163 2.363773 -12.803838
v -7.713163 2.458299 -12.895302
v -7.713163 2.404666 -12.805822
v -7.713163 2.041374 -12.622946
v -7.713163 2.041374 -12.558050
v -7.713163 2.017419 -12.590498
v -7.713163 1.964762 -12.775310
v -7.713163 2.022229 -12.736979
v -7.713163 1.927492 -12.645177
v -7.713163 1.981594 -12.734444
v -7.713163 2.349999 -12.926490
v -7.713163 2.350052 -12.993053
v -7.713163 2.373818 -12.959747
v -7.713163 2.022176 -13.183430
v -7.713163 1.964762 -13.145209
v -7.713163 1.981578 -13.186045
v -7.795903 2.421604 -12.416267
v -7.795903 2.363773 -12.377157
v -7.795903 2.404666 -12.375173
v -7.795903 2.363773 -12.803838
v -7.795903 2.421604 -12.764728
v -7.795903 2.458299 -12.895302
v -7.795903 2.404666 -12.805822
v -7.795903 2.041374 -12.558050
v -7.795903 2.041374 -12.622946
v -7.795903 2.017419 -12.590498
v -7.795903 2.022229 -12.736979
v -7.795903 1.964762 -12.775310
v -7.795903 1.927492 -12.645177
v -7.795903 1.981594 -12.734444
v -7.795903 2.350052 -12.993053
v -7.795903 2.349999 -12.926490
v -7.795903 2.373818 -12.959747
v -7.713163 2.498307 -13.698148
v -7.795903 2.498307 -13.698148
v -7.713163 1.892702 -14.068718
v -7.795903 1.892702 -14.068718
v -7.795903 1.964762 -13.883713
v -7.795903 2.022176 -13.921934
v -7.795903 1.981578 -13.924547
v -7.713163 2.363773 -13.115662
v -7.713163 2.421604 -13.154771
v -7.713163 2.404666 -13.113675
v -7.713163 2.421604 -13.503232
v -7.713163 2.363773 -13.542340
v -7.713163 2.458299 -13.633804
v -7.713163 2.404666 -13.544327
v -7.713163 2.041374 -13.361448
v -7.713163 2.041374 -13.296553
v -7.713163 2.017419 -13.329001
v -7.713163 1.964762 -13.513813
v -7.713163 2.022229 -13.475481
v -7.713163 1.927492 -13.383679
v -7.713163 1.981594 -13.472946
v -7.713163 2.349999 -13.664992
v -7.713163 2.350052 -13.731556
v -7.713163 2.373818 -13.698252
v -7.713163 2.022176 -13.921934
v -7.713163 1.964762 -13.883713
v -7.713163 1.981578 -13.924547
v -7.795903 2.421604 -13.154771
v -7.795903 2.363773 -13.115662
v -7.795903 2.404666 -13.113675
v -7.795903 2.363773 -13.542340
v -7.795903 2.421604 -13.503232
v -7.795903 2.458299 -13.633804
v -7.795903 2.404666 -13.544327
v -7.795903 2.041374 -13.296553
v -7.795903 2.041374 -13.361448
v -7.795903 2.017419 -13.329001
v -7.795903 2.022229 -13.475481
v -7.795903 1.964762 -13.513813
v -7.795903 1.927492 -13.383679
v -7.795903 1.981594 -13.472946
v -7.795903 2.350052 -13.731556
v -7.795903 2.349999 -13.664992
v -7.795903 2.373818 -13.698252
v -7.713163 2.498307 -14.436650
v -7.795903 2.498307 -14.436650
v -7.713163 1.892702 -14.807220
v -7.795903 1.892702 -14.807220
v -7.795903 1.964762 -14.622215
v -7.795903 2.022176 -14.660437
v -7.795903 1.981578 -14.663050
v -7.713163 2.363773 -13.854164
v -7.713163 2.421604 -13.893273
v -7.713163 2.404666 -13.852179
v -7.713163 2.421604 -14.241735
v -7.713163 2.363773 -14.280844
v -7.713163 2.458299 -14.372307
v -7.713163 2.404666 -14.282829
v -7.713163 2.041374 -14.099953
v -7.713163 2.041374 -14.035055
v -7.713163 2.017419 -14.067504
v -7.713163 1.964762 -14.252316
v -7.713163 2.022229 -14.213984
v -7.713163 1.927492 -14.122182
v -7.713163 1.981594 -14.211449
v -7.713163 2.349999 -14.403496
v -7.713163 2.350052 -14.470058
v -7.713163 2.373818 -14.436754
v -7.713163 2.022176 -14.660437
v -7.713163 1.964762 -14.622215
v -7.713163 1.981578 -14.663050
v -7.795903 2.421604 -13.893273
v -7.795903 2.363773 -13.854164
v -7.795903 2.404666 -13.852179
v -7.795903 2.363773 -14.280844
v -7.795903 2.421604 -14.241735
v -7.795903 2.458299 -14.372307
v -7.795903 2.404666 -14.282829
v -7.795903 2.041374 -14.035055
v -7.795903 2.041374 -14.099953
v -7.795903 2.017419 -14.067504
v -7.795903 2.022229 -14.213984
v -7.795903 1.964762 -14.252316
v -7.795903 1.927492 -14.122182
v -7.795903 1.981594 -14.211449
v -7.795903 2.350052 -14.470058
v -7.795903 2.349999 -14.403496
v -7.795903 2.373818 -14.436754
v -7.713163 2.498307 -15.175154
v -7.795903 2.498307 -15.175154
v -7.713163 1.892702 -15.545723
v -7.795904 1.892702 -15.545723
v -7.795904 1.964762 -15.360718
v -7.795904 2.022176 -15.398939
v -7.795904 1.981578 -15.401554
v -7.713163 2.363773 -14.592667
v -7.713163 2.421604 -14.631777
v -7.713163 2.404666 -14.590681
v -7.713163 2.421604 -14.980237
v -7.713163 2.363773 -15.019346
v -7.713163 2.458299 -15.110810
v -7.713163 2.404666 -15.021332
v -7.713163 2.041374 -14.838455
v -7.713163 2.041374 -14.773559
v -7.713163 2.017419 -14.806006
v -7.713163 1.964762 -14.990818
v -7.713163 2.022229 -14.952487
v -7.713163 1.927492 -14.860685
v -7.713163 1.981594 -14.949952
v -7.713163 2.349999 -15.141998
v -7.713163 2.350052 -15.208562
v -7.713163 2.373818 -15.175258
v -7.713163 2.022176 -15.398939
v -7.713163 1.964762 -15.360718
v -7.713163 1.981578 -15.401554
v -7.795903 2.421604 -14.631777
v -7.795903 2.363773 -14.592667
v -7.795903 2.404666 -14.590681
v -7.795903 2.363773 -15.019346
v -7.795903 2.421604 -14.980237
v -7.795903 2.458299 -15.110810
v -7.795903 2.404666 -15.021332
v -7.795903 2.041374 -14.773559
v -7.795903 2.041374 -14.838455
v -7.795903 2.017419 -14.806006
v -7.795903 2.022229 -14.952487
v -7.795903 1.964762 -14.990818
v -7.795903 1.927492 -14.860685
v -7.795903 1.981594 -14.949952
v -7.795903 2.350052 -15.208562
v -7.795903 2.349999 -15.141998
v -7.795903 2.373818 -15.175258
v -7.713163 2.498307 -15.913656
v -7.795904 2.498307 -15.913656
v -7.713163 2.363773 -15.331170
v -7.713163 2.421604 -15.370279
v -7.713163 2.404666 -15.329184
v -7.713163 2.421604 -15.718740
v -7.713163 2.363773 -15.757850
v -7.713163 2.458299 -15.849313
v -7.713163 2.404666 -15.759835
v -7.713163 2.041374 -15.576958
v -7.713163 2.041374 -15.512061
v -7.713163 2.017419 -15.544510
v -7.734593 2.983883 -15.937735
v -7.734593 2.983883 -15.993048
v -7.774474 2.983883 -15.937735
v -7.774474 2.983883 -15.993048
v -7.734593 2.983883 -12.187726
v -7.734593 2.983883 -12.132412
v -7.774473 2.983883 -12.187726
v -7.774473 2.983883 -12.132412
v -7.774473 2.492516 -12.187726
v -7.795904 2.421604 -15.370279
v -7.795903 2.363773 -15.331170
v -7.795903 2.404666 -15.329184
v -7.795904 2.363773 -15.757850
v -7.795904 2.421604 -15.718740
v -7.795904 2.458299 -15.849313
v -7.795904 2.404666 -15.759835
v -7.795904 2.041374 -15.512061
v -7.795904 2.041374 -15.576958
v -7.795904 2.017419 -15.544510
v -7.734593 2.492516 -12.187726
v -7.774473 2.492516 -12.132412
v -7.734593 2.492516 -12.132412
v -7.774474 2.492516 -15.937735
v -7.734593 2.492516 -15.937735
v -7.774474 2.492516 -15.993048
v -7.734593 2.492516 -15.993048
v -7.710615 2.516959 -16.026308
v -7.798452 2.516959 -16.026308
v -7.710615 1.874049 -15.632911
v -7.798452 1.874049 -15.632911
v -7.710615 2.516959 -15.904475
v -7.798452 2.516959 -15.904475
v -7.710615 1.874049 -15.511078
v -7.798452 1.874049 -15.511078
v -7.710614 2.516959 -12.099154
v -7.798452 2.516959 -12.099154
v -7.710614 1.874049 -12.492550
v -7.798452 1.874049 -12.492550
v -7.710614 2.516959 -12.220985
v -7.798452 2.516959 -12.220985
v -7.710614 1.874049 -12.614383
v -7.798452 1.874049 -12.614383
v -7.739307 2.611546 -12.924809
v -7.739307 2.611546 -12.163300
v -7.769759 2.611546 -12.924809
v -7.769759 2.611546 -12.163300
v -7.739307 2.611546 -13.686535
v -7.769759 2.611546 -13.686535
v -7.739307 2.611546 -14.448261
v -7.769759 2.611546 -14.448261
v -7.739307 2.611546 -15.209987
v -7.769760 2.611546 -15.209987
v -7.739307 2.611546 -15.971713
v -7.769760 2.611546 -15.971713
v -7.769759 2.673173 -12.163300
v -7.769759 2.673173 -12.924809
v -7.739307 2.673173 -12.163300
v -7.739307 2.673173 -12.924809
v -7.769759 2.673173 -13.686535
v -7.739307 2.673173 -13.686535
v -7.769759 2.673173 -14.448261
v -7.739307 2.673173 -14.448261
v -7.769760 2.673173 -15.209987
v -7.739307 2.673173 -15.209987
v -7.769760 2.673173 -15.971713
v -7.739307 2.673173 -15.971713
vn 1.0000 0.0000 0.0000
vn 0.0000 0.4893 0.8721
vn 0.0000 1.0000 0.0000
vn -1.0000 0.0000 0.0000
vn 0.0000 -0.5021 0.8648
vn 0.0000 -0.5005 -0.8657
vn 0.0000 0.4893 -0.8721
vn 0.0000 -1.0000 0.0000
vn -1.0000 0.0001 0.0000
vn -1.0000 -0.0001 0.0000
vn 0.0000 0.0485 -0.9988
vn 0.0000 -0.9245 -0.3811
vn 0.0000 0.0485 0.9988
vn 0.0000 -0.9245 0.3811
vn 0.0000 0.9246 -0.3808
vn 0.0000 -0.0623 -0.9981
vn 0.0000 -0.8140 0.5808
vn 0.0000 -0.8130 -0.5823
vn 0.0000 0.8045 -0.5939
vn 0.0000 0.8045 0.5939
vn 0.0000 -0.0643 0.9979
vn 0.0000 0.9247 0.3808
vn 0.0000 -0.8140 0.5809
vn 0.0000 -0.8130 -0.5822
vn 0.0000 0.8045 0.5940
vn 0.0000 -0.0642 0.9979
vn 0.0000 -0.9246 0.3811
vn 0.0000 0.0000 1.0000
vn 0.0000 0.0000 -1.0000
vn 0.0000 -0.5219 -0.8530
vn 0.0000 0.5219 0.8530
vn 0.0000 -0.5219 0.8530
vn 0.0000 0.5219 -0.8530
usemtl LightGrey.010
s off
f 1//1 27//1 29//1 5//1
f 19//2 16//2 35//2 40//2
f 22//3 30//3 9//3 43//3
f 6//4 4//4 37//4 36//4 32//4
f 29//5 27//5 46//5 10//5
f 26//6 23//6 42//6 47//6
f 4//4 8//4 40//4 35//4 37//4
f 3//1 5//1 30//1 22//1 24//1
f 12//7 20//7 39//7 33//7
f 8//4 4//4 47//4 42//4 44//4
f 8//4 6//4 33//4 39//4
f 3//1 20//1 12//1 2//1
f 3//1 24//1 23//1 26//1 1//1
f 5//8 3//8 8//8 7//8
f 1//1 17//1 16//1 19//1 3//1
f 2//1 13//1 15//1 17//1 1//1
f 15//8 13//8 32//8 36//8
f 8//4 44//4 43//4 9//4 7//4
f 2//3 1//3 4//3 6//3
f 9//4 11//4 7//4
f 11//4 10//4 7//4
f 12//1 14//1 2//1
f 14//1 13//1 2//1
f 15//1 18//1 17//1
f 18//1 16//1 17//1
f 19//1 21//1 3//1
f 21//1 20//1 3//1
f 22//1 25//1 24//1
f 25//1 23//1 24//1
f 26//1 28//1 1//1
f 28//1 27//1 1//1
f 29//1 31//1 5//1
f 31//1 30//1 5//1
f 32//4 34//4 6//4
f 34//4 33//4 6//4
f 35//4 38//4 37//4
f 38//9 36//9 37//9
f 39//4 41//4 8//4
f 41//4 40//4 8//4
f 42//4 45//4 44//4
f 45//10 43//10 44//10
f 46//4 48//4 4//4
f 48//4 47//4 4//4
f 12//11 33//11 34//11 14//11
f 14//12 34//12 32//12 13//12
f 35//13 16//13 18//13 38//13
f 38//14 18//14 15//14 36//14
f 22//15 43//15 45//15 25//15
f 25//16 45//16 42//16 23//16
f 46//17 27//17 28//17 48//17
f 48//18 28//18 26//18 47//18
f 39//19 20//19 21//19 41//19
f 41//20 21//20 19//20 40//20
f 29//21 10//21 11//21 31//21
f 31//22 11//22 9//22 30//22
f 4//4 7//4 10//4 46//4
f 49//1 71//1 73//1 51//1
f 63//2 60//2 79//2 84//2
f 66//3 74//3 53//3 87//3
f 4//4 50//4 81//4 80//4 76//4
f 73//5 71//5 90//5 54//5
f 70//6 67//6 86//6 91//6
f 50//4 7//4 84//4 79//4 81//4
f 5//1 51//1 74//1 66//1 68//1
f 56//7 64//7 83//7 77//7
f 7//4 50//4 91//4 86//4 88//4
f 7//4 4//4 77//4 83//4
f 5//1 64//1 56//1 1//1
f 5//1 68//1 67//1 70//1 49//1
f 51//8 5//8 7//8 52//8
f 49//1 61//1 60//1 63//1 5//1
f 1//1 57//1 59//1 61//1 49//1
f 59//8 57//8 76//8 80//8
f 7//4 88//4 87//4 53//4 52//4
f 1//3 49//3 50//3 4//3
f 53//4 55//4 52//4
f 55//4 54//4 52//4
f 56//1 58//1 1//1
f 58//1 57//1 1//1
f 59//1 62//1 61//1
f 62//1 60//1 61//1
f 63//1 65//1 5//1
f 65//1 64//1 5//1
f 66//1 69//1 68//1
f 69//1 67//1 68//1
f 70//1 72//1 49//1
f 72//1 71//1 49//1
f 73//1 75//1 51//1
f 75//1 74//1 51//1
f 76//4 78//4 4//4
f 78//4 77//4 4//4
f 79//4 82//4 81//4
f 82//10 80//10 81//10
f 83//4 85//4 7//4
f 85//4 84//4 7//4
f 86//4 89//4 88//4
f 89//4 87//4 88//4
f 90//4 92//4 50//4
f 92//4 91//4 50//4
f 56//11 77//11 78//11 58//11
f 58//12 78//12 76//12 57//12
f 79//13 60//13 62//13 82//13
f 82//14 62//14 59//14 80//14
f 66//15 87//15 89//15 69//15
f 69//16 89//16 86//16 67//16
f 90//23 71//23 72//23 92//23
f 92//24 72//24 70//24 91//24
f 83//19 64//19 65//19 85//19
f 85//25 65//25 63//25 84//25
f 73//26 54//26 55//26 75//26
f 75//22 55//22 53//22 74//22
f 50//4 52//4 54//4 90//4
f 93//1 115//1 117//1 95//1
f 107//2 104//2 123//2 128//2
f 110//3 118//3 97//3 131//3
f 50//4 94//4 125//4 124//4 120//4
f 117//5 115//5 134//5 98//5
f 114//6 111//6 130//6 135//6
f 94//4 52//4 128//4 123//4 125//4
f 51//1 95//1 118//1 110//1 112//1
f 100//7 108//7 127//7 121//7
f 52//4 94//4 135//4 130//4 132//4
f 52//4 50//4 121//4 127//4
f 51//1 108//1 100//1 49//1
f 51//1 112//1 111//1 114//1 93//1
f 95//8 51//8 52//8 96//8
f 93//1 105//1 104//1 107//1 51//1
f 49//1 101//1 103//1 105//1 93//1
f 103//8 101//8 120//8 124//8
f 52//4 132//4 131//4 97//4 96//4
f 49//3 93//3 94//3 50//3
f 97//4 99//4 96//4
f 99//4 98//4 96//4
f 100//1 102//1 49//1
f 102//1 101//1 49//1
f 103//1 106//1 105//1
f 106//1 104//1 105//1
f 107//1 109//1 51//1
f 109//1 108//1 51//1
f 110//1 113//1 112//1
f 113//1 111//1 112//1
f 114//1 116//1 93//1
f 116//1 115//1 93//1
f 117//1 119//1 95//1
f 119//1 118//1 95//1
f 120//4 122//4 50//4
f 122//4 121//4 50//4
f 123//4 126//4 125//4
f 126//10 124//10 125//10
f 127//4 129//4 52//4
f 129//4 128//4 52//4
f 130//4 133//4 132//4
f 133//4 131//4 132//4
f 134//4 136//4 94//4
f 136//4 135//4 94//4
f 100//11 121//11 122//11 102//11
f 102//12 122//12 120//12 101//12
f 123//13 104//13 106//13 126//13
f 126//14 106//14 103//14 124//14
f 110//15 131//15 133//15 113//15
f 113//16 133//16 130//16 111//16
f 134//23 115//23 116//23 136//23
f 136//18 116//18 114//18 135//18
f 127//19 108//19 109//19 129//19
f 129//20 109//20 107//20 128//20
f 117//26 98//26 99//26 119//26
f 119//22 99//22 97//22 118//22
f 94//4 96//4 98//4 134//4
f 137//1 159//1 161//1 139//1
f 151//2 148//2 167//2 172//2
f 154//3 162//3 141//3 175//3
f 94//4 138//4 169//4 168//4 164//4
f 161//5 159//5 178//5 142//5
f 158//6 155//6 174//6 179//6
f 138//4 96//4 172//4 167//4 169//4
f 95//1 139//1 162//1 154//1 156//1
f 144//7 152//7 171//7 165//7
f 96//4 138//4 179//4 174//4 176//4
f 96//4 94//4 165//4 171//4
f 95//1 152//1 144//1 93//1
f 95//1 156//1 155//1 158//1 137//1
f 139//8 95//8 96//8 140//8
f 137//1 149//1 148//1 151//1 95//1
f 93//1 145//1 147//1 149//1 137//1
f 147//8 145//8 164//8 168//8
f 96//4 176//4 175//4 141//4 140//4
f 93//3 137//3 138//3 94//3
f 141//4 143//4 140//4
f 143//4 142//4 140//4
f 144//1 146//1 93//1
f 146//1 145//1 93//1
f 147//1 150//1 149//1
f 150//1 148//1 149//1
f 151//1 153//1 95//1
f 153//1 152//1 95//1
f 154//1 157//1 156//1
f 157//1 155//1 156//1
f 158//1 160//1 137//1
f 160//1 159//1 137//1
f 161//1 163//1 139//1
f 163//1 162//1 139//1
f 164//4 166//4 94//4
f 166//4 165//4 94//4
f 167//4 170//4 169//4
f 170//4 168//4 169//4
f 171//4 173//4 96//4
f 173//4 172//4 96//4
f 174//4 177//4 176//4
f 177//10 175//10 176//10
f 178//4 180//4 138//4
f 180//4 179//4 138//4
f 144//11 165//11 166//11 146//11
f 146//12 166//12 164//12 145//12
f 167//13 148//13 150//13 170//13
f 170//14 150//14 147//14 168//14
f 154//15 175//15 177//15 157//15
f 157//16 177//16 174//16 155//16
f 178//23 159//23 160//23 180//23
f 180//24 160//24 158//24 179//24
f 171//19 152//19 153//19 173//19
f 173//20 153//20 151//20 172//20
f 161//21 142//21 143//21 163//21
f 163//22 143//22 141//22 162//22
f 138//4 140//4 142//4 178//4
f 190//2 187//2 205//2 210//2
f 138//4 182//4 207//4 206//4 202//4
f 182//4 140//4 210//4 205//4 207//4
f 183//7 191//7 209//7 203//7
f 140//4 138//4 203//4 209//4
f 139//1 191//1 183//1 137//1
f 181//1 188//1 187//1 190//1 139//1
f 137//1 184//1 186//1 188//1 181//1
f 186//8 184//8 202//8 206//8
f 137//3 181//3 182//3 138//3
f 183//1 185//1 137//1
f 185//1 184//1 137//1
f 186//1 189//1 188//1
f 189//1 187//1 188//1
f 190//1 192//1 139//1
f 192//1 191//1 139//1
f 202//4 204//4 138//4
f 204//4 203//4 138//4
f 205//4 208//4 207//4
f 208//4 206//4 207//4
f 209//4 211//4 140//4
f 211//4 210//4 140//4
f 183//11 203//11 204//11 185//11
f 185//12 204//12 202//12 184//12
f 205//13 187//13 189//13 208//13
f 208//27 189//27 186//27 206//27
f 209//19 191//19 192//19 211//19
f 211//20 192//20 190//20 210//20
f 236//8 238//8 237//8 235//8
f 235//8 237//8 240//8 239//8
f 239//8 240//8 242//8 241//8
f 241//8 242//8 244//8 243//8
f 243//8 244//8 246//8 245//8
f 249//3 250//3 248//3 247//3
f 250//3 252//3 251//3 248//3
f 252//3 254//3 253//3 251//3
f 254//3 256//3 255//3 253//3
f 256//3 258//3 257//3 255//3
f 238//28 236//28 249//28 247//28
f 244//4 242//4 253//4 255//4
f 237//4 238//4 247//4 248//4
f 242//4 240//4 251//4 253//4
f 243//1 245//1 258//1 256//1
f 240//4 237//4 248//4 251//4
f 241//1 243//1 256//1 254//1
f 236//1 235//1 250//1 249//1
f 239//1 241//1 254//1 252//1
f 245//29 246//29 257//29 258//29
f 235//1 239//1 252//1 250//1
f 246//4 244//4 255//4 257//4
usemtl Grey.019
f 214//1 212//1 197//1 198//1
f 217//4 215//4 195//4 196//4
f 215//28 216//28 193//28 195//28
f 213//28 214//28 198//28 200//28
f 201//4 213//4 200//4 199//4
f 212//29 201//29 199//29 197//29
f 216//1 218//1 194//1 193//1
f 218//29 217//29 196//29 194//29
f 194//3 196//3 195//3 193//3
f 198//3 197//3 199//3 200//3
f 214//8 213//8 201//8 212//8
f 218//8 216//8 215//8 217//8
f 221//8 225//8 226//8 222//8
f 221//1 219//1 223//1 225//1
f 219//3 220//3 224//3 223//3
f 222//4 226//4 224//4 220//4
f 221//30 222//30 220//30 219//30
f 225//31 223//31 224//31 226//31
f 229//8 230//8 234//8 233//8
f 229//1 233//1 231//1 227//1
f 227//3 231//3 232//3 228//3
f 230//4 228//4 232//4 234//4
f 229//32 227//32 228//32 230//32
f 233//33 234//33 232//33 231//33
