# Blender v3.5.0 OBJ File: 'Scene2.blend'
# www.blender.org
mtllib Door_Cylinder.mtl
o Door_Cylinder.005
v -0.333180 -0.003857 0.000236
v -0.333180 1.118382 0.000236
v -0.325696 1.118382 -0.017832
v -0.325696 -0.003857 -0.017832
v -0.307628 1.118382 -0.025316
v -0.307628 -0.003857 -0.025316
v -0.289560 1.118382 -0.017832
v -0.289560 -0.003857 -0.017832
v -0.282076 1.118382 0.000236
v -0.282076 -0.003857 0.000236
v -0.289560 1.118382 0.018303
v -0.289560 -0.003857 0.018303
v -0.307628 1.118382 0.025787
v -0.307628 -0.003857 0.025787
v -0.325696 1.118382 0.018303
v -0.325696 -0.003857 0.018303
v -0.344822 1.133560 0.000236
v 0.000000 1.133560 0.000236
v 0.000000 1.128601 -0.011738
v -0.344822 1.128601 -0.011738
v -0.344822 1.128601 0.012209
v 0.000000 1.128601 0.012209
v -0.344822 1.116627 0.017169
v 0.000000 1.116627 0.017169
v -0.344822 1.104653 0.012209
v 0.000000 1.104653 0.012209
v -0.344822 1.099694 0.000236
v 0.000000 1.099694 0.000236
v -0.344822 1.104653 -0.011738
v 0.000000 1.104653 -0.011738
v -0.344822 1.116627 -0.016697
v 0.000000 1.116627 -0.016697
v 0.333180 -0.003857 0.000236
v 0.325696 -0.003857 -0.017832
v 0.325696 1.118382 -0.017832
v 0.333180 1.118382 0.000236
v 0.307628 -0.003857 -0.025316
v 0.307628 1.118382 -0.025316
v 0.289560 -0.003857 -0.017832
v 0.289560 1.118382 -0.017832
v 0.282076 -0.003857 0.000236
v 0.282076 1.118382 0.000236
v 0.289560 -0.003857 0.018303
v 0.289560 1.118382 0.018303
v 0.307628 -0.003857 0.025787
v 0.307628 1.118382 0.025787
v 0.325696 1.118382 0.018303
v 0.325696 -0.003857 0.018303
v 0.344822 1.133560 0.000236
v 0.344822 1.128601 -0.011738
v 0.344822 1.128601 0.012209
v 0.344822 1.116627 0.017169
v 0.344822 1.104653 0.012209
v 0.344822 1.099694 0.000236
v 0.344822 1.104653 -0.011738
v 0.344822 1.116627 -0.016697
v -0.066830 0.441335 0.051043
v -0.066830 0.441335 0.042637
v 0.066830 0.441335 0.042637
v 0.066830 0.441335 0.051043
v 0.066830 0.330642 0.042637
v -0.066830 0.330642 0.042637
v -0.066830 0.330642 0.051043
v 0.066830 0.330642 0.051043
v 0.122195 0.330642 0.051043
v 0.122195 0.441335 0.051043
v 0.122195 0.441335 0.042637
v 0.122195 0.330642 0.042637
v -0.122195 0.330642 0.051043
v -0.122195 0.330642 0.042637
v -0.122195 0.441335 0.042637
v -0.122195 0.441335 0.051043
v -0.066830 0.441335 -0.051043
v 0.066830 0.441335 -0.051043
v 0.066830 0.441335 -0.042637
v -0.066830 0.441335 -0.042637
v 0.066830 0.330642 -0.042637
v 0.066830 0.330642 -0.051043
v -0.066830 0.330642 -0.051043
v -0.066830 0.330642 -0.042637
v 0.122195 0.330642 -0.051043
v 0.122195 0.330642 -0.042637
v 0.122195 0.441335 -0.042637
v 0.122195 0.441335 -0.051043
v -0.122195 0.330642 -0.051043
v -0.122195 0.441335 -0.051043
v -0.122195 0.441335 -0.042637
v -0.122195 0.330642 -0.042637
v 0.139071 -0.003857 0.051043
v 0.139071 0.316476 0.051043
v 0.069535 0.316476 0.051043
v 0.069535 -0.003857 0.051043
v 0.139071 0.455501 0.000000
v 0.139071 1.158531 0.000000
v 0.139071 1.158531 0.051043
v 0.139071 0.455501 0.051043
v 0.069535 1.158531 0.051043
v 0.069535 0.455501 0.051043
v 0.139071 0.316476 0.000000
v 0.139071 -0.003857 0.000000
v -0.139071 -0.003857 0.051043
v -0.069535 -0.003857 0.051043
v -0.069535 0.316476 0.051043
v -0.139071 0.316476 0.051043
v -0.139071 0.455501 0.000000
v -0.139071 0.455501 0.051043
v -0.139071 1.158531 0.051043
v -0.139071 1.158531 0.000000
v -0.069535 0.455501 0.051043
v -0.069535 1.158531 0.051043
v -0.139071 0.316476 0.000000
v -0.139071 -0.003857 0.000000
v 0.069535 1.158531 0.000000
v -0.069535 1.158531 0.000000
v -0.135351 0.455501 0.000000
v -0.135351 1.121514 0.000000
v -0.135351 1.121514 0.012631
v -0.135351 0.455501 0.012631
v -0.135351 0.316476 0.012631
v -0.135351 0.316476 0.000000
v -0.135351 -0.003857 0.000000
v -0.135351 -0.003857 0.012631
v -0.303313 0.455501 0.000000
v -0.303313 0.455501 0.012631
v -0.303313 1.121514 0.012631
v -0.303313 1.121514 0.000000
v -0.303313 0.316476 0.000000
v -0.303313 0.316476 0.012631
v -0.303313 -0.003857 0.000000
v -0.303313 -0.003857 0.012631
v 0.303137 0.455501 0.000000
v 0.303137 1.121514 0.000000
v 0.303137 1.121514 0.012631
v 0.303137 0.455501 0.012631
v 0.303137 0.316476 0.012631
v 0.303137 0.316476 0.000000
v 0.303137 -0.003857 0.000000
v 0.303137 -0.003857 0.012631
v 0.135175 0.455501 0.000000
v 0.135175 0.455501 0.012631
v 0.135175 1.121514 0.012631
v 0.135175 1.121514 0.000000
v 0.135175 0.316476 0.000000
v 0.135175 0.316476 0.012631
v 0.135175 -0.003857 0.000000
v 0.135175 -0.003857 0.012631
v 0.139071 -0.003857 -0.051043
v 0.069535 -0.003857 -0.051043
v 0.069535 0.316476 -0.051043
v 0.139071 0.316476 -0.051043
v 0.139071 0.455501 -0.051043
v 0.139071 1.158531 -0.051043
v 0.069535 0.455501 -0.051043
v 0.069535 1.158531 -0.051043
v -0.139071 -0.003857 -0.051043
v -0.139071 0.316476 -0.051043
v -0.069535 0.316476 -0.051043
v -0.069535 -0.003857 -0.051043
v -0.139071 1.158531 -0.051043
v -0.139071 0.455501 -0.051043
v -0.069535 1.158531 -0.051043
v -0.069535 0.455501 -0.051043
v -0.135351 0.455501 -0.012631
v -0.135351 1.121514 -0.012631
v -0.135351 0.316476 -0.012631
v -0.135351 -0.003857 -0.012631
v -0.303313 1.121514 -0.012631
v -0.303313 0.455501 -0.012631
v -0.303313 0.316476 -0.012631
v -0.303313 -0.003857 -0.012631
v 0.303137 0.455501 -0.012631
v 0.303137 1.121514 -0.012631
v 0.303137 0.316476 -0.012631
v 0.303137 -0.003857 -0.012631
v 0.135175 1.121514 -0.012631
v 0.135175 0.455501 -0.012631
v 0.135175 0.316476 -0.012631
v 0.135175 -0.003857 -0.012631
vt 0.000000 0.000000
vt 0.000000 0.000000
vt 0.000000 0.000000
vt 0.000000 0.000000
vt 0.000000 0.000000
vt 0.000000 0.000000
vt 0.000000 0.000000
vt 0.000000 0.000000
vt 0.000000 0.000000
vt 0.000000 0.000000
vt 0.000000 0.000000
vt 0.000000 0.000000
vt 0.000000 0.000000
vt 0.000000 0.000000
vt 0.000000 0.000000
vt 0.000000 0.000000
vt 0.000000 0.000000
vt 0.000000 0.000000
vt 0.000000 0.000000
vt 0.000000 0.000000
vt 0.000000 0.000000
vt 0.000000 0.000000
vt 0.000000 0.000000
vt 0.000000 0.000000
vt 0.000000 0.000000
vt 0.000000 0.000000
vt 0.000000 0.000000
vt 0.000000 0.000000
vt 0.000000 0.000000
vt 0.000000 0.000000
vt 0.000000 0.000000
vt 0.000000 0.000000
vt 0.000000 0.000000
vt 0.000000 0.000000
vt 0.000000 0.000000
vt 0.000000 0.000000
vt 0.000000 0.000000
vt 0.000000 0.000000
vt 0.000000 0.000000
vt 0.000000 0.000000
vt 0.000000 0.000000
vt 0.000000 0.000000
vt 0.000000 0.000000
vt 0.000000 0.000000
vt 0.000000 0.000000
vt 0.000000 0.000000
vt 0.000000 0.000000
vt 0.000000 0.000000
vt 0.000000 0.000000
vt 0.000000 0.000000
vt 0.000000 0.000000
vt 0.000000 0.000000
vt 0.000000 0.000000
vt 0.000000 0.000000
vt 0.000000 0.000000
vt 0.000000 0.000000
vt 0.000000 0.000000
vt 0.000000 0.000000
vt 0.000000 0.000000
vt 0.000000 0.000000
vt 0.000000 0.000000
vt 0.000000 0.000000
vt 0.000000 0.000000
vt 0.000000 0.000000
vt 0.000000 0.000000
vt 0.000000 0.000000
vt 0.000000 0.000000
vt 0.000000 0.000000
vt 0.000000 0.000000
vt 0.000000 0.000000
vt 0.000000 0.000000
vt 0.000000 0.000000
vt 0.000000 0.000000
vt 0.000000 0.000000
vt 0.000000 0.000000
vt 0.000000 0.000000
vt 0.000000 0.000000
vt 0.000000 0.000000
vt 0.000000 0.000000
vt 0.000000 0.000000
vt 0.000000 0.000000
vt 0.000000 0.000000
vt 0.000000 0.000000
vt 0.000000 0.000000
vt 0.000000 0.000000
vt 0.000000 0.000000
vt 0.000000 0.000000
vt 0.000000 0.000000
vt 0.000000 0.000000
vt 0.000000 0.000000
vt 0.000000 0.000000
vt 0.000000 0.000000
vt 0.000000 0.000000
vt 0.000000 0.000000
vt 0.000000 0.000000
vt 0.000000 0.000000
vt 0.000000 0.000000
vt 0.000000 0.000000
vt 0.000000 0.000000
vt 0.000000 0.000000
vt 0.000000 0.000000
vt 0.000000 0.000000
vt 0.000000 0.000000
vt 0.000000 0.000000
vt 0.000000 0.000000
vt 0.000000 0.000000
vt 0.000000 0.000000
vt 0.000000 0.000000
vt 0.000000 0.000000
vt 0.000000 0.000000
vt 0.000000 0.000000
vt 0.000000 0.000000
vt 0.000000 0.000000
vt 0.000000 0.000000
vt 0.000000 0.000000
vt 0.000000 0.000000
vt 0.000000 0.000000
vt 0.000000 0.000000
vt 0.000000 0.000000
vt 0.000000 0.000000
vt 0.000000 0.000000
vt 0.000000 0.000000
vt 0.000000 0.000000
vt 0.000000 0.000000
vt 0.000000 0.000000
vt 0.000000 0.000000
vt 0.000000 0.000000
vt 0.000000 0.000000
vt 0.000000 0.000000
vt 0.000000 0.000000
vt 0.000000 0.000000
vt 0.000000 0.000000
vt 0.000000 0.000000
vt 0.000000 0.000000
vt 0.000000 0.000000
vt 0.000000 0.000000
vt 0.000000 0.000000
vt 0.000000 0.000000
vt 0.000000 0.000000
vt 0.000000 0.000000
vt 0.000000 0.000000
vt 0.000000 0.000000
vt 0.000000 0.000000
vt 0.000000 0.000000
vt 0.000000 0.000000
vt 0.000000 0.000000
vt 0.000000 0.000000
vt 0.000000 0.000000
vt 0.000000 0.000000
vt 0.000000 0.000000
vt 0.000000 0.000000
vt 0.000000 0.000000
vt 0.000000 0.000000
vt 0.000000 0.000000
vt 0.000000 0.000000
vt 0.000000 0.000000
vt 0.000000 0.000000
vt 0.000000 0.000000
vt 0.000000 0.000000
vt 0.000000 0.000000
vt 0.000000 0.000000
vt 0.000000 0.000000
vt 0.000000 0.000000
vt 0.000000 0.000000
vt 0.000000 0.000000
vt 0.000000 0.000000
vt 0.000000 0.000000
vt 0.000000 0.000000
vt 0.000000 0.000000
vt 0.000000 0.000000
vt 0.000000 0.000000
vt 0.000000 0.000000
vt 0.000000 0.000000
vt 0.000000 0.000000
vt 0.000000 0.000000
vt 0.000000 0.000000
vt 0.000000 0.000000
vt 0.000000 0.000000
vn -0.9239 0.0000 -0.3827
vn -0.3827 0.0000 -0.9239
vn 0.3827 0.0000 -0.9239
vn 0.9239 0.0000 -0.3827
vn 0.9239 0.0000 0.3827
vn 0.3827 0.0000 0.9239
vn 0.0000 1.0000 0.0000
vn -0.3827 0.0000 0.9239
vn -0.9239 0.0000 0.3827
vn 0.0000 -1.0000 0.0000
vn 0.0000 0.9239 -0.3826
vn 0.0000 0.9239 0.3827
vn 0.0000 0.3827 0.9239
vn 0.0000 -0.3827 0.9239
vn 0.0000 -0.9239 0.3827
vn 0.0000 -0.9239 -0.3826
vn 0.0000 -0.3826 -0.9239
vn 0.0000 0.3826 -0.9239
vn -1.0000 0.0000 0.0000
vn 1.0000 0.0000 0.0000
vn 0.0000 0.0000 1.0000
vn 0.0000 0.0000 -1.0000
usemtl Grey.007
s 1
f 2/1/1 4/2/1 1/3/1
f 3/4/2 6/5/2 4/2/2
f 5/6/3 8/7/3 6/5/3
f 7/8/4 10/9/4 8/7/4
f 9/10/5 12/11/5 10/9/5
f 11/12/6 14/13/6 12/11/6
f 7/8/7 5/6/7 13/14/7
f 13/14/8 16/15/8 14/13/8
f 15/16/9 1/3/9 16/15/9
f 14/13/10 16/15/10 8/7/10
f 18/17/11 20/18/11 17/19/11
f 22/20/12 17/19/12 21/21/12
f 24/22/13 21/21/13 23/23/13
f 26/24/14 23/23/14 25/25/14
f 28/26/15 25/25/15 27/27/15
f 30/28/16 27/27/16 29/29/16
f 32/30/17 29/29/17 31/31/17
f 19/32/18 31/31/18 20/18/18
f 31/31/19 29/29/19 21/21/19
f 34/33/4 36/34/4 33/35/4
f 37/36/3 35/37/3 34/33/3
f 39/38/2 38/39/2 37/36/2
f 41/40/1 40/41/1 39/38/1
f 43/42/9 42/43/9 41/40/9
f 45/44/8 44/45/8 43/42/8
f 38/39/7 42/43/7 46/46/7
f 48/47/6 46/46/6 45/44/6
f 33/35/5 47/48/5 48/47/5
f 37/36/10 34/33/10 43/42/10
f 50/49/11 18/17/11 49/50/11
f 49/50/12 22/20/12 51/51/12
f 51/51/13 24/22/13 52/52/13
f 52/52/14 26/24/14 53/53/14
f 53/53/15 28/26/15 54/54/15
f 54/54/16 30/28/16 55/55/16
f 55/55/17 32/30/17 56/56/17
f 56/56/18 19/32/18 50/49/18
f 51/51/20 52/52/20 53/53/20
f 58/57/10 60/58/10 57/59/10
f 62/60/7 64/61/7 61/62/7
f 66/63/19 68/64/19 65/65/19
f 65/65/7 61/62/7 64/61/7
f 60/58/10 67/66/10 66/63/10
f 70/67/20 72/68/20 69/69/20
f 62/60/7 69/69/7 63/70/7
f 71/71/10 57/59/10 72/68/10
f 74/72/10 76/73/10 73/74/10
f 78/75/7 80/76/7 77/77/7
f 82/78/19 84/79/19 81/80/19
f 77/77/7 81/80/7 78/75/7
f 83/81/10 74/72/10 84/79/10
f 86/82/20 88/83/20 85/84/20
f 85/84/7 80/76/7 79/85/7
f 73/74/10 87/86/10 86/82/10
f 2/1/1 3/4/1 4/2/1
f 3/4/2 5/6/2 6/5/2
f 5/6/3 7/8/3 8/7/3
f 7/8/4 9/10/4 10/9/4
f 9/10/5 11/12/5 12/11/5
f 11/12/6 13/14/6 14/13/6
f 5/6/7 3/4/7 2/1/7
f 2/1/7 15/16/7 5/6/7
f 15/16/7 13/14/7 5/6/7
f 13/14/7 11/12/7 9/10/7
f 9/10/7 7/8/7 13/14/7
f 13/14/8 15/16/8 16/15/8
f 15/16/9 2/1/9 1/3/9
f 16/15/10 1/3/10 4/2/10
f 4/2/10 6/5/10 16/15/10
f 6/5/10 8/7/10 16/15/10
f 8/7/10 10/9/10 12/11/10
f 12/11/10 14/13/10 8/7/10
f 18/17/11 19/32/11 20/18/11
f 22/20/12 18/17/12 17/19/12
f 24/22/13 22/20/13 21/21/13
f 26/24/14 24/22/14 23/23/14
f 28/26/15 26/24/15 25/25/15
f 30/28/16 28/26/16 27/27/16
f 32/30/17 30/28/17 29/29/17
f 19/32/18 32/30/18 31/31/18
f 29/29/19 27/27/19 21/21/19
f 27/27/19 25/25/19 21/21/19
f 25/25/19 23/23/19 21/21/19
f 21/21/19 17/19/19 20/18/19
f 20/18/19 31/31/19 21/21/19
f 34/33/4 35/37/4 36/34/4
f 37/36/3 38/39/3 35/37/3
f 39/38/2 40/41/2 38/39/2
f 41/40/1 42/43/1 40/41/1
f 43/42/9 44/45/9 42/43/9
f 45/44/8 46/46/8 44/45/8
f 36/34/7 35/37/7 38/39/7
f 38/39/7 40/41/7 42/43/7
f 42/43/7 44/45/7 46/46/7
f 46/46/7 47/48/7 36/34/7
f 36/34/7 38/39/7 46/46/7
f 48/47/6 47/48/6 46/46/6
f 33/35/5 36/34/5 47/48/5
f 34/33/10 33/35/10 48/47/10
f 48/47/10 45/44/10 34/33/10
f 45/44/10 43/42/10 34/33/10
f 43/42/10 41/40/10 39/38/10
f 39/38/10 37/36/10 43/42/10
f 50/49/11 19/32/11 18/17/11
f 49/50/12 18/17/12 22/20/12
f 51/51/13 22/20/13 24/22/13
f 52/52/14 24/22/14 26/24/14
f 53/53/15 26/24/15 28/26/15
f 54/54/16 28/26/16 30/28/16
f 55/55/17 30/28/17 32/30/17
f 56/56/18 32/30/18 19/32/18
f 53/53/20 54/54/20 55/55/20
f 55/55/20 56/56/20 53/53/20
f 56/56/20 50/49/20 53/53/20
f 50/49/20 49/50/20 53/53/20
f 49/50/20 51/51/20 53/53/20
f 58/57/10 59/87/10 60/58/10
f 62/60/7 63/70/7 64/61/7
f 66/63/19 67/66/19 68/64/19
f 65/65/7 68/64/7 61/62/7
f 60/58/10 59/87/10 67/66/10
f 70/67/20 71/71/20 72/68/20
f 62/60/7 70/67/7 69/69/7
f 71/71/10 58/57/10 57/59/10
f 74/72/10 75/88/10 76/73/10
f 78/75/7 79/85/7 80/76/7
f 82/78/19 83/81/19 84/79/19
f 77/77/7 82/78/7 81/80/7
f 83/81/10 75/88/10 74/72/10
f 86/82/20 87/86/20 88/83/20
f 85/84/7 88/83/7 80/76/7
f 73/74/10 76/73/10 87/86/10
usemtl LightGrey.007
f 90/89/21 92/90/21 89/91/21
f 94/92/20 96/93/20 93/94/20
f 95/95/21 98/96/21 96/93/21
f 96/93/21 65/65/21 90/89/21
f 96/93/20 99/97/20 93/94/20
f 99/97/20 89/91/20 100/98/20
f 91/99/21 65/65/21 64/61/21
f 98/96/21 66/63/21 96/93/21
f 102/100/21 104/101/21 101/102/21
f 106/103/19 108/104/19 105/105/19
f 109/106/21 107/107/21 106/103/21
f 69/69/21 106/103/21 104/101/21
f 111/108/19 106/103/19 105/105/19
f 101/102/19 111/108/19 112/109/19
f 103/110/21 69/69/21 104/101/21
f 72/68/21 109/106/21 106/103/21
f 94/92/7 97/111/7 95/95/7
f 114/112/7 107/107/7 110/113/7
f 116/114/20 118/115/20 115/116/20
f 118/115/20 120/117/20 115/116/20
f 120/117/20 122/118/20 121/119/20
f 124/120/19 126/121/19 123/122/19
f 127/123/19 124/120/19 123/122/19
f 130/124/19 127/123/19 129/125/19
f 122/118/10 129/125/10 121/119/10
f 117/126/21 124/120/21 118/115/21
f 118/115/21 128/127/21 119/128/21
f 116/114/7 125/129/7 117/126/7
f 119/128/21 130/124/21 122/118/21
f 132/130/20 134/131/20 131/132/20
f 134/131/20 136/133/20 131/132/20
f 136/133/20 138/134/20 137/135/20
f 140/136/19 142/137/19 139/138/19
f 143/139/19 140/136/19 139/138/19
f 146/140/19 143/139/19 145/141/19
f 138/134/10 145/141/10 137/135/10
f 133/142/21 140/136/21 134/131/21
f 134/131/21 144/143/21 135/144/21
f 132/130/7 141/145/7 133/142/7
f 135/144/21 146/140/21 138/134/21
f 148/146/22 150/147/22 147/148/22
f 151/149/20 94/92/20 93/94/20
f 153/150/22 152/151/22 151/149/22
f 81/80/22 151/149/22 150/147/22
f 99/97/20 151/149/20 93/94/20
f 147/148/20 99/97/20 100/98/20
f 149/152/22 81/80/22 150/147/22
f 84/79/22 153/150/22 151/149/22
f 156/153/22 158/154/22 155/155/22
f 108/104/19 160/156/19 105/105/19
f 159/157/22 162/158/22 160/156/22
f 160/156/22 85/84/22 156/153/22
f 160/156/19 111/108/19 105/105/19
f 111/108/19 155/155/19 112/109/19
f 157/159/22 85/84/22 79/85/22
f 162/158/22 86/82/22 160/156/22
f 154/160/7 94/92/7 152/151/7
f 159/157/7 114/112/7 161/161/7
f 163/162/20 116/114/20 115/116/20
f 120/117/20 163/162/20 115/116/20
f 166/163/20 120/117/20 121/119/20
f 126/121/19 168/164/19 123/122/19
f 168/164/19 127/123/19 123/122/19
f 127/123/19 170/165/19 129/125/19
f 129/125/10 166/163/10 121/119/10
f 168/164/22 164/166/22 163/162/22
f 169/167/22 163/162/22 165/168/22
f 167/169/7 116/114/7 164/166/7
f 170/165/22 165/168/22 166/163/22
f 171/170/20 132/130/20 131/132/20
f 136/133/20 171/170/20 131/132/20
f 174/171/20 136/133/20 137/135/20
f 142/137/19 176/172/19 139/138/19
f 176/172/19 143/139/19 139/138/19
f 143/139/19 178/173/19 145/141/19
f 145/141/10 174/171/10 137/135/10
f 176/172/22 172/174/22 171/170/22
f 177/175/22 171/170/22 173/176/22
f 175/177/7 132/130/7 172/174/7
f 178/173/22 173/176/22 174/171/22
f 90/89/21 91/99/21 92/90/21
f 94/92/20 95/95/20 96/93/20
f 95/95/21 97/111/21 98/96/21
f 96/93/21 66/63/21 65/65/21
f 96/93/20 90/89/20 99/97/20
f 99/97/20 90/89/20 89/91/20
f 91/99/21 90/89/21 65/65/21
f 98/96/21 60/58/21 66/63/21
f 102/100/21 103/110/21 104/101/21
f 106/103/19 107/107/19 108/104/19
f 109/106/21 110/113/21 107/107/21
f 69/69/21 72/68/21 106/103/21
f 111/108/19 104/101/19 106/103/19
f 101/102/19 104/101/19 111/108/19
f 103/110/21 63/70/21 69/69/21
f 72/68/21 57/59/21 109/106/21
f 94/92/7 113/178/7 97/111/7
f 114/112/7 108/104/7 107/107/7
f 116/114/20 117/126/20 118/115/20
f 118/115/20 119/128/20 120/117/20
f 120/117/20 119/128/20 122/118/20
f 124/120/19 125/129/19 126/121/19
f 127/123/19 128/127/19 124/120/19
f 130/124/19 128/127/19 127/123/19
f 122/118/10 130/124/10 129/125/10
f 117/126/21 125/129/21 124/120/21
f 118/115/21 124/120/21 128/127/21
f 116/114/7 126/121/7 125/129/7
f 119/128/21 128/127/21 130/124/21
f 132/130/20 133/142/20 134/131/20
f 134/131/20 135/144/20 136/133/20
f 136/133/20 135/144/20 138/134/20
f 140/136/19 141/145/19 142/137/19
f 143/139/19 144/143/19 140/136/19
f 146/140/19 144/143/19 143/139/19
f 138/134/10 146/140/10 145/141/10
f 133/142/21 141/145/21 140/136/21
f 134/131/21 140/136/21 144/143/21
f 132/130/7 142/137/7 141/145/7
f 135/144/21 144/143/21 146/140/21
f 148/146/22 149/152/22 150/147/22
f 151/149/20 152/151/20 94/92/20
f 153/150/22 154/160/22 152/151/22
f 81/80/22 84/79/22 151/149/22
f 99/97/20 150/147/20 151/149/20
f 147/148/20 150/147/20 99/97/20
f 149/152/22 78/75/22 81/80/22
f 84/79/22 74/72/22 153/150/22
f 156/153/22 157/159/22 158/154/22
f 108/104/19 159/157/19 160/156/19
f 159/157/22 161/161/22 162/158/22
f 160/156/22 86/82/22 85/84/22
f 160/156/19 156/153/19 111/108/19
f 111/108/19 156/153/19 155/155/19
f 157/159/22 156/153/22 85/84/22
f 162/158/22 73/74/22 86/82/22
f 154/160/7 113/178/7 94/92/7
f 159/157/7 108/104/7 114/112/7
f 163/162/20 164/166/20 116/114/20
f 120/117/20 165/168/20 163/162/20
f 166/163/20 165/168/20 120/117/20
f 126/121/19 167/169/19 168/164/19
f 168/164/19 169/167/19 127/123/19
f 127/123/19 169/167/19 170/165/19
f 129/125/10 170/165/10 166/163/10
f 168/164/22 167/169/22 164/166/22
f 169/167/22 168/164/22 163/162/22
f 167/169/7 126/121/7 116/114/7
f 170/165/22 169/167/22 165/168/22
f 171/170/20 172/174/20 132/130/20
f 136/133/20 173/176/20 171/170/20
f 174/171/20 173/176/20 136/133/20
f 142/137/19 175/177/19 176/172/19
f 176/172/19 177/175/19 143/139/19
f 143/139/19 177/175/19 178/173/19
f 145/141/10 178/173/10 174/171/10
f 176/172/22 175/177/22 172/174/22
f 177/175/22 176/172/22 171/170/22
f 175/177/7 142/137/7 132/130/7
f 178/173/22 177/175/22 173/176/22
usemtl Orange.005
f 98/96/21 110/113/21 109/106/21
f 64/61/21 103/110/21 91/99/21
f 92/90/21 103/110/21 102/100/21
f 57/59/21 98/96/21 109/106/21
f 113/178/7 110/113/7 97/111/7
f 161/161/22 153/150/22 162/158/22
f 149/152/22 79/85/22 78/75/22
f 157/159/22 148/146/22 158/154/22
f 153/150/22 73/74/22 162/158/22
f 161/161/7 113/178/7 154/160/7
f 98/96/21 97/111/21 110/113/21
f 64/61/21 63/70/21 103/110/21
f 92/90/21 91/99/21 103/110/21
f 57/59/21 60/58/21 98/96/21
f 113/178/7 114/112/7 110/113/7
f 161/161/22 154/160/22 153/150/22
f 149/152/22 157/159/22 79/85/22
f 157/159/22 149/152/22 148/146/22
f 153/150/22 74/72/22 73/74/22
f 161/161/7 114/112/7 113/178/7
usemtl Screen
f 62/60/21 59/87/21 58/57/21
f 59/87/21 68/64/21 67/66/21
f 70/67/21 58/57/21 71/71/21
f 75/88/22 80/76/22 76/73/22
f 82/78/22 75/88/22 83/81/22
f 76/73/22 88/83/22 87/86/22
f 62/60/21 61/62/21 59/87/21
f 59/87/21 61/62/21 68/64/21
f 70/67/21 62/60/21 58/57/21
f 75/88/22 77/77/22 80/76/22
f 82/78/22 77/77/22 75/88/22
f 76/73/22 80/76/22 88/83/22
