# Blender v3.5.0 OBJ File: 'WhitmanWilson_LevelAssignment.blend'
# www.blender.org
mtllib Lootbox_Base_Cube.mtl
o Lootbox_Base_Cube.001
v -0.158089 0.015159 -0.263482
v 0.158089 0.015159 -0.263482
v 0.158089 0.401149 -0.263482
v -0.158089 0.401149 -0.263482
v 0.169259 -0.000473 -0.282098
v -0.169259 -0.000473 -0.282098
v -0.169259 0.401149 -0.282098
v 0.169259 0.401149 -0.282098
v 0.169259 -0.000473 0.282098
v -0.169259 -0.000473 0.282098
v -0.169259 0.401149 0.282098
v 0.169259 0.401149 0.282098
v -0.158089 0.015159 0.263482
v 0.158089 0.015159 0.263482
v 0.158089 0.401149 0.263482
v -0.158089 0.401149 0.263482
v -0.282098 -0.000473 -0.169259
v -0.282098 -0.000473 0.169259
v -0.282098 0.401149 0.169259
v -0.282098 0.401149 -0.169259
v 0.282098 -0.000473 0.169259
v 0.282098 -0.000473 -0.169259
v 0.282098 0.401149 -0.169259
v 0.282098 0.401149 0.169259
v 0.249340 0.029666 0.149604
v 0.249340 0.029666 -0.149604
v -0.149604 0.029666 -0.149604
v -0.249340 0.029666 -0.149604
v -0.169259 -0.000473 0.169259
v -0.169259 -0.000473 -0.169259
v 0.169259 -0.000473 -0.169259
v 0.169259 -0.000473 0.169259
v 0.263482 0.401149 -0.158089
v 0.263482 0.401149 0.158089
v 0.263482 0.015159 0.158089
v 0.263482 0.015159 -0.158089
v -0.263482 0.401149 0.158089
v -0.263482 0.401149 -0.158089
v -0.263482 0.015159 -0.158089
v -0.263482 0.015159 0.158089
v -0.249340 0.029666 0.149604
v 0.149604 0.029666 -0.149604
v 0.149604 0.029666 0.149604
v -0.149604 0.029666 0.149604
v -0.158089 0.015159 0.158089
v -0.158089 0.015159 -0.158089
v 0.158089 0.015159 -0.158089
v 0.158089 0.015159 0.158089
v -0.239425 -0.000473 0.282098
v -0.282098 -0.000473 0.239425
v -0.269600 -0.000473 0.269600
v -0.282098 0.401149 0.239425
v -0.239425 0.401149 0.282098
v -0.269600 0.401149 0.269600
v -0.282098 -0.000473 -0.239425
v -0.239425 -0.000473 -0.282098
v -0.269600 -0.000473 -0.269600
v -0.239425 0.401149 -0.282098
v -0.282098 0.401149 -0.239425
v -0.269600 0.401149 -0.269600
v 0.282098 -0.000473 0.239425
v 0.239425 -0.000473 0.282098
v 0.269600 -0.000473 0.269600
v 0.239425 0.401149 0.282098
v 0.282098 0.401149 0.239425
v 0.269600 0.401149 0.269600
v 0.239425 -0.000473 -0.282098
v 0.282098 -0.000473 -0.239425
v 0.269600 -0.000473 -0.269600
v 0.282098 0.401149 -0.239425
v 0.239425 0.401149 -0.282098
v 0.269600 0.401149 -0.269600
v -0.252312 0.401149 -0.169259
v -0.169259 0.401149 -0.252311
v -0.169259 0.401149 0.252311
v -0.252312 0.401149 0.169259
v 0.252312 0.401149 0.169259
v 0.169259 0.401149 0.252312
v 0.169259 0.401149 -0.252312
v 0.252312 0.401149 -0.169259
v -0.249340 0.401149 0.149604
v -0.249340 0.401149 -0.149604
v 0.249340 0.401149 -0.149604
v 0.249340 0.401149 0.149604
v -0.149604 0.401149 -0.249340
v 0.149604 0.401149 -0.249340
v -0.149604 0.401149 0.249340
v 0.149604 0.401149 0.249340
v 0.238770 0.401149 -0.160175
v -0.238770 0.401149 0.160175
v -0.160175 0.401149 0.238770
v 0.160175 0.401149 -0.238770
v -0.238770 0.401149 -0.160175
v -0.160175 0.401149 -0.238770
v 0.238770 0.401149 0.160175
v 0.160175 0.401149 0.238770
v -0.149604 0.029666 -0.249340
v 0.149604 0.029666 -0.249340
v 0.160175 0.029666 -0.160175
v -0.149604 0.029666 0.249340
v 0.149604 0.029666 0.249340
v -0.160175 0.029666 0.160175
v 0.160175 0.029666 0.160175
v -0.160175 0.029666 -0.160175
v 0.238770 0.029666 -0.160175
v -0.238770 0.029666 0.160175
v -0.160175 0.029666 0.238770
v 0.160175 0.029666 -0.238770
v -0.238770 0.029666 -0.160175
v -0.160175 0.029666 -0.238770
v 0.238770 0.029666 0.160175
v 0.160175 0.029666 0.238770
v 0.276864 0.006434 0.121516
v 0.276864 0.006434 -0.121516
v 0.276864 0.303127 -0.121516
v 0.276864 0.303127 0.121516
v 0.276864 0.006434 -0.069960
v 0.276864 0.006434 0.069960
v 0.276864 0.303127 0.069960
v 0.276864 0.303127 -0.069960
v 0.276864 0.187265 -0.121516
v 0.276864 0.187265 0.121516
v 0.276864 0.187265 0.069960
v 0.276864 0.187265 -0.069960
v 0.235035 0.006434 0.069960
v 0.235035 0.006434 0.121516
v 0.235035 0.187265 -0.121516
v 0.235035 0.303127 -0.121516
v 0.235035 0.303127 -0.069960
v 0.235035 0.187265 0.121516
v 0.235035 0.006434 -0.121516
v 0.235035 0.006434 -0.069960
v 0.235035 0.303127 0.121516
v 0.235035 0.303127 0.069960
v 0.235035 0.187265 0.069960
v 0.235035 0.187265 -0.069960
v 0.121516 0.006434 -0.276864
v -0.121516 0.006434 -0.276864
v -0.121516 0.303127 -0.276864
v 0.121516 0.303127 -0.276864
v -0.069960 0.006434 -0.276864
v 0.069960 0.006434 -0.276864
v 0.069960 0.303127 -0.276864
v -0.069960 0.303127 -0.276864
v -0.121516 0.187265 -0.276864
v 0.121516 0.187265 -0.276864
v 0.069960 0.187265 -0.276864
v -0.069960 0.187265 -0.276864
v 0.069960 0.006434 -0.235035
v 0.121516 0.006434 -0.235035
v -0.121516 0.187265 -0.235035
v -0.121516 0.303127 -0.235035
v -0.069960 0.303127 -0.235035
v 0.121516 0.187265 -0.235035
v -0.121516 0.006434 -0.235035
v -0.069960 0.006434 -0.235035
v 0.121516 0.303127 -0.235035
v 0.069960 0.303127 -0.235035
v 0.069960 0.187265 -0.235035
v -0.069960 0.187265 -0.235035
v -0.276864 0.006434 -0.121516
v -0.276864 0.006434 0.121516
v -0.276864 0.303127 0.121516
v -0.276864 0.303127 -0.121516
v -0.276864 0.006434 0.069960
v -0.276864 0.006434 -0.069960
v -0.276864 0.303127 -0.069960
v -0.276864 0.303127 0.069960
v -0.276864 0.187265 0.121516
v -0.276864 0.187265 -0.121516
v -0.276864 0.187265 -0.069960
v -0.276864 0.187265 0.069960
v -0.235035 0.006434 -0.069960
v -0.235035 0.006434 -0.121516
v -0.235035 0.187265 0.121516
v -0.235035 0.303127 0.121516
v -0.235035 0.303127 0.069960
v -0.235035 0.187265 -0.121516
v -0.235035 0.006434 0.121516
v -0.235035 0.006434 0.069960
v -0.235035 0.303127 -0.121516
v -0.235035 0.303127 -0.069960
v -0.235035 0.187265 -0.069960
v -0.235035 0.187265 0.069960
v -0.121516 0.006434 0.276864
v 0.121516 0.006434 0.276864
v 0.121516 0.303127 0.276864
v -0.121516 0.303127 0.276864
v 0.069960 0.006434 0.276864
v -0.069960 0.006434 0.276864
v -0.069960 0.303127 0.276864
v 0.069960 0.303127 0.276864
v 0.121516 0.187265 0.276864
v -0.121516 0.187265 0.276864
v -0.069960 0.187265 0.276864
v 0.069960 0.187265 0.276864
v -0.069960 0.006434 0.235035
v -0.121516 0.006434 0.235035
v 0.121516 0.187265 0.235035
v 0.121516 0.303127 0.235035
v 0.069960 0.303127 0.235035
v -0.121516 0.187265 0.235035
v 0.121516 0.006434 0.235035
v 0.069960 0.006434 0.235035
v -0.121516 0.303127 0.235035
v -0.069960 0.303127 0.235035
v -0.069960 0.187265 0.235035
v 0.069960 0.187265 0.235035
vn 0.0000 1.0000 0.0000
vn 0.8136 -0.5814 0.0000
vn 1.0000 0.0000 0.0000
vn 0.0000 -1.0000 0.0000
vn 0.0000 0.0000 1.0000
vn 0.0000 0.0000 -1.0000
vn -1.0000 0.0000 0.0000
vn -0.8136 -0.5814 0.0000
vn 0.0000 -0.5814 0.8136
vn 0.0000 -0.5814 -0.8136
vn -0.8575 0.0000 -0.5145
vn 0.5145 0.0000 0.8575
vn -0.8575 0.0000 0.5145
vn 0.5145 0.0000 -0.8575
vn -0.5145 0.0000 0.8575
vn 0.8575 0.0000 -0.5145
vn -0.5145 0.0000 -0.8575
vn 0.8575 0.0000 0.5145
vn -0.3827 0.0000 0.9239
vn -0.9239 0.0000 0.3827
vn -0.3827 0.0000 -0.9239
vn -0.9239 0.0000 -0.3827
vn 0.9239 0.0000 -0.3827
vn 0.3827 0.0000 -0.9239
vn 0.3827 0.0000 0.9239
vn 0.9239 0.0000 0.3827
vn 0.7071 0.0000 -0.7071
vn -0.7071 0.0000 -0.7071
vn 0.7071 0.0000 0.7071
vn -0.7071 0.0000 0.7071
usemtl DarkGrey.004
s off
f 102//1 106//1 107//1
f 30//2 1//2 46//2
f 70//3 22//3 68//3
f 79//1 80//1 71//1
f 29//4 49//4 50//4
f 78//1 64//1 65//1
f 64//5 9//5 62//5
f 8//6 67//6 5//6
f 56//4 6//4 30//4
f 20//7 55//7 17//7
f 32//4 61//4 62//4
f 67//4 68//4 31//4
f 24//3 61//3 21//3
f 74//1 58//1 59//1
f 32//8 14//8 48//8
f 77//1 84//1 95//1
f 31//9 36//9 47//9
f 32//10 35//10 21//10
f 8//11 2//11 3//11
f 23//12 36//12 22//12
f 58//6 6//6 56//6
f 30//9 39//9 17//9
f 79//1 89//1 80//1
f 29//10 40//10 45//10
f 12//13 14//13 9//13
f 24//14 35//14 34//14
f 12//1 78//1 15//1
f 74//1 93//1 94//1
f 11//5 49//5 10//5
f 47//4 1//4 2//4
f 80//1 83//1 33//1
f 14//4 45//4 48//4
f 74//1 85//1 4//1
f 47//4 45//4 46//4
f 40//4 46//4 45//4
f 48//4 36//4 35//4
f 79//1 86//1 92//1
f 73//1 82//1 93//1
f 20//15 39//15 38//15
f 7//16 1//16 6//16
f 75//1 90//1 76//1
f 23//1 80//1 33//1
f 29//2 13//2 10//2
f 19//17 40//17 18//17
f 19//1 76//1 37//1
f 31//8 2//8 5//8
f 11//18 13//18 16//18
f 7//1 74//1 4//1
f 53//19 51//19 49//19
f 54//20 50//20 51//20
f 56//21 60//21 58//21
f 57//22 59//22 60//22
f 68//23 72//23 70//23
f 69//24 71//24 72//24
f 62//25 66//25 64//25
f 63//26 65//26 66//26
f 52//7 18//7 50//7
f 38//1 73//1 20//1
f 75//1 87//1 91//1
f 76//1 81//1 37//1
f 16//1 75//1 11//1
f 76//1 52//1 53//1
f 34//1 77//1 24//1
f 78//1 88//1 15//1
f 3//1 79//1 8//1
f 77//1 96//1 78//1
f 90//27 41//27 81//27
f 96//28 101//28 88//28
f 93//29 110//29 94//29
f 95//28 112//28 96//28
f 94//29 97//29 85//29
f 84//28 111//28 95//28
f 82//29 109//29 93//29
f 92//30 105//30 89//30
f 91//27 106//27 90//27
f 89//30 26//30 83//30
f 87//27 107//27 91//27
f 86//30 108//30 92//30
f 27//1 98//1 97//1
f 99//1 98//1 42//1
f 102//1 100//1 44//1
f 104//1 28//1 27//1
f 100//1 43//1 44//1
f 27//1 43//1 42//1
f 25//1 42//1 43//1
f 44//1 28//1 41//1
f 103//1 25//1 43//1
f 97//1 104//1 27//1
f 110//1 109//1 104//1
f 41//1 102//1 44//1
f 112//1 111//1 103//1
f 101//1 103//1 43//1
f 26//1 99//1 42//1
f 105//1 108//1 99//1
f 30//2 6//2 1//2
f 70//3 23//3 22//3
f 23//1 70//1 80//1
f 70//1 72//1 71//1
f 80//1 70//1 71//1
f 71//1 8//1 79//1
f 50//4 18//4 29//4
f 29//4 10//4 49//4
f 49//4 51//4 50//4
f 65//1 24//1 77//1
f 77//1 78//1 65//1
f 78//1 12//1 64//1
f 65//1 64//1 66//1
f 64//5 12//5 9//5
f 8//6 71//6 67//6
f 17//4 55//4 30//4
f 55//4 57//4 56//4
f 30//4 55//4 56//4
f 20//7 59//7 55//7
f 9//4 32//4 62//4
f 32//4 21//4 61//4
f 62//4 61//4 63//4
f 31//4 5//4 67//4
f 67//4 69//4 68//4
f 68//4 22//4 31//4
f 24//3 65//3 61//3
f 74//1 7//1 58//1
f 58//1 60//1 59//1
f 59//1 20//1 73//1
f 73//1 74//1 59//1
f 32//8 9//8 14//8
f 77//1 34//1 84//1
f 31//9 22//9 36//9
f 32//10 48//10 35//10
f 8//11 5//11 2//11
f 23//12 33//12 36//12
f 58//6 7//6 6//6
f 30//9 46//9 39//9
f 79//1 92//1 89//1
f 29//10 18//10 40//10
f 12//13 15//13 14//13
f 24//14 21//14 35//14
f 74//1 73//1 93//1
f 11//5 53//5 49//5
f 47//4 46//4 1//4
f 80//1 89//1 83//1
f 14//4 13//4 45//4
f 74//1 94//1 85//1
f 47//4 48//4 45//4
f 40//4 39//4 46//4
f 48//4 47//4 36//4
f 79//1 3//1 86//1
f 73//1 38//1 82//1
f 20//15 17//15 39//15
f 7//16 4//16 1//16
f 75//1 91//1 90//1
f 29//2 45//2 13//2
f 19//17 37//17 40//17
f 31//8 47//8 2//8
f 11//18 10//18 13//18
f 53//19 54//19 51//19
f 54//20 52//20 50//20
f 56//21 57//21 60//21
f 57//22 55//22 59//22
f 68//23 69//23 72//23
f 69//24 67//24 71//24
f 62//25 63//25 66//25
f 63//26 61//26 65//26
f 52//7 19//7 18//7
f 75//1 16//1 87//1
f 76//1 90//1 81//1
f 11//1 75//1 53//1
f 75//1 76//1 53//1
f 76//1 19//1 52//1
f 52//1 54//1 53//1
f 78//1 96//1 88//1
f 77//1 95//1 96//1
f 90//27 106//27 41//27
f 96//28 112//28 101//28
f 93//29 109//29 110//29
f 95//28 111//28 112//28
f 94//29 110//29 97//29
f 84//28 25//28 111//28
f 82//29 28//29 109//29
f 92//30 108//30 105//30
f 91//27 107//27 106//27
f 89//30 105//30 26//30
f 87//27 100//27 107//27
f 86//30 98//30 108//30
f 27//1 42//1 98//1
f 99//1 108//1 98//1
f 102//1 107//1 100//1
f 104//1 109//1 28//1
f 100//1 101//1 43//1
f 27//1 44//1 43//1
f 25//1 26//1 42//1
f 44//1 27//1 28//1
f 103//1 111//1 25//1
f 97//1 110//1 104//1
f 41//1 106//1 102//1
f 101//1 112//1 103//1
f 26//1 105//1 99//1
usemtl Grey.005
f 37//1 82//1 38//1
f 13//5 15//5 16//5
f 2//6 4//6 3//6
f 35//3 33//3 34//3
f 39//7 37//7 38//7
f 4//1 86//1 3//1
f 33//1 84//1 34//1
f 15//1 87//1 16//1
f 85//5 98//5 86//5
f 83//7 25//7 84//7
f 81//3 28//3 82//3
f 88//6 100//6 87//6
f 117//3 121//3 124//3
f 113//3 123//3 122//3
f 127//7 132//7 136//7
f 123//3 120//3 119//3
f 122//3 119//3 116//3
f 124//3 115//3 120//3
f 135//7 126//7 130//7
f 129//7 135//7 134//7
f 134//7 130//7 133//7
f 128//7 136//7 129//7
f 134//1 116//1 119//1
f 136//5 117//5 124//5
f 130//5 113//5 122//5
f 131//6 121//6 114//6
f 126//4 118//4 113//4
f 129//1 119//1 120//1
f 135//4 124//4 123//4
f 132//4 114//4 117//4
f 133//5 122//5 116//5
f 127//6 115//6 121//6
f 125//6 123//6 118//6
f 128//1 120//1 115//1
f 141//6 145//6 148//6
f 137//6 147//6 146//6
f 151//5 156//5 160//5
f 147//6 144//6 143//6
f 146//6 143//6 140//6
f 148//6 139//6 144//6
f 159//5 150//5 154//5
f 153//5 159//5 158//5
f 158//5 154//5 157//5
f 152//5 160//5 153//5
f 158//1 140//1 143//1
f 160//3 141//3 148//3
f 154//3 137//3 146//3
f 155//7 145//7 138//7
f 150//4 142//4 137//4
f 153//1 143//1 144//1
f 159//4 148//4 147//4
f 156//4 138//4 141//4
f 157//3 146//3 140//3
f 151//7 139//7 145//7
f 149//7 147//7 142//7
f 152//1 144//1 139//1
f 165//7 169//7 172//7
f 161//7 171//7 170//7
f 175//3 180//3 184//3
f 171//7 168//7 167//7
f 170//7 167//7 164//7
f 172//7 163//7 168//7
f 183//3 174//3 178//3
f 177//3 183//3 182//3
f 182//3 178//3 181//3
f 176//3 184//3 177//3
f 182//1 164//1 167//1
f 184//6 165//6 172//6
f 178//6 161//6 170//6
f 179//5 169//5 162//5
f 174//4 166//4 161//4
f 177//1 167//1 168//1
f 183//4 172//4 171//4
f 180//4 162//4 165//4
f 181//6 170//6 164//6
f 175//5 163//5 169//5
f 173//5 171//5 166//5
f 176//1 168//1 163//1
f 189//5 193//5 196//5
f 185//5 195//5 194//5
f 199//6 204//6 208//6
f 195//5 192//5 191//5
f 194//5 191//5 188//5
f 196//5 187//5 192//5
f 207//6 198//6 202//6
f 201//6 207//6 206//6
f 206//6 202//6 205//6
f 200//6 208//6 201//6
f 206//1 188//1 191//1
f 208//7 189//7 196//7
f 202//7 185//7 194//7
f 203//3 193//3 186//3
f 198//4 190//4 185//4
f 201//1 191//1 192//1
f 207//4 196//4 195//4
f 204//4 186//4 189//4
f 205//7 194//7 188//7
f 199//3 187//3 193//3
f 197//3 195//3 190//3
f 200//1 192//1 187//1
f 37//1 81//1 82//1
f 13//5 14//5 15//5
f 2//6 1//6 4//6
f 35//3 36//3 33//3
f 39//7 40//7 37//7
f 4//1 85//1 86//1
f 33//1 83//1 84//1
f 15//1 88//1 87//1
f 85//5 97//5 98//5
f 83//7 26//7 25//7
f 81//3 41//3 28//3
f 88//6 101//6 100//6
f 117//3 114//3 121//3
f 113//3 118//3 123//3
f 127//7 131//7 132//7
f 123//3 124//3 120//3
f 122//3 123//3 119//3
f 124//3 121//3 115//3
f 135//7 125//7 126//7
f 129//7 136//7 135//7
f 134//7 135//7 130//7
f 128//7 127//7 136//7
f 134//1 133//1 116//1
f 136//5 132//5 117//5
f 130//5 126//5 113//5
f 131//6 127//6 121//6
f 126//4 125//4 118//4
f 129//1 134//1 119//1
f 135//4 136//4 124//4
f 132//4 131//4 114//4
f 133//5 130//5 122//5
f 127//6 128//6 115//6
f 125//6 135//6 123//6
f 128//1 129//1 120//1
f 141//6 138//6 145//6
f 137//6 142//6 147//6
f 151//5 155//5 156//5
f 147//6 148//6 144//6
f 146//6 147//6 143//6
f 148//6 145//6 139//6
f 159//5 149//5 150//5
f 153//5 160//5 159//5
f 158//5 159//5 154//5
f 152//5 151//5 160//5
f 158//1 157//1 140//1
f 160//3 156//3 141//3
f 154//3 150//3 137//3
f 155//7 151//7 145//7
f 150//4 149//4 142//4
f 153//1 158//1 143//1
f 159//4 160//4 148//4
f 156//4 155//4 138//4
f 157//3 154//3 146//3
f 151//7 152//7 139//7
f 149//7 159//7 147//7
f 152//1 153//1 144//1
f 165//7 162//7 169//7
f 161//7 166//7 171//7
f 175//3 179//3 180//3
f 171//7 172//7 168//7
f 170//7 171//7 167//7
f 172//7 169//7 163//7
f 183//3 173//3 174//3
f 177//3 184//3 183//3
f 182//3 183//3 178//3
f 176//3 175//3 184//3
f 182//1 181//1 164//1
f 184//6 180//6 165//6
f 178//6 174//6 161//6
f 179//5 175//5 169//5
f 174//4 173//4 166//4
f 177//1 182//1 167//1
f 183//4 184//4 172//4
f 180//4 179//4 162//4
f 181//6 178//6 170//6
f 175//5 176//5 163//5
f 173//5 183//5 171//5
f 176//1 177//1 168//1
f 189//5 186//5 193//5
f 185//5 190//5 195//5
f 199//6 203//6 204//6
f 195//5 196//5 192//5
f 194//5 195//5 191//5
f 196//5 193//5 187//5
f 207//6 197//6 198//6
f 201//6 208//6 207//6
f 206//6 207//6 202//6
f 200//6 199//6 208//6
f 206//1 205//1 188//1
f 208//7 204//7 189//7
f 202//7 198//7 185//7
f 203//3 199//3 193//3
f 198//4 197//4 190//4
f 201//1 206//1 191//1
f 207//4 208//4 196//4
f 204//4 203//4 186//4
f 205//7 202//7 194//7
f 199//3 200//3 187//3
f 197//3 207//3 195//3
f 200//1 201//1 192//1
