# Blender v3.5.0 OBJ File: 'WhitmanWilson_LevelAssignment.blend'
# www.blender.org
mtllib Support_Short_Plane.mtl
o Support_Short_Plane
v 0.485575 -1.004064 0.041370
v 0.485575 -1.004064 -0.041370
v 1.091180 -0.668047 0.041370
v 1.091180 -0.668047 -0.041370
v 0.485575 -0.334420 0.041370
v 0.485575 -0.334420 -0.041370
v 1.091180 0.001598 0.041370
v 1.091180 0.001598 -0.041370
v 1.019120 -0.166157 -0.041370
v 0.961706 -0.131500 -0.041370
v 1.002304 -0.129130 -0.041370
v 0.620109 -0.862595 0.041370
v 0.562278 -0.827132 0.041370
v 0.579216 -0.864395 0.041370
v 0.562278 -0.511162 0.041370
v 0.620109 -0.475699 0.041370
v 0.525583 -0.392764 0.041370
v 0.579216 -0.473899 0.041370
v 0.942508 -0.639725 0.041370
v 0.942508 -0.698570 0.041370
v 0.966463 -0.669147 0.041370
v 1.019120 -0.501567 0.041370
v 0.961653 -0.536325 0.041370
v 1.056390 -0.619567 0.041370
v 1.002288 -0.538624 0.041370
v 0.633883 -0.364484 0.041370
v 0.633830 -0.304127 0.041370
v 0.610064 -0.334326 0.041370
v 0.961706 -0.131500 0.041370
v 1.019120 -0.166157 0.041370
v 1.002304 -0.129130 0.041370
v 0.562278 -0.827132 -0.041370
v 0.620109 -0.862595 -0.041370
v 0.579216 -0.864395 -0.041370
v 0.620109 -0.475699 -0.041370
v 0.562278 -0.511162 -0.041370
v 0.525583 -0.392764 -0.041370
v 0.579216 -0.473899 -0.041370
v 0.942508 -0.698570 -0.041370
v 0.942508 -0.639725 -0.041370
v 0.966463 -0.669147 -0.041370
v 0.961653 -0.536325 -0.041370
v 1.019120 -0.501567 -0.041370
v 1.056390 -0.619567 -0.041370
v 1.002288 -0.538624 -0.041370
v 0.633830 -0.304127 -0.041370
v 0.633883 -0.364484 -0.041370
v 0.610064 -0.334326 -0.041370
v 0.485575 0.335224 0.041370
v 0.485575 0.335224 -0.041370
v 1.091180 0.671242 0.041370
v 1.091180 0.671242 -0.041370
v 1.019120 0.503487 -0.041370
v 0.961706 0.538144 -0.041370
v 1.002304 0.540514 -0.041370
v 0.620109 -0.192951 0.041370
v 0.562278 -0.157488 0.041370
v 0.579216 -0.194751 0.041370
v 0.562278 0.158482 0.041370
v 0.620109 0.193945 0.041370
v 0.525583 0.276880 0.041370
v 0.579216 0.195745 0.041370
v 0.942508 0.029920 0.041370
v 0.942508 -0.028925 0.041370
v 0.966463 0.000497 0.041370
v 1.019120 0.168077 0.041370
v 0.961653 0.133320 0.041370
v 1.056390 0.050078 0.041370
v 1.002288 0.131021 0.041370
v 0.633883 0.305161 0.041370
v 0.633830 0.365517 0.041370
v 0.610064 0.335318 0.041370
v 0.961706 0.538144 0.041370
v 1.019120 0.503487 0.041370
v 1.002304 0.540514 0.041370
v 0.562278 -0.157488 -0.041370
v 0.620109 -0.192951 -0.041370
v 0.579216 -0.194751 -0.041370
v 0.620109 0.193945 -0.041370
v 0.562278 0.158482 -0.041370
v 0.525583 0.276880 -0.041370
v 0.579216 0.195745 -0.041370
v 0.942508 -0.028925 -0.041370
v 0.942508 0.029920 -0.041370
v 0.966463 0.000497 -0.041370
v 0.961653 0.133320 -0.041370
v 1.019120 0.168077 -0.041370
v 1.056390 0.050078 -0.041370
v 1.002288 0.131021 -0.041370
v 0.633830 0.365517 -0.041370
v 0.633883 0.305161 -0.041370
v 0.610064 0.335318 -0.041370
v 0.485575 1.004869 0.041370
v 0.485575 1.004869 -0.041370
v 0.620109 0.476693 0.041370
v 0.562278 0.512156 0.041370
v 0.579216 0.474893 0.041370
v 0.562278 0.828126 0.041370
v 0.620109 0.863589 0.041370
v 0.525583 0.946525 0.041370
v 0.579216 0.865390 0.041370
v 0.942508 0.699564 0.041370
v 0.942508 0.640719 0.041370
v 0.966463 0.670141 0.041370
v -0.000001 1.026702 0.019940
v -0.000001 1.076858 0.019940
v -0.000001 1.026702 -0.019940
v -0.000001 1.076858 -0.019940
v -0.000001 -1.026702 0.019940
v -0.000001 -1.076858 0.019940
v -0.000001 -1.026702 -0.019940
v -0.000001 -1.076858 -0.019940
v 0.491366 -1.026702 -0.019940
v 0.562278 0.512156 -0.041370
v 0.620109 0.476693 -0.041370
v 0.579216 0.474893 -0.041370
v 0.620109 0.863589 -0.041370
v 0.562278 0.828126 -0.041370
v 0.525583 0.946525 -0.041370
v 0.579216 0.865390 -0.041370
v 0.942508 0.640719 -0.041370
v 0.942508 0.699564 -0.041370
v 0.966463 0.670141 -0.041370
v 0.491366 -1.026702 0.019940
v 0.491366 -1.076858 -0.019940
v 0.491366 -1.076858 0.019940
v 0.491366 1.026702 -0.019940
v 0.491366 1.026702 0.019940
v 0.491366 1.076858 -0.019940
v 0.491366 1.076858 0.019940
v 0.466923 1.107016 0.043919
v 0.466923 1.107016 -0.043919
v 1.109833 0.750300 0.043919
v 1.109833 0.750300 -0.043919
v 0.466923 0.996544 0.043919
v 0.466923 0.996544 -0.043919
v 1.109833 0.639827 0.043919
v 1.109833 0.639827 -0.043919
v 0.466923 -1.107016 0.043919
v 0.466923 -1.107016 -0.043919
v 1.109833 -0.750299 0.043919
v 1.109833 -0.750299 -0.043919
v 0.466923 -0.996543 0.043919
v 0.466923 -0.996543 -0.043919
v 1.109833 -0.639827 0.043919
v 1.109833 -0.639827 -0.043919
vn 0.0000 0.0000 1.0000
vn -0.4535 -0.8913 0.0000
vn -1.0000 0.0000 0.0000
vn 0.0000 0.0000 -1.0000
vn 0.4659 -0.8849 0.0000
vn 0.4643 0.8857 0.0000
vn -0.4535 0.8913 0.0000
vn 1.0000 0.0000 0.0000
vn -0.0440 0.9990 0.0000
vn 0.9104 0.4138 0.0000
vn -0.0440 -0.9990 0.0000
vn 0.9104 -0.4138 0.0000
vn -0.9105 0.4136 0.0000
vn 0.0565 0.9984 0.0000
vn 0.7858 -0.6184 0.0000
vn 0.7848 0.6198 0.0000
vn -0.7755 0.6314 0.0000
vn -0.7755 -0.6314 0.0000
vn 0.0583 -0.9983 0.0000
vn -0.9105 -0.4135 0.0000
vn 0.7847 0.6198 0.0000
vn 0.0000 -1.0000 0.0000
vn 0.0000 1.0000 0.0000
vn 0.4852 0.8744 0.0000
vn -0.4852 -0.8744 0.0000
vn 0.4852 -0.8744 0.0000
vn -0.4852 0.8744 0.0000
usemtl LightGrey.011
s off
f 27//1 7//1 5//1
f 16//2 40//2 19//2
f 30//3 43//3 22//3
f 6//4 36//4 32//4
f 27//5 10//5 29//5
f 23//6 47//6 26//6
f 35//4 6//4 40//4
f 22//1 3//1 30//1
f 20//7 33//7 12//7
f 42//4 4//4 47//4
f 2//4 39//4 4//4
f 20//1 1//1 3//1
f 26//1 3//1 23//1
f 3//8 8//8 7//8
f 19//1 5//1 16//1
f 15//1 17//1 5//1
f 13//8 36//8 15//8
f 9//4 4//4 43//4
f 5//3 2//3 1//3
f 9//4 11//4 8//4
f 11//4 10//4 8//4
f 12//1 14//1 1//1
f 14//1 13//1 1//1
f 15//1 18//1 17//1
f 18//1 16//1 17//1
f 19//1 21//1 3//1
f 21//1 20//1 3//1
f 22//1 25//1 24//1
f 25//1 23//1 24//1
f 26//1 28//1 5//1
f 28//1 27//1 5//1
f 29//1 31//1 7//1
f 31//1 30//1 7//1
f 32//4 34//4 2//4
f 34//4 33//4 2//4
f 35//4 38//4 37//4
f 38//4 36//4 37//4
f 39//4 41//4 4//4
f 41//4 40//4 4//4
f 42//4 45//4 44//4
f 45//4 43//4 44//4
f 46//4 48//4 6//4
f 48//4 47//4 6//4
f 33//9 14//9 12//9
f 34//10 13//10 14//10
f 16//11 38//11 35//11
f 18//12 36//12 38//12
f 43//13 25//13 22//13
f 45//14 23//14 25//14
f 27//15 48//15 46//15
f 28//16 47//16 48//16
f 20//17 41//17 39//17
f 21//18 40//18 41//18
f 10//19 31//19 29//19
f 11//20 30//20 31//20
f 8//4 46//4 6//4
f 71//1 51//1 49//1
f 60//2 84//2 63//2
f 74//3 87//3 66//3
f 50//4 80//4 76//4
f 71//5 54//5 73//5
f 67//6 91//6 70//6
f 79//4 50//4 84//4
f 66//1 7//1 74//1
f 64//7 77//7 56//7
f 86//4 8//4 91//4
f 6//4 83//4 8//4
f 64//1 5//1 7//1
f 70//1 7//1 67//1
f 7//8 52//8 51//8
f 63//1 49//1 60//1
f 59//1 61//1 49//1
f 57//8 80//8 59//8
f 53//4 8//4 87//4
f 49//3 6//3 5//3
f 53//4 55//4 52//4
f 55//4 54//4 52//4
f 56//1 58//1 5//1
f 58//1 57//1 5//1
f 59//1 62//1 61//1
f 62//1 60//1 61//1
f 63//1 65//1 7//1
f 65//1 64//1 7//1
f 66//1 69//1 68//1
f 69//1 67//1 68//1
f 70//1 72//1 49//1
f 72//1 71//1 49//1
f 73//1 75//1 51//1
f 75//1 74//1 51//1
f 76//4 78//4 6//4
f 78//4 77//4 6//4
f 79//4 82//4 81//4
f 82//4 80//4 81//4
f 83//4 85//4 8//4
f 85//4 84//4 8//4
f 86//4 89//4 88//4
f 89//4 87//4 88//4
f 90//4 92//4 50//4
f 92//4 91//4 50//4
f 77//9 58//9 56//9
f 78//10 57//10 58//10
f 60//11 82//11 79//11
f 62//12 80//12 82//12
f 87//13 69//13 66//13
f 89//14 67//14 69//14
f 71//15 92//15 90//15
f 72//21 91//21 92//21
f 64//17 85//17 83//17
f 65//18 84//18 85//18
f 54//19 75//19 73//19
f 55//20 74//20 75//20
f 52//4 90//4 50//4
f 99//2 122//2 102//2
f 94//4 118//4 114//4
f 117//4 94//4 122//4
f 103//7 115//7 95//7
f 50//4 121//4 52//4
f 103//1 49//1 51//1
f 102//1 93//1 99//1
f 98//1 100//1 93//1
f 96//8 118//8 98//8
f 93//3 50//3 49//3
f 95//1 97//1 49//1
f 97//1 96//1 49//1
f 98//1 101//1 100//1
f 101//1 99//1 100//1
f 102//1 104//1 51//1
f 104//1 103//1 51//1
f 114//4 116//4 50//4
f 116//4 115//4 50//4
f 117//4 120//4 119//4
f 120//4 118//4 119//4
f 121//4 123//4 52//4
f 123//4 122//4 52//4
f 115//9 97//9 95//9
f 116//10 96//10 97//10
f 99//11 120//11 117//11
f 101//12 118//12 120//12
f 103//17 123//17 121//17
f 104//18 122//18 123//18
f 27//1 29//1 7//1
f 16//2 35//2 40//2
f 30//3 9//3 43//3
f 32//4 2//4 6//4
f 6//4 37//4 36//4
f 27//5 46//5 10//5
f 23//6 42//6 47//6
f 37//4 6//4 35//4
f 6//4 4//4 40//4
f 24//1 3//1 22//1
f 3//1 7//1 30//1
f 20//7 39//7 33//7
f 44//4 4//4 42//4
f 4//4 6//4 47//4
f 2//4 33//4 39//4
f 20//1 12//1 1//1
f 5//1 3//1 26//1
f 3//1 24//1 23//1
f 3//8 4//8 8//8
f 3//1 5//1 19//1
f 5//1 17//1 16//1
f 5//1 1//1 13//1
f 13//1 15//1 5//1
f 13//8 32//8 36//8
f 8//4 4//4 9//4
f 4//4 44//4 43//4
f 5//3 6//3 2//3
f 33//9 34//9 14//9
f 34//10 32//10 13//10
f 16//11 18//11 38//11
f 18//12 15//12 36//12
f 43//13 45//13 25//13
f 45//14 42//14 23//14
f 27//15 28//15 48//15
f 28//16 26//16 47//16
f 20//17 21//17 41//17
f 21//18 19//18 40//18
f 10//19 11//19 31//19
f 11//20 9//20 30//20
f 8//4 10//4 46//4
f 71//1 73//1 51//1
f 60//2 79//2 84//2
f 74//3 53//3 87//3
f 76//4 6//4 50//4
f 50//4 81//4 80//4
f 71//5 90//5 54//5
f 67//6 86//6 91//6
f 81//4 50//4 79//4
f 50//4 8//4 84//4
f 68//1 7//1 66//1
f 7//1 51//1 74//1
f 64//7 83//7 77//7
f 88//4 8//4 86//4
f 8//4 50//4 91//4
f 6//4 77//4 83//4
f 64//1 56//1 5//1
f 49//1 7//1 70//1
f 7//1 68//1 67//1
f 7//8 8//8 52//8
f 7//1 49//1 63//1
f 49//1 61//1 60//1
f 49//1 5//1 57//1
f 57//1 59//1 49//1
f 57//8 76//8 80//8
f 52//4 8//4 53//4
f 8//4 88//4 87//4
f 49//3 50//3 6//3
f 77//9 78//9 58//9
f 78//10 76//10 57//10
f 60//11 62//11 82//11
f 62//12 59//12 80//12
f 87//13 89//13 69//13
f 89//14 86//14 67//14
f 71//15 72//15 92//15
f 72//21 70//21 91//21
f 64//17 65//17 85//17
f 65//18 63//18 84//18
f 54//19 55//19 75//19
f 55//20 53//20 74//20
f 52//4 54//4 90//4
f 99//2 117//2 122//2
f 114//4 50//4 94//4
f 94//4 119//4 118//4
f 119//4 94//4 117//4
f 94//4 52//4 122//4
f 103//7 121//7 115//7
f 50//4 115//4 121//4
f 103//1 95//1 49//1
f 51//1 93//1 102//1
f 93//1 100//1 99//1
f 93//1 49//1 96//1
f 96//1 98//1 93//1
f 96//8 114//8 118//8
f 93//3 94//3 50//3
f 115//9 116//9 97//9
f 116//10 114//10 96//10
f 99//11 101//11 120//11
f 101//12 98//12 118//12
f 103//17 104//17 123//17
f 104//18 102//18 122//18
usemtl Grey.020
f 124//1 110//1 126//1
f 127//4 108//4 129//4
f 128//22 107//22 127//22
f 126//22 112//22 125//22
f 125//4 111//4 113//4
f 113//23 109//23 124//23
f 130//1 105//1 128//1
f 129//23 106//23 130//23
f 108//3 105//3 106//3
f 109//3 112//3 110//3
f 125//8 124//8 126//8
f 128//8 129//8 130//8
f 137//8 134//8 133//8
f 133//1 135//1 137//1
f 132//3 135//3 131//3
f 134//4 136//4 132//4
f 134//24 131//24 133//24
f 135//25 138//25 137//25
f 142//8 145//8 141//8
f 141//1 143//1 139//1
f 143//3 140//3 139//3
f 142//4 144//4 146//4
f 139//26 142//26 141//26
f 146//27 143//27 145//27
f 124//1 109//1 110//1
f 127//4 107//4 108//4
f 128//22 105//22 107//22
f 126//22 110//22 112//22
f 125//4 112//4 111//4
f 113//23 111//23 109//23
f 130//1 106//1 105//1
f 129//23 108//23 106//23
f 108//3 107//3 105//3
f 109//3 111//3 112//3
f 125//8 113//8 124//8
f 128//8 127//8 129//8
f 137//8 138//8 134//8
f 133//1 131//1 135//1
f 132//3 136//3 135//3
f 134//4 138//4 136//4
f 134//24 132//24 131//24
f 135//25 136//25 138//25
f 142//8 146//8 145//8
f 141//1 145//1 143//1
f 143//3 144//3 140//3
f 142//4 140//4 144//4
f 139//26 140//26 142//26
f 146//27 144//27 143//27
