# Blender v3.5.0 OBJ File: 'Scene4.blend'
# www.blender.org
mtllib Pipe_2_Cube.mtl
o Pipe_2_Cube.037
v 1.939105 0.000000 0.048487
v 1.962760 0.000000 0.051223
v 1.978089 -0.082165 0.069693
v 1.947348 -0.080847 0.071618
v 1.628205 -0.079166 0.068460
v 1.625856 0.000000 0.042921
v 1.628205 0.079166 0.068460
v 1.947348 0.080848 0.071618
v 1.978089 0.082165 0.069693
v 2.137976 0.000000 0.132123
v 2.166836 0.000000 0.025622
v 2.142026 0.077563 0.021648
v 2.116951 0.077078 0.121182
v 2.070061 0.076918 0.180507
v 2.085389 0.000000 0.198977
v 2.070061 -0.076918 0.180507
v 2.116951 -0.077078 0.121182
v 2.142026 -0.077562 0.021648
v 2.053878 -0.105777 0.088356
v 2.067598 -0.105225 0.009727
v 2.024075 -0.106055 0.125100
v 1.990804 -0.081586 0.055532
v 1.993169 -0.080275 -0.002195
v 2.053878 0.105777 0.088356
v 2.067598 0.105225 0.009726
v 1.993169 0.080275 -0.002195
v 1.990804 0.081587 0.055532
v 2.024075 0.106055 0.125100
v 2.071349 0.105008 -0.131845
v 2.070117 0.104958 -0.304888
v 1.991219 0.078718 -0.304888
v 1.992863 0.079390 -0.134818
v 2.149837 0.078121 -0.128873
v 2.149016 0.078718 -0.304888
v 2.071349 -0.105009 -0.131845
v 2.070117 -0.104959 -0.304888
v 2.149016 -0.078720 -0.304888
v 2.149837 -0.078122 -0.128873
v 1.992863 -0.079391 -0.134818
v 1.991219 -0.078720 -0.304888
v 2.175999 0.000000 -0.127882
v 2.175316 0.000000 -0.304888
v 1.966700 0.000000 -0.135808
v 1.964919 0.000000 -0.304888
v 1.968360 0.000000 -0.006169
v 1.972075 0.105451 0.141012
v 1.635252 0.104737 0.145077
v 1.642298 0.077939 0.221694
v 1.996803 0.077329 0.210405
v 2.005045 0.000000 0.233536
v 1.644647 0.000000 0.247233
v 1.642298 -0.077939 0.221694
v 1.996803 -0.077329 0.210405
v 1.972075 -0.105451 0.141012
v 1.635252 -0.104736 0.145077
v 1.969779 0.000000 0.044590
v -2.269342 0.077329 0.210405
v -2.277585 -0.000001 0.233536
v -2.244615 -0.105451 0.141012
v -2.219888 -0.080848 0.071618
v -2.219888 0.080847 0.071618
v -2.244615 0.105451 0.141012
v -2.211645 0.000000 0.048487
v -2.235300 0.000000 0.051223
v -2.250629 0.082165 0.069693
v -2.250629 -0.082165 0.069692
v -2.410516 0.000000 0.132123
v -2.439375 0.000000 0.025622
v -2.414566 -0.077563 0.021648
v -2.389491 -0.077079 0.121182
v -2.342600 -0.076918 0.180507
v -2.357929 -0.000001 0.198977
v -2.342600 0.076918 0.180507
v -2.389491 0.077078 0.121182
v -2.414566 0.077562 0.021648
v -2.326417 0.105777 0.088357
v -2.340137 0.105225 0.009727
v -2.296615 0.106055 0.125100
v -2.263344 0.081586 0.055532
v -2.265709 0.080275 -0.002195
v -2.326417 -0.105777 0.088356
v -2.340137 -0.105225 0.009726
v -2.265709 -0.080275 -0.002195
v -2.263344 -0.081587 0.055532
v -2.296615 -0.106055 0.125100
v -2.343889 -0.105008 -0.131845
v -2.342657 -0.104958 -0.304888
v -2.263759 -0.078718 -0.304888
v -2.265402 -0.079390 -0.134818
v -2.422377 -0.078121 -0.128873
v -2.421556 -0.078718 -0.304888
v -2.343889 0.105009 -0.131845
v -2.342657 0.104959 -0.304888
v -2.421556 0.078720 -0.304888
v -2.422377 0.078122 -0.128873
v -2.265402 0.079391 -0.134818
v -2.263759 0.078720 -0.304888
v -2.448539 0.000000 -0.127882
v -2.447856 0.000000 -0.304888
v -2.239240 0.000000 -0.135808
v -2.237459 0.000000 -0.304888
v -2.240900 0.000000 -0.006169
v -2.269342 -0.077329 0.210405
v -2.242319 0.000000 0.044590
vt 0.000000 0.000000
vt 0.000000 0.000000
vt 0.000000 0.000000
vt 0.000000 0.000000
vt 0.000000 0.000000
vt 0.000000 0.000000
vt 0.000000 0.000000
vt 0.000000 0.000000
vt 0.000000 0.000000
vt 0.000000 0.000000
vt 0.000000 0.000000
vt 0.000000 0.000000
vt 0.000000 0.000000
vt 0.000000 0.000000
vt 0.000000 0.000000
vt 0.000000 0.000000
vt 0.000000 0.000000
vt 0.000000 0.000000
vt 0.000000 0.000000
vt 0.000000 0.000000
vt 0.000000 0.000000
vt 0.000000 0.000000
vt 0.000000 0.000000
vt 0.000000 0.000000
vt 0.000000 0.000000
vt 0.000000 0.000000
vt 0.000000 0.000000
vt 0.000000 0.000000
vt 0.000000 0.000000
vt 0.000000 0.000000
vt 0.000000 0.000000
vt 0.000000 0.000000
vt 0.000000 0.000000
vt 0.000000 0.000000
vt 0.000000 0.000000
vt 0.000000 0.000000
vt 0.000000 0.000000
vt 0.000000 0.000000
vt 0.000000 0.000000
vt 0.000000 0.000000
vt 0.000000 0.000000
vt 0.000000 0.000000
vt 0.000000 0.000000
vt 0.000000 0.000000
vt 0.000000 0.000000
vt 0.000000 0.000000
vt 0.000000 0.000000
vt 0.000000 0.000000
vt 0.000000 0.000000
vt 0.000000 0.000000
vt 0.000000 0.000000
vt 0.000000 0.000000
vt 0.000000 0.000000
vt 0.000000 0.000000
vt 0.000000 0.000000
vt 0.000000 0.000000
vt 0.000000 0.000000
vt 0.000000 0.000000
vt 0.000000 0.000000
vt 0.000000 0.000000
vt 0.000000 0.000000
vt 0.000000 0.000000
vt 0.000000 0.000000
vt 0.000000 0.000000
vt 0.000000 0.000000
vt 0.000000 0.000000
vt 0.000000 0.000000
vt 0.000000 0.000000
vt 0.000000 0.000000
vt 0.000000 0.000000
vt 0.000000 0.000000
vt 0.000000 0.000000
vt 0.000000 0.000000
vt 0.000000 0.000000
vt 0.000000 0.000000
vt 0.000000 0.000000
vt 0.000000 0.000000
vt 0.000000 0.000000
vt 0.000000 0.000000
vt 0.000000 0.000000
vt 0.000000 0.000000
vt 0.000000 0.000000
vt 0.000000 0.000000
vt 0.000000 0.000000
vt 0.000000 0.000000
vt 0.000000 0.000000
vt 0.000000 0.000000
vt 0.000000 0.000000
vt 0.000000 0.000000
vt 0.000000 0.000000
vt 0.000000 0.000000
vt 0.000000 0.000000
vt 0.000000 0.000000
vt 0.000000 0.000000
vt 0.000000 0.000000
vt 0.000000 0.000000
vt 0.000000 0.000000
vt 0.000000 0.000000
vt 0.000000 0.000000
vt 0.000000 0.000000
vt 0.000000 0.000000
vt 0.000000 0.000000
vt 0.000000 0.000000
vt 0.000000 0.000000
vn -0.3090 -0.0000 -0.9511
vn -0.0259 -0.6832 -0.7298
vn 0.0587 -0.0000 -0.9983
vn 0.0036 -0.7012 -0.7129
vn 0.0080 -0.0000 -1.0000
vn 0.0036 0.7012 -0.7129
vn -0.0259 0.6832 -0.7298
vn 0.9876 -0.0000 0.1569
vn 0.6794 0.6502 0.3401
vn 0.8930 -0.0000 0.4500
vn 0.4622 0.6453 0.6083
vn 0.6107 0.0000 0.7919
vn 0.4622 -0.6453 0.6083
vn 0.6794 -0.6502 0.3401
vn 0.0714 -0.9969 0.0316
vn 0.7274 -0.6776 0.1088
vn 0.0496 -0.9962 0.0714
vn -0.6041 -0.7505 -0.2680
vn 0.0261 -0.9997 0.0031
vn 0.0261 0.9997 0.0031
vn -0.6041 0.7505 -0.2680
vn 0.0714 0.9969 0.0316
vn 0.0496 0.9962 0.0714
vn 0.7274 0.6776 0.1088
vn -0.0006 1.0000 -0.0013
vn -0.7073 0.7069 0.0032
vn 0.0094 1.0000 0.0006
vn -0.7169 0.6969 -0.0175
vn 0.7145 0.6995 0.0168
vn 0.7064 0.7078 -0.0026
vn 0.0094 -1.0000 0.0006
vn 0.7064 -0.7078 -0.0026
vn 0.7145 -0.6995 0.0168
vn -0.7169 -0.6969 -0.0175
vn -0.7073 -0.7069 0.0032
vn -0.0006 -1.0000 -0.0013
vn 1.0000 0.0000 -0.0036
vn 0.9997 0.0000 0.0257
vn -0.9999 0.0000 0.0109
vn -0.7090 -0.7052 0.0049
vn -0.9999 0.0000 0.0159
vn -0.7090 0.7052 0.0049
vn -0.9999 0.0000 0.0105
vn 0.0008 0.9988 0.0486
vn -0.2910 0.7591 -0.5823
vn -0.0002 1.0000 0.0079
vn 0.0087 0.6967 0.7173
vn 0.1556 0.6580 0.7368
vn 0.2202 0.0000 0.9755
vn 0.0154 0.0000 0.9999
vn 0.1556 -0.6580 0.7368
vn 0.0008 -0.9988 0.0486
vn 0.0087 -0.6967 0.7173
vn -0.0002 -1.0000 0.0079
vn -0.2909 -0.7591 -0.5823
vn -0.9224 -0.0000 -0.3862
vn -0.1435 0.6552 0.7417
vn 0.0262 -0.6814 -0.7315
vn 0.0015 -0.9986 0.0522
vn 0.0262 0.6814 -0.7315
vn 0.0015 0.9986 0.0522
vn 0.3090 0.0000 -0.9511
vn -0.0538 0.0000 -0.9986
vn -0.9876 0.0000 0.1569
vn -0.6794 -0.6502 0.3401
vn -0.8930 0.0000 0.4500
vn -0.4622 -0.6453 0.6083
vn -0.6107 -0.0000 0.7919
vn -0.4622 0.6453 0.6083
vn -0.6794 0.6502 0.3401
vn -0.0714 0.9969 0.0316
vn -0.7274 0.6776 0.1088
vn -0.0496 0.9962 0.0714
vn 0.6041 0.7505 -0.2680
vn -0.0261 0.9997 0.0031
vn -0.0261 -0.9997 0.0031
vn 0.6041 -0.7505 -0.2680
vn -0.0714 -0.9969 0.0316
vn -0.0496 -0.9962 0.0714
vn -0.7274 -0.6776 0.1088
vn 0.0006 -1.0000 -0.0013
vn 0.7073 -0.7069 0.0032
vn -0.0094 -1.0000 0.0006
vn 0.7169 -0.6969 -0.0175
vn -0.7145 -0.6995 0.0168
vn -0.7064 -0.7078 -0.0026
vn -0.0094 1.0000 0.0006
vn -0.7064 0.7078 -0.0026
vn -0.7145 0.6995 0.0168
vn 0.7169 0.6969 -0.0175
vn 0.7073 0.7069 0.0032
vn 0.0006 1.0000 -0.0013
vn -1.0000 -0.0000 -0.0036
vn -0.9997 -0.0000 0.0257
vn 0.9999 -0.0000 0.0109
vn 0.7090 0.7052 0.0049
vn 0.9999 0.0000 0.0159
vn 0.7090 -0.7052 0.0049
vn 0.9999 -0.0000 0.0105
vn 0.2910 -0.7591 -0.5823
vn -0.1435 -0.6552 0.7417
vn -0.2043 -0.0000 0.9789
vn 0.2909 0.7591 -0.5823
vn 0.9224 0.0000 -0.3862
usemtl Orange.005
s 1
f 2/1/1 4/2/2 1/3/3
f 1/3/3 5/4/4 6/5/5
f 1/3/3 7/6/6 8/7/7
f 8/7/7 2/1/1 1/3/3
f 11/8/8 13/9/9 10/10/10
f 10/10/10 14/11/11 15/12/12
f 10/10/10 16/13/13 17/14/14
f 17/14/14 11/8/8 10/10/10
f 19/15/15 18/16/16 17/14/14
f 17/14/14 21/17/17 19/15/15
f 21/17/17 22/18/18 19/15/15
f 22/18/18 20/19/19 19/15/15
f 25/20/20 27/21/21 24/22/22
f 27/21/21 28/23/23 24/22/22
f 28/23/23 13/9/9 24/22/22
f 24/22/22 12/24/24 25/20/20
f 30/25/25 32/26/26 29/27/27
f 29/27/27 26/28/28 25/20/20
f 25/20/20 33/29/29 29/27/27
f 29/27/27 34/30/30 30/25/25
f 35/31/31 37/32/32 38/33/33
f 38/33/33 20/19/19 35/31/31
f 35/31/31 23/34/34 39/35/35
f 39/35/35 36/36/36 35/31/31
f 42/37/37 33/29/29 41/38/38
f 41/38/38 12/24/24 11/8/8
f 41/38/38 18/16/16 38/33/33
f 38/33/33 42/37/37 41/38/38
f 43/39/39 40/40/40 39/35/35
f 39/35/35 45/41/41 43/39/39
f 45/41/41 32/26/26 43/39/39
f 43/39/39 31/42/42 44/43/43
f 46/44/44 9/45/45 8/7/7
f 8/7/7 47/46/46 46/44/44
f 46/44/44 48/47/47 49/48/48
f 49/48/48 28/23/23 46/44/44
f 50/49/49 14/11/11 49/48/48
f 49/48/48 51/50/50 50/49/49
f 51/50/50 53/51/51 50/49/49
f 50/49/49 16/13/13 15/12/12
f 21/17/17 53/51/51 54/52/52
f 54/52/52 52/53/53 55/54/54
f 55/54/54 4/2/2 54/52/52
f 54/52/52 3/55/55 21/17/17
f 56/56/56 23/34/34 22/18/18
f 56/56/56 3/55/55 2/1/1
f 56/56/56 9/45/45 27/21/21
f 56/56/56 26/28/28 45/41/41
f 57/57/57 51/50/50 48/47/47
f 60/58/58 55/54/54 59/59/59
f 61/60/60 47/46/46 7/6/6
f 62/61/61 48/47/47 47/46/46
f 64/62/62 61/60/60 63/63/63
f 63/63/63 7/6/6 6/5/5
f 60/58/58 64/62/62 63/63/63
f 68/64/64 70/65/65 67/66/66
f 67/66/66 71/67/67 72/68/68
f 67/66/66 73/69/69 74/70/70
f 74/70/70 68/64/64 67/66/66
f 76/71/71 75/72/72 74/70/70
f 74/70/70 78/73/73 76/71/71
f 78/73/73 79/74/74 76/71/71
f 79/74/74 77/75/75 76/71/71
f 82/76/76 84/77/77 81/78/78
f 84/77/77 85/79/79 81/78/78
f 85/79/79 70/65/65 81/78/78
f 81/78/78 69/80/80 82/76/76
f 87/81/81 89/82/82 86/83/83
f 86/83/83 83/84/84 82/76/76
f 82/76/76 90/85/85 86/83/83
f 86/83/83 91/86/86 87/81/81
f 92/87/87 94/88/88 95/89/89
f 95/89/89 77/75/75 92/87/87
f 92/87/87 80/90/90 96/91/91
f 96/91/91 93/92/92 92/87/87
f 99/93/93 90/85/85 98/94/94
f 98/94/94 69/80/80 68/64/64
f 98/94/94 75/72/72 95/89/89
f 95/89/89 99/93/93 98/94/94
f 100/95/95 97/96/96 96/91/91
f 96/91/91 102/97/97 100/95/95
f 102/97/97 89/82/82 100/95/95
f 100/95/95 88/98/98 101/99/99
f 59/59/59 66/100/100 60/58/58
f 103/101/101 85/79/79 59/59/59
f 58/102/102 71/67/67 103/101/101
f 5/4/4 63/63/63 6/5/5
f 51/50/50 103/101/101 52/53/53
f 58/102/102 73/69/69 72/68/68
f 78/73/73 57/57/57 62/61/61
f 52/53/53 59/59/59 55/54/54
f 62/61/61 65/103/103 78/73/73
f 104/104/104 80/90/90 79/74/74
f 104/104/104 65/103/103 64/62/62
f 104/104/104 66/100/100 84/77/77
f 104/104/104 83/84/84 102/97/97
f 2/1/1 3/55/55 4/2/2
f 1/3/3 4/2/2 5/4/4
f 1/3/3 6/5/5 7/6/6
f 8/7/7 9/45/45 2/1/1
f 11/8/8 12/24/24 13/9/9
f 10/10/10 13/9/9 14/11/11
f 10/10/10 15/12/12 16/13/13
f 17/14/14 18/16/16 11/8/8
f 19/15/15 20/19/19 18/16/16
f 17/14/14 16/13/13 21/17/17
f 21/17/17 3/55/55 22/18/18
f 22/18/18 23/34/34 20/19/19
f 25/20/20 26/28/28 27/21/21
f 27/21/21 9/45/45 28/23/23
f 28/23/23 14/11/11 13/9/9
f 24/22/22 13/9/9 12/24/24
f 30/25/25 31/42/42 32/26/26
f 29/27/27 32/26/26 26/28/28
f 25/20/20 12/24/24 33/29/29
f 29/27/27 33/29/29 34/30/30
f 35/31/31 36/36/36 37/32/32
f 38/33/33 18/16/16 20/19/19
f 35/31/31 20/19/19 23/34/34
f 39/35/35 40/40/40 36/36/36
f 42/37/37 34/30/30 33/29/29
f 41/38/38 33/29/29 12/24/24
f 41/38/38 11/8/8 18/16/16
f 38/33/33 37/32/32 42/37/37
f 43/39/39 44/43/43 40/40/40
f 39/35/35 23/34/34 45/41/41
f 45/41/41 26/28/28 32/26/26
f 43/39/39 32/26/26 31/42/42
f 46/44/44 28/23/23 9/45/45
f 8/7/7 7/6/6 47/46/46
f 46/44/44 47/46/46 48/47/47
f 49/48/48 14/11/11 28/23/23
f 50/49/49 15/12/12 14/11/11
f 49/48/48 48/47/47 51/50/50
f 51/50/50 52/53/53 53/51/51
f 50/49/49 53/51/51 16/13/13
f 21/17/17 16/13/13 53/51/51
f 54/52/52 53/51/51 52/53/53
f 55/54/54 5/4/4 4/2/2
f 54/52/52 4/2/2 3/55/55
f 56/56/56 45/41/41 23/34/34
f 56/56/56 22/18/18 3/55/55
f 56/56/56 2/1/1 9/45/45
f 56/56/56 27/21/21 26/28/28
f 57/57/57 58/102/102 51/50/50
f 60/58/58 5/4/4 55/54/54
f 61/60/60 62/61/61 47/46/46
f 62/61/61 57/57/57 48/47/47
f 64/62/62 65/103/103 61/60/60
f 63/63/63 61/60/60 7/6/6
f 60/58/58 66/100/100 64/62/62
f 68/64/64 69/80/80 70/65/65
f 67/66/66 70/65/65 71/67/67
f 67/66/66 72/68/68 73/69/69
f 74/70/70 75/72/72 68/64/64
f 76/71/71 77/75/75 75/72/72
f 74/70/70 73/69/69 78/73/73
f 78/73/73 65/103/103 79/74/74
f 79/74/74 80/90/90 77/75/75
f 82/76/76 83/84/84 84/77/77
f 84/77/77 66/100/100 85/79/79
f 85/79/79 71/67/67 70/65/65
f 81/78/78 70/65/65 69/80/80
f 87/81/81 88/98/98 89/82/82
f 86/83/83 89/82/82 83/84/84
f 82/76/76 69/80/80 90/85/85
f 86/83/83 90/85/85 91/86/86
f 92/87/87 93/92/92 94/88/88
f 95/89/89 75/72/72 77/75/75
f 92/87/87 77/75/75 80/90/90
f 96/91/91 97/96/96 93/92/92
f 99/93/93 91/86/86 90/85/85
f 98/94/94 90/85/85 69/80/80
f 98/94/94 68/64/64 75/72/72
f 95/89/89 94/88/88 99/93/93
f 100/95/95 101/99/99 97/96/96
f 96/91/91 80/90/90 102/97/97
f 102/97/97 83/84/84 89/82/82
f 100/95/95 89/82/82 88/98/98
f 59/59/59 85/79/79 66/100/100
f 103/101/101 71/67/67 85/79/79
f 58/102/102 72/68/68 71/67/67
f 5/4/4 60/58/58 63/63/63
f 51/50/50 58/102/102 103/101/101
f 58/102/102 57/57/57 73/69/69
f 78/73/73 73/69/69 57/57/57
f 52/53/53 103/101/101 59/59/59
f 62/61/61 61/60/60 65/103/103
f 104/104/104 102/97/97 80/90/90
f 104/104/104 79/74/74 65/103/103
f 104/104/104 64/62/62 66/100/100
f 104/104/104 84/77/77 83/84/84
