# Blender v3.5.0 OBJ File: 'Scene2.blend'
# www.blender.org
mtllib Antenna_2_Cylinder_001.mtl
o Antenna_2_Cylinder.001
v -1.803512 -0.030658 0.986256
v -1.744712 0.338442 1.017801
v -1.739492 0.337843 1.015077
v -1.798291 -0.031257 0.983532
v -1.733721 0.336850 1.015949
v -1.792521 -0.032251 0.984404
v -1.729606 0.335841 1.020083
v -1.788406 -0.033260 0.988538
v -1.728719 0.335202 1.025901
v -1.787519 -0.033898 0.994355
v -1.731397 0.335178 1.031179
v -1.790197 -0.033923 0.999634
v -1.736619 0.335777 1.033903
v -1.795418 -0.033324 1.002359
v -1.742389 0.336770 1.033031
v -1.801188 -0.032330 1.001486
v -1.746503 0.337779 1.028897
v -1.805303 -0.031321 0.997352
v -1.747391 0.338418 1.023080
v -1.806190 -0.030683 0.991535
v -1.744772 0.269790 0.968469
v -1.703881 0.259764 1.009556
v -1.730017 0.095701 0.995534
v -1.770908 0.105727 0.954447
v -1.727456 0.261479 1.033437
v -1.753592 0.097416 1.019416
v -1.768348 0.271505 0.992352
v -1.794484 0.107441 0.978329
v -1.783145 0.142269 0.975878
v -1.743053 0.393937 0.997387
v -1.739459 0.393525 0.995513
v -1.779550 0.141857 0.974004
v -1.735488 0.392841 0.996112
v -1.775580 0.141173 0.974603
v -1.732656 0.392147 0.998959
v -1.772747 0.140479 0.977449
v -1.732045 0.391707 1.002962
v -1.772137 0.140039 0.981454
v -1.733888 0.391690 1.006596
v -1.773980 0.140022 0.985087
v -1.737482 0.392103 1.008470
v -1.777574 0.140435 0.986962
v -1.741454 0.392787 1.007870
v -1.781546 0.141119 0.986362
v -1.744286 0.393481 1.005025
v -1.784378 0.141813 0.983516
v -1.744897 0.393921 1.001021
v -1.784989 0.142253 0.979512
v -1.738899 0.361410 1.021891
v -1.383722 0.680802 1.349577
v -1.380929 0.679706 1.347618
v -1.736106 0.360314 1.019932
v -1.378399 0.677184 1.347333
v -1.733576 0.357792 1.019646
v -1.377099 0.674201 1.348831
v -1.732276 0.354809 1.021145
v -1.377524 0.671894 1.351541
v -1.732700 0.352502 1.023854
v -1.379513 0.671146 1.354425
v -1.734689 0.351754 1.026739
v -1.382306 0.672242 1.356384
v -1.737483 0.352850 1.028698
v -1.384836 0.674763 1.356670
v -1.740013 0.355371 1.028983
v -1.386136 0.677747 1.355171
v -1.741313 0.358355 1.027485
v -1.385712 0.680053 1.352462
v -1.740888 0.360662 1.024776
v -1.801892 0.695315 0.935734
v -1.808666 0.656854 0.931808
v -1.871325 0.648988 1.007391
v -1.870110 0.686751 1.018021
v -1.917938 0.427414 1.322635
v -1.915256 0.410782 1.287185
v -1.869132 0.328991 1.316911
v -1.867721 0.338368 1.354998
v -1.553056 0.124536 1.222354
v -1.580105 0.132582 1.195075
v -1.517446 0.140448 1.119492
v -1.484838 0.133099 1.140066
v -1.437011 0.392437 0.835453
v -1.473515 0.378654 0.839698
v -1.519640 0.460445 0.809972
v -1.487227 0.481483 0.803090
v -1.945144 0.591822 1.191877
v -1.940245 0.561794 1.167081
v -1.939760 0.491000 1.235557
v -1.944616 0.514748 1.266427
v -1.718158 0.189320 1.338163
v -1.731755 0.192087 1.301448
v -1.653951 0.150376 1.257773
v -1.633453 0.143908 1.290613
v -1.409804 0.228029 0.966210
v -1.448525 0.227642 0.959802
v -1.449010 0.298436 0.891326
v -1.410333 0.305102 0.891661
v -1.636790 0.630531 0.819925
v -1.657016 0.597349 0.825435
v -1.734820 0.639060 0.869110
v -1.721495 0.675943 0.867474
v -1.916665 0.616233 1.088461
v -1.919471 0.651090 1.106282
v -1.805901 0.253634 1.321826
v -1.798882 0.256326 1.360348
v -1.472106 0.173203 1.038422
v -1.435477 0.168761 1.051805
v -1.582870 0.535802 0.805058
v -1.556067 0.563525 0.797739
v -1.437009 0.185112 1.060072
v -1.412329 0.242090 0.977786
v -1.430962 0.243436 0.976005
v -1.454543 0.188997 1.054626
v -1.748528 0.561035 0.893216
v -1.805090 0.574665 0.941239
v -1.717257 0.654854 0.885314
v -1.791103 0.672648 0.948013
v -1.787526 0.590458 0.957443
v -1.730964 0.576829 0.909420
v -1.711975 0.672694 0.882865
v -1.789265 0.691318 0.948486
v -1.786371 0.269294 1.356692
v -1.708767 0.204877 1.335364
v -1.714192 0.207881 1.317652
v -1.788338 0.269428 1.338029
v -1.902300 0.648802 1.112444
v -1.926981 0.591824 1.194731
v -1.922682 0.577587 1.183285
v -1.899101 0.632026 1.104665
v -1.412837 0.316185 0.906116
v -1.438484 0.400144 0.852081
v -1.455952 0.394448 0.855902
v -1.431447 0.314230 0.907530
v -1.627335 0.161220 1.289652
v -1.550045 0.142596 1.224031
v -1.562542 0.148375 1.211279
v -1.636388 0.166169 1.273976
v -1.926473 0.517729 1.266400
v -1.900825 0.433770 1.320435
v -1.897693 0.426575 1.303388
v -1.922197 0.506794 1.251760
v -1.486760 0.485749 0.820968
v -1.552939 0.564621 0.815825
v -1.565307 0.551596 0.821261
v -1.502077 0.476239 0.826176
v -1.484463 0.150829 1.144922
v -1.499882 0.156241 1.135696
v -1.852550 0.348165 1.351547
v -1.851568 0.344785 1.333115
v -1.854846 0.683085 1.027593
v -1.853762 0.664782 1.023594
v -1.630543 0.629037 0.837152
v -1.639453 0.613142 0.841639
v -1.785409 0.281612 1.256177
v -1.728617 0.234470 1.240569
v -1.737583 0.270279 1.161572
v -1.775130 0.301446 1.171891
v -1.869170 0.401979 1.229644
v -1.887939 0.463422 1.190099
v -1.529739 0.220006 1.039103
v -1.564466 0.194917 1.101199
v -1.671371 0.544880 0.875966
v -1.888310 0.517647 1.137650
v -1.612461 0.188892 1.159092
v -1.614579 0.497738 0.860358
v -1.870248 0.559344 1.077431
v -1.669022 0.202521 1.207116
v -1.566147 0.440019 0.864123
v -1.835521 0.584433 1.015336
v -1.530818 0.377371 0.886891
v -1.512049 0.315928 0.926436
v -1.833840 0.339331 1.252413
v -1.511677 0.261703 0.978884
v -1.660788 0.240145 1.107705
v -1.629058 0.244129 1.069431
v -1.722521 0.369417 1.037484
v -1.606812 0.364755 0.927744
v -1.594402 0.324133 0.953888
v -1.807150 0.339606 1.169402
v -1.594157 0.288284 0.988564
v -1.830506 0.381025 1.154349
v -1.606098 0.260716 1.028377
v -1.776530 0.505634 0.974388
v -1.739136 0.496624 0.942638
v -1.842916 0.421647 1.128205
v -1.699736 0.475501 0.920522
v -1.843162 0.457496 1.093529
v -1.662188 0.444334 0.910202
v -1.831220 0.485064 1.053715
v -1.698184 0.249156 1.139455
v -1.630169 0.406174 0.912691
v -1.808260 0.501651 1.012663
v -1.529240 0.245910 0.962680
v -1.529611 0.300134 0.910232
v -1.851403 0.323538 1.236209
v -1.802972 0.265818 1.239974
v -1.548381 0.361577 0.870687
v -1.746180 0.218676 1.224365
v -1.853083 0.568640 0.999132
v -1.583710 0.424225 0.847919
v -1.686586 0.186727 1.190911
v -1.887812 0.543551 1.061228
v -1.632141 0.481945 0.844154
v -1.630024 0.173098 1.142888
v -1.905873 0.501853 1.121447
v -1.688934 0.529086 0.859763
v -1.582030 0.179123 1.084995
v -1.905501 0.447629 1.173895
v -1.547302 0.204212 1.022900
v -1.886732 0.386185 1.213440
v -1.792693 0.285652 1.155688
v -1.755146 0.254485 1.145368
v -1.678351 0.224352 1.091501
v -1.751061 0.343753 1.011153
v -1.646620 0.228335 1.053227
v -1.611966 0.308340 0.937684
v -1.624374 0.348962 0.911540
v -1.824713 0.323812 1.153198
v -1.611720 0.272490 0.972360
v -1.848070 0.365231 1.138145
v -1.623661 0.244922 1.012173
v -1.756698 0.480830 0.926434
v -1.794093 0.489841 0.958184
v -1.860479 0.405853 1.112001
v -1.717298 0.459708 0.904318
v -1.860725 0.441703 1.077325
v -1.679751 0.428541 0.893999
v -1.848783 0.469270 1.037512
v -1.715746 0.233363 1.123251
v -1.647732 0.390380 0.896487
v -1.825823 0.485858 0.996459
v -1.395356 0.656730 1.360131
v -1.377654 0.672649 1.376464
v -1.388135 0.696691 1.364391
v -1.405837 0.680771 1.348059
v -1.367878 0.695217 1.343871
v -1.385580 0.679298 1.327539
v -1.357397 0.671176 1.355944
v -1.375100 0.655257 1.339611
vn -0.4444 0.1463 -0.8838
vn 0.1590 0.0589 -0.9855
vn 0.7016 -0.0510 -0.7108
vn 0.9762 -0.1415 -0.1644
vn 0.8779 -0.1779 0.4446
vn 0.4443 -0.1463 0.8838
vn -0.1591 -0.0589 0.9855
vn -0.7016 0.0510 0.7108
vn -0.9762 0.1415 0.1644
vn -0.8779 0.1779 -0.4446
vn 0.7016 -0.0510 -0.7107
vn 0.6951 -0.1704 0.6984
vn -0.7016 0.0510 0.7107
vn -0.6951 0.1704 -0.6984
vn 0.1568 0.9840 0.0841
vn -0.1568 -0.9840 -0.0841
vn -0.4442 0.1463 -0.8839
vn 0.1589 0.0589 -0.9855
vn 0.8779 -0.1779 0.4445
vn 0.4442 -0.1463 0.8839
vn -0.1590 -0.0589 0.9855
vn -0.7017 0.0510 0.7106
vn -0.9762 0.1414 0.1645
vn -0.1284 0.7761 -0.6173
vn 0.3543 0.4481 -0.8208
vn 0.7016 -0.0511 -0.7107
vn 0.7810 -0.5306 -0.3293
vn 0.5620 -0.8077 0.1781
vn 0.1285 -0.7762 0.6173
vn -0.3542 -0.4482 0.8208
vn -0.7016 0.0511 0.7107
vn -0.7810 0.5306 0.3293
vn -0.5620 0.8077 -0.1781
vn -0.6913 0.1928 -0.6963
vn -0.7087 0.0537 -0.7035
vn -0.8274 0.0388 -0.5603
vn -0.8312 0.1753 -0.5276
vn -0.9293 -0.3564 0.0969
vn -0.9105 -0.4123 -0.0305
vn -0.8232 -0.5672 0.0258
vn -0.8263 -0.5390 0.1633
vn -0.1812 -0.9774 -0.1087
vn -0.2759 -0.9391 -0.2049
vn -0.1572 -0.9242 -0.3480
vn -0.0413 -0.9599 -0.2774
vn 0.0568 -0.4282 -0.9019
vn -0.0740 -0.4731 -0.8779
vn -0.1614 -0.3182 -0.9342
vn -0.0462 -0.2456 -0.9683
vn -0.9851 -0.0194 -0.1712
vn -0.9579 -0.1263 -0.2579
vn -0.9570 -0.2604 -0.1283
vn -0.9840 -0.1774 -0.0183
vn -0.5197 -0.8446 0.1288
vn -0.5631 -0.8264 -0.0035
vn -0.4157 -0.9054 -0.0862
vn -0.3460 -0.9377 0.0313
vn 0.1125 -0.7652 -0.6338
vn -0.0267 -0.7591 -0.6505
vn -0.0276 -0.6250 -0.7801
vn 0.1115 -0.6072 -0.7867
vn -0.3528 0.0600 -0.9338
vn -0.4215 -0.0590 -0.9049
vn -0.5689 0.0200 -0.8222
vn -0.5265 0.1531 -0.8363
vn -0.9132 -0.0232 -0.4068
vn -0.9324 0.1022 -0.3466
vn -0.7035 -0.7099 0.0351
vn -0.6852 -0.7072 0.1743
vn -0.0714 -0.8622 -0.5016
vn 0.0599 -0.8868 -0.4583
vn -0.2811 -0.1755 -0.9435
vn -0.1873 -0.0774 -0.9792
vn 0.0398 0.8697 0.4921
vn -0.0068 0.7619 0.6476
vn 0.0835 0.7523 0.6536
vn 0.1246 0.8472 0.5164
vn -0.6122 -0.1864 -0.7684
vn -0.7079 -0.1633 -0.6871
vn 0.5829 0.0345 0.8118
vn 0.7118 0.0035 0.7024
vn 0.7079 0.1633 0.6871
vn 0.6122 0.1864 0.7684
vn 0.5597 -0.0521 0.8271
vn 0.7058 -0.0873 0.7030
vn 0.7003 0.7105 -0.0687
vn 0.5536 0.8323 -0.0284
vn 0.5776 0.8143 0.0575
vn 0.7070 0.7069 0.0220
vn 0.9195 -0.0070 0.3930
vn 0.9661 0.1008 0.2375
vn 0.9413 0.1693 0.2919
vn 0.9002 0.0743 0.4291
vn -0.0059 0.6219 0.7831
vn 0.0426 0.4631 0.8853
vn 0.1271 0.4888 0.8631
vn 0.0843 0.6288 0.7730
vn 0.3997 0.9148 0.0580
vn 0.2535 0.9500 0.1821
vn 0.3130 0.9181 0.2431
vn 0.4419 0.8871 0.1337
vn 0.9652 0.2408 0.1020
vn 0.9167 0.3996 -0.0002
vn 0.8977 0.4328 0.0824
vn 0.9405 0.2928 0.1725
vn 0.1339 0.3013 0.9441
vn 0.2590 0.1522 0.9538
vn 0.3178 0.2146 0.9235
vn 0.2075 0.3461 0.9150
vn 0.1296 0.9345 0.3316
vn 0.2037 0.9044 0.3750
vn 0.8254 0.5614 -0.0590
vn 0.8173 0.5754 0.0305
vn 0.8298 -0.0718 0.5535
vn 0.8211 0.0172 0.5705
vn 0.4057 0.0304 0.9135
vn 0.4472 0.1073 0.8880
vn 0.7044 0.6863 0.1813
vn 0.6082 0.7661 0.2077
vn 0.6244 0.6752 0.3927
vn 0.6743 0.6338 0.3790
vn 0.8462 0.4825 0.2262
vn 0.8780 0.3784 0.2932
vn 0.2714 0.7906 0.5488
vn 0.3302 0.8331 0.4437
vn 0.5112 0.2405 0.8251
vn 0.8786 0.2866 0.3820
vn 0.4115 0.8433 0.3457
vn 0.4151 0.3203 0.8515
vn 0.8480 0.2160 0.4839
vn 0.5073 0.8202 0.2643
vn 0.3331 0.4181 0.8452
vn 0.7892 0.1735 0.5891
vn 0.2732 0.5242 0.8066
vn 0.2415 0.6282 0.7396
vn 0.7864 0.5886 0.1876
vn 0.2408 0.7200 0.6508
vn 0.5223 0.7153 0.4643
vn 0.4802 0.7100 0.5151
vn 0.6132 0.5514 0.5657
vn 0.4506 0.5497 0.7034
vn 0.4341 0.6037 0.6687
vn 0.7168 0.5831 0.3823
vn 0.4338 0.6513 0.6226
vn 0.7479 0.5281 0.4023
vn 0.4497 0.6879 0.5697
vn 0.6761 0.3625 0.6414
vn 0.6265 0.3744 0.6836
vn 0.7644 0.4741 0.4370
vn 0.5741 0.4025 0.7130
vn 0.7647 0.4264 0.4831
vn 0.5242 0.4439 0.7267
vn 0.7488 0.3898 0.5360
vn 0.5720 0.7033 0.4221
vn 0.4816 0.4946 0.7234
vn 0.7183 0.3678 0.5906
vn -0.2408 -0.7200 -0.6508
vn -0.2415 -0.6282 -0.7396
vn -0.7864 -0.5886 -0.1876
vn -0.7044 -0.6863 -0.1813
vn -0.2732 -0.5242 -0.8066
vn -0.6082 -0.7661 -0.2077
vn -0.7892 -0.1735 -0.5891
vn -0.3331 -0.4181 -0.8452
vn -0.5073 -0.8202 -0.2643
vn -0.8480 -0.2160 -0.4839
vn -0.4151 -0.3203 -0.8515
vn -0.4115 -0.8433 -0.3457
vn -0.8786 -0.2866 -0.3820
vn -0.5112 -0.2405 -0.8251
vn -0.3302 -0.8331 -0.4437
vn -0.8780 -0.3784 -0.2932
vn -0.2714 -0.7906 -0.5488
vn -0.8462 -0.4825 -0.2262
vn -0.6843 -0.6491 -0.3323
vn -0.6229 -0.7000 -0.3492
vn -0.4974 -0.7493 -0.4372
vn -0.6132 -0.5514 -0.5657
vn -0.4456 -0.7428 -0.4998
vn -0.3889 -0.6120 -0.6886
vn -0.4092 -0.5456 -0.7313
vn -0.7366 -0.5867 -0.3364
vn -0.3885 -0.6706 -0.6319
vn -0.7748 -0.5190 -0.3610
vn -0.4080 -0.7157 -0.5669
vn -0.6254 -0.3301 -0.7070
vn -0.6866 -0.3154 -0.6551
vn -0.7950 -0.4527 -0.4037
vn -0.5611 -0.3647 -0.7431
vn -0.7954 -0.3941 -0.4604
vn -0.4997 -0.4156 -0.7600
vn -0.7759 -0.3490 -0.5255
vn -0.5585 -0.7345 -0.3854
vn -0.4474 -0.4779 -0.7559
vn -0.7384 -0.3219 -0.5926
vn 0.9314 -0.0909 0.3524
vn 0.9834 0.0291 0.1792
vn 0.3526 0.9355 -0.0206
vn 0.1899 0.9747 0.1175
vn 0.1960 0.0863 0.9768
vn 0.3594 -0.0493 0.9319
vn -0.0481 0.8852 0.4626
vn -0.0481 0.8853 0.4626
vn -0.1000 0.7653 0.6359
vn 0.9823 0.1851 0.0283
vn 0.9283 0.3618 -0.0855
vn 0.5308 -0.1412 0.8357
vn 0.6935 -0.1804 0.6975
vn -0.0989 0.6093 0.7867
vn -0.0449 0.4326 0.9005
vn 0.8267 0.5420 -0.1510
vn 0.6874 0.7080 -0.1618
vn 0.8315 -0.1630 0.5310
vn 0.0567 0.2524 0.9660
vn 0.0518 0.9574 0.2840
vn 0.5240 0.8436 -0.1169
vn -0.3630 0.8327 -0.4182
vn 0.3630 -0.8327 0.4181
usemtl Grey.006
s 1
f 1//1 2//1 3//1 4//1
f 4//2 3//2 5//2 6//2
f 6//3 5//3 7//3 8//3
f 8//4 7//4 9//4 10//4
f 10//5 9//5 11//5 12//5
f 12//6 11//6 13//6 14//6
f 14//7 13//7 15//7 16//7
f 16//8 15//8 17//8 18//8
f 18//9 17//9 19//9 20//9
f 20//10 19//10 2//10 1//10
f 21//11 22//11 23//11 24//11
f 22//12 25//12 26//12 23//12
f 25//13 27//13 28//13 26//13
f 27//14 21//14 24//14 28//14
f 22//15 21//15 27//15 25//15
f 26//16 28//16 24//16 23//16
f 29//17 30//17 31//17 32//17
f 32//18 31//18 33//18 34//18
f 34//11 33//11 35//11 36//11
f 36//4 35//4 37//4 38//4
f 38//19 37//19 39//19 40//19
f 40//20 39//20 41//20 42//20
f 42//21 41//21 43//21 44//21
f 44//22 43//22 45//22 46//22
f 46//23 45//23 47//23 48//23
f 48//10 47//10 30//10 29//10
f 29//16 32//16 34//16 36//16 38//16 40//16 42//16 44//16 46//16 48//16
f 49//24 50//24 51//24 52//24
f 52//25 51//25 53//25 54//25
f 54//26 53//26 55//26 56//26
f 56//27 55//27 57//27 58//27
f 58//28 57//28 59//28 60//28
f 60//29 59//29 61//29 62//29
f 62//30 61//30 63//30 64//30
f 64//31 63//31 65//31 66//31
f 66//32 65//32 67//32 68//32
f 68//33 67//33 50//33 49//33
usemtl LightGrey.006
f 69//34 70//35 71//36 72//37
f 73//38 74//39 75//40 76//41
f 77//42 78//43 79//44 80//45
f 81//46 82//47 83//48 84//49
f 85//50 86//51 87//52 88//53
f 89//54 90//55 91//56 92//57
f 93//58 94//59 95//60 96//61
f 97//62 98//63 99//64 100//65
f 72//37 71//36 101//66 102//67
f 76//41 75//40 103//68 104//69
f 80//45 79//44 105//70 106//71
f 84//49 83//48 107//72 108//73
f 88//53 87//52 74//39 73//38
f 92//57 91//56 78//43 77//42
f 96//61 95//60 82//47 81//46
f 102//67 101//66 86//51 85//50
f 104//69 103//68 90//55 89//54
f 100//65 99//64 70//35 69//34
f 109//74 110//75 111//76 112//77
f 99//64 113//78 114//79 70//35
f 106//71 105//70 94//59 93//58
f 108//73 107//72 98//63 97//62
f 115//80 116//81 117//82 118//83
f 119//84 120//85 116//81 115//80
f 121//86 122//87 123//88 124//89
f 125//90 126//91 127//92 128//93
f 129//94 130//95 131//96 132//97
f 133//98 134//99 135//100 136//101
f 137//102 138//103 139//104 140//105
f 141//106 142//107 143//108 144//109
f 145//110 109//74 112//77 146//111
f 147//112 121//86 124//89 148//113
f 149//114 125//90 128//93 150//115
f 151//116 119//84 115//80 152//117
f 110//75 129//94 132//97 111//76
f 122//87 133//98 136//101 123//88
f 126//91 137//102 140//105 127//92
f 130//95 141//106 144//109 131//96
f 134//99 145//110 146//111 135//100
f 138//103 147//112 148//113 139//104
f 120//85 149//114 150//115 116//81
f 142//107 151//116 152//117 143//108
f 153//118 154//119 155//120 156//121
f 140//105 139//104 157//122 158//123
f 146//111 112//77 159//124 160//125
f 152//117 115//80 118//83 161//126
f 127//92 140//105 158//123 162//127
f 135//100 146//111 160//125 163//128
f 143//108 152//117 161//126 164//129
f 128//93 127//92 162//127 165//130
f 136//101 135//100 163//128 166//131
f 144//109 143//108 164//129 167//132
f 150//115 128//93 165//130 168//133
f 123//88 136//101 166//131 154//119
f 131//96 144//109 167//132 169//134
f 116//81 150//115 168//133 117//82
f 124//89 123//88 154//119 153//118
f 132//97 131//96 169//134 170//135
f 148//113 124//89 153//118 171//136
f 111//76 132//97 170//135 172//137
f 139//104 148//113 171//136 157//122
f 112//77 111//76 172//137 159//124
f 173//138 174//139 175//140
f 170//135 169//134 176//141 177//142
f 171//136 153//118 156//121 178//143
f 172//137 170//135 177//142 179//144
f 157//122 171//136 178//143 180//145
f 159//124 172//137 179//144 181//146
f 118//83 117//82 182//147 183//148
f 158//123 157//122 180//145 184//149
f 160//125 159//124 181//146 174//139
f 161//126 118//83 183//148 185//150
f 162//127 158//123 184//149 186//151
f 163//128 160//125 174//139 173//138
f 164//129 161//126 185//150 187//152
f 165//130 162//127 186//151 188//153
f 166//131 163//128 173//138 189//154
f 167//132 164//129 187//152 190//155
f 168//133 165//130 188//153 191//156
f 154//119 166//131 189//154 155//120
f 169//134 167//132 190//155 176//141
f 117//82 168//133 191//156 182//147
f 94//59 192//157 193//158 95//60
f 187//152 185//150 175//140
f 188//153 186//151 175//140
f 189//154 173//138 175//140
f 190//155 187//152 175//140
f 191//156 188//153 175//140
f 155//120 189//154 175//140
f 176//141 190//155 175//140
f 182//147 191//156 175//140
f 156//121 155//120 175//140
f 177//142 176//141 175//140
f 178//143 156//121 175//140
f 179//144 177//142 175//140
f 180//145 178//143 175//140
f 181//146 179//144 175//140
f 183//148 182//147 175//140
f 184//149 180//145 175//140
f 174//139 181//146 175//140
f 185//150 183//148 175//140
f 186//151 184//149 175//140
f 75//40 194//159 195//160 103//68
f 95//60 193//158 196//161 82//47
f 103//68 195//160 197//162 90//55
f 70//35 114//79 198//163 71//36
f 82//47 196//161 199//164 83//48
f 90//55 197//162 200//165 91//56
f 71//36 198//163 201//166 101//66
f 83//48 199//164 202//167 107//72
f 91//56 200//165 203//168 78//43
f 101//66 201//166 204//169 86//51
f 107//72 202//167 205//170 98//63
f 78//43 203//168 206//171 79//44
f 86//51 204//169 207//172 87//52
f 98//63 205//170 113//78 99//64
f 79//44 206//171 208//173 105//70
f 87//52 207//172 209//174 74//39
f 195//160 210//175 211//176 197//162
f 74//39 209//174 194//159 75//40
f 105//70 208//173 192//157 94//59
f 212//177 213//178 214//179
f 193//158 215//180 216//181 196//161
f 194//159 217//182 210//175 195//160
f 192//157 218//183 215//180 193//158
f 209//174 219//184 217//182 194//159
f 208//173 220//185 218//183 192//157
f 113//78 221//186 222//187 114//79
f 207//172 223//188 219//184 209//174
f 206//171 214//179 220//185 208//173
f 205//170 224//189 221//186 113//78
f 204//169 225//190 223//188 207//172
f 203//168 212//177 214//179 206//171
f 202//167 226//191 224//189 205//170
f 201//166 227//192 225//190 204//169
f 200//165 228//193 212//177 203//168
f 199//164 229//194 226//191 202//167
f 198//163 230//195 227//192 201//166
f 197//162 211//176 228//193 200//165
f 196//161 216//181 229//194 199//164
f 114//79 222//187 230//195 198//163
f 226//191 213//178 224//189
f 227//192 213//178 225//190
f 228//193 213//178 212//177
f 229//194 213//178 226//191
f 230//195 213//178 227//192
f 211//176 213//178 228//193
f 216//181 213//178 229//194
f 222//187 213//178 230//195
f 210//175 213//178 211//176
f 215//180 213//178 216//181
f 217//182 213//178 210//175
f 218//183 213//178 215//180
f 219//184 213//178 217//182
f 220//185 213//178 218//183
f 221//186 213//178 222//187
f 223//188 213//178 219//184
f 214//179 213//178 220//185
f 224//189 213//178 221//186
f 225//190 213//178 223//188
f 109//196 106//196 93//197 110//197
f 119//198 100//198 69//199 120//199
f 121//200 104//200 89//201 122//201
f 125//202 102//203 85//204 126//204
f 129//205 96//205 81//206 130//206
f 133//207 92//207 77//208 134//208
f 137//209 88//209 73//210 138//210
f 141//211 84//211 108//212 142//212
f 145//213 80//213 106//196 109//196
f 147//214 76//214 104//200 121//200
f 149//215 72//215 102//203 125//202
f 151//216 97//216 100//198 119//198
f 110//197 93//197 96//205 129//205
f 122//201 89//201 92//207 133//207
f 126//204 85//204 88//209 137//209
f 130//206 81//206 84//211 141//211
f 134//208 77//208 80//213 145//213
f 138//210 73//210 76//214 147//214
f 120//199 69//199 72//215 149//215
f 142//212 108//212 97//216 151//216
usemtl DarkGrey.006
f 231//13 232//13 233//13 234//13
f 234//217 233//217 235//217 236//217
f 236//11 235//11 237//11 238//11
f 238//218 237//218 232//218 231//218
f 234//178 236//178 238//178 231//178
f 235//140 233//140 232//140 237//140
