# Blender v3.5.0 OBJ File: 'Scene2.blend'
# www.blender.org
mtllib Turret_Cannon_Top_Cylinder_001.mtl
o Turret_Cannon_Top_Cylinder.001
v -5.052779 2.365962 -6.219502
v -5.052779 2.365962 -6.057474
v -4.887161 2.365962 -6.057474
v -4.887161 2.365962 -6.219502
v -5.110859 2.215591 -6.219502
v -4.829081 2.215591 -6.219502
v -4.829081 2.215591 -6.057474
v -5.110859 2.215591 -6.057474
v -5.120633 2.185265 -6.324582
v -5.120633 2.185265 -5.952394
v -4.819307 2.185265 -5.952394
v -4.819307 2.185265 -6.324582
v -4.819307 2.039762 -6.324582
v -5.120633 2.039762 -6.324582
v -5.120633 1.975694 -6.260515
v -4.819307 1.975694 -6.260515
v -4.819307 1.975694 -6.016461
v -5.120633 1.975694 -6.016461
v -4.819307 2.039762 -5.952394
v -4.819307 2.007728 -5.960977
v -4.819307 1.984278 -5.984427
v -4.819307 1.984278 -6.292549
v -4.819307 2.007728 -6.315999
v -5.120633 2.039762 -5.952394
v -5.120633 1.984278 -6.292549
v -5.120633 2.007728 -6.315999
v -5.120633 1.984278 -5.984427
v -5.120633 2.007728 -5.960977
v -5.131490 2.222705 -6.231366
v -5.131490 2.222705 -6.045610
v -4.808450 2.222705 -6.045610
v -4.808450 2.222705 -6.231366
v -5.131490 2.038799 -6.231366
v -4.808450 2.038799 -6.231366
v -4.808450 2.038799 -6.045610
v -5.131490 2.038799 -6.045610
v -5.075591 2.050595 -5.644657
v -5.075591 2.212100 -5.644657
v -5.075591 2.212100 -6.013554
v -5.075591 2.050595 -6.013554
v -5.066992 2.054061 -5.644657
v -5.066992 2.208635 -5.644657
v -5.068505 2.033490 -6.013554
v -5.068505 2.033490 -5.644657
v -5.051400 2.026404 -6.013554
v -5.051400 2.026404 -5.644657
v -5.051400 2.236291 -5.644657
v -5.051400 2.236291 -6.013554
v -5.068506 2.229206 -6.013554
v -5.068505 2.229206 -5.644657
v -4.969970 2.236291 -5.644657
v -4.969970 2.236291 -6.013554
v -4.969970 2.026404 -6.013554
v -4.969970 2.026404 -5.644657
v -4.969970 2.231787 -5.644657
v -5.043839 2.231787 -5.644657
v -5.043839 2.231787 -5.876221
v -4.969970 2.231787 -5.876221
v -5.043839 2.030908 -5.644657
v -5.060210 2.037689 -5.644657
v -4.969970 2.030908 -5.644657
v -5.060210 2.225006 -5.644657
v -5.060211 2.225006 -5.876221
v -5.066992 2.208635 -5.876221
v -5.066992 2.054061 -5.876221
v -5.060211 2.037689 -5.876221
v -5.043839 2.030908 -5.876221
v -4.969970 2.030908 -5.876221
v -5.004002 2.218226 -5.666006
v -5.004002 2.218226 -6.013554
v -4.969970 2.218226 -6.013554
v -4.969970 2.218226 -5.666006
v -5.004002 2.258672 -5.666006
v -4.969970 2.258672 -5.666006
v -4.969970 2.258672 -6.013554
v -5.004002 2.258672 -6.013554
v -5.004002 2.218226 -5.608087
v -4.969970 2.218226 -5.608087
v -4.969970 2.258672 -5.608087
v -5.004002 2.258672 -5.608087
v -5.004002 2.218226 -5.656839
v -5.004002 2.258672 -5.656839
v -5.004002 2.281259 -5.608087
v -5.004002 2.292815 -5.656839
v -4.969970 2.218226 -5.656839
v -5.004002 2.281259 -5.666006
v -4.969970 2.292815 -5.656839
v -4.969970 2.281259 -5.666006
v -4.969970 2.281259 -5.608087
v -4.864349 2.050595 -5.644657
v -4.864349 2.050595 -6.013554
v -4.864349 2.212100 -6.013554
v -4.864349 2.212100 -5.644657
v -4.872948 2.208635 -5.644657
v -4.872948 2.054061 -5.644657
v -4.871435 2.033490 -5.644657
v -4.871435 2.033490 -6.013554
v -4.888540 2.026404 -5.644657
v -4.888540 2.026404 -6.013554
v -4.888540 2.236291 -5.644657
v -4.871435 2.229206 -5.644657
v -4.871434 2.229206 -6.013554
v -4.888540 2.236291 -6.013554
v -4.896101 2.231787 -5.876221
v -4.896101 2.231787 -5.644657
v -4.879730 2.037689 -5.644657
v -4.896101 2.030908 -5.644657
v -4.879730 2.225006 -5.644657
v -4.896101 2.030908 -5.876221
v -4.879729 2.037689 -5.876221
v -4.872948 2.054061 -5.876221
v -4.872948 2.208635 -5.876221
v -4.879729 2.225006 -5.876221
v -4.935938 2.218226 -5.666006
v -4.935938 2.218226 -6.013554
v -4.935938 2.258672 -5.666006
v -4.935938 2.258672 -6.013554
v -4.935938 2.218226 -5.608087
v -4.935938 2.258672 -5.608087
v -4.935938 2.218226 -5.656839
v -4.935938 2.258672 -5.656839
v -4.935938 2.292815 -5.656839
v -4.935938 2.281259 -5.608087
v -4.935938 2.281259 -5.666006
v -4.927751 1.880413 -6.038008
v -4.892130 1.880413 -6.061810
v -4.898649 2.012717 -6.068328
v -4.931279 2.012717 -6.046525
v -5.011787 1.880413 -6.240889
v -5.047409 1.880413 -6.217088
v -5.040890 2.012717 -6.210569
v -5.008259 2.012717 -6.232372
v -4.969769 1.880413 -6.029650
v -4.969769 2.012717 -6.038869
v -4.927751 1.880413 -6.240889
v -4.969769 1.880413 -6.249247
v -4.969769 2.012717 -6.240028
v -4.931279 2.012717 -6.232372
v -5.011787 1.880413 -6.038008
v -5.008259 2.012717 -6.046525
v -4.892130 1.880413 -6.217088
v -4.898649 2.012717 -6.210569
v -5.047409 1.880413 -6.061810
v -5.040890 2.012717 -6.068328
v -4.868329 1.880413 -6.181467
v -4.876846 2.012717 -6.177939
v -5.071210 1.880413 -6.097431
v -5.062693 2.012717 -6.100959
v -4.859971 1.880413 -6.139449
v -4.869190 2.012717 -6.139449
v -5.079568 1.880413 -6.139449
v -5.070349 2.012717 -6.139449
v -4.868329 1.880413 -6.097431
v -4.876846 2.012717 -6.100959
v -5.071210 1.880413 -6.181467
v -5.062693 2.012717 -6.177939
v -5.086942 2.217968 -5.908075
v -5.040792 2.346750 -5.908075
v -5.040792 2.346750 -6.306933
v -5.086942 2.217968 -6.306933
v -4.899148 2.346750 -6.306933
v -4.852998 2.217968 -6.306933
v -4.899148 2.346750 -5.908075
v -4.852998 2.217968 -5.908075
v -4.852998 2.153534 -6.306933
v -5.086942 2.153534 -6.306933
v -4.852998 2.153534 -5.908075
v -5.086942 2.153534 -5.908075
v -5.096839 2.165135 -6.005219
v -5.096839 2.165135 -5.894823
v -4.969970 2.165135 -5.894823
v -4.969970 2.165135 -6.005219
v -5.096839 2.076092 -5.820580
v -5.096839 2.076092 -6.005219
v -5.046710 2.009642 -6.005219
v -4.969970 2.009642 -6.005219
v -4.969970 2.009642 -5.820580
v -5.046710 2.009642 -5.820580
v -5.071775 2.016358 -5.820580
v -5.071775 2.016358 -6.005219
v -5.090123 2.034706 -5.820580
v -5.090123 2.034706 -6.005219
v -5.096839 2.059770 -5.820580
v -5.096839 2.059770 -6.005219
v -4.969970 2.019949 -5.667124
v -5.053951 2.019949 -5.667124
v -5.047222 2.036069 -5.667124
v -4.969970 2.036069 -5.667124
v -4.969970 2.242747 -5.613715
v -5.053951 2.242747 -5.613715
v -5.038976 2.224834 -5.613715
v -4.969970 2.224834 -5.613715
v -4.969970 2.019949 -5.613715
v -5.053951 2.019949 -5.613715
v -5.073038 2.235225 -5.667124
v -5.080944 2.217068 -5.667124
v -5.080944 2.217068 -5.613715
v -5.073038 2.235225 -5.613715
v -5.080944 2.045628 -5.667124
v -5.073038 2.027470 -5.667124
v -5.073038 2.027470 -5.613715
v -5.080944 2.045628 -5.613715
v -5.053951 2.242747 -5.667124
v -4.969970 2.242747 -5.667124
v -4.969970 2.076092 -5.820580
v -5.038976 2.037861 -5.613715
v -4.969970 2.037861 -5.613715
v -4.969970 2.037861 -5.865195
v -5.038976 2.037861 -5.865195
v -5.061628 2.059411 -5.613715
v -5.061628 2.203284 -5.613715
v -5.054993 2.218522 -5.613715
v -5.054993 2.044173 -5.613715
v -5.038976 2.224834 -5.865195
v -5.054993 2.218522 -5.865195
v -5.061628 2.203284 -5.865195
v -5.061628 2.059411 -5.865195
v -5.054993 2.044173 -5.865195
v -4.969970 2.224834 -5.865195
v -5.063546 2.220193 -5.667124
v -5.070308 2.204663 -5.667124
v -5.063546 2.042502 -5.667124
v -5.070308 2.058032 -5.667124
v -5.047222 2.226626 -5.667124
v -4.969970 2.226626 -5.667124
v -4.843101 2.165135 -6.005219
v -4.843101 2.165135 -5.894823
v -4.843101 2.076092 -5.820580
v -4.843101 2.076092 -6.005219
v -4.893230 2.009642 -6.005219
v -4.893230 2.009642 -5.820580
v -4.868165 2.016358 -6.005219
v -4.868165 2.016358 -5.820580
v -4.849817 2.034706 -6.005219
v -4.849817 2.034706 -5.820580
v -4.843101 2.059770 -6.005219
v -4.843101 2.059770 -5.820580
v -4.892718 2.036069 -5.667124
v -4.885989 2.019949 -5.667124
v -4.900964 2.224834 -5.613715
v -4.885989 2.242747 -5.613715
v -4.885989 2.019949 -5.613715
v -4.866902 2.235225 -5.667124
v -4.866902 2.235225 -5.613715
v -4.858996 2.217068 -5.613715
v -4.858996 2.217068 -5.667124
v -4.858996 2.045628 -5.667124
v -4.858996 2.045628 -5.613715
v -4.866902 2.027470 -5.613715
v -4.866902 2.027470 -5.667124
v -4.885989 2.242747 -5.667124
v -4.900964 2.037861 -5.613715
v -4.900964 2.037861 -5.865195
v -4.878312 2.203284 -5.613715
v -4.878312 2.059411 -5.613715
v -4.884947 2.218522 -5.613715
v -4.884947 2.044173 -5.613715
v -4.900964 2.224834 -5.865195
v -4.884947 2.044173 -5.865195
v -4.878312 2.059411 -5.865195
v -4.878312 2.203284 -5.865195
v -4.884947 2.218522 -5.865195
v -4.869632 2.204663 -5.667124
v -4.876394 2.220193 -5.667124
v -4.876394 2.042502 -5.667124
v -4.869632 2.058032 -5.667124
v -4.892718 2.226626 -5.667124
vn 0.0000 1.0000 0.0000
vn 0.0000 -1.0000 0.0000
vn 0.0000 0.0000 -1.0000
vn 0.0000 0.0000 1.0000
vn 0.9328 0.3603 0.0000
vn -0.9328 0.3603 0.0000
vn 1.0000 -0.0000 0.0000
vn 0.0000 -0.9659 -0.2588
vn 0.0000 -0.7071 -0.7071
vn 0.0000 -0.2588 -0.9659
vn 0.0000 -0.9659 0.2588
vn 0.0000 -0.7071 0.7071
vn 0.0000 -0.2588 0.9659
vn -1.0000 -0.0000 0.0000
vn -0.9239 -0.3827 0.0000
vn -0.3827 -0.9239 0.0000
vn -0.3827 0.9239 0.0000
vn -0.9239 0.3827 0.0000
vn 0.9239 -0.3827 -0.0000
vn 0.3827 0.9239 -0.0000
vn 0.3827 -0.9239 -0.0000
vn 0.9239 0.3827 -0.0000
vn 0.0000 0.6215 -0.7834
vn 0.0000 0.9730 0.2307
vn 0.0000 0.9730 0.2306
vn 0.5543 0.0682 0.8295
vn -0.5543 0.0682 -0.8295
vn 0.1946 0.0682 0.9785
vn 0.1946 0.0682 -0.9785
vn -0.1946 0.0682 -0.9785
vn -0.1946 0.0682 0.9785
vn 0.5543 0.0682 -0.8295
vn -0.5543 0.0682 0.8295
vn 0.8295 0.0682 -0.5543
vn -0.8295 0.0682 0.5543
vn 0.9785 0.0682 -0.1946
vn -0.9785 0.0682 0.1946
vn 0.9785 0.0682 0.1946
vn -0.9785 0.0682 -0.1946
vn 0.8295 0.0682 0.5543
vn -0.8295 0.0682 -0.5543
vn -0.9414 0.3374 -0.0000
vn 0.9414 0.3374 -0.0000
vn -0.2588 -0.9659 0.0000
vn -0.7071 -0.7071 0.0000
vn -0.9659 -0.2588 0.0000
vn -0.9169 0.3992 0.0000
vn -0.9169 -0.3992 0.0000
vn -0.3666 -0.9304 0.0000
vn -0.3666 0.9304 0.0000
vn 0.0000 0.6404 0.7680
vn 0.3666 -0.9304 0.0000
vn 0.9169 0.3992 0.0000
vn 0.9169 -0.3992 0.0000
vn 0.3666 0.9304 0.0000
vn 0.2588 -0.9659 0.0000
vn 0.7071 -0.7071 0.0000
vn 0.9659 -0.2588 0.0000
usemtl LightGrey.009
s 1
f 1//1 2//1 3//1 4//1
f 5//2 6//2 7//2 8//2
f 4//3 6//3 5//3 1//3
f 2//4 8//4 7//4 3//4
f 3//5 7//5 6//5 4//5
f 1//6 5//6 8//6 2//6
f 9//1 10//1 11//1 12//1
f 9//3 12//3 13//3 14//3
f 15//2 16//2 17//2 18//2
f 12//7 11//7 19//7 20//7 21//7 17//7 16//7 22//7 23//7 13//7
f 11//4 10//4 24//4 19//4
f 16//8 15//8 25//8 22//8
f 22//9 25//9 26//9 23//9
f 23//10 26//10 14//10 13//10
f 18//11 17//11 21//11 27//11
f 27//12 21//12 20//12 28//12
f 28//13 20//13 19//13 24//13
f 10//14 9//14 14//14 26//14 25//14 15//14 18//14 27//14 28//14 24//14
f 29//1 30//1 31//1 32//1
f 33//2 34//2 35//2 36//2
f 29//3 32//3 34//3 33//3
f 31//4 30//4 36//4 35//4
f 32//7 31//7 35//7 34//7
f 30//14 29//14 33//14 36//14
f 37//14 38//14 39//14 40//14
f 38//4 37//4 41//4 42//4
f 37//15 40//15 43//15 44//15
f 44//16 43//16 45//16 46//16
f 47//17 48//17 49//17 50//17
f 50//18 49//18 39//18 38//18
f 47//1 51//1 52//1 48//1
f 53//2 54//2 46//2 45//2
f 55//2 56//2 57//2 58//2
f 44//4 46//4 59//4 60//4
f 46//4 54//4 61//4 59//4
f 37//4 44//4 60//4 41//4
f 50//4 38//4 42//4 62//4
f 51//4 47//4 56//4 55//4
f 47//4 50//4 62//4 56//4
f 57//4 63//4 64//4 65//4 66//4 67//4 68//4 58//4
f 62//19 42//19 64//19 63//19
f 60//20 59//20 67//20 66//20
f 59//1 61//1 68//1 67//1
f 42//7 41//7 65//7 64//7
f 56//21 62//21 63//21 57//21
f 41//22 60//22 66//22 65//22
f 69//2 70//2 71//2 72//2
f 73//1 74//1 75//1 76//1
f 71//3 70//3 76//3 75//3
f 77//4 78//4 79//4 80//4
f 81//14 77//14 80//14 82//14
f 70//14 69//14 73//14 76//14
f 82//14 80//14 83//14 84//14
f 81//2 69//2 72//2 85//2
f 77//2 81//2 85//2 78//2
f 73//14 82//14 84//14 86//14
f 69//14 81//14 82//14 73//14
f 84//23 87//23 88//23 86//23
f 83//24 89//25 87//25 84//24
f 80//4 79//4 89//4 83//4
f 74//3 73//3 86//3 88//3
f 90//7 91//7 92//7 93//7
f 93//4 94//4 95//4 90//4
f 90//19 96//19 97//19 91//19
f 96//21 98//21 99//21 97//21
f 100//20 101//20 102//20 103//20
f 101//22 93//22 92//22 102//22
f 100//1 103//1 52//1 51//1
f 53//2 99//2 98//2 54//2
f 55//2 58//2 104//2 105//2
f 96//4 106//4 107//4 98//4
f 98//4 107//4 61//4 54//4
f 90//4 95//4 106//4 96//4
f 101//4 108//4 94//4 93//4
f 51//4 55//4 105//4 100//4
f 100//4 105//4 108//4 101//4
f 104//4 58//4 68//4 109//4 110//4 111//4 112//4 113//4
f 108//15 113//15 112//15 94//15
f 106//17 110//17 109//17 107//17
f 107//1 109//1 68//1 61//1
f 94//14 112//14 111//14 95//14
f 105//16 104//16 113//16 108//16
f 95//18 111//18 110//18 106//18
f 114//2 72//2 71//2 115//2
f 116//1 117//1 75//1 74//1
f 71//3 75//3 117//3 115//3
f 118//4 119//4 79//4 78//4
f 120//7 121//7 119//7 118//7
f 115//7 117//7 116//7 114//7
f 121//7 122//7 123//7 119//7
f 120//2 85//2 72//2 114//2
f 118//2 78//2 85//2 120//2
f 116//7 124//7 122//7 121//7
f 114//7 116//7 121//7 120//7
f 122//23 124//23 88//23 87//23
f 123//25 122//25 87//25 89//25
f 119//4 123//4 89//4 79//4
f 74//3 88//3 124//3 116//3
usemtl Black.006
f 125//26 126//26 127//26 128//26
f 129//27 130//27 131//27 132//27
f 133//28 125//28 128//28 134//28
f 135//29 136//29 137//29 138//29
f 136//30 129//30 132//30 137//30
f 139//31 133//31 134//31 140//31
f 141//32 135//32 138//32 142//32
f 143//33 139//33 140//33 144//33
f 145//34 141//34 142//34 146//34
f 147//35 143//35 144//35 148//35
f 149//36 145//36 146//36 150//36
f 151//37 147//37 148//37 152//37
f 153//38 149//38 150//38 154//38
f 155//39 151//39 152//39 156//39
f 126//40 153//40 154//40 127//40
f 130//41 155//41 156//41 131//41
usemtl Grey.009
f 157//42 158//42 159//42 160//42
f 160//3 159//3 161//3 162//3
f 162//43 161//43 163//43 164//43
f 164//4 163//4 158//4 157//4
f 160//3 162//3 165//3 166//3
f 161//1 159//1 158//1 163//1
f 166//2 165//2 167//2 168//2
f 157//14 160//14 166//14 168//14
f 162//7 164//7 167//7 165//7
f 164//4 157//4 168//4 167//4
f 169//1 170//1 171//1 172//1
f 173//14 170//14 169//14 174//14
f 175//2 176//2 177//2 178//2
f 175//44 178//44 179//44 180//44
f 180//45 179//45 181//45 182//45
f 182//46 181//46 183//46 184//46
f 183//14 173//14 174//14 184//14
f 185//3 186//3 187//3 188//3
f 189//4 190//4 191//4 192//4
f 186//2 185//2 193//2 194//2
f 195//47 196//47 197//47 198//47
f 199//48 200//48 201//48 202//48
f 200//49 186//49 194//49 201//49
f 196//14 199//14 202//14 197//14
f 203//50 195//50 198//50 190//50
f 189//1 204//1 203//1 190//1
f 177//4 205//4 173//4 183//4 181//4 179//4 178//4
f 205//51 171//51 170//51 173//51
f 206//1 207//1 208//1 209//1
f 197//4 202//4 210//4 211//4
f 190//4 198//4 212//4 191//4
f 202//4 201//4 213//4 210//4
f 198//4 197//4 211//4 212//4
f 201//4 194//4 206//4 213//4
f 194//4 193//4 207//4 206//4
f 214//4 215//4 216//4 217//4 218//4 209//4 208//4 219//4
f 211//7 210//7 217//7 216//7
f 191//52 212//52 215//52 214//52
f 210//53 213//53 218//53 217//53
f 192//2 191//2 214//2 219//2
f 212//54 211//54 216//54 215//54
f 213//55 206//55 209//55 218//55
f 196//3 195//3 220//3 221//3
f 186//3 200//3 222//3 187//3
f 199//3 196//3 221//3 223//3
f 195//3 203//3 224//3 220//3
f 203//3 204//3 225//3 224//3
f 200//3 199//3 223//3 222//3
f 226//1 172//1 171//1 227//1
f 228//7 229//7 226//7 227//7
f 230//2 231//2 177//2 176//2
f 230//56 232//56 233//56 231//56
f 232//57 234//57 235//57 233//57
f 234//58 236//58 237//58 235//58
f 237//7 236//7 229//7 228//7
f 185//3 188//3 238//3 239//3
f 189//4 192//4 240//4 241//4
f 239//2 242//2 193//2 185//2
f 243//53 244//53 245//53 246//53
f 247//54 248//54 249//54 250//54
f 250//52 249//52 242//52 239//52
f 246//7 245//7 248//7 247//7
f 251//55 241//55 244//55 243//55
f 189//1 241//1 251//1 204//1
f 177//4 231//4 233//4 235//4 237//4 228//4 205//4
f 205//51 228//51 227//51 171//51
f 252//1 253//1 208//1 207//1
f 245//4 254//4 255//4 248//4
f 241//4 240//4 256//4 244//4
f 248//4 255//4 257//4 249//4
f 244//4 256//4 254//4 245//4
f 249//4 257//4 252//4 242//4
f 242//4 252//4 207//4 193//4
f 258//4 219//4 208//4 253//4 259//4 260//4 261//4 262//4
f 254//14 261//14 260//14 255//14
f 240//49 258//49 262//49 256//49
f 255//47 260//47 259//47 257//47
f 192//2 219//2 258//2 240//2
f 256//48 262//48 261//48 254//48
f 257//50 259//50 253//50 252//50
f 246//3 263//3 264//3 243//3
f 239//3 238//3 265//3 250//3
f 247//3 266//3 263//3 246//3
f 243//3 264//3 267//3 251//3
f 251//3 267//3 225//3 204//3
f 250//3 265//3 266//3 247//3
