# Blender v3.5.0 OBJ File: 'Scene2.blend'
# www.blender.org
mtllib Turret_Cannon_Top_Cylinder_003.mtl
o Turret_Cannon_Top_Cylinder.003
v 6.864758 2.328346 -11.869763
v 6.864758 2.328346 -11.707736
v 7.030376 2.328346 -11.707736
v 7.030376 2.328346 -11.869763
v 6.806678 2.177975 -11.869763
v 7.088456 2.177975 -11.869763
v 7.088456 2.177975 -11.707736
v 6.806678 2.177975 -11.707736
v 6.796904 2.147649 -11.974844
v 6.796904 2.147649 -11.602655
v 7.098230 2.147649 -11.602655
v 7.098230 2.147649 -11.974844
v 7.098230 2.002146 -11.974844
v 6.796904 2.002146 -11.974844
v 6.796904 1.938078 -11.910777
v 7.098230 1.938078 -11.910777
v 7.098230 1.938078 -11.666722
v 6.796904 1.938078 -11.666722
v 7.098230 2.002146 -11.602655
v 7.098230 1.970112 -11.611238
v 7.098230 1.946662 -11.634688
v 7.098230 1.946662 -11.942811
v 7.098230 1.970112 -11.966261
v 6.796904 2.002146 -11.602655
v 6.796904 1.946662 -11.942811
v 6.796904 1.970112 -11.966261
v 6.796904 1.946662 -11.634688
v 6.796904 1.970112 -11.611238
v 6.786047 2.185089 -11.881628
v 6.786047 2.185089 -11.695871
v 7.109087 2.185089 -11.695871
v 7.109087 2.185089 -11.881628
v 6.786047 2.001183 -11.881628
v 7.109087 2.001183 -11.881628
v 7.109087 2.001183 -11.695871
v 6.786047 2.001183 -11.695871
v 6.841946 2.012979 -11.294919
v 6.841946 2.174484 -11.294919
v 6.841946 2.174484 -11.663815
v 6.841946 2.012979 -11.663815
v 6.850545 2.016445 -11.294919
v 6.850545 2.171019 -11.294919
v 6.849032 1.995874 -11.663815
v 6.849032 1.995874 -11.294919
v 6.866137 1.988788 -11.663815
v 6.866137 1.988788 -11.294919
v 6.866137 2.198675 -11.294919
v 6.866137 2.198675 -11.663815
v 6.849031 2.191590 -11.663815
v 6.849032 2.191590 -11.294919
v 6.947567 2.198675 -11.294919
v 6.947567 2.198675 -11.663815
v 6.947567 1.988788 -11.663815
v 6.947567 1.988788 -11.294919
v 6.947567 2.194171 -11.294919
v 6.873698 2.194171 -11.294919
v 6.873698 2.194171 -11.526483
v 6.947567 2.194171 -11.526483
v 6.873698 1.993292 -11.294919
v 6.857327 2.000073 -11.294919
v 6.947567 1.993292 -11.294919
v 6.857327 2.187390 -11.294919
v 6.857326 2.187390 -11.526483
v 6.850545 2.171019 -11.526483
v 6.850545 2.016445 -11.526483
v 6.857326 2.000073 -11.526483
v 6.873698 1.993292 -11.526483
v 6.947567 1.993292 -11.526483
v 6.913535 2.180610 -11.316268
v 6.913535 2.180610 -11.663815
v 6.947567 2.180610 -11.663815
v 6.947567 2.180610 -11.316268
v 6.913535 2.221056 -11.316268
v 6.947567 2.221056 -11.316268
v 6.947567 2.221056 -11.663815
v 6.913535 2.221056 -11.663815
v 6.913535 2.180610 -11.258348
v 6.947567 2.180610 -11.258348
v 6.947567 2.221056 -11.258348
v 6.913535 2.221056 -11.258348
v 6.913535 2.180610 -11.307100
v 6.913535 2.221056 -11.307100
v 6.913535 2.243643 -11.258348
v 6.913535 2.255199 -11.307100
v 6.947567 2.180610 -11.307100
v 6.913535 2.243643 -11.316268
v 6.947567 2.255199 -11.307100
v 6.947567 2.243643 -11.316268
v 6.947567 2.243643 -11.258348
v 7.053188 2.012979 -11.294919
v 7.053188 2.012979 -11.663815
v 7.053188 2.174484 -11.663815
v 7.053188 2.174484 -11.294919
v 7.044589 2.171019 -11.294919
v 7.044589 2.016445 -11.294919
v 7.046102 1.995874 -11.294919
v 7.046102 1.995874 -11.663815
v 7.028997 1.988788 -11.294919
v 7.028997 1.988788 -11.663815
v 7.028997 2.198675 -11.294919
v 7.046102 2.191590 -11.294919
v 7.046103 2.191590 -11.663815
v 7.028997 2.198675 -11.663815
v 7.021436 2.194171 -11.526483
v 7.021436 2.194171 -11.294919
v 7.037807 2.000073 -11.294919
v 7.021436 1.993292 -11.294919
v 7.037807 2.187390 -11.294919
v 7.021436 1.993292 -11.526483
v 7.037808 2.000073 -11.526483
v 7.044589 2.016445 -11.526483
v 7.044589 2.171019 -11.526483
v 7.037808 2.187390 -11.526483
v 6.981599 2.180610 -11.316268
v 6.981599 2.180610 -11.663815
v 6.981599 2.221056 -11.316268
v 6.981599 2.221056 -11.663815
v 6.981599 2.180610 -11.258348
v 6.981599 2.221056 -11.258348
v 6.981599 2.180610 -11.307100
v 6.981599 2.221056 -11.307100
v 6.981599 2.255199 -11.307100
v 6.981599 2.243643 -11.258348
v 6.981599 2.243643 -11.316268
v 6.989786 1.842797 -11.688270
v 7.025407 1.842797 -11.712071
v 7.018888 1.975101 -11.718590
v 6.986258 1.975101 -11.696787
v 6.905750 1.842797 -11.891150
v 6.870128 1.842797 -11.867350
v 6.876647 1.975101 -11.860830
v 6.909278 1.975101 -11.882634
v 6.947768 1.842797 -11.679912
v 6.947768 1.975101 -11.689131
v 6.989786 1.842797 -11.891150
v 6.947768 1.842797 -11.899508
v 6.947768 1.975101 -11.890289
v 6.986258 1.975101 -11.882634
v 6.905750 1.842797 -11.688270
v 6.909278 1.975101 -11.696787
v 7.025407 1.842797 -11.867350
v 7.018888 1.975101 -11.860830
v 6.870128 1.842797 -11.712071
v 6.876647 1.975101 -11.718590
v 7.049208 1.842797 -11.831729
v 7.040691 1.975101 -11.828200
v 6.846327 1.842797 -11.747693
v 6.854844 1.975101 -11.751221
v 7.057566 1.842797 -11.789711
v 7.048347 1.975101 -11.789711
v 6.837969 1.842797 -11.789711
v 6.847188 1.975101 -11.789711
v 7.049208 1.842797 -11.747693
v 7.040691 1.975101 -11.751221
v 6.846327 1.842797 -11.831729
v 6.854844 1.975101 -11.828200
v 6.830595 2.180352 -11.558336
v 6.876745 2.309134 -11.558336
v 6.876745 2.309134 -11.957194
v 6.830595 2.180352 -11.957194
v 7.018389 2.309134 -11.957194
v 7.064539 2.180352 -11.957194
v 7.018389 2.309134 -11.558336
v 7.064539 2.180352 -11.558336
v 7.064539 2.115918 -11.957194
v 6.830595 2.115918 -11.957194
v 7.064539 2.115918 -11.558336
v 6.830595 2.115918 -11.558336
v 6.820698 2.127519 -11.655480
v 6.820698 2.127519 -11.545085
v 6.947567 2.127519 -11.545085
v 6.947567 2.127519 -11.655480
v 6.820698 2.038476 -11.470841
v 6.820698 2.038476 -11.655480
v 6.870827 1.972026 -11.655480
v 6.947567 1.972026 -11.655480
v 6.947567 1.972026 -11.470841
v 6.870827 1.972026 -11.470841
v 6.845762 1.978742 -11.470841
v 6.845762 1.978742 -11.655480
v 6.827414 1.997090 -11.470841
v 6.827414 1.997090 -11.655480
v 6.820698 2.022154 -11.470841
v 6.820698 2.022154 -11.655480
v 6.947567 1.982333 -11.317386
v 6.863586 1.982333 -11.317386
v 6.870315 1.998453 -11.317386
v 6.947567 1.998453 -11.317386
v 6.947567 2.205131 -11.263977
v 6.863586 2.205131 -11.263977
v 6.878561 2.187218 -11.263977
v 6.947567 2.187218 -11.263977
v 6.947567 1.982333 -11.263977
v 6.863586 1.982333 -11.263977
v 6.844499 2.197609 -11.317386
v 6.836593 2.179452 -11.317386
v 6.836593 2.179452 -11.263977
v 6.844499 2.197609 -11.263977
v 6.836593 2.008012 -11.317386
v 6.844499 1.989854 -11.317386
v 6.844499 1.989854 -11.263977
v 6.836593 2.008012 -11.263977
v 6.863586 2.205131 -11.317386
v 6.947567 2.205131 -11.317386
v 6.947567 2.038476 -11.470841
v 6.878561 2.000245 -11.263977
v 6.947567 2.000245 -11.263977
v 6.947567 2.000245 -11.515457
v 6.878561 2.000245 -11.515457
v 6.855909 2.021795 -11.263977
v 6.855909 2.165668 -11.263977
v 6.862544 2.180906 -11.263977
v 6.862544 2.006557 -11.263977
v 6.878561 2.187218 -11.515457
v 6.862544 2.180906 -11.515457
v 6.855909 2.165668 -11.515457
v 6.855909 2.021795 -11.515457
v 6.862544 2.006557 -11.515457
v 6.947567 2.187218 -11.515457
v 6.853991 2.182577 -11.317386
v 6.847229 2.167047 -11.317386
v 6.853991 2.004886 -11.317386
v 6.847229 2.020416 -11.317386
v 6.870315 2.189010 -11.317386
v 6.947567 2.189010 -11.317386
v 7.074436 2.127519 -11.655480
v 7.074436 2.127519 -11.545085
v 7.074436 2.038476 -11.470841
v 7.074436 2.038476 -11.655480
v 7.024307 1.972026 -11.655480
v 7.024307 1.972026 -11.470841
v 7.049372 1.978742 -11.655480
v 7.049372 1.978742 -11.470841
v 7.067720 1.997090 -11.655480
v 7.067720 1.997090 -11.470841
v 7.074436 2.022154 -11.655480
v 7.074436 2.022154 -11.470841
v 7.024819 1.998453 -11.317386
v 7.031548 1.982333 -11.317386
v 7.016573 2.187218 -11.263977
v 7.031548 2.205131 -11.263977
v 7.031548 1.982333 -11.263977
v 7.050635 2.197609 -11.317386
v 7.050635 2.197609 -11.263977
v 7.058541 2.179452 -11.263977
v 7.058541 2.179452 -11.317386
v 7.058541 2.008012 -11.317386
v 7.058541 2.008012 -11.263977
v 7.050635 1.989854 -11.263977
v 7.050635 1.989854 -11.317386
v 7.031548 2.205131 -11.317386
v 7.016573 2.000245 -11.263977
v 7.016573 2.000245 -11.515457
v 7.039225 2.165668 -11.263977
v 7.039225 2.021795 -11.263977
v 7.032590 2.180906 -11.263977
v 7.032590 2.006557 -11.263977
v 7.016573 2.187218 -11.515457
v 7.032590 2.006557 -11.515457
v 7.039225 2.021795 -11.515457
v 7.039225 2.165668 -11.515457
v 7.032590 2.180906 -11.515457
v 7.047905 2.167047 -11.317386
v 7.041143 2.182577 -11.317386
v 7.041143 2.004886 -11.317386
v 7.047905 2.020416 -11.317386
v 7.024819 2.189010 -11.317386
vn 0.0000 1.0000 0.0000
vn 0.0000 -1.0000 0.0000
vn 0.0000 0.0000 -1.0000
vn 0.0000 0.0000 1.0000
vn 0.9328 0.3603 0.0000
vn -0.9328 0.3603 0.0000
vn 1.0000 -0.0000 0.0000
vn 0.0000 -0.9659 -0.2588
vn 0.0000 -0.7071 -0.7071
vn 0.0000 -0.2588 -0.9659
vn 0.0000 -0.9659 0.2588
vn 0.0000 -0.7071 0.7071
vn 0.0000 -0.2588 0.9659
vn -1.0000 0.0000 0.0000
vn -0.9239 -0.3827 0.0000
vn -0.3827 -0.9239 0.0000
vn -0.3827 0.9239 -0.0000
vn -0.9239 0.3827 0.0000
vn 0.9239 -0.3827 -0.0000
vn 0.3827 0.9239 -0.0000
vn 0.3827 -0.9239 -0.0000
vn 0.9239 0.3827 -0.0000
vn 0.0000 0.6215 -0.7834
vn 0.0000 0.9730 0.2306
vn 0.5543 0.0682 0.8295
vn -0.5543 0.0682 -0.8295
vn 0.1946 0.0682 0.9785
vn 0.1946 0.0682 -0.9785
vn -0.1946 0.0682 -0.9785
vn -0.1946 0.0682 0.9785
vn 0.5543 0.0682 -0.8295
vn -0.5543 0.0682 0.8295
vn 0.8295 0.0682 -0.5543
vn -0.8295 0.0682 0.5543
vn 0.9785 0.0682 -0.1946
vn -0.9785 0.0682 0.1946
vn 0.9785 0.0682 0.1946
vn -0.9785 0.0682 -0.1946
vn 0.8295 0.0682 0.5543
vn -0.8295 0.0682 -0.5543
vn -0.9414 0.3374 0.0000
vn 0.9414 0.3374 0.0000
vn -0.2588 -0.9659 0.0000
vn -0.7071 -0.7071 0.0000
vn -0.9659 -0.2588 0.0000
vn -0.9169 0.3992 0.0000
vn -0.9169 -0.3992 0.0000
vn -0.3666 -0.9304 0.0000
vn -0.3667 0.9304 0.0000
vn 0.0000 0.6404 0.7680
vn 0.3666 -0.9304 0.0000
vn 0.9169 0.3992 0.0000
vn 0.9169 -0.3992 0.0000
vn 0.3666 0.9304 0.0000
vn 0.2588 -0.9659 0.0000
vn 0.7071 -0.7071 0.0000
vn 0.9659 -0.2588 0.0000
vn 0.3667 0.9304 0.0000
vn -0.3666 0.9304 0.0000
usemtl LightGrey.009
s 1
f 1//1 2//1 3//1 4//1
f 5//2 6//2 7//2 8//2
f 4//3 6//3 5//3 1//3
f 2//4 8//4 7//4 3//4
f 3//5 7//5 6//5 4//5
f 1//6 5//6 8//6 2//6
f 9//1 10//1 11//1 12//1
f 9//3 12//3 13//3 14//3
f 15//2 16//2 17//2 18//2
f 12//7 11//7 19//7 20//7 21//7 17//7 16//7 22//7 23//7 13//7
f 11//4 10//4 24//4 19//4
f 16//8 15//8 25//8 22//8
f 22//9 25//9 26//9 23//9
f 23//10 26//10 14//10 13//10
f 18//11 17//11 21//11 27//11
f 27//12 21//12 20//12 28//12
f 28//13 20//13 19//13 24//13
f 10//14 9//14 14//14 26//14 25//14 15//14 18//14 27//14 28//14 24//14
f 29//1 30//1 31//1 32//1
f 33//2 34//2 35//2 36//2
f 29//3 32//3 34//3 33//3
f 31//4 30//4 36//4 35//4
f 32//7 31//7 35//7 34//7
f 30//14 29//14 33//14 36//14
f 37//14 38//14 39//14 40//14
f 38//4 37//4 41//4 42//4
f 37//15 40//15 43//15 44//15
f 44//16 43//16 45//16 46//16
f 47//17 48//17 49//17 50//17
f 50//18 49//18 39//18 38//18
f 47//1 51//1 52//1 48//1
f 53//2 54//2 46//2 45//2
f 55//2 56//2 57//2 58//2
f 44//4 46//4 59//4 60//4
f 46//4 54//4 61//4 59//4
f 37//4 44//4 60//4 41//4
f 50//4 38//4 42//4 62//4
f 51//4 47//4 56//4 55//4
f 47//4 50//4 62//4 56//4
f 57//4 63//4 64//4 65//4 66//4 67//4 68//4 58//4
f 62//19 42//19 64//19 63//19
f 60//20 59//20 67//20 66//20
f 59//1 61//1 68//1 67//1
f 42//7 41//7 65//7 64//7
f 56//21 62//21 63//21 57//21
f 41//22 60//22 66//22 65//22
f 69//2 70//2 71//2 72//2
f 73//1 74//1 75//1 76//1
f 71//3 70//3 76//3 75//3
f 77//4 78//4 79//4 80//4
f 81//14 77//14 80//14 82//14
f 70//14 69//14 73//14 76//14
f 82//14 80//14 83//14 84//14
f 81//2 69//2 72//2 85//2
f 77//2 81//2 85//2 78//2
f 73//14 82//14 84//14 86//14
f 69//14 81//14 82//14 73//14
f 84//23 87//23 88//23 86//23
f 83//24 89//24 87//24 84//24
f 80//4 79//4 89//4 83//4
f 74//3 73//3 86//3 88//3
f 90//7 91//7 92//7 93//7
f 93//4 94//4 95//4 90//4
f 90//19 96//19 97//19 91//19
f 96//21 98//21 99//21 97//21
f 100//20 101//20 102//20 103//20
f 101//22 93//22 92//22 102//22
f 100//1 103//1 52//1 51//1
f 53//2 99//2 98//2 54//2
f 55//2 58//2 104//2 105//2
f 96//4 106//4 107//4 98//4
f 98//4 107//4 61//4 54//4
f 90//4 95//4 106//4 96//4
f 101//4 108//4 94//4 93//4
f 51//4 55//4 105//4 100//4
f 100//4 105//4 108//4 101//4
f 104//4 58//4 68//4 109//4 110//4 111//4 112//4 113//4
f 108//15 113//15 112//15 94//15
f 106//17 110//17 109//17 107//17
f 107//1 109//1 68//1 61//1
f 94//14 112//14 111//14 95//14
f 105//16 104//16 113//16 108//16
f 95//18 111//18 110//18 106//18
f 114//2 72//2 71//2 115//2
f 116//1 117//1 75//1 74//1
f 71//3 75//3 117//3 115//3
f 118//4 119//4 79//4 78//4
f 120//7 121//7 119//7 118//7
f 115//7 117//7 116//7 114//7
f 121//7 122//7 123//7 119//7
f 120//2 85//2 72//2 114//2
f 118//2 78//2 85//2 120//2
f 116//7 124//7 122//7 121//7
f 114//7 116//7 121//7 120//7
f 122//23 124//23 88//23 87//23
f 123//24 122//24 87//24 89//24
f 119//4 123//4 89//4 79//4
f 74//3 88//3 124//3 116//3
usemtl Black.006
f 125//25 126//25 127//25 128//25
f 129//26 130//26 131//26 132//26
f 133//27 125//27 128//27 134//27
f 135//28 136//28 137//28 138//28
f 136//29 129//29 132//29 137//29
f 139//30 133//30 134//30 140//30
f 141//31 135//31 138//31 142//31
f 143//32 139//32 140//32 144//32
f 145//33 141//33 142//33 146//33
f 147//34 143//34 144//34 148//34
f 149//35 145//35 146//35 150//35
f 151//36 147//36 148//36 152//36
f 153//37 149//37 150//37 154//37
f 155//38 151//38 152//38 156//38
f 126//39 153//39 154//39 127//39
f 130//40 155//40 156//40 131//40
usemtl Grey.009
f 157//41 158//41 159//41 160//41
f 160//3 159//3 161//3 162//3
f 162//42 161//42 163//42 164//42
f 164//4 163//4 158//4 157//4
f 160//3 162//3 165//3 166//3
f 161//1 159//1 158//1 163//1
f 166//2 165//2 167//2 168//2
f 157//14 160//14 166//14 168//14
f 162//7 164//7 167//7 165//7
f 164//4 157//4 168//4 167//4
f 169//1 170//1 171//1 172//1
f 173//14 170//14 169//14 174//14
f 175//2 176//2 177//2 178//2
f 175//43 178//43 179//43 180//43
f 180//44 179//44 181//44 182//44
f 182//45 181//45 183//45 184//45
f 183//14 173//14 174//14 184//14
f 185//3 186//3 187//3 188//3
f 189//4 190//4 191//4 192//4
f 186//2 185//2 193//2 194//2
f 195//46 196//46 197//46 198//46
f 199//47 200//47 201//47 202//47
f 200//48 186//48 194//48 201//48
f 196//14 199//14 202//14 197//14
f 203//49 195//49 198//49 190//49
f 189//1 204//1 203//1 190//1
f 177//4 205//4 173//4 183//4 181//4 179//4 178//4
f 205//50 171//50 170//50 173//50
f 206//1 207//1 208//1 209//1
f 197//4 202//4 210//4 211//4
f 190//4 198//4 212//4 191//4
f 202//4 201//4 213//4 210//4
f 198//4 197//4 211//4 212//4
f 201//4 194//4 206//4 213//4
f 194//4 193//4 207//4 206//4
f 214//4 215//4 216//4 217//4 218//4 209//4 208//4 219//4
f 211//7 210//7 217//7 216//7
f 191//51 212//51 215//51 214//51
f 210//52 213//52 218//52 217//52
f 192//2 191//2 214//2 219//2
f 212//53 211//53 216//53 215//53
f 213//54 206//54 209//54 218//54
f 196//3 195//3 220//3 221//3
f 186//3 200//3 222//3 187//3
f 199//3 196//3 221//3 223//3
f 195//3 203//3 224//3 220//3
f 203//3 204//3 225//3 224//3
f 200//3 199//3 223//3 222//3
f 226//1 172//1 171//1 227//1
f 228//7 229//7 226//7 227//7
f 230//2 231//2 177//2 176//2
f 230//55 232//55 233//55 231//55
f 232//56 234//56 235//56 233//56
f 234//57 236//57 237//57 235//57
f 237//7 236//7 229//7 228//7
f 185//3 188//3 238//3 239//3
f 189//4 192//4 240//4 241//4
f 239//2 242//2 193//2 185//2
f 243//52 244//52 245//52 246//52
f 247//53 248//53 249//53 250//53
f 250//51 249//51 242//51 239//51
f 246//7 245//7 248//7 247//7
f 251//58 241//58 244//58 243//58
f 189//1 241//1 251//1 204//1
f 177//4 231//4 233//4 235//4 237//4 228//4 205//4
f 205//50 228//50 227//50 171//50
f 252//1 253//1 208//1 207//1
f 245//4 254//4 255//4 248//4
f 241//4 240//4 256//4 244//4
f 248//4 255//4 257//4 249//4
f 244//4 256//4 254//4 245//4
f 249//4 257//4 252//4 242//4
f 242//4 252//4 207//4 193//4
f 258//4 219//4 208//4 253//4 259//4 260//4 261//4 262//4
f 254//14 261//14 260//14 255//14
f 240//48 258//48 262//48 256//48
f 255//46 260//46 259//46 257//46
f 192//2 219//2 258//2 240//2
f 256//47 262//47 261//47 254//47
f 257//59 259//59 253//59 252//59
f 246//3 263//3 264//3 243//3
f 239//3 238//3 265//3 250//3
f 247//3 266//3 263//3 246//3
f 243//3 264//3 267//3 251//3
f 251//3 267//3 225//3 204//3
f 250//3 265//3 266//3 247//3
