# Blender v3.5.0 OBJ File: 'WhitmanWilson_LevelAssignment.blend'
# www.blender.org
mtllib Platform_4x4_Empty_Cube.mtl
o Platform_4x4_Empty_Cube.001
v -1.902745 -0.120266 1.918292
v -1.931593 0.103987 1.947140
v -1.902745 -0.120266 -1.918292
v -1.931593 0.103988 -1.947140
v 1.902747 -0.120266 1.918292
v 1.931595 0.103987 1.947140
v 1.902747 -0.120266 -1.918291
v 1.931595 0.103988 -1.947140
v -1.931593 0.033214 1.947140
v -1.931593 0.033214 -1.947140
v 1.931595 0.033214 -1.947140
v 1.931595 0.033214 1.947140
v -1.837062 0.103987 1.852610
v -1.837062 0.103988 -1.852609
v 1.837064 0.103988 -1.852609
v 1.837064 0.103987 1.852610
v -1.817648 0.081734 1.833196
v -1.817648 0.081734 -1.833195
v 1.817650 0.081734 -1.833195
v 1.817650 0.081734 1.833196
v -1.902745 0.012625 -1.918292
v 1.902747 0.012625 -1.918291
v 1.902747 0.012625 1.918292
v -1.902745 0.012625 1.918292
v -1.902744 -0.044928 -1.918292
v -1.902744 -0.062713 -1.918292
v 1.902747 -0.044928 -1.918291
v 1.902747 -0.062713 -1.918291
v 1.902747 -0.044928 1.918292
v 1.902747 -0.062713 1.918292
v -1.902744 -0.062713 1.918292
v -1.902744 -0.044928 1.918292
v -1.888466 -0.045050 -1.904012
v -1.888466 -0.062591 -1.904012
v 1.888468 -0.045050 -1.904012
v 1.888468 -0.062591 -1.904012
v 1.888468 -0.045050 1.904013
v 1.888468 -0.062591 1.904013
v -1.888465 -0.062591 1.904013
v -1.888465 -0.045050 1.904013
vt 0.000000 0.000000
vt 0.000000 0.000000
vt 0.000000 0.000000
vt 0.000000 0.000000
vt 0.000000 0.000000
vt 0.000000 0.000000
vt 0.000000 0.000000
vt 0.000000 0.000000
vt 0.000000 0.000000
vt 0.000000 0.000000
vt 0.000000 0.000000
vt 0.000000 0.000000
vt 0.000000 0.000000
vt 0.000000 0.000000
vt 0.000000 0.000000
vt 0.000000 0.000000
vt 0.000000 0.000000
vt 0.000000 0.000000
vt 0.000000 0.000000
vt 0.000000 0.000000
vt 0.000000 0.000000
vt 0.000000 0.000000
vt 0.000000 0.000000
vt 0.000000 0.000000
vt 0.000000 0.000000
vt 0.000000 0.000000
vt 0.000000 0.000000
vt 0.000000 0.000000
vt 0.000000 0.000000
vt 0.000000 0.000000
vt 0.000000 0.000000
vt 0.000000 0.000000
vt 0.000000 0.000000
vt 0.000000 0.000000
vt 0.000000 0.000000
vt 0.000000 0.000000
vt 0.000000 0.000000
vt 0.000000 0.000000
vt 0.000000 0.000000
vt 0.000000 0.000000
vt 0.496405 0.307686
vt 0.165603 0.281473
vt 0.482286 0.281473
vt 0.532599 0.307686
vt 0.835163 0.281473
vt 0.518481 0.281473
vt 0.521299 0.281473
vt 0.849534 0.307686
vt 0.835415 0.281473
vt 0.496657 0.307686
vt 0.168422 0.281473
vt 0.482538 0.281473
vt 0.179722 0.307686
vt 0.849282 0.307686
vt 0.535418 0.307686
vt 0.182541 0.307686
vn 0.0000 -1.0000 0.0000
vn 0.5809 -0.8140 0.0000
vn 0.0000 -0.8140 0.5809
vn -0.5809 -0.8140 0.0000
vn 0.0000 -0.8140 -0.5809
vn 0.0000 1.0000 0.0000
vn 0.0085 -1.0000 0.0000
vn 1.0000 0.0000 0.0000
vn 0.0000 0.0000 1.0000
vn 0.0000 -1.0000 -0.0085
vn -0.0085 -1.0000 0.0000
vn -1.0000 0.0000 0.0000
vn 0.0000 -0.0000 -1.0000
vn 0.0000 1.0000 0.0085
vn -0.0085 1.0000 0.0000
vn 0.0000 -1.0000 0.0085
vn 0.0085 1.0000 0.0000
vn 0.0000 1.0000 -0.0085
vn 0.0000 0.6574 -0.7535
vn -0.7535 0.6574 0.0000
vn 0.7536 0.6574 0.0000
vn 0.0000 0.6574 0.7536
vn 0.7535 0.6574 0.0000
usemtl Grey.009
s off
f 7/1/1 1/2/1 3/3/1
f 22/4/2 12/5/2 23/6/2
f 12/5/3 24/7/3 23/6/3
f 9/8/4 21/9/4 24/7/4
f 21/9/5 11/10/5 22/4/5
f 18/11/6 20/12/6 19/13/6
f 29/14/7 35/15/7 27/16/7
f 28/17/8 5/18/8 7/1/8
f 5/18/9 31/19/9 1/2/9
f 25/20/10 35/15/10 33/21/10
f 32/22/11 33/21/11 40/23/11
f 31/19/12 3/3/12 1/2/12
f 26/24/13 7/1/13 3/3/13
f 30/25/14 39/26/14 31/19/14
f 35/15/8 38/27/8 36/28/8
f 37/29/9 39/26/9 38/27/9
f 40/23/12 34/30/12 39/26/12
f 33/21/13 36/28/13 34/30/13
f 31/19/15 34/30/15 26/24/15
f 32/22/16 37/29/16 29/14/16
f 28/17/17 38/27/17 30/25/17
f 26/24/18 36/28/18 28/17/18
f 7/1/1 5/18/1 1/2/1
f 22/4/2 11/10/2 12/5/2
f 12/5/3 9/8/3 24/7/3
f 9/8/4 10/31/4 21/9/4
f 21/9/5 10/31/5 11/10/5
f 18/11/6 17/32/6 20/12/6
f 29/14/7 37/29/7 35/15/7
f 28/17/8 30/25/8 5/18/8
f 5/18/9 30/25/9 31/19/9
f 25/20/10 27/16/10 35/15/10
f 32/22/11 25/20/11 33/21/11
f 31/19/12 26/24/12 3/3/12
f 26/24/13 28/17/13 7/1/13
f 30/25/14 38/27/14 39/26/14
f 35/15/8 37/29/8 38/27/8
f 37/29/9 40/23/9 39/26/9
f 40/23/12 33/21/12 34/30/12
f 33/21/13 35/15/13 36/28/13
f 31/19/15 39/26/15 34/30/15
f 32/22/16 40/23/16 37/29/16
f 28/17/17 36/28/17 38/27/17
f 26/24/18 34/30/18 36/28/18
usemtl LightGrey.009
f 2/33/12 10/31/12 9/8/12
f 8/34/8 12/5/8 11/10/8
f 4/35/13 11/10/13 10/31/13
f 6/36/9 9/8/9 12/5/9
f 6/36/6 15/37/6 16/38/6
f 2/33/6 14/39/6 4/35/6
f 13/40/19 20/12/19 17/32/19
f 6/36/6 13/40/6 2/33/6
f 4/35/6 15/37/6 8/34/6
f 15/37/20 20/12/20 16/38/20
f 13/40/21 18/11/21 14/39/21
f 14/39/22 19/13/22 15/37/22
f 2/33/12 4/35/12 10/31/12
f 8/34/8 6/36/8 12/5/8
f 4/35/13 8/34/13 11/10/13
f 6/36/9 2/33/9 9/8/9
f 6/36/6 8/34/6 15/37/6
f 2/33/6 13/40/6 14/39/6
f 13/40/19 16/38/19 20/12/19
f 6/36/6 16/38/6 13/40/6
f 4/35/6 14/39/6 15/37/6
f 15/37/20 19/13/20 20/12/20
f 13/40/23 17/32/23 18/11/23
f 14/39/22 18/11/22 19/13/22
usemtl Texture_Signs.005
f 24/41/12 25/42/12 32/43/12
f 22/44/8 29/45/8 27/46/8
f 25/47/13 22/48/13 27/49/13
f 23/50/9 32/51/9 29/52/9
f 24/41/12 21/53/12 25/42/12
f 22/44/8 23/54/8 29/45/8
f 25/47/13 21/55/13 22/48/13
f 23/50/9 24/56/9 32/51/9
