# Blender v3.5.0 OBJ File: 'WhitmanWilson_LevelAssignment.blend'
# www.blender.org
mtllib Collectible_Board_Cube.mtl
o Collectible_Board_Cube.002
v -0.139035 0.049150 0.017279
v -0.041768 0.154260 0.017279
v -0.139035 0.049150 -0.017279
v -0.041768 0.154260 -0.017279
v 0.094361 -0.117205 0.015227
v 0.164504 -0.041406 0.015227
v 0.094361 -0.117205 -0.015227
v 0.164504 -0.041406 -0.015227
v -0.047059 -0.035963 -0.017279
v 0.059527 0.060523 -0.017279
v -0.047059 -0.035963 0.017279
v 0.059527 0.060523 0.017279
v 0.094662 0.028009 -0.017279
v 0.010429 -0.044321 0.017279
v 0.010429 -0.044321 -0.017279
v 0.094662 0.028009 0.017279
v -0.183073 0.008514 0.023390
v -0.022657 0.181865 0.023390
v -0.183073 0.008514 -0.023390
v -0.022657 0.181865 -0.023390
v -0.189467 0.014431 -0.023390
v -0.189467 0.014431 0.023390
v -0.029051 0.187781 0.023390
v -0.029051 0.187781 -0.023390
v -0.126929 0.049697 0.012283
v -0.126929 0.049697 -0.012283
v 0.088719 -0.107726 0.012283
v 0.088719 -0.107726 -0.012283
v -0.040502 -0.030281 -0.012283
v -0.040502 -0.030281 0.012283
v 0.013517 -0.038135 0.012283
v 0.013517 -0.038135 -0.012283
v -0.151944 0.022666 -0.012283
v -0.151944 0.022666 0.012283
v -0.065517 -0.057313 -0.012283
v 0.063704 -0.134757 0.012283
v 0.063704 -0.134757 -0.012283
v -0.011497 -0.065167 0.012283
v -0.011497 -0.065167 -0.012283
v -0.065517 -0.057313 0.012283
v -0.084813 0.107744 0.017279
v -0.084813 0.107744 -0.017279
v 0.124200 -0.084960 -0.015227
v 0.124200 -0.084960 0.015227
v 0.007163 0.022631 0.017279
v 0.007163 0.022631 -0.017279
v 0.042298 -0.009883 0.017279
v 0.042298 -0.009883 -0.017279
v -0.073208 0.120285 0.017279
v -0.073208 0.120285 -0.017279
v 0.135066 -0.073217 -0.015227
v 0.135066 -0.073217 0.015227
v 0.028087 0.026548 0.017279
v 0.028087 0.026548 -0.017279
v 0.063222 -0.005966 0.017279
v 0.063222 -0.005966 -0.017279
v -0.036888 -0.037442 -0.017279
v 0.065743 0.054771 0.017279
v 0.065743 0.054771 -0.017279
v -0.036888 -0.037442 0.017279
v 0.013379 0.016878 -0.017279
v 0.013379 0.016878 0.017279
v 0.034303 0.020796 -0.017279
v 0.034303 0.020796 0.017279
v 0.099790 0.023264 -0.017279
v 0.016233 -0.049692 0.017279
v 0.016233 -0.049692 -0.017279
v 0.099790 0.023264 0.017279
v 0.048102 -0.015253 0.017279
v 0.048102 -0.015253 -0.017279
v 0.068350 -0.010711 0.017279
v 0.068350 -0.010711 -0.017279
v 0.130421 -0.005081 -0.017279
v 0.055507 -0.086035 0.017279
v 0.087376 -0.051597 -0.017279
v 0.098981 -0.039056 -0.017279
v 0.055507 -0.086035 -0.017279
v 0.130421 -0.005081 0.017279
v 0.087376 -0.051597 0.017279
v 0.098981 -0.039056 0.017279
v 0.128908 -0.008465 -0.015227
v 0.058764 -0.084265 0.015227
v 0.088603 -0.052019 -0.015227
v 0.099470 -0.040277 -0.015227
v 0.058764 -0.084265 -0.015227
v 0.128908 -0.008465 0.015227
v 0.088603 -0.052019 0.015227
v 0.099470 -0.040277 0.015227
v -0.180460 0.014799 0.019497
v -0.028720 0.178774 0.019497
v -0.180460 0.014799 -0.019497
v -0.028720 0.178774 -0.019497
v -0.161043 -0.003170 -0.019497
v -0.161043 -0.003170 0.019497
v -0.009303 0.160805 0.019497
v -0.009303 0.160805 -0.019497
v -0.052849 -0.018856 -0.012283
v -0.065196 -0.007430 -0.012283
v -0.077543 0.003995 -0.012283
v -0.089889 0.015421 -0.012283
v -0.102236 0.026846 -0.012283
v -0.114583 0.038272 -0.012283
v -0.114583 0.038272 0.012283
v -0.102236 0.026846 0.012283
v -0.089889 0.015421 0.012283
v -0.077543 0.003995 0.012283
v -0.065196 -0.007430 0.012283
v -0.052849 -0.018856 0.012283
v -0.077864 -0.045887 -0.012283
v -0.090210 -0.034462 -0.012283
v -0.102557 -0.023036 -0.012283
v -0.114904 -0.011611 -0.012283
v -0.127250 -0.000185 -0.012283
v -0.139597 0.011240 -0.012283
v -0.139597 0.011240 0.012283
v -0.127251 -0.000185 0.012283
v -0.114904 -0.011611 0.012283
v -0.102557 -0.023036 0.012283
v -0.090210 -0.034462 0.012283
v -0.077864 -0.045887 0.012283
v -0.004489 -0.035517 -0.012283
v -0.022496 -0.032899 -0.012283
v -0.022496 -0.032899 0.012283
v -0.004489 -0.035517 0.012283
v -0.029504 -0.062549 -0.012283
v -0.047510 -0.059931 -0.012283
v -0.047510 -0.059931 0.012283
v -0.029504 -0.062549 0.012283
v 0.026051 -0.049734 0.012283
v 0.038584 -0.061332 0.012283
v 0.051118 -0.072930 0.012283
v 0.063652 -0.084529 0.012283
v 0.076185 -0.096127 0.012283
v 0.076185 -0.096127 -0.012283
v 0.063652 -0.084529 -0.012283
v 0.051118 -0.072930 -0.012283
v 0.038584 -0.061332 -0.012283
v 0.026051 -0.049734 -0.012283
v 0.001036 -0.076765 0.012283
v 0.013570 -0.088363 0.012283
v 0.026104 -0.099962 0.012283
v 0.038637 -0.111560 0.012283
v 0.051171 -0.123159 0.012283
v 0.051171 -0.123159 -0.012283
v 0.038637 -0.111560 -0.012283
v 0.026104 -0.099962 -0.012283
v 0.013570 -0.088363 -0.012283
v 0.001036 -0.076765 -0.012283
vn 0.0000 0.0000 -1.0000
vn 0.7340 -0.6792 0.0000
vn -0.6792 -0.7340 0.0000
vn -0.0000 0.0000 1.0000
vn 0.6792 0.7339 0.0000
vn -0.7340 0.6792 0.0000
vn -0.6792 -0.7339 0.0000
vn 0.6792 0.7340 0.0000
vn -0.1439 -0.9896 0.0000
vn 0.1439 0.9896 0.0000
vn 0.6352 -0.5878 0.5011
vn 0.9129 -0.4082 0.0000
vn 0.6351 -0.5878 0.5011
vn 0.6353 -0.5879 0.5008
vn 0.6353 -0.5879 -0.5008
vn 0.6351 -0.5878 -0.5011
vn 0.4775 -0.8786 0.0000
vn 0.6352 -0.5878 -0.5011
vn 0.6352 -0.5878 0.5010
vn 0.6352 -0.5878 -0.5010
vn 0.6791 0.7340 0.0000
vn -0.7339 0.6792 0.0000
vn 0.7339 -0.6792 0.0000
usemtl DarkGrey.003
s off
f 84//1 8//1 51//1
f 8//2 52//2 51//2
f 7//3 82//3 85//3
f 129//4 38//4 139//4
f 43//2 5//2 7//2
f 85//1 43//1 7//1
f 51//2 44//2 43//2
f 84//1 43//1 83//1
f 44//4 88//4 87//4
f 44//4 82//4 5//4
f 81//5 6//5 8//5
f 6//4 88//4 52//4
f 90//6 91//6 89//6
f 93//2 95//2 94//2
f 90//5 96//5 92//5
f 91//7 94//7 89//7
f 91//1 96//1 93//1
f 89//4 95//4 90//4
f 101//1 114//1 102//1
f 99//1 112//1 100//1
f 97//1 110//1 98//1
f 108//4 119//4 120//4
f 106//4 117//4 118//4
f 104//4 115//4 116//4
f 114//3 116//3 115//3
f 111//3 117//3 112//3
f 109//3 119//3 110//3
f 103//8 101//8 102//8
f 105//5 99//5 100//5
f 107//8 97//8 98//8
f 122//1 125//1 126//1
f 123//4 128//4 124//4
f 125//9 127//9 126//9
f 123//10 121//10 122//10
f 138//1 39//1 32//1
f 137//1 146//1 147//1
f 134//1 145//1 135//1
f 133//4 142//4 143//4
f 130//4 141//4 131//4
f 148//3 38//3 39//3
f 146//3 140//3 147//3
f 144//3 142//3 145//3
f 31//8 138//8 32//8
f 130//8 136//8 137//8
f 132//8 134//8 135//8
f 84//1 81//1 8//1
f 8//2 6//2 52//2
f 7//3 5//3 82//3
f 129//4 31//4 38//4
f 43//2 44//2 5//2
f 85//1 83//1 43//1
f 51//2 52//2 44//2
f 84//1 51//1 43//1
f 44//4 52//4 88//4
f 44//4 87//4 82//4
f 81//5 86//5 6//5
f 6//4 86//4 88//4
f 90//6 92//6 91//6
f 93//2 96//2 95//2
f 90//5 95//5 96//5
f 91//7 93//7 94//7
f 91//1 92//1 96//1
f 89//4 94//4 95//4
f 101//1 113//1 114//1
f 99//1 111//1 112//1
f 97//1 109//1 110//1
f 108//4 107//4 119//4
f 106//4 105//4 117//4
f 104//4 103//4 115//4
f 114//3 113//3 116//3
f 111//3 118//3 117//3
f 109//3 120//3 119//3
f 103//8 104//8 101//8
f 105//5 106//5 99//5
f 107//8 108//8 97//8
f 122//1 121//1 125//1
f 123//4 127//4 128//4
f 125//9 128//9 127//9
f 123//10 124//10 121//10
f 138//1 148//1 39//1
f 137//1 136//1 146//1
f 134//1 144//1 145//1
f 133//4 132//4 142//4
f 130//4 140//4 141//4
f 148//3 139//3 38//3
f 146//3 141//3 140//3
f 144//3 143//3 142//3
f 31//8 129//8 138//8
f 130//8 131//8 136//8
f 132//8 133//8 134//8
usemtl Green
f 2//6 50//6 49//6
f 12//4 49//4 53//4
f 4//8 12//8 10//8
f 9//3 1//3 3//3
f 4//1 54//1 50//1
f 15//9 60//9 57//9
f 63//1 13//1 56//1
f 61//1 15//1 57//1
f 42//1 9//1 3//1
f 11//4 41//4 1//4
f 41//6 3//6 1//6
f 63//1 48//1 61//1
f 50//1 46//1 42//1
f 45//4 49//4 41//4
f 49//6 42//6 41//6
f 47//4 64//4 62//4
f 14//4 62//4 60//4
f 16//4 64//4 55//4
f 59//5 16//5 13//5
f 79//4 71//4 69//4
f 74//4 69//4 66//4
f 65//8 78//8 73//8
f 80//4 68//4 71//4
f 86//11 80//11 88//11
f 73//12 86//12 81//12
f 82//13 79//13 74//13
f 88//14 79//14 87//14
f 72//1 75//1 70//1
f 70//1 77//1 67//1
f 77//3 66//3 67//3
f 65//1 76//1 72//1
f 75//15 84//15 83//15
f 75//16 85//16 77//16
f 85//17 74//17 77//17
f 76//18 81//18 84//18
f 2//6 4//6 50//6
f 12//4 2//4 49//4
f 4//8 2//8 12//8
f 9//3 11//3 1//3
f 4//1 10//1 54//1
f 15//9 14//9 60//9
f 63//1 59//1 13//1
f 61//1 48//1 15//1
f 42//1 46//1 9//1
f 11//4 45//4 41//4
f 41//6 42//6 3//6
f 63//1 56//1 48//1
f 50//1 54//1 46//1
f 45//4 53//4 49//4
f 49//6 50//6 42//6
f 47//4 55//4 64//4
f 14//4 47//4 62//4
f 16//4 58//4 64//4
f 59//5 58//5 16//5
f 79//4 80//4 71//4
f 74//4 79//4 69//4
f 65//8 68//8 78//8
f 80//4 78//4 68//4
f 86//19 78//19 80//19
f 73//12 78//12 86//12
f 82//14 87//14 79//14
f 88//11 80//11 79//11
f 72//1 76//1 75//1
f 70//1 75//1 77//1
f 77//3 74//3 66//3
f 65//1 73//1 76//1
f 75//18 76//18 84//18
f 75//15 83//15 85//15
f 85//17 82//17 74//17
f 76//20 73//20 81//20
usemtl Grey.003
f 19//2 18//2 17//2
f 23//6 21//6 22//6
f 17//4 23//4 22//4
f 20//21 23//21 18//21
f 17//3 21//3 19//3
f 19//1 24//1 20//1
f 19//2 20//2 18//2
f 23//6 24//6 21//6
f 17//4 18//4 23//4
f 20//21 24//21 23//21
f 17//3 22//3 21//3
f 19//1 21//1 24//1
usemtl Gold
f 10//8 58//8 59//8
f 64//4 12//4 53//4
f 71//4 16//4 55//4
f 13//8 68//8 65//8
f 133//8 28//8 134//8
f 108//8 29//8 97//8
f 124//10 32//10 121//10
f 37//3 143//3 144//3
f 35//3 120//3 109//3
f 39//9 128//9 125//9
f 26//22 34//22 25//22
f 30//4 127//4 123//4
f 103//4 34//4 115//4
f 97//1 35//1 109//1
f 28//1 144//1 134//1
f 121//1 39//1 125//1
f 27//23 37//23 28//23
f 66//4 47//4 14//4
f 60//4 45//4 11//4
f 69//4 55//4 47//4
f 62//4 53//4 45//4
f 54//1 61//1 46//1
f 46//1 57//1 9//1
f 10//1 63//1 54//1
f 57//9 11//9 9//9
f 56//1 70//1 48//1
f 48//1 67//1 15//1
f 67//3 14//3 15//3
f 13//1 72//1 56//1
f 102//1 33//1 26//1
f 100//1 113//1 101//1
f 98//1 111//1 99//1
f 108//4 40//4 30//4
f 107//4 118//4 119//4
f 104//4 117//4 105//4
f 114//3 34//3 33//3
f 113//7 117//7 116//7
f 110//3 118//3 111//3
f 25//8 102//8 26//8
f 104//8 100//8 101//8
f 106//8 98//8 99//8
f 29//1 126//1 35//1
f 124//4 38//4 31//4
f 126//9 40//9 35//9
f 30//10 122//10 29//10
f 138//1 147//1 148//1
f 135//1 146//1 136//1
f 27//4 143//4 36//4
f 132//4 141//4 142//4
f 129//4 140//4 130//4
f 147//3 139//3 148//3
f 145//3 141//3 146//3
f 129//8 137//8 138//8
f 131//8 135//8 136//8
f 10//8 12//8 58//8
f 64//4 58//4 12//4
f 71//4 68//4 16//4
f 13//8 16//8 68//8
f 133//8 27//8 28//8
f 108//8 30//8 29//8
f 124//10 31//10 32//10
f 37//3 36//3 143//3
f 35//3 40//3 120//3
f 39//9 38//9 128//9
f 26//22 33//22 34//22
f 30//4 40//4 127//4
f 103//4 25//4 34//4
f 97//1 29//1 35//1
f 28//1 37//1 144//1
f 121//1 32//1 39//1
f 27//23 36//23 37//23
f 66//4 69//4 47//4
f 60//4 62//4 45//4
f 69//4 71//4 55//4
f 62//4 64//4 53//4
f 54//1 63//1 61//1
f 46//1 61//1 57//1
f 10//1 59//1 63//1
f 57//9 60//9 11//9
f 56//1 72//1 70//1
f 48//1 70//1 67//1
f 67//3 66//3 14//3
f 13//1 65//1 72//1
f 102//1 114//1 33//1
f 100//1 112//1 113//1
f 98//1 110//1 111//1
f 108//4 120//4 40//4
f 107//4 106//4 118//4
f 104//4 116//4 117//4
f 114//7 115//7 34//7
f 113//7 112//7 117//7
f 110//3 119//3 118//3
f 25//8 103//8 102//8
f 104//8 105//8 100//8
f 106//8 107//8 98//8
f 29//1 122//1 126//1
f 124//4 128//4 38//4
f 126//9 127//9 40//9
f 30//10 123//10 122//10
f 138//1 137//1 147//1
f 135//1 145//1 146//1
f 27//4 133//4 143//4
f 132//4 131//4 141//4
f 129//4 139//4 140//4
f 147//3 140//3 139//3
f 145//3 142//3 141//3
f 129//8 130//8 137//8
f 131//8 132//8 135//8
