# Blender v3.5.0 OBJ File: 'WhitmanWilson_LevelAssignment.blend'
# www.blender.org
mtllib Sign_Corner_3_Fenced_Plane.mtl
o Sign_Corner_3_Fenced_Plane.001
v -1.016742 -0.320107 0.038523
v 0.030539 0.320107 -1.602169
v -1.016742 0.320107 0.038523
v 0.030539 -0.320107 -1.602169
v 0.030539 -0.320107 -0.245476
v -0.253460 -0.320107 0.038523
v 0.008921 -0.320107 -0.136794
v -0.052642 -0.320107 -0.044658
v -0.144778 -0.320107 0.016905
v -0.253460 0.320107 0.038523
v 0.030539 0.320107 -0.245476
v -0.144778 0.320107 0.016905
v -0.052642 0.320107 -0.044658
v 0.008921 0.320107 -0.136794
v -1.018983 -0.305717 -0.021917
v -0.052884 0.305717 -1.602808
v -1.018983 0.305717 -0.021917
v -0.052884 -0.305717 -1.602808
v -0.052884 -0.305717 -0.293149
v -0.324116 -0.305717 -0.021917
v -0.073530 -0.305717 -0.189353
v -0.132326 -0.305717 -0.101359
v -0.220320 -0.305717 -0.042563
v -0.324116 0.305717 -0.021917
v -0.052884 0.305717 -0.293149
v -0.220320 0.305717 -0.042563
v -0.132326 0.305717 -0.101359
v -0.073530 0.305717 -0.189353
v -1.052690 -0.363452 0.029844
v 0.023699 0.363452 -1.639351
v -1.052690 0.363452 0.029844
v 0.023699 -0.363452 -1.639351
v 0.021630 -0.363452 -0.246568
v -0.255054 -0.363452 0.027330
v 0.001357 -0.363452 -0.140089
v -0.058569 -0.363452 -0.050384
v -0.148753 -0.363452 0.008590
v -0.255054 0.363452 0.027330
v 0.021630 0.363452 -0.246568
v -0.148753 0.363452 0.008590
v -0.058569 0.363452 -0.050384
v 0.001357 0.363452 -0.140089
v -1.061791 -0.363452 -0.028768
v -0.058925 0.363452 -1.644507
v -1.061791 0.363452 -0.028768
v -0.058925 -0.363452 -1.644507
v -0.062046 -0.363452 -0.293788
v -0.324693 -0.363452 -0.034244
v -0.081294 -0.363452 -0.192332
v -0.138046 -0.363452 -0.107373
v -0.223406 -0.363452 -0.051978
v -0.324693 0.363452 -0.034244
v -0.062046 0.363452 -0.293788
v -0.223406 0.363452 -0.051978
v -0.138046 0.363452 -0.107373
v -0.081294 0.363452 -0.192331
v -1.015019 -0.311540 0.005789
v 0.004231 0.311539 -1.590989
v -1.015019 0.311539 0.005790
v 0.004231 -0.311540 -1.590989
v 0.004231 -0.311540 -0.270608
v -0.272166 -0.311540 0.005789
v -0.016808 -0.311540 -0.164835
v -0.076724 -0.311540 -0.075166
v -0.166393 -0.311540 -0.015250
v -0.272166 0.311539 0.005790
v 0.004231 0.311539 -0.270608
v -0.166393 0.311539 -0.015250
v -0.076724 0.311539 -0.075165
v -0.016808 0.311539 -0.164835
v 0.047590 0.246601 -1.592426
v -0.999691 0.246601 0.048266
v -0.236409 0.246601 0.048266
v 0.047590 0.246601 -0.235733
v -0.127728 0.246601 0.026648
v -0.035592 0.246601 -0.034915
v 0.025971 0.246601 -0.127051
v 0.047590 0.211221 -1.592426
v -0.999691 0.211221 0.048266
v -0.236409 0.211221 0.048266
v 0.047590 0.211221 -0.235733
v -0.127728 0.211221 0.026648
v -0.035592 0.211221 -0.034915
v 0.025971 0.211221 -0.127051
v 0.027590 0.246601 -1.592426
v -0.999691 0.246601 0.028266
v -0.238369 0.246601 0.028363
v 0.027686 0.246601 -0.237692
v -0.135381 0.246601 0.008171
v -0.049733 0.246601 -0.049057
v 0.007494 0.246601 -0.134704
v 0.027590 0.211221 -1.592426
v -0.999691 0.211221 0.028266
v -0.238369 0.211221 0.028363
v 0.027686 0.211221 -0.237692
v -0.135381 0.211221 0.008171
v -0.049733 0.211221 -0.049057
v 0.007494 0.211221 -0.134704
v 0.047590 0.101544 -1.592426
v -0.999691 0.101544 0.048266
v -0.236409 0.101544 0.048266
v 0.047590 0.101544 -0.235733
v -0.127728 0.101544 0.026648
v -0.035592 0.101544 -0.034915
v 0.025971 0.101544 -0.127051
v 0.047590 0.066165 -1.592426
v -0.999691 0.066165 0.048266
v -0.236409 0.066165 0.048266
v 0.047590 0.066165 -0.235733
v -0.127728 0.066165 0.026648
v -0.035592 0.066165 -0.034915
v 0.025971 0.066165 -0.127051
v 0.027590 0.101544 -1.592426
v -0.999691 0.101544 0.028266
v -0.238369 0.101544 0.028363
v 0.027686 0.101544 -0.237692
v -0.135381 0.101544 0.008171
v -0.049733 0.101544 -0.049057
v 0.007494 0.101544 -0.134704
v 0.027590 0.066165 -1.592426
v -0.999691 0.066165 0.028266
v -0.238369 0.066165 0.028363
v 0.027686 0.066165 -0.237692
v -0.135381 0.066165 0.008171
v -0.049733 0.066165 -0.049057
v 0.007494 0.066165 -0.134704
v 0.047590 -0.043512 -1.592426
v -0.999691 -0.043512 0.048266
v -0.236409 -0.043512 0.048266
v 0.047590 -0.043512 -0.235733
v -0.127728 -0.043512 0.026648
v -0.035592 -0.043512 -0.034915
v 0.025971 -0.043512 -0.127051
v 0.047590 -0.078892 -1.592426
v -0.999691 -0.078892 0.048266
v -0.236409 -0.078892 0.048266
v 0.047590 -0.078892 -0.235733
v -0.127728 -0.078892 0.026648
v -0.035592 -0.078892 -0.034915
v 0.025971 -0.078892 -0.127051
v 0.027590 -0.043512 -1.592426
v -0.999691 -0.043512 0.028266
v -0.238369 -0.043512 0.028363
v 0.027686 -0.043512 -0.237692
v -0.135381 -0.043512 0.008171
v -0.049733 -0.043512 -0.049057
v 0.007494 -0.043512 -0.134704
v 0.027590 -0.078892 -1.592426
v -0.999691 -0.078892 0.028266
v -0.238369 -0.078892 0.028363
v 0.027686 -0.078892 -0.237692
v -0.135381 -0.078892 0.008171
v -0.049733 -0.078892 -0.049057
v 0.007494 -0.078892 -0.134704
v 0.047590 -0.188569 -1.592426
v -0.999691 -0.188569 0.048266
v -0.236409 -0.188569 0.048266
v 0.047590 -0.188569 -0.235733
v -0.127728 -0.188569 0.026648
v -0.035592 -0.188569 -0.034915
v 0.025971 -0.188569 -0.127051
v 0.047590 -0.223948 -1.592426
v -0.999691 -0.223948 0.048266
v -0.236409 -0.223948 0.048266
v 0.047590 -0.223948 -0.235733
v -0.127728 -0.223948 0.026648
v -0.035592 -0.223948 -0.034915
v 0.025971 -0.223948 -0.127051
v 0.027590 -0.188569 -1.592426
v -0.999691 -0.188569 0.028266
v -0.238369 -0.188569 0.028363
v 0.027686 -0.188569 -0.237692
v -0.135381 -0.188569 0.008171
v -0.049733 -0.188569 -0.049057
v 0.007494 -0.188569 -0.134704
v 0.027590 -0.223948 -1.592426
v -0.999691 -0.223948 0.028266
v -0.238369 -0.223948 0.028363
v 0.027686 -0.223948 -0.237692
v -0.135381 -0.223948 0.008171
v -0.049733 -0.223948 -0.049057
v 0.007494 -0.223948 -0.134704
vt 0.422972 0.616585
vt 0.280257 0.736288
vt 0.280258 0.616585
vt 0.505847 0.736288
vt 0.485128 0.616585
vt 0.505847 0.616585
vt 0.485128 0.736288
vt 0.464409 0.616585
vt 0.464409 0.736288
vt 0.443690 0.616585
vt 0.443690 0.736288
vt 0.759513 0.736288
vt 0.422972 0.736288
vt 0.759513 0.616585
vt 0.000000 0.000000
vt 0.000000 0.000000
vt 0.000000 0.000000
vt 0.000000 0.000000
vt 0.000000 0.000000
vt 0.000000 0.000000
vt 0.000000 0.000000
vt 0.000000 0.000000
vt 0.000000 0.000000
vt 0.000000 0.000000
vt 0.000000 0.000000
vt 0.000000 0.000000
vt 0.000000 0.000000
vt 0.000000 0.000000
vt 0.000000 0.000000
vt 0.000000 0.000000
vt 0.000000 0.000000
vt 0.000000 0.000000
vt 0.000000 0.000000
vt 0.000000 0.000000
vt 0.000000 0.000000
vt 0.000000 0.000000
vt 0.000000 0.000000
vt 0.000000 0.000000
vt 0.000000 0.000000
vt 0.000000 0.000000
vt 0.000000 0.000000
vt 0.000000 0.000000
vt 0.000000 0.000000
vt 0.000000 0.000000
vt 0.000000 0.000000
vt 0.000000 0.000000
vt 0.000000 0.000000
vt 0.000000 0.000000
vt 0.000000 0.000000
vt 0.000000 0.000000
vt 0.000000 0.000000
vt 0.000000 0.000000
vt 0.000000 0.000000
vt 0.000000 0.000000
vt 0.000000 0.000000
vt 0.000000 0.000000
vt 0.000000 0.000000
vt 0.000000 0.000000
vt 0.000000 0.000000
vt 0.000000 0.000000
vt 0.000000 0.000000
vt 0.000000 0.000000
vt 0.000000 0.000000
vt 0.000000 0.000000
vt 0.000000 0.000000
vt 0.000000 0.000000
vt 0.000000 0.000000
vt 0.000000 0.000000
vt 0.000000 0.000000
vt 0.000000 0.000000
vt 0.000000 0.000000
vt 0.000000 0.000000
vt 0.000000 0.000000
vt 0.000000 0.000000
vt 0.000000 0.000000
vt 0.000000 0.000000
vt 0.000000 0.000000
vt 0.000000 0.000000
vt 0.000000 0.000000
vt 0.000000 0.000000
vt 0.000000 0.000000
vt 0.000000 0.000000
vt 0.000000 0.000000
vt 0.000000 0.000000
vt 0.000000 0.000000
vt 0.000000 0.000000
vt 0.000000 0.000000
vt 0.000000 0.000000
vt 0.000000 0.000000
vt 0.000000 0.000000
vt 0.000000 0.000000
vt 0.000000 0.000000
vt 0.000000 0.000000
vt 0.000000 0.000000
vt 0.000000 0.000000
vt 0.000000 0.000000
vt 0.000000 0.000000
vt 0.000000 0.000000
vt 0.000000 0.000000
vt 0.000000 0.000000
vt 0.000000 0.000000
vt 0.000000 0.000000
vt 0.000000 0.000000
vt 0.000000 0.000000
vt 0.000000 0.000000
vt 0.000000 0.000000
vt 0.000000 0.000000
vt 0.000000 0.000000
vt 0.000000 0.000000
vt 0.000000 0.000000
vt 0.000000 0.000000
vt 0.000000 0.000000
vt 0.000000 0.000000
vt 0.000000 0.000000
vt 0.000000 0.000000
vt 0.000000 0.000000
vt 0.000000 0.000000
vt 0.000000 0.000000
vt 0.000000 0.000000
vt 0.000000 0.000000
vt 0.000000 0.000000
vt 0.000000 0.000000
vt 0.000000 0.000000
vt 0.000000 0.000000
vt 0.000000 0.000000
vt 0.000000 0.000000
vt 0.000000 0.000000
vt 0.000000 0.000000
vt 0.000000 0.000000
vt 0.000000 0.000000
vt 0.000000 0.000000
vt 0.000000 0.000000
vt 0.000000 0.000000
vt 0.000000 0.000000
vt 0.000000 0.000000
vt 0.000000 0.000000
vt 0.000000 0.000000
vt 0.000000 0.000000
vt 0.000000 0.000000
vt 0.000000 0.000000
vt 0.000000 0.000000
vt 0.000000 0.000000
vt 0.000000 0.000000
vt 0.000000 0.000000
vt 0.000000 0.000000
vt 0.000000 0.000000
vt 0.000000 0.000000
vt 0.000000 0.000000
vt 0.000000 0.000000
vt 0.000000 0.000000
vt 0.000000 0.000000
vt 0.000000 0.000000
vt 0.000000 0.000000
vt 0.000000 0.000000
vt 0.000000 0.000000
vt 0.000000 0.000000
vt 0.000000 0.000000
vt 0.000000 0.000000
vt 0.000000 0.000000
vt 0.000000 0.000000
vt 0.000000 0.000000
vt 0.000000 0.000000
vt 0.000000 0.000000
vt 0.000000 0.000000
vt 0.000000 0.000000
vt 0.000000 0.000000
vt 0.000000 0.000000
vt 0.000000 0.000000
vt 0.000000 0.000000
vt 0.000000 0.000000
vt 0.000000 0.000000
vt 0.000000 0.000000
vt 0.000000 0.000000
vt 0.000000 0.000000
vt 0.000000 0.000000
vt 0.000000 0.000000
vt 0.000000 0.000000
vt 0.000000 0.000000
vt 0.000000 0.000000
vt 0.000000 0.000000
vt 0.000000 0.000000
vt 0.000000 0.000000
vn 0.0980 -0.0000 0.9952
vn 0.0000 -0.0000 1.0000
vn 0.9952 0.0000 0.0980
vn 0.9239 0.0000 0.3827
vn 0.7071 -0.0000 0.7071
vn 0.3827 -0.0000 0.9239
vn 1.0000 0.0000 0.0000
vn 0.1022 0.9890 0.1074
vn 0.0710 0.9864 0.1485
vn 0.1059 0.9891 0.1022
vn 0.0710 -0.9864 0.1485
vn 0.1022 -0.9890 0.1074
vn 0.1059 -0.9891 0.1022
vn 0.9993 0.0000 -0.0371
vn 0.0551 0.9842 0.1681
vn 0.0285 0.9794 0.1999
vn -0.0077 0.0000 1.0000
vn 0.0285 -0.9794 0.1999
vn 0.0551 -0.9842 0.1681
vn 0.1591 0.9871 0.0195
vn 0.1387 0.9889 0.0532
vn 0.1351 0.9891 0.0589
vn 0.1636 -0.9865 0.0114
vn 0.1700 -0.9854 0.0000
vn 0.1591 -0.9871 0.0195
vn 0.1387 -0.9889 0.0532
vn 0.1351 -0.9891 0.0589
vn 0.1700 0.9854 0.0000
vn 0.1636 0.9865 0.0114
vn 0.0103 0.9754 0.2202
vn 0.0000 0.9728 0.2316
vn 0.0000 -0.9728 0.2316
vn 0.0103 -0.9754 0.2202
vn 0.0000 -1.0000 0.0000
vn 0.0000 1.0000 0.0000
vn -0.9882 0.0000 0.1534
vn 0.0623 0.0000 -0.9981
vn -0.1219 0.0974 0.9878
vn -0.1034 -0.1121 0.9883
vn -0.1219 -0.0974 0.9878
vn 0.9927 -0.0769 -0.0933
vn 0.9929 0.0866 -0.0816
vn 0.9927 0.0769 -0.0933
vn 0.9753 -0.2003 0.0933
vn 0.9077 -0.1894 0.3744
vn 0.9750 -0.2022 0.0917
vn 0.9753 0.2003 0.0933
vn 0.9077 0.1894 0.3744
vn 0.9075 0.1869 0.3763
vn 0.9075 -0.1869 0.3763
vn 0.6932 -0.1897 0.6954
vn 0.6932 0.1897 0.6954
vn 0.6949 0.1868 0.6944
vn 0.3725 -0.2047 0.9052
vn 0.6949 -0.1868 0.6944
vn 0.3725 0.2047 0.9052
vn 0.3656 0.2140 0.9059
vn 0.0878 -0.2458 0.9653
vn 0.3656 -0.2140 0.9059
vn 0.0878 0.2458 0.9653
vn 0.0837 0.2511 0.9643
vn 0.9750 0.2022 0.0917
vn 0.9929 -0.0866 -0.0816
vn 0.0837 -0.2511 0.9643
vn -0.1034 0.1121 0.9883
vn 0.0810 0.0597 -0.9949
vn 0.0603 -0.0734 -0.9955
vn 0.0810 -0.0597 -0.9949
vn -0.9959 0.0500 0.0758
vn -0.9964 -0.0637 0.0561
vn -0.9964 0.0637 0.0561
vn -0.9835 0.1545 -0.0937
vn -0.9145 0.1450 -0.3778
vn -0.9146 0.1425 -0.3784
vn -0.9835 -0.1545 -0.0937
vn -0.9145 -0.1450 -0.3778
vn -0.9833 -0.1563 -0.0927
vn -0.6962 0.1462 -0.7028
vn -0.6955 0.1423 -0.7043
vn -0.6962 -0.1462 -0.7028
vn -0.9146 -0.1425 -0.3784
vn -0.3663 0.1649 -0.9158
vn -0.3685 0.1754 -0.9129
vn -0.3663 -0.1649 -0.9158
vn -0.6955 -0.1423 -0.7043
vn -0.0932 0.2001 -0.9753
vn -0.0952 0.2088 -0.9733
vn -0.3685 -0.1754 -0.9129
vn -0.0932 -0.2001 -0.9753
vn -0.9959 -0.0500 0.0758
vn -0.9833 0.1563 -0.0927
vn 0.0603 0.0734 -0.9955
vn -0.0952 -0.2088 -0.9733
vn -0.3814 0.0000 -0.9244
vn -0.0966 0.0000 -0.9953
vn -0.9244 0.0000 -0.3814
vn -0.7071 0.0000 -0.7071
vn -1.0000 0.0000 0.0001
vn -0.9953 0.0000 -0.0966
vn 0.0001 0.0000 -1.0000
vn 0.0000 0.0000 -1.0000
vn -1.0000 0.0000 0.0000
usemtl Texture_Signs.013
s 1
f 62/1/1 59/2/2 57/3/2
f 67/4/3 63/5/4 61/6/3
f 70/7/4 64/8/5 63/5/4
f 69/9/5 65/10/6 64/8/5
f 68/11/6 62/1/1 65/10/6
f 61/6/3 58/12/7 67/4/3
f 62/1/1 66/13/1 59/2/2
f 67/4/3 70/7/4 63/5/4
f 70/7/4 69/9/5 64/8/5
f 69/9/5 68/11/6 65/10/6
f 68/11/6 66/13/1 62/1/1
f 61/6/3 60/14/7 58/12/7
usemtl DarkGrey.010
f 22/15/8 9/16/9 8/17/10
f 12/18/11 27/19/12 13/20/13
f 15/21/14 3/22/14 1/23/14
f 23/24/15 6/25/16 9/16/9
f 16/26/17 4/27/17 2/28/17
f 10/29/18 26/30/19 12/18/11
f 5/31/20 21/32/21 7/33/22
f 25/34/23 2/28/24 11/35/25
f 28/36/26 11/35/25 14/37/27
f 4/27/28 19/38/29 5/31/20
f 7/33/22 22/15/8 8/17/10
f 20/39/30 1/23/31 6/25/16
f 27/19/12 14/37/27 13/20/13
f 3/22/32 24/40/33 10/29/18
f 37/41/34 50/42/34 36/43/34
f 40/44/35 55/45/35 54/46/35
f 31/47/36 43/48/36 29/49/36
f 34/50/34 51/51/34 37/41/34
f 32/52/37 44/53/37 30/54/37
f 38/55/35 54/46/35 52/56/35
f 33/57/34 49/58/34 47/59/34
f 30/54/35 53/60/35 39/61/35
f 39/61/35 56/62/35 42/63/35
f 32/52/34 47/59/34 46/64/34
f 35/65/34 50/42/34 49/58/34
f 29/49/34 48/66/34 34/50/34
f 42/63/35 55/45/35 41/67/35
f 31/47/35 52/56/35 45/68/35
f 3/22/38 29/49/39 1/23/40
f 4/27/41 30/54/42 2/28/43
f 5/31/44 35/65/45 33/57/46
f 11/35/47 42/63/48 14/37/49
f 7/33/50 36/43/51 35/65/45
f 14/37/49 41/67/52 13/20/53
f 9/16/54 36/43/51 8/17/55
f 12/18/56 41/67/52 40/44/57
f 6/25/58 37/41/59 9/16/54
f 10/29/60 40/44/57 38/55/61
f 2/28/43 39/61/62 11/35/47
f 4/27/41 33/57/46 32/52/63
f 1/23/40 34/50/64 6/25/58
f 3/22/38 38/55/61 31/47/65
f 15/21/66 45/68/67 17/69/68
f 18/70/69 44/53/70 46/64/71
f 19/38/72 49/58/73 21/32/74
f 25/34/75 56/62/76 53/60/77
f 22/15/78 49/58/73 50/42/79
f 27/19/80 56/62/76 28/36/81
f 22/15/78 51/51/82 23/24/83
f 27/19/80 54/46/84 55/45/85
f 23/24/83 48/66/86 20/39/87
f 26/30/88 52/56/89 54/46/84
f 16/26/90 53/60/77 44/53/70
f 18/70/69 47/59/91 19/38/72
f 15/21/66 48/66/86 43/48/92
f 17/69/68 52/56/89 24/40/93
f 80/71/1 75/72/6 73/73/1
f 83/74/5 77/75/4 76/76/5
f 81/77/3 71/78/7 74/79/3
f 82/80/6 76/76/5 75/72/6
f 84/81/4 74/79/3 77/75/4
f 79/82/2 73/73/1 72/83/2
f 89/84/94 94/85/95 87/86/95
f 91/87/96 97/88/97 90/89/97
f 85/90/98 95/91/99 88/92/99
f 90/89/97 96/93/94 89/84/94
f 88/92/99 98/94/96 91/87/96
f 87/86/95 93/95/100 86/96/100
f 74/79/35 91/87/35 77/75/35
f 77/75/35 90/89/35 76/76/35
f 76/76/35 89/84/35 75/72/35
f 73/73/35 89/84/35 87/86/35
f 71/78/35 88/92/35 74/79/35
f 72/83/35 87/86/35 86/96/35
f 81/77/34 98/94/34 95/91/34
f 84/81/34 97/88/34 98/94/34
f 83/74/34 96/93/34 97/88/34
f 80/71/34 96/93/34 82/80/34
f 78/97/34 95/91/34 92/98/34
f 79/82/34 94/85/34 80/71/34
f 78/97/101 85/90/101 71/78/101
f 72/83/102 93/95/102 79/82/102
f 108/99/1 103/100/6 101/101/1
f 111/102/5 105/103/4 104/104/5
f 109/105/3 99/106/7 102/107/3
f 110/108/6 104/104/5 103/100/6
f 112/109/4 102/107/3 105/103/4
f 107/110/2 101/101/1 100/111/2
f 117/112/94 122/113/95 115/114/95
f 119/115/96 125/116/97 118/117/97
f 113/118/98 123/119/99 116/120/99
f 118/117/97 124/121/94 117/112/94
f 116/120/99 126/122/96 119/115/96
f 115/114/95 121/123/100 114/124/100
f 102/107/35 119/115/35 105/103/35
f 105/103/35 118/117/35 104/104/35
f 104/104/35 117/112/35 103/100/35
f 101/101/35 117/112/35 115/114/35
f 99/106/35 116/120/35 102/107/35
f 100/111/35 115/114/35 114/124/35
f 109/105/34 126/122/34 123/119/34
f 112/109/34 125/116/34 126/122/34
f 111/102/34 124/121/34 125/116/34
f 108/99/34 124/121/34 110/108/34
f 106/125/34 123/119/34 120/126/34
f 107/110/34 122/113/34 108/99/34
f 106/125/101 113/118/101 99/106/101
f 100/111/102 121/123/102 107/110/102
f 136/127/1 131/128/6 129/129/1
f 139/130/5 133/131/4 132/132/5
f 137/133/3 127/134/7 130/135/3
f 138/136/6 132/132/5 131/128/6
f 140/137/4 130/135/3 133/131/4
f 135/138/2 129/129/1 128/139/2
f 145/140/94 150/141/95 143/142/95
f 147/143/96 153/144/97 146/145/97
f 141/146/98 151/147/99 144/148/99
f 146/145/97 152/149/94 145/140/94
f 144/148/99 154/150/96 147/143/96
f 143/142/95 149/151/100 142/152/100
f 130/135/35 147/143/35 133/131/35
f 133/131/35 146/145/35 132/132/35
f 132/132/35 145/140/35 131/128/35
f 129/129/35 145/140/35 143/142/35
f 127/134/35 144/148/35 130/135/35
f 128/139/35 143/142/35 142/152/35
f 137/133/34 154/150/34 151/147/34
f 140/137/34 153/144/34 154/150/34
f 139/130/34 152/149/34 153/144/34
f 136/127/34 152/149/34 138/136/34
f 134/153/34 151/147/34 148/154/34
f 135/138/34 150/141/34 136/127/34
f 134/153/101 141/146/101 127/134/101
f 128/139/102 149/151/102 135/138/102
f 164/155/1 159/156/6 157/157/1
f 167/158/5 161/159/4 160/160/5
f 165/161/3 155/162/7 158/163/3
f 166/164/6 160/160/5 159/156/6
f 168/165/4 158/163/3 161/159/4
f 163/166/2 157/157/1 156/167/2
f 173/168/94 178/169/95 171/170/95
f 175/171/96 181/172/97 174/173/97
f 169/174/98 179/175/99 172/176/99
f 174/173/97 180/177/94 173/168/94
f 172/176/99 182/178/96 175/171/96
f 171/170/95 177/179/100 170/180/100
f 158/163/35 175/171/35 161/159/35
f 161/159/35 174/173/35 160/160/35
f 160/160/35 173/168/35 159/156/35
f 157/157/35 173/168/35 171/170/35
f 155/162/35 172/176/35 158/163/35
f 156/167/35 171/170/35 170/180/35
f 165/161/34 182/178/34 179/175/34
f 168/165/34 181/172/34 182/178/34
f 167/158/34 180/177/34 181/172/34
f 164/155/34 180/177/34 166/164/34
f 162/181/34 179/175/34 176/182/34
f 163/166/34 178/169/34 164/155/34
f 162/181/101 169/174/101 155/162/101
f 156/167/102 177/179/102 163/166/102
f 22/15/8 23/24/15 9/16/9
f 12/18/11 26/30/19 27/19/12
f 15/21/14 17/69/14 3/22/14
f 23/24/15 20/39/30 6/25/16
f 16/26/17 18/70/17 4/27/17
f 10/29/18 24/40/33 26/30/19
f 5/31/20 19/38/29 21/32/21
f 25/34/23 16/26/24 2/28/24
f 28/36/26 25/34/23 11/35/25
f 4/27/28 18/70/28 19/38/29
f 7/33/22 21/32/21 22/15/8
f 20/39/30 15/21/31 1/23/31
f 27/19/12 28/36/26 14/37/27
f 3/22/32 17/69/32 24/40/33
f 37/41/34 51/51/34 50/42/34
f 40/44/35 41/67/35 55/45/35
f 31/47/36 45/68/36 43/48/36
f 34/50/34 48/66/34 51/51/34
f 32/52/37 46/64/37 44/53/37
f 38/55/35 40/44/35 54/46/35
f 33/57/34 35/65/34 49/58/34
f 30/54/35 44/53/35 53/60/35
f 39/61/35 53/60/35 56/62/35
f 32/52/34 33/57/34 47/59/34
f 35/65/34 36/43/34 50/42/34
f 29/49/34 43/48/34 48/66/34
f 42/63/35 56/62/35 55/45/35
f 31/47/35 38/55/35 52/56/35
f 3/22/38 31/47/65 29/49/39
f 4/27/41 32/52/63 30/54/42
f 5/31/44 7/33/50 35/65/45
f 11/35/47 39/61/62 42/63/48
f 7/33/50 8/17/55 36/43/51
f 14/37/49 42/63/48 41/67/52
f 9/16/54 37/41/59 36/43/51
f 12/18/56 13/20/53 41/67/52
f 6/25/58 34/50/64 37/41/59
f 10/29/60 12/18/56 40/44/57
f 2/28/43 30/54/42 39/61/62
f 4/27/41 5/31/44 33/57/46
f 1/23/40 29/49/39 34/50/64
f 3/22/38 10/29/60 38/55/61
f 15/21/66 43/48/92 45/68/67
f 18/70/69 16/26/90 44/53/70
f 19/38/72 47/59/91 49/58/73
f 25/34/75 28/36/81 56/62/76
f 22/15/78 21/32/74 49/58/73
f 27/19/80 55/45/85 56/62/76
f 22/15/78 50/42/79 51/51/82
f 27/19/80 26/30/88 54/46/84
f 23/24/83 51/51/82 48/66/86
f 26/30/88 24/40/93 52/56/89
f 16/26/90 25/34/75 53/60/77
f 18/70/69 46/64/71 47/59/91
f 15/21/66 20/39/87 48/66/86
f 17/69/68 45/68/67 52/56/89
f 80/71/1 82/80/6 75/72/6
f 83/74/5 84/81/4 77/75/4
f 81/77/3 78/97/7 71/78/7
f 82/80/6 83/74/5 76/76/5
f 84/81/4 81/77/3 74/79/3
f 79/82/2 80/71/1 73/73/1
f 89/84/94 96/93/94 94/85/95
f 91/87/96 98/94/96 97/88/97
f 85/90/98 92/98/98 95/91/99
f 90/89/97 97/88/97 96/93/94
f 88/92/99 95/91/99 98/94/96
f 87/86/95 94/85/95 93/95/100
f 74/79/35 88/92/35 91/87/35
f 77/75/35 91/87/35 90/89/35
f 76/76/35 90/89/35 89/84/35
f 73/73/35 75/72/35 89/84/35
f 71/78/35 85/90/35 88/92/35
f 72/83/35 73/73/35 87/86/35
f 81/77/34 84/81/34 98/94/34
f 84/81/34 83/74/34 97/88/34
f 83/74/34 82/80/34 96/93/34
f 80/71/34 94/85/34 96/93/34
f 78/97/34 81/77/34 95/91/34
f 79/82/34 93/95/34 94/85/34
f 78/97/101 92/98/101 85/90/101
f 72/83/102 86/96/102 93/95/102
f 108/99/1 110/108/6 103/100/6
f 111/102/5 112/109/4 105/103/4
f 109/105/3 106/125/7 99/106/7
f 110/108/6 111/102/5 104/104/5
f 112/109/4 109/105/3 102/107/3
f 107/110/2 108/99/1 101/101/1
f 117/112/94 124/121/94 122/113/95
f 119/115/96 126/122/96 125/116/97
f 113/118/98 120/126/98 123/119/99
f 118/117/97 125/116/97 124/121/94
f 116/120/99 123/119/99 126/122/96
f 115/114/95 122/113/95 121/123/100
f 102/107/35 116/120/35 119/115/35
f 105/103/35 119/115/35 118/117/35
f 104/104/35 118/117/35 117/112/35
f 101/101/35 103/100/35 117/112/35
f 99/106/35 113/118/35 116/120/35
f 100/111/35 101/101/35 115/114/35
f 109/105/34 112/109/34 126/122/34
f 112/109/34 111/102/34 125/116/34
f 111/102/34 110/108/34 124/121/34
f 108/99/34 122/113/34 124/121/34
f 106/125/34 109/105/34 123/119/34
f 107/110/34 121/123/34 122/113/34
f 106/125/101 120/126/101 113/118/101
f 100/111/102 114/124/102 121/123/102
f 136/127/1 138/136/6 131/128/6
f 139/130/5 140/137/4 133/131/4
f 137/133/3 134/153/7 127/134/7
f 138/136/6 139/130/5 132/132/5
f 140/137/4 137/133/3 130/135/3
f 135/138/2 136/127/1 129/129/1
f 145/140/94 152/149/94 150/141/95
f 147/143/96 154/150/96 153/144/97
f 141/146/98 148/154/98 151/147/99
f 146/145/97 153/144/97 152/149/94
f 144/148/99 151/147/99 154/150/96
f 143/142/95 150/141/95 149/151/100
f 130/135/35 144/148/35 147/143/35
f 133/131/35 147/143/35 146/145/35
f 132/132/35 146/145/35 145/140/35
f 129/129/35 131/128/35 145/140/35
f 127/134/35 141/146/35 144/148/35
f 128/139/35 129/129/35 143/142/35
f 137/133/34 140/137/34 154/150/34
f 140/137/34 139/130/34 153/144/34
f 139/130/34 138/136/34 152/149/34
f 136/127/34 150/141/34 152/149/34
f 134/153/34 137/133/34 151/147/34
f 135/138/34 149/151/34 150/141/34
f 134/153/101 148/154/101 141/146/101
f 128/139/102 142/152/102 149/151/102
f 164/155/1 166/164/6 159/156/6
f 167/158/5 168/165/4 161/159/4
f 165/161/3 162/181/7 155/162/7
f 166/164/6 167/158/5 160/160/5
f 168/165/4 165/161/3 158/163/3
f 163/166/2 164/155/1 157/157/1
f 173/168/94 180/177/94 178/169/95
f 175/171/96 182/178/96 181/172/97
f 169/174/98 176/182/98 179/175/99
f 174/173/97 181/172/97 180/177/94
f 172/176/99 179/175/99 182/178/96
f 171/170/95 178/169/95 177/179/100
f 158/163/35 172/176/35 175/171/35
f 161/159/35 175/171/35 174/173/35
f 160/160/35 174/173/35 173/168/35
f 157/157/35 159/156/35 173/168/35
f 155/162/35 169/174/35 172/176/35
f 156/167/35 157/157/35 171/170/35
f 165/161/34 168/165/34 182/178/34
f 168/165/34 167/158/34 181/172/34
f 167/158/34 166/164/34 180/177/34
f 164/155/34 178/169/34 180/177/34
f 162/181/34 165/161/34 179/175/34
f 163/166/34 177/179/34 178/169/34
f 162/181/101 176/182/101 169/174/101
f 156/167/102 170/180/102 177/179/102
